<?xml version="1.0" encoding="UTF-8"?><svg id="Layer_1" xmlns="http://www.w3.org/2000/svg" viewBox="0 0 827.79 403.59"><path d="M213.02,175.49c-.61,0-.88.34-.88.96v4.03c0,.62.27.89.88.89h3.39c.61,0,.88-.27.88-.89v-4.03c0-.62-.27-.96-.88-.96h-3.39Z" style="fill:#fff;"/><path d="M210.58,168.99h23.76c1.35,0,2.5-1.09,2.5-2.46v-28.15c0-3.48,2.84-6.35,6.3-6.35s6.29,2.87,6.29,6.35v20.09c0,1.37,1.15,2.53,2.5,2.53h21.99c2.64,0,4.74-.75,6.3-2.32.07-.07.2-.27.2-.34,0,.07.07.07.14.14,1.63,1.64,4.13,2.53,7.45,2.53h36.01c7.18,0,11.51-4.37,11.51-11.61v-6.56c0-9.16-5.08-15.78-13.88-15.78-4.87,0-10.7,3.21-17.4,9.49v-23.98c0-.62-.27-.96-.88-.96h-3.11c-.61,0-1.02.34-1.02.96v43.46h-12.11c-1.96,0-3.32-.41-4-1.09-.41-.41-.54-.96-.54-1.71v-23.91c0-.62-.34-.96-.95-.96h-3.11c-.61,0-.95.34-.95.96v22.96c0,2.53-1.08,3.76-3.52,3.76h-19.69v-17.63c0-3.14-1.08-5.81-3.32-7.99-2.24-2.25-4.81-3.35-7.92-3.35s-5.82,1.09-7.99,3.35c-2.24,2.19-3.25,4.85-3.25,7.99v25.62h-21.19c-5.28,0-9.68-4.44-9.68-9.77,0-4.17,2.57-7.52,5.49-9.02l1.42-.75c.34-.2.47-.41.47-.75,0-.14-.07-.27-.14-.48l-1.42-2.87c-.14-.27-.41-.48-.81-.48-.14,0-.27,0-.41.07l-1.42.75c-4.33,2.26-8.13,7.24-8.13,13.53,0,4.1,1.42,7.58,4.27,10.45,2.91,2.87,6.3,4.3,10.22,4.3ZM304.25,143.3c2.43-3.08,5.35-5.74,8.8-7.93,3.45-2.19,6.29-3.35,8.6-3.35,3.52,0,6.1,1.5,7.58,4.44.88,1.78,1.35,3.96,1.35,6.36v6.56c0,4.58-2.03,6.63-6.57,6.63h-19.76v-12.71Z" style="fill:#fff;"/><path d="M222.09,175.49c-.61,0-.95.34-.95.96v4.03c0,.62.34.89.95.89h3.32c.61,0,.88-.27.88-.89v-4.03c0-.62-.27-.96-.88-.96h-3.32Z" style="fill:#fff;"/><path d="M278.4,120.27h3.32c.61,0,.95-.27.95-.89v-4.03c0-.62-.34-.96-.95-.96h-3.32c-.61,0-.88.34-.88.96v4.03c0,.61.27.89.88.89Z" style="fill:#fff;"/><path d="M398.32,112.62c0-.62-.27-.96-.88-.96h-3.18c-.61,0-.88.34-.88.96v39.7c0,2.46-1.08,3.62-3.59,3.69h-15.76v-14.55c0-3.97-1.42-7.38-4.2-10.18-2.78-2.8-6.16-4.24-10.09-4.24s-7.38,1.43-10.16,4.24c-2.78,2.8-4.2,6.21-4.2,10.18v5.13c0,3.96,1.42,7.38,4.2,10.18,2.78,2.8,6.23,4.24,10.16,4.24h9.27v.82c0,4.51-3.86,8.41-8.32,8.41h-7.04c-.54,0-.88.27-.88.89v3.21c0,.62.34.89.88.89h7.04c3.59,0,6.7-1.3,9.34-3.96s3.99-5.81,3.99-9.43v-.82h15.69c5.21,0,8.6-3.35,8.6-8.68v-39.7ZM369.02,156.01h-9.27c-5.08,0-9.34-4.3-9.34-9.43v-5.13c0-5.13,4.27-9.43,9.34-9.43s9.27,4.3,9.27,9.43v14.55Z" style="fill:#fff;"/><path d="M410.09,161h3.25c.54,0,.81-.27.81-.89v-47.55c0-.62-.27-.89-.81-.89h-3.25c-.61,0-.88.27-.88.89v47.55c0,.62.27.89.88.89Z" style="fill:#fff;"/><path d="M435.13,175.21h3.39c7.17,0,11.58-4.37,11.58-11.61v-2.6h40.2c5.28,0,8.6-3.35,8.6-8.68v-6.49c0-4.44-1.35-8.13-4.2-11.07-2.84-2.94-6.43-4.37-10.77-4.37h-12.66c.75-7.38,4.67-11.14,11.71-11.14h5.62c.61,0,.88-.27.88-.89v-3.21c0-.61-.27-.89-.88-.89h-5.62c-10.9,0-16.79,7.45-16.79,18.65,0,1.37,1.15,2.46,2.5,2.46h15.23c6.02,0,10.02,4.3,10.02,10.45v6.49c0,2.53-1.22,3.69-3.72,3.69h-40.13v-26.65c0-.62-.34-.96-.95-.96h-3.18c-.61,0-.88.34-.88.96v34.24c0,4.58-2.03,6.63-6.56,6.63h-3.39c-.61,0-.88.27-.88.89v3.21c0,.62.27.89.88.89Z" style="fill:#fff;"/><path d="M445.96,120.27h3.32c.61,0,.95-.27.95-.89v-4.03c0-.62-.34-.96-.95-.96h-3.32c-.61,0-.88.34-.88.96v4.03c0,.61.27.89.88.89Z" style="fill:#fff;"/><path d="M503.07,175.21h3.39c7.17,0,11.58-4.37,11.58-11.61v-2.6h33.03c3.72,0,7.04-1.3,9.82-3.96,1.69,2.53,4.6,3.96,8.12,3.96h10.27c5.21,0,8.6-3.35,8.6-8.68v-39.7c0-.62-.27-.96-.88-.96h-3.18c-.61,0-.88.34-.88.96v39.7c0,2.46-1.08,3.62-3.59,3.69h-11.29c-2.24,0-3.86-.89-4.33-2.73,1.08-2.12,1.62-4.31,1.62-6.7v-5.13c0-3.97-1.42-7.45-4.2-10.25-2.78-2.8-6.16-4.24-10.09-4.24s-7.31,1.43-10.09,4.24c-2.78,2.8-4.2,6.29-4.2,10.25v14.55h-18.74v-26.65c0-.62-.34-.96-.95-.96h-3.12c-.61,0-.95.34-.95.96v34.24c0,4.58-2.03,6.63-6.56,6.63h-3.39c-.61,0-.88.27-.88.89v3.21c0,.62.27.89.88.89ZM541.72,141.46c0-5.13,4.2-9.43,9.34-9.43s9.34,4.24,9.34,9.43v5.13c0,5.19-4.2,9.43-9.34,9.43h-9.34v-14.55Z" style="fill:#fff;"/><path d="M602.9,111.67h-3.25c-.61,0-.88.27-.88.89v47.55c0,.62.27.89.88.89h3.25c.54,0,.81-.27.81-.89v-47.55c0-.62-.27-.89-.81-.89Z" style="fill:#fff;"/><path d="M91.02,259.86c.62,0,.9-.27.9-.89v-4.05c0-.62-.28-.96-.9-.96h-3.44c-.62,0-.9.34-.9.96v4.05c0,.62.28.89.9.89h3.44Z" style="fill:#fff;"/><path d="M101.07,258.97v-4.05c0-.62-.27-.96-.89-.96h-3.37c-.62,0-.96.34-.96.96v4.05c0,.62.34.89.96.89h3.37c.62,0,.89-.27.89-.89Z" style="fill:#fff;"/><path d="M154.05,206.66h-3.17c-.62,0-.96.34-.96.96v23.1c0,2.54-1.1,3.64-3.58,3.7h-16.7v-17.69c0-3.15-1.1-5.83-3.37-8.02-2.27-2.26-4.89-3.36-8.05-3.36s-5.92,1.1-8.12,3.36c-2.27,2.19-3.3,4.87-3.3,8.02v25.71h-21.55c-5.37,0-9.85-4.45-9.85-9.8,0-4.18,2.62-7.54,5.58-9.05l1.45-.75c.34-.2.48-.41.48-.75,0-.14-.07-.27-.14-.48l-1.44-2.88c-.14-.28-.41-.48-.83-.48-.13,0-.27,0-.41.07l-1.44.75c-4.41,2.26-8.26,7.26-8.26,13.57,0,4.11,1.44,7.61,4.34,10.49,2.96,2.88,6.4,4.32,10.39,4.32h24.16c1.38,0,2.55-1.1,2.55-2.47v-28.24c0-3.49,2.89-6.37,6.4-6.37s6.4,2.88,6.4,6.37v20.16c0,1.37,1.17,2.54,2.55,2.54h19.04c5.3,0,8.81-3.36,8.81-8.71v-23.1c0-.62-.34-.96-.96-.96Z" style="fill:#fff;"/><path d="M150.75,198.57h3.38c.62,0,.96-.28.96-.89v-4.05c0-.62-.34-.96-.96-.96h-3.38c-.62,0-.89.34-.89.96v4.05c0,.61.27.89.89.89Z" style="fill:#fff;"/><path d="M192.8,240.25v-20.43c0-3.98-1.45-7.4-4.27-10.21-2.82-2.81-6.26-4.25-10.26-4.25s-7.43,1.44-10.26,4.25c-2.82,2.81-4.27,6.24-4.27,10.21v5.14c0,3.97,1.44,7.4,4.27,10.21,2.82,2.81,6.26,4.25,10.26,4.25h9.43v.82c0,4.52-3.92,8.43-8.46,8.43h-7.16c-.62,0-.9.28-.9.89v3.22c0,.62.28.89.9.89h7.16c3.65,0,6.88-1.3,9.57-3.97,2.68-2.67,3.99-5.83,3.99-9.46ZM187.71,234.43h-9.43c-5.16,0-9.5-4.32-9.5-9.46v-5.14c0-5.21,4.34-9.46,9.5-9.46s9.43,4.32,9.43,9.46v14.6Z" style="fill:#fff;"/><path d="M241.27,192.68c-.62,0-.9.34-.9.96v4.05c0,.61.28.89.9.89h3.37c.62,0,.96-.28.96-.89v-4.05c0-.62-.34-.96-.96-.96h-3.37Z" style="fill:#fff;"/><path d="M232.11,192.68c-.62,0-.96.34-.96.96v4.05c0,.61.34.89.96.89h3.44c.62,0,.9-.28.9-.89v-4.05c0-.62-.28-.96-.9-.96h-3.44Z" style="fill:#fff;"/><path d="M287.51,236.76l.14.14c1.65,1.64,4.13,2.54,7.5,2.54h8.66c5.3,0,8.74-3.36,8.74-8.71v-39.83c0-.62-.28-.96-.9-.96h-3.23c-.62,0-.9.34-.9.96v39.83c0,2.47-1.1,3.64-3.65,3.7h-9.55c-2.06,0-3.37-.41-4.06-1.1-.41-.34-.62-.89-.62-1.71v-7.4c0-4.46-1.45-8.16-4.34-11.11-2.89-2.95-6.54-4.39-10.94-4.39h-12.8c.75-7.4,4.75-11.11,11.91-11.11h5.72c.62,0,.89-.34.89-.96v-3.22c0-.55-.28-.89-.89-.89h-5.72c-11.01,0-17.07,7.4-17.07,18.65,0,1.37,1.1,2.54,2.55,2.54h15.42c6.19,0,10.26,4.32,10.26,10.49v6.44c0,2.61-1.24,3.77-3.79,3.77h-35.24c-1.99,0-3.37-.41-4.06-1.1-.41-.41-.62-.96-.62-1.71v-23.99c0-.62-.27-.96-.89-.96h-3.24c-.55,0-.9.34-.9.96v23.03c0,2.47-1.1,3.77-3.58,3.77h-20.11v-26.74c0-.62-.35-.96-.96-.96h-3.17c-.62,0-.96.34-.96.96v34.35c0,4.59-2.06,6.65-6.68,6.65h-3.44c-.62,0-.9.28-.9.89v3.22c0,.62.28.89.9.89h3.44c7.3,0,11.77-4.39,11.77-11.65v-2.61h19.98c2.68,0,4.75-.75,6.33-2.33l.28-.34c0,.07.07.07.07.14,1.65,1.64,4.27,2.54,7.64,2.54h34.41c2.89,0,5.1-.96,6.61-2.67Z" style="fill:#fff;"/><path d="M331.82,196.38v31.47c0,.62.28.89.9.89h3.24c.62,0,.89-.28.89-.89v-31.47c0-.62-.27-.96-.89-.96h-3.24c-.62,0-.9.34-.9.96Z" style="fill:#fff;"/><path d="M340.15,256.43c.41,0,.69-.28.69-.69v-1.44c0-.41-.28-.62-.69-.62h-7.02v-4.05c0-1.3,1.1-2.4,2.41-2.4,1.1,0,1.86.55,2.27,1.51l.21.62c.14.28.28.41.55.41.07,0,.21,0,.34-.07l1.31-.55c.28-.14.48-.28.48-.55,0-.07,0-.21-.07-.28l-.34-.68c-.9-2.06-2.48-3.16-4.75-3.16-2.82,0-5.16,2.33-5.16,5.14v4.05h-1.93c-.41,0-.62.2-.62.62v1.44c0,.41.21.69.62.69h11.7Z" style="fill:#fff;"/><path d="M354.26,190.9c0-.62-.28-.96-.9-.96h-3.23c-.62,0-.9.34-.9.96v36.88c0,4.59-2.06,6.65-6.68,6.65h-20.38c-.62,0-.9.28-.9.89v3.15c0,.62.28.96.9.96h20.38c7.3,0,11.7-4.32,11.7-11.65v-36.88Z" style="fill:#fff;"/><path d="M369.53,189.94h-3.3c-.62,0-.9.28-.9.89v47.71c0,.62.28.89.9.89h3.3c.55,0,.83-.28.83-.89v-47.71c0-.62-.27-.89-.83-.89Z" style="fill:#fff;"/><path d="M454.04,245.94h-3.44c-.62,0-.9.34-.9.96v3.97c0,.62.28.96.9.96h3.44c.62,0,.89-.34.89-.96v-3.97c0-.62-.28-.96-.89-.96Z" style="fill:#fff;"/><path d="M463.19,245.94h-3.38c-.62,0-.96.34-.96.96v3.97c0,.62.34.96.96.96h3.38c.62,0,.96-.34.96-.96v-3.97c0-.62-.34-.96-.96-.96Z" style="fill:#fff;"/><path d="M548.79,192.68c-.62,0-.96.34-.96.96v4.05c0,.61.35.89.96.89h3.44c.62,0,.9-.28.9-.89v-4.05c0-.62-.28-.96-.9-.96h-3.44Z" style="fill:#fff;"/><path d="M557.95,192.68c-.62,0-.9.34-.9.96v4.05c0,.61.28.89.9.89h3.37c.62,0,.96-.28.96-.89v-4.05c0-.62-.34-.96-.96-.96h-3.37Z" style="fill:#fff;"/><path d="M602.81,189.94h-3.23c-.62,0-.9.34-.9.96v39.83c0,2.47-1.1,3.64-3.65,3.7h-9.49c-2,0-3.37-.41-4.06-1.1-.41-.34-.62-.89-.62-1.71v-40.72c0-.62-.28-.96-.9-.96h-3.23c-.62,0-.9.34-.9.96v39.76c0,2.54-1.17,3.77-3.65,3.77h-9.9c-2,0-3.37-.41-4.06-1.1-.41-.41-.62-.96-.62-1.71v-23.99c0-.62-.27-.96-.89-.96h-3.24c-.55,0-.89.34-.89.96v23.03c0,2.47-1.11,3.77-3.58,3.77h-24.15l6.75-14.33c.13-.35.21-.69.21-1.03v-.28c-.34-3.63-2-6.79-5.03-9.46-3.03-2.67-6.54-4.05-10.39-4.05s-7.3,1.44-10.39,4.32c-2.89,2.6-4.54,5.62-5.03,9.05v.35c0,.34.07.75.21,1.1l6.75,14.33h-17.41c-2,0-3.37-.41-4.06-1.1-.41-.34-.62-.89-.62-1.71v-40.72c0-.62-.28-.96-.9-.96h-3.23c-.62,0-.9.34-.9.96v39.76c0,2.54-1.17,3.77-3.65,3.77h-9.9c-2,0-3.37-.41-4.06-1.1-.41-.41-.55-.96-.55-1.71v-23.99c0-.62-.34-.96-.96-.96h-3.17c-.62,0-.96.34-.96.96v23.03c0,2.54-1.1,3.77-3.58,3.77h-13.82c-2.2,0-3.99-.96-4.47-2.74,1.1-2.13,1.65-4.32,1.65-6.72v-5.21c0-3.97-1.44-7.4-4.27-10.21-2.82-2.81-6.19-4.25-10.19-4.25s-7.43,1.44-10.26,4.25c-2.82,2.81-4.27,6.24-4.27,10.21v14.6h-2.48c-5.3,0-9.71,4.39-9.71,9.66v9.25c0,.62.28.89.9.89h3.24c.62,0,.96-.28.96-.89v-9.25c0-2.54,2.06-4.59,4.61-4.59h17c3.79,0,7.16-1.3,9.98-3.97,1.72,2.54,4.61,3.97,8.26,3.97h12.72c2.68,0,4.82-.75,6.4-2.33.07-.07.21-.28.21-.34,0,.07.07.07.14.14,1.65,1.64,4.2,2.54,7.57,2.54h8.94c2.68,0,4.82-.75,6.33-2.33.07-.07.21-.2.28-.34,1.72,1.71,4.13,2.67,7.64,2.67h57.53c2.68,0,4.75-.75,6.33-2.33l.28-.34c0,.07.07.07.07.14,1.65,1.64,4.27,2.54,7.64,2.54h8.94c2.68,0,4.82-.75,6.33-2.33.07-.07.21-.2.28-.34,1.72,1.71,4.13,2.67,7.64,2.67h8.6c5.3,0,8.74-3.36,8.74-8.71v-39.83c0-.62-.28-.96-.9-.96ZM432.37,224.97c0,5.21-4.27,9.39-9.5,9.39h-9.5v-14.6c0-5.14,4.33-9.39,9.5-9.39s9.5,4.25,9.5,9.39v5.21ZM513.5,234.43l-7.37-15.77c.48-2.12,1.72-4.04,3.58-5.69,2.07-1.71,4.27-2.6,6.68-2.6s4.75.82,6.75,2.47c2.06,1.58,3.23,3.5,3.58,5.76l-7.37,15.83h-5.85Z" style="fill:#fff;"/><path d="M89.98,273.92l.03,19.12c0,.74.01,7.71.1,8.68h-.32c-.27-.69-3.35-6.65-3.67-7.29l-10.69-20.49h-5.06s.05,32.38.05,32.38h3.43s-.03-19.4-.03-19.4c0-1.15-.06-7.9-.15-8.59h.36c.27.78,3.31,6.69,3.63,7.34l10.78,20.63h4.97s-.05-32.38-.05-32.38h-3.39Z" style="fill:#fff;"/><path d="M119.8,303.52c-1.72,0-2.4-1.52-2.4-3.78l-.02-11.36c0-5.27-3.13-7.62-8.37-7.61-5.11,0-7.41,2.92-8.26,4.12l2.58,2.07c.72-1.2,2.3-3.05,5.6-3.06,3.25,0,5.2,1.19,5.2,5.3v2.72c-8.72-.12-14.04,2.61-14.04,8.15,0,3.42,2.54,6.69,7.1,6.68,4.16,0,6.14-1.99,7.31-3.38h.18c.59,1.71,2.04,3.05,4.48,3.04.45,0,.95-.09,1.26-.28v-2.63s-.64,0-.64,0ZM108.01,303.81c-2.85,0-4.43-1.79-4.43-4.01,0-3.79,4.64-5.27,10.56-5.05v5.63c-1.12,1.71-3.33,3.42-6.13,3.43Z" style="fill:#fff;"/><path d="M133.9,303.31c-2.17,0-3.57-1.15-3.58-3.97l-.02-15.33h6.78s0-2.92,0-2.92h-6.78s0-6.59,0-6.59h-2.39s-1.08,6.52-1.08,6.52l-3.66.7v2.31s3.66,0,3.66,0l.02,15.52c0,4.76,2.22,6.92,6.29,6.92,2.94,0,4.56-.61,5.51-1.16l-1-2.86c-.63.41-1.76.88-3.75.88Z" style="fill:#fff;"/><rect x="144.46" y="281.08" width="3.52" height="25.12" transform="translate(-.44 .22) rotate(-.09)" style="fill:#fff;"/><path d="M145.96,271.11c-1.4,0-2.53,1.11-2.53,2.64,0,1.48,1.13,2.59,2.53,2.58,1.49,0,2.62-1.11,2.62-2.59,0-1.52-1.13-2.63-2.62-2.63Z" style="fill:#fff;"/><path d="M165.32,280.59c-7.45.01-10.29,5.33-10.28,13.09.01,7.71,2.59,12.93,10.05,12.92,7.46-.01,10.34-5.42,10.33-13.18-.01-7.67-2.59-12.83-10.09-12.82ZM165.35,303.45c-4.7,0-6.69-3.31-6.7-10.06,0-6.51,1.75-9.7,6.4-9.71,4.74,0,6.74,3.27,6.75,10.01.01,6.56-1.7,9.75-6.45,9.76Z" style="fill:#fff;"/><path d="M192.16,280.5c-3.84,0-6.32,2.27-7,3.15h-.18s-.73-2.63-.73-2.63h-2.67s.04,25.13.04,25.13h3.53s-.03-17.97-.03-17.97c.85-2.45,3.2-4.48,6.23-4.49,3.43,0,5.29,2.11,5.29,5.95l.02,16.49h3.52s-.03-17.32-.03-17.32c-.14-5.59-3.08-8.31-8.01-8.3Z" style="fill:#fff;"/><path d="M225.9,303.36c-1.72,0-2.4-1.52-2.4-3.78l-.02-11.36c0-5.27-3.13-7.62-8.37-7.61-5.11,0-7.41,2.92-8.26,4.12l2.58,2.07c.72-1.2,2.3-3.05,5.6-3.06,3.25,0,5.2,1.19,5.2,5.3v2.72c-8.72-.12-14.04,2.61-14.04,8.15,0,3.42,2.54,6.69,7.1,6.68,4.16,0,6.14-1.99,7.31-3.38h.18c.59,1.71,2.04,3.05,4.48,3.04.45,0,.95-.09,1.26-.28v-2.63s-.64,0-.64,0ZM214.11,303.65c-2.85,0-4.43-1.79-4.43-4.01,0-3.79,4.65-5.27,10.56-5.05v5.63c-1.12,1.71-3.33,3.42-6.13,3.43Z" style="fill:#fff;"/><path d="M238.5,303.29c-1.85,0-2.58-.97-2.58-3.18l-.04-29.1h-3.48s.05,30.07.05,30.07c0,3.28,1.64,5.31,5.02,5.3.95,0,2.17-.14,3.07-.56v-3.05c-.46.23-1.13.51-2.04.51Z" style="fill:#fff;"/><path d="M267.3,280.48c-5.47,0-10.43,3.76-10.42,12.85.01,9.38,3.81,13.02,10.82,13.01,3.52,0,6.1-1.03,7.72-2.28l-1.58-2.77c-1.04.92-3.25,1.9-5.69,1.9-4.92,0-7.46-2.34-7.78-8.53l15.63-.02c.18-1.62.27-3.09.26-4.34,0-5.96-3.13-9.83-8.96-9.82ZM272.74,291.69l-12.33.02c.31-6.05,3.38-8.13,6.58-8.14,3.98,0,5.79,2.39,5.79,6.69,0,.28,0,.93-.04,1.43Z" style="fill:#fff;"/><polygon points="286.85 302.71 286.81 273.61 283.19 273.62 283.24 305.99 300.46 305.97 300.45 302.69 286.85 302.71" style="fill:#fff;"/><path d="M314.02,280.41c-5.47,0-10.43,3.76-10.42,12.85.01,9.38,3.81,13.02,10.82,13.01,3.52,0,6.1-1.03,7.72-2.28l-1.59-2.77c-1.04.92-3.25,1.9-5.69,1.9-4.92,0-7.46-2.34-7.78-8.53l15.63-.02c.18-1.62.27-3.09.26-4.34,0-5.96-3.13-9.83-8.96-9.82ZM319.46,291.62l-12.33.02c.31-6.05,3.38-8.13,6.58-8.14,3.98,0,5.79,2.39,5.79,6.69,0,.28,0,.93-.04,1.43Z" style="fill:#fff;"/><path d="M347.81,303.17c-1.72,0-2.4-1.52-2.4-3.78l-.02-11.36c0-5.27-3.13-7.62-8.37-7.61-5.11,0-7.41,2.92-8.26,4.12l2.58,2.07c.72-1.2,2.3-3.05,5.6-3.06,3.25,0,5.2,1.19,5.2,5.3v2.72c-8.72-.12-14.04,2.61-14.04,8.15,0,3.42,2.54,6.69,7.1,6.68,4.16,0,6.14-1.99,7.31-3.38h.18c.59,1.71,2.04,3.05,4.48,3.04.45,0,.95-.09,1.27-.28v-2.63s-.64,0-.64,0ZM336.02,303.47c-2.85,0-4.43-1.79-4.43-4.01,0-3.79,4.65-5.27,10.56-5.05v5.63c-1.12,1.71-3.33,3.42-6.13,3.43Z" style="fill:#fff;"/><path d="M363.86,280.33c-2.85,0-5.1,1.4-6.19,3.2h-.18s-.77-2.77-.77-2.77h-2.67s.04,25.13.04,25.13h3.48s-.03-18.71-.03-18.71c1.17-2.26,3.65-3.24,6.05-3.24.9,0,1.85.09,2.76.36v-3.74c-.55-.14-1.36-.23-2.49-.23Z" style="fill:#fff;"/><path d="M380.94,280.22c-3.84,0-6.32,2.27-7,3.15h-.18s-.73-2.63-.73-2.63h-2.67s.04,25.13.04,25.13h3.53s-.03-17.97-.03-17.97c.85-2.45,3.2-4.48,6.23-4.49,3.43,0,5.29,2.11,5.3,5.95l.02,16.49h3.52s-.03-17.32-.03-17.32c-.14-5.59-3.08-8.31-8.01-8.3Z" style="fill:#fff;"/><rect x="397.5" y="280.69" width="3.52" height="25.12" transform="translate(-.44 .6) rotate(-.09)" style="fill:#fff;"/><path d="M399,270.72c-1.4,0-2.53,1.11-2.53,2.64,0,1.48,1.13,2.59,2.53,2.58,1.49,0,2.62-1.11,2.62-2.59,0-1.52-1.13-2.63-2.62-2.63Z" style="fill:#fff;"/><path d="M419.94,280.16c-3.84,0-6.32,2.27-7,3.15h-.18s-.73-2.63-.73-2.63h-2.67s.04,25.13.04,25.13h3.53s-.03-17.97-.03-17.97c.85-2.45,3.2-4.48,6.23-4.49,3.43,0,5.29,2.11,5.29,5.95l.02,16.49h3.52s-.03-17.32-.03-17.32c-.14-5.59-3.08-8.31-8.01-8.3Z" style="fill:#fff;"/><path d="M445.96,280.39c-8.13.01-11.96,5.42-11.95,13.46.01,8.54,4.31,11.77,9.37,11.76,3.16,0,5.24-1.3,6.01-2h.18s0,2.31,0,2.31c0,4.48-1.8,6.7-6.27,6.71-3.3,0-5.24-1.1-6.46-2.35l-2.03,2.87c1,1.01,3.44,2.67,8.09,2.67,6.15,0,10.12-3.29,10.11-9.9l-.04-24.25c-1.49-.74-3.89-1.29-7-1.28ZM444.32,302.47c-3.48,0-6.73-1.88-6.75-9.09-.01-6.65,3.15-9.84,7.89-9.85,1.58,0,2.98.27,4.02.69l.02,15.79c-1.17,1.57-3.25,2.45-5.19,2.45Z" style="fill:#fff;"/><path d="M485.09,276.17c3.3,0,5.15,1.01,6.51,2.16l2.26-2.82c-1.04-.92-3.57-2.67-8.41-2.67-8.45.01-12.96,6.3-12.94,16.92.01,9.98,3.77,16.39,12.49,16.38,4.52,0,7.27-1.35,8.67-2.74l-1.99-2.63c-1.13,1.11-2.98,1.99-6.19,1.99-6.05,0-9.27-4.56-9.28-13.33-.01-9.14,3.37-13.26,8.88-13.27Z" style="fill:#fff;"/><path d="M508.32,280.11c-5.47,0-10.43,3.76-10.42,12.85.01,9.38,3.81,13.02,10.82,13.01,3.52,0,6.1-1.03,7.72-2.27l-1.58-2.77c-1.04.92-3.25,1.9-5.69,1.9-4.92,0-7.46-2.34-7.78-8.53l15.63-.02c.18-1.62.27-3.09.26-4.34,0-5.96-3.13-9.83-8.96-9.82ZM513.76,291.33l-12.33.02c.31-6.05,3.38-8.13,6.58-8.14,3.98,0,5.79,2.39,5.79,6.69,0,.28,0,.93-.04,1.43Z" style="fill:#fff;"/><path d="M534.3,279.98c-3.84,0-6.32,2.27-7,3.15h-.18s-.73-2.63-.73-2.63h-2.67s.04,25.13.04,25.13h3.52s-.03-17.97-.03-17.97c.86-2.45,3.2-4.48,6.23-4.49,3.43,0,5.29,2.11,5.3,5.95l.03,16.49h3.52s-.03-17.32-.03-17.32c-.14-5.59-3.08-8.31-8.01-8.3Z" style="fill:#fff;"/><path d="M557.51,302.66c-2.17,0-3.57-1.15-3.58-3.97l-.02-15.33h6.78s0-2.92,0-2.92h-6.78s0-6.59,0-6.59h-2.4s-1.07,6.52-1.07,6.52l-3.66.7v2.31s3.66,0,3.66,0l.02,15.52c0,4.76,2.22,6.92,6.29,6.92,2.94,0,4.56-.61,5.51-1.16l-1-2.86c-.63.41-1.76.88-3.75.88Z" style="fill:#fff;"/><path d="M576.01,280.01c-5.47,0-10.43,3.76-10.42,12.85.01,9.38,3.81,13.02,10.82,13.01,3.53,0,6.1-1.03,7.72-2.28l-1.59-2.77c-1.04.92-3.25,1.9-5.69,1.9-4.92,0-7.46-2.34-7.78-8.53l15.63-.02c.18-1.62.27-3.09.26-4.34,0-5.96-3.13-9.83-8.96-9.82ZM581.45,291.22l-12.33.02c.31-6.05,3.38-8.13,6.58-8.14,3.98,0,5.79,2.39,5.79,6.69,0,.28,0,.93-.04,1.43Z" style="fill:#fff;"/><path d="M601.22,279.97c-2.85,0-5.1,1.4-6.19,3.2h-.18s-.77-2.77-.77-2.77h-2.67s.04,25.13.04,25.13h3.48s-.03-18.71-.03-18.71c1.17-2.26,3.65-3.24,6.05-3.24.91,0,1.85.09,2.76.36v-3.74c-.55-.14-1.36-.23-2.49-.23Z" style="fill:#fff;"/><path d="M743.52,243h0s-30.83,28.82-30.83,28.82l30.73,29.04.11.1h0s0,0,0,0l1.83,1.73c.05-.07.09-.13.13-.2.32-.46.62-.93.93-1.4,6.97-10.89,11.01-23.87,11.01-37.78v-33.29l-13.9,12.99h0Z" style="fill:#fff;"/><path d="M632.34,243v7.16c0,14.29,5.4,27.31,14.26,37.16l16.59-15.5-30.84-28.83Z" style="fill:#fff;"/><polygon points="632.34 154.8 632.34 168.55 647.06 154.8 632.34 154.8" style="fill:#fff;"/><polygon points="632.34 109.55 632.34 123.4 647.17 123.4 632.34 109.55" style="fill:#fff;"/><path d="M743.52,199.32l13.9-12.99v-47.23h-13.9v-8.11h-15.53c-6.63,0-9.83-8.11-4.99-12.64l15.75-14.93c-.72-1.62-1.52-3.21-2.38-4.74-.33-.59-.69-1.18-1.04-1.76-.13-.23-.27-.45-.42-.67-.14-.23-.28-.44-.43-.67-.29-.44-.58-.86-.86-1.28,0-.02-.02-.02-.03-.04-.19-.28-.4-.56-.59-.83-.25-.35-.51-.69-.77-1.04-.27-.34-.53-.69-.79-1.02-.27-.34-.55-.68-.82-1-.03-.03-.06-.07-.09-.1-.25-.3-.5-.59-.75-.89-.05-.05-.09-.1-.14-.15.04.05.09.1.13.16l-21.43,20.24c-.73.68-1.53,1.18-2.36,1.5-4.5,1.75-9.92-1.45-9.92-6.83v-19.96h7.58v19.33h0s0,0,0,0l20.76-19.63c.06.05.12.09.17.14-.05-.05-.11-.1-.16-.15-.06-.06-.13-.11-.19-.16,0,0-.01-.01-.02-.02-.4-.35-.82-.7-1.24-1.04-2.07-1.69-4.27-3.23-6.57-4.6-.24-.15-.48-.29-.72-.43-.72-.41-1.44-.81-2.17-1.18-.12-.06-.23-.12-.35-.18-.58-.3-1.17-.59-1.77-.86-.44-.21-.9-.41-1.35-.61-.26-.11-.51-.22-.77-.33-.16-.07-.34-.15-.51-.21-.5-.2-1-.4-1.51-.58-.33-.12-.65-.24-.97-.35-.44-.16-.88-.3-1.32-.44-.16-.05-.33-.11-.51-.16-.47-.14-.93-.28-1.39-.41-.05-.02-.12-.03-.17-.05-.67-.19-1.35-.36-2.02-.52-.37-.09-.74-.17-1.11-.25-.31-.07-.62-.13-.94-.19-1.25-.25-2.53-.46-3.82-.62-.25-.04-.5-.06-.76-.09-.4-.05-.83-.09-1.24-.12-.4-.04-.8-.07-1.21-.09-.76-.05-1.53-.09-2.3-.11-.51-.02-1.01-.02-1.52-.02h-55.59v28.79l20.52,19.18c4.84,4.52,1.64,12.64-4.98,12.64h-15.53v16.24h15.42c6.62,0,9.83,8.11,4.98,12.64l-20.41,19.07v20.39l39.89,37.28v-62.15l-23.67,22.13-5.17-5.54,24.13-22.57c4.67-4.36,12.29-1.05,12.29,5.33v63.43c0,6.39-7.61,9.69-12.29,5.33l-35.18-32.88v22.92l36.24,33.86c3.08,2.89,3.08,7.79,0,10.68l-16.53,15.45c9.69,8.19,22.21,13.14,35.88,13.14h0s0,0,0,0v27.48c21.12,0,40.05-9.49,52.8-24.47l-3.18-3.01-30.27-28.58c-3.09-2.9-3.09-7.79,0-10.68l36.23-33.86,13.9-13v-22.92l-13.9,12.99h0s0,0,0,0l-35.18,32.88c-.58.55-1.21.97-1.87,1.28-4.58,2.2-10.41-1.03-10.41-6.62v-63.43c0-3.19,1.9-5.61,4.39-6.69.14-.06.29-.12.44-.17.01,0,.02,0,.03-.01,2.39-.85,5.23-.49,7.42,1.55l24.14,22.57-5.17,5.54-23.67-22.13h0s0,0,0,0v62.14h0s0,0,0,0l39.88-37.28ZM743.52,154.8h-14.71,0s0,0,0,0l14.71,13.75h0s0,0,0,0v10.38l-20.4-19.07c-4.39-4.11-2.17-11.15,3.21-12.43.56-.13,1.15-.2,1.77-.2h15.42s0,0,0,0v7.58ZM679.81,104.28c0,6.39-7.61,9.69-12.29,5.33l-24.13-22.56,5.17-5.54,23.67,22.12v-19.33h7.58v19.97Z" style="fill:#fff;"/><path d="M743.36,123.41h.08c0-.09,0-.21-.01-.35v-.08c0-.33-.02-.65-.05-.98,0-.05,0-.1,0-.16,0-.04,0-.08,0-.11,0-.09-.02-.17-.02-.26,0-.09-.02-.17-.02-.26-.05-.62-.11-1.25-.19-1.86-.05-.39-.1-.79-.16-1.17,0,0,0-.02,0-.02-.06-.49-.14-.98-.23-1.46-.02-.09-.02-.17-.04-.25-.1-.57-.2-1.13-.32-1.69-.12-.61-.26-1.21-.4-1.8-.15-.6-.3-1.19-.46-1.78l-12.84,12.21h14.67Z" style="fill:#fff;"/></svg>