<?xml version="1.0" encoding="UTF-8"?>
<svg id="Layer_1" data-name="Layer 1" xmlns="http://www.w3.org/2000/svg" viewBox="0 0 2000 2000">
  <defs>
    <style>
      .cls-1 {
        fill: #454b4c;
      }

      .cls-2 {
        fill: none;
        stroke: red;
        stroke-miterlimit: 10;
        stroke-width: 2px;
      }

      .cls-3 {
        fill: #01c2f3;
      }

      .cls-4 {
        fill: #9c50bc;
      }

      .cls-5 {
        fill: #fff;
      }

      .cls-6 {
        fill: #552f91;
      }

      .cls-7 {
        fill: #27b67b;
      }
    </style>
  </defs>
  <g>
    <g>
      <path class="cls-1" d="M1624.19,1827.15h1.6c.23,0,.42.19.42.42v1.95c0,.23-.19.42-.42.42h-1.61c-.23,0-.42-.19-.42-.42v-1.95c0-.23.19-.42.42-.42Z"/>
      <path class="cls-1" d="M1623.03,1824.07h11.28c.64,0,1.19-.52,1.19-1.17v-13.36c0-1.65,1.35-3.01,2.99-3.01s2.99,1.36,2.99,3.01v9.53c0,.65.55,1.2,1.19,1.2h10.43c1.25,0,2.25-.36,2.99-1.1.03-.03.1-.13.1-.16,0,.03.03.03.06.07.77.78,1.96,1.2,3.53,1.2h17.09c3.41,0,5.46-2.07,5.46-5.51v-3.11c0-4.35-2.41-7.49-6.59-7.49-2.31,0-5.07,1.52-8.25,4.51v-11.38c0-.29-.13-.45-.42-.45h-1.48c-.29,0-.48.16-.48.45v20.62s-5.75,0-5.75,0c-.93,0-1.58-.2-1.9-.52-.19-.2-.26-.45-.26-.81v-11.35c0-.29-.16-.45-.45-.45h-1.48c-.29,0-.45.16-.45.45v10.89c0,1.2-.51,1.78-1.67,1.78h-9.34s0-8.36,0-8.36c0-1.49-.51-2.76-1.57-3.79-1.06-1.07-2.28-1.59-3.76-1.59s-2.76.52-3.79,1.59c-1.06,1.04-1.54,2.3-1.54,3.79v12.16s-10.05,0-10.05,0c-2.51,0-4.59-2.11-4.59-4.64,0-1.98,1.22-3.57,2.6-4.28l.67-.36c.16-.1.22-.2.22-.36,0-.07-.03-.13-.06-.23l-.67-1.36c-.06-.13-.19-.23-.39-.23-.06,0-.13,0-.19.03l-.67.36c-2.06,1.07-3.86,3.44-3.86,6.42,0,1.94.68,3.6,2.02,4.96,1.38,1.36,2.99,2.04,4.85,2.04ZM1667.48,1811.88c1.16-1.46,2.54-2.72,4.18-3.76,1.64-1.04,2.99-1.59,4.08-1.59,1.67,0,2.89.71,3.6,2.11.42.84.64,1.88.64,3.02v3.11c0,2.17-.96,3.14-3.12,3.14h-9.38s0-6.03,0-6.03Z"/>
      <path class="cls-1" d="M1628.49,1827.15c-.29,0-.45.16-.45.45v1.91c0,.29.16.42.45.42h1.57c.29,0,.42-.13.42-.42v-1.91c0-.29-.13-.45-.42-.45h-1.57Z"/>
      <path class="cls-1" d="M1655.21,1800.95h1.58c.29,0,.45-.13.45-.42v-1.91c0-.29-.16-.45-.45-.45h-1.58c-.29,0-.42.16-.42.45v1.91c0,.29.13.42.42.42Z"/>
      <path class="cls-1" d="M1712.11,1797.32c0-.29-.13-.45-.42-.45h-1.51c-.29,0-.42.16-.42.45v18.84c0,1.17-.51,1.72-1.7,1.75h-.03s-7.45,0-7.45,0v-6.91c0-1.88-.67-3.5-1.99-4.83-1.32-1.33-2.92-2.01-4.79-2.01s-3.5.68-4.82,2.01c-1.32,1.33-1.99,2.95-1.99,4.83v2.43c0,1.88.67,3.5,1.99,4.83,1.32,1.33,2.95,2.01,4.82,2.01h4.4v.39c0,2.14-1.83,3.99-3.95,3.99h-3.34c-.26,0-.42.13-.42.42v1.52c0,.29.16.42.42.42h3.34c1.7,0,3.18-.62,4.43-1.88,1.25-1.26,1.9-2.76,1.9-4.48v-.39s7.45,0,7.45,0c2.47,0,4.08-1.59,4.08-4.12v-18.84ZM1698.21,1817.91h-4.4c-2.41,0-4.43-2.04-4.43-4.47v-2.43c0-2.43,2.02-4.47,4.43-4.47s4.4,2.04,4.4,4.47v6.91Z"/>
      <path class="cls-1" d="M1717.7,1820.28h1.54c.26,0,.39-.13.39-.42v-22.56c0-.29-.13-.42-.38-.42h-1.54c-.29,0-.42.13-.42.42v22.56c0,.29.13.42.42.42Z"/>
      <path class="cls-1" d="M1729.58,1827.02h1.61c3.4,0,5.49-2.07,5.49-5.51v-1.23s3.3,0,3.3,0h1.61s14.16,0,14.16,0c2.51,0,4.08-1.59,4.08-4.12v-3.08c0-2.11-.64-3.86-1.99-5.25-1.35-1.39-3.05-2.07-5.11-2.07h-6.01c.35-3.5,2.22-5.28,5.56-5.28h2.67c.29,0,.42-.13.42-.42v-1.52c0-.29-.13-.42-.42-.42h-2.67c-5.17,0-7.97,3.53-7.97,8.85,0,.65.55,1.17,1.19,1.17h7.23c2.86,0,4.75,2.04,4.75,4.96v3.08c0,1.2-.58,1.75-1.77,1.75h-14.13s-1.61,0-1.61,0h-3.3s0-12.64,0-12.64c0-.29-.16-.45-.45-.45h-1.51c-.29,0-.42.16-.42.45v16.24c0,2.17-.96,3.14-3.11,3.14h-1.61c-.29,0-.42.13-.42.42v1.52c0,.29.13.42.42.42Z"/>
      <path class="cls-1" d="M1734.72,1800.95h1.57c.29,0,.45-.13.45-.42v-1.91c0-.29-.16-.45-.45-.45h-1.57c-.29,0-.42.16-.42.45v1.91c0,.29.13.42.42.42Z"/>
      <path class="cls-1" d="M1761.82,1827.02h1.61c3.4,0,5.49-2.07,5.49-5.51v-1.23s15.67,0,15.67,0c1.77,0,3.34-.62,4.66-1.88.8,1.2,2.18,1.88,3.85,1.88h4.87c2.47,0,4.08-1.59,4.08-4.12v-18.84c0-.29-.13-.45-.42-.45h-1.51c-.29,0-.42.16-.42.45v18.84c0,1.17-.51,1.72-1.7,1.75h-.03s-5.32,0-5.32,0c-1.06,0-1.83-.42-2.06-1.3.51-1.01.77-2.04.77-3.18v-2.43c0-1.88-.67-3.53-1.99-4.86-1.32-1.33-2.92-2.01-4.79-2.01s-3.47.68-4.79,2.01c-1.32,1.33-1.99,2.98-1.99,4.86v6.91s-8.89,0-8.89,0v-12.64c0-.29-.16-.45-.45-.45h-1.48c-.29,0-.45.16-.45.45v16.24c0,2.17-.96,3.14-3.11,3.14h-1.61c-.29,0-.42.13-.42.42v1.52c0,.29.13.42.42.42ZM1780.16,1811.01c0-2.43,1.99-4.47,4.43-4.47s4.43,2.01,4.43,4.47v2.43c0,2.46-1.99,4.47-4.43,4.47h-4.43s0-6.91,0-6.91Z"/>
      <path class="cls-1" d="M1809.18,1796.87h-1.54c-.29,0-.42.13-.42.42v22.56c0,.29.13.42.42.42h1.54c.26,0,.39-.13.39-.42v-22.56c0-.29-.13-.42-.38-.42Z"/>
      <path class="cls-1" d="M1566.3,1867.18c.29,0,.43-.13.43-.42v-1.92c0-.29-.13-.46-.43-.46h-1.63c-.29,0-.43.16-.43.46v1.92c0,.29.13.42.43.42h1.63Z"/>
      <path class="cls-1" d="M1571.07,1866.76v-1.92c0-.29-.13-.46-.42-.46h-1.6c-.29,0-.46.16-.46.46v1.92c0,.29.16.42.46.42h1.6c.29,0,.42-.13.42-.42Z"/>
      <path class="cls-1" d="M1596.21,1841.95h-1.5c-.29,0-.46.16-.46.46v10.96c0,1.2-.52,1.73-1.7,1.76h-7.93s0-8.39,0-8.39c0-1.5-.52-2.76-1.6-3.81-1.08-1.07-2.32-1.59-3.82-1.59s-2.81.52-3.85,1.59c-1.08,1.04-1.57,2.31-1.57,3.81v12.2s-10.22,0-10.22,0c-2.55,0-4.67-2.11-4.67-4.65,0-1.98,1.24-3.58,2.65-4.29l.69-.36c.16-.1.23-.2.23-.36,0-.07-.03-.13-.07-.23l-.69-1.37c-.07-.13-.2-.23-.39-.23-.06,0-.13,0-.19.03l-.69.36c-2.09,1.07-3.92,3.45-3.92,6.44,0,1.95.69,3.61,2.06,4.98,1.4,1.37,3.04,2.05,4.93,2.05h11.46c.65,0,1.21-.52,1.21-1.17v-13.4c0-1.66,1.37-3.02,3.04-3.02s3.04,1.37,3.04,3.02v9.56c0,.65.55,1.2,1.21,1.2h9.04c2.52,0,4.18-1.59,4.18-4.13v-10.96c0-.29-.16-.46-.46-.46Z"/>
      <path class="cls-1" d="M1594.64,1838.11h1.6c.29,0,.46-.13.46-.42v-1.92c0-.29-.16-.46-.46-.46h-1.6c-.29,0-.42.16-.42.46v1.92c0,.29.13.42.42.42Z"/>
      <path class="cls-1" d="M1614.6,1857.88v-9.69c0-1.89-.69-3.51-2.03-4.85-1.34-1.33-2.97-2.02-4.87-2.02s-3.53.68-4.87,2.02c-1.34,1.33-2.02,2.96-2.02,4.85v2.44c0,1.89.69,3.51,2.02,4.85,1.34,1.33,2.97,2.02,4.87,2.02h4.47v.39c0,2.15-1.86,4-4.02,4h-3.4c-.29,0-.43.13-.43.42v1.53c0,.29.13.42.43.42h3.4c1.73,0,3.26-.62,4.54-1.89,1.27-1.27,1.9-2.77,1.9-4.49ZM1612.18,1855.12h-4.47c-2.45,0-4.51-2.05-4.51-4.49v-2.44c0-2.47,2.06-4.49,4.51-4.49s4.47,2.05,4.47,4.49v6.93Z"/>
      <path class="cls-1" d="M1637.59,1835.31c-.29,0-.43.16-.43.46v1.92c0,.29.13.42.43.42h1.6c.29,0,.46-.13.46-.42v-1.92c0-.29-.16-.46-.46-.46h-1.6Z"/>
      <path class="cls-1" d="M1633.25,1835.31c-.29,0-.46.16-.46.46v1.92c0,.29.16.42.46.42h1.63c.29,0,.43-.13.43-.42v-1.92c0-.29-.13-.46-.43-.46h-1.63Z"/>
      <path class="cls-1" d="M1659.54,1856.22l.07.07c.78.78,1.96,1.2,3.56,1.2h4.11c2.52,0,4.15-1.59,4.15-4.13v-18.9c0-.29-.13-.46-.42-.46h-1.53c-.29,0-.43.16-.43.46v18.9c0,1.17-.52,1.73-1.73,1.76h-.03s-4.5,0-4.5,0c-.98,0-1.6-.2-1.93-.52-.2-.16-.29-.42-.29-.81v-3.51c0-2.12-.69-3.87-2.06-5.27-1.37-1.4-3.1-2.08-5.19-2.08h-6.07c.36-3.51,2.25-5.27,5.65-5.27h2.71c.29,0,.42-.16.42-.46v-1.53c0-.26-.13-.42-.42-.42h-2.71c-5.23,0-8.1,3.51-8.1,8.85,0,.65.52,1.2,1.21,1.2h7.32c2.94,0,4.87,2.05,4.87,4.98v3.06c0,1.24-.59,1.79-1.8,1.79h-16.72c-.95,0-1.6-.2-1.93-.52-.19-.2-.29-.46-.29-.81v-11.38c0-.29-.13-.46-.42-.46h-1.54c-.26,0-.43.16-.43.46v10.93c0,1.17-.52,1.79-1.7,1.79h-9.54s0-12.69,0-12.69c0-.29-.16-.46-.46-.46h-1.5c-.29,0-.46.16-.46.46v16.3c0,2.18-.98,3.15-3.17,3.15h-1.63c-.29,0-.43.13-.43.42v1.53c0,.29.13.42.43.42h1.63c3.46,0,5.59-2.08,5.59-5.53v-1.24s9.48,0,9.48,0c1.27,0,2.25-.36,3-1.11l.13-.16s.03.03.03.07c.78.78,2.02,1.2,3.63,1.2h16.33c1.37,0,2.42-.46,3.14-1.27Z"/>
      <path class="cls-1" d="M1680.56,1837.07v14.93c0,.29.13.42.43.42h1.54c.29,0,.42-.13.42-.42v-14.93c0-.29-.13-.46-.42-.46h-1.54c-.29,0-.43.16-.43.46Z"/>
      <path class="cls-1" d="M1684.51,1865.56c.2,0,.33-.13.33-.33v-.68c0-.2-.13-.29-.33-.29h-3.33s0-1.92,0-1.92c0-.62.52-1.14,1.14-1.14.52,0,.88.26,1.08.71l.1.29c.07.13.13.2.26.2.03,0,.1,0,.16-.03l.62-.26c.13-.07.23-.13.23-.26,0-.03,0-.1-.03-.13l-.16-.32c-.43-.98-1.18-1.5-2.25-1.5-1.34,0-2.45,1.11-2.45,2.44v1.92h-.91c-.2,0-.29.1-.29.29v.68c0,.2.1.33.29.33h5.55Z"/>
      <path class="cls-1" d="M1691.21,1834.46c0-.29-.13-.46-.43-.46h-1.53c-.29,0-.43.16-.43.46v17.5c0,2.18-.98,3.15-3.17,3.15h-9.67c-.29,0-.43.13-.43.42v1.5c0,.29.13.46.43.46h9.67c3.46,0,5.55-2.05,5.55-5.53v-17.5Z"/>
      <path class="cls-1" d="M1698.45,1834.01h-1.57c-.29,0-.43.13-.43.42v22.64c0,.29.13.42.42.42h1.57c.26,0,.39-.13.39-.42v-22.64c0-.29-.13-.42-.39-.42Z"/>
      <path class="cls-1" d="M1738.55,1860.58h-1.63c-.29,0-.43.16-.43.46v1.89c0,.29.13.46.43.46h1.63c.29,0,.42-.16.42-.46v-1.89c0-.29-.13-.46-.42-.46Z"/>
      <path class="cls-1" d="M1741.29,1860.58h1.6c.25,0,.46.2.46.46v1.88c0,.25-.2.46-.46.46h-1.61c-.25,0-.46-.2-.46-.46v-1.89c0-.25.2-.46.46-.46Z"/>
      <path class="cls-1" d="M1783.51,1835.31c-.29,0-.46.16-.46.46v1.92c0,.29.16.42.46.42h1.63c.29,0,.43-.13.43-.42v-1.92c0-.29-.13-.46-.43-.46h-1.63Z"/>
      <path class="cls-1" d="M1787.86,1835.31c-.29,0-.43.16-.43.46v1.92c0,.29.13.42.43.42h1.6c.29,0,.46-.13.46-.42v-1.92c0-.29-.16-.46-.46-.46h-1.6Z"/>
      <path class="cls-1" d="M1809.14,1834.01h-1.53c-.29,0-.43.16-.43.46v18.9c0,1.17-.52,1.73-1.73,1.76h-.03s-4.47,0-4.47,0c-.95,0-1.6-.2-1.93-.52-.2-.16-.29-.42-.29-.81v-19.32c0-.29-.13-.46-.42-.46h-1.53c-.29,0-.43.16-.43.46v18.87c0,1.2-.55,1.79-1.73,1.79h-4.7c-.95,0-1.6-.2-1.93-.52-.19-.2-.29-.46-.29-.81v-11.38c0-.29-.13-.46-.42-.46h-1.54c-.26,0-.42.16-.42.46v10.93c0,1.17-.52,1.79-1.7,1.79h-11.46s3.2-6.8,3.2-6.8c.06-.16.1-.33.1-.49v-.13c-.16-1.72-.95-3.22-2.38-4.49-1.44-1.27-3.1-1.92-4.93-1.92s-3.46.68-4.93,2.05c-1.37,1.23-2.16,2.67-2.38,4.29v.16c0,.16.03.36.1.52l3.2,6.8h-8.26c-.95,0-1.6-.2-1.93-.52-.2-.16-.29-.42-.29-.81v-19.32c0-.29-.13-.46-.43-.46h-1.53c-.29,0-.43.16-.43.46v18.87c0,1.2-.55,1.79-1.73,1.79h-4.7c-.95,0-1.6-.2-1.93-.52-.2-.2-.26-.46-.26-.81v-11.38c0-.29-.16-.46-.46-.46h-1.5c-.29,0-.46.16-.46.46v10.93c0,1.2-.52,1.79-1.7,1.79h-6.56c-1.05,0-1.89-.46-2.12-1.3.52-1.01.78-2.05.78-3.19v-2.47c0-1.89-.69-3.51-2.02-4.85-1.34-1.33-2.94-2.02-4.83-2.02s-3.53.68-4.87,2.02c-1.34,1.33-2.02,2.96-2.02,4.85v6.93s-1.18,0-1.18,0c-2.52,0-4.61,2.08-4.61,4.58v4.39c0,.29.13.42.43.42h1.54c.29,0,.46-.13.46-.42v-4.39c0-1.2.98-2.18,2.19-2.18h8.07c1.8,0,3.4-.62,4.74-1.89.82,1.2,2.19,1.89,3.92,1.89h6.04c1.27,0,2.29-.36,3.04-1.11.03-.03.1-.13.1-.16,0,.03.03.03.07.07.78.78,1.99,1.2,3.59,1.2h4.24c1.27,0,2.29-.36,3-1.11.03-.03.1-.1.13-.16.82.81,1.96,1.27,3.62,1.27h27.3c1.27,0,2.25-.36,3-1.11l.13-.16s.03.03.03.07c.78.78,2.02,1.2,3.63,1.2h4.24c1.27,0,2.29-.36,3-1.11.03-.03.1-.1.13-.16.82.81,1.96,1.27,3.62,1.27h4.08c2.52,0,4.15-1.59,4.15-4.13v-18.9c0-.29-.13-.46-.43-.46ZM1728.27,1850.63c0,2.47-2.03,4.46-4.51,4.46h-4.51s0-6.93,0-6.93c0-2.44,2.06-4.45,4.51-4.45s4.51,2.02,4.51,4.45v2.47ZM1766.76,1855.12l-3.5-7.48c.23-1.01.82-1.92,1.7-2.7.98-.81,2.03-1.23,3.17-1.23s2.25.39,3.2,1.17c.98.75,1.53,1.66,1.7,2.73l-3.5,7.51h-2.78Z"/>
      <path class="cls-1" d="M1565.81,1873.86v9.07c.01.35.02,3.66.06,4.12h-.15c-.13-.33-1.59-3.15-1.74-3.46l-5.07-9.72h-2.4s.02,15.36.02,15.36h1.63s-.01-9.21-.01-9.21c0-.55-.03-3.75-.07-4.08h.17c.13.37,1.57,3.17,1.72,3.48l5.12,9.79h2.36s-.02-15.36-.02-15.36h-1.61Z"/>
      <path class="cls-1" d="M1579.96,1887.9c-.81,0-1.14-.72-1.14-1.79v-5.39c-.01-2.5-1.49-3.61-3.98-3.61-2.42,0-3.51,1.39-3.92,1.96l1.22.98c.34-.57,1.09-1.45,2.66-1.45,1.54,0,2.47.57,2.47,2.52v1.29c-4.14-.06-6.66,1.24-6.66,3.87,0,1.62,1.21,3.17,3.37,3.17,1.97,0,2.91-.95,3.47-1.6h.09c.28.81.97,1.44,2.12,1.44.21,0,.45-.04.6-.13v-1.25s-.3,0-.3,0ZM1574.36,1888.04c-1.35,0-2.1-.85-2.1-1.9,0-1.8,2.2-2.5,5.01-2.4v2.67c-.53.81-1.58,1.62-2.91,1.63Z"/>
      <path class="cls-1" d="M1586.65,1887.8c-1.03,0-1.69-.55-1.7-1.88v-7.27s3.2,0,3.2,0v-1.38s-3.22,0-3.22,0v-3.13s-1.14,0-1.14,0l-.51,3.09-1.74.33v1.1s1.74,0,1.74,0v7.36c.01,2.26,1.07,3.29,3,3.28,1.39,0,2.16-.29,2.61-.55l-.47-1.36c-.3.2-.83.42-1.78.42Z"/>
      <rect class="cls-1" x="1591.66" y="1877.26" width="1.67" height="11.92" transform="translate(-2.82 2.39) rotate(-.09)"/>
      <path class="cls-1" d="M1592.37,1872.52c-.66,0-1.2.53-1.2,1.25,0,.7.54,1.23,1.2,1.23.71,0,1.24-.53,1.24-1.23,0-.72-.54-1.25-1.25-1.25Z"/>
      <path class="cls-1" d="M1601.56,1877.02c-3.54,0-4.88,2.53-4.88,6.21,0,3.66,1.23,6.13,4.77,6.13,3.54,0,4.91-2.57,4.9-6.25,0-3.64-1.23-6.09-4.79-6.08ZM1601.57,1887.87c-2.23,0-3.18-1.57-3.18-4.77,0-3.09.83-4.6,3.04-4.61,2.25,0,3.2,1.55,3.2,4.75,0,3.11-.81,4.63-3.06,4.63Z"/>
      <path class="cls-1" d="M1614.29,1876.98c-1.82,0-3,1.08-3.32,1.49h-.09s-.34-1.25-.34-1.25h-1.26s.02,11.92.02,11.92h1.67s-.01-8.53-.01-8.53c.41-1.16,1.52-2.13,2.96-2.13,1.63,0,2.51,1,2.51,2.82v7.82s1.68,0,1.68,0v-8.22c-.08-2.65-1.48-3.94-3.81-3.94Z"/>
      <path class="cls-1" d="M1630.3,1887.83c-.81,0-1.14-.72-1.14-1.79v-5.39c-.01-2.5-1.49-3.61-3.98-3.61-2.42,0-3.51,1.39-3.92,1.96l1.22.98c.34-.57,1.09-1.45,2.66-1.45,1.54,0,2.47.57,2.47,2.52v1.29c-4.14-.06-6.66,1.24-6.66,3.87,0,1.62,1.21,3.17,3.37,3.17,1.97,0,2.91-.95,3.47-1.6h.09c.28.81.97,1.44,2.12,1.44.21,0,.45-.04.6-.13v-1.25s-.3,0-.3,0ZM1624.71,1887.96c-1.35,0-2.1-.85-2.1-1.9,0-1.8,2.2-2.5,5.01-2.4v2.67c-.53.81-1.58,1.62-2.91,1.63Z"/>
      <path class="cls-1" d="M1636.28,1887.79c-.88,0-1.22-.46-1.22-1.51l-.02-13.81h-1.65s.02,14.27.02,14.27c0,1.56.78,2.52,2.38,2.52.45,0,1.03-.07,1.46-.27v-1.45c-.22.11-.54.24-.97.24Z"/>
      <path class="cls-1" d="M1649.95,1876.97c-2.59,0-4.95,1.78-4.94,6.1,0,4.45,1.81,6.18,5.13,6.17,1.67,0,2.89-.49,3.66-1.08l-.75-1.31c-.49.44-1.54.9-2.7.9-2.34,0-3.54-1.11-3.69-4.05h7.42c.08-.78.13-1.48.13-2.07,0-2.83-1.49-4.67-4.25-4.66ZM1652.53,1882.29h-5.85c.15-2.86,1.6-3.85,3.12-3.85,1.89,0,2.75,1.14,2.75,3.17,0,.13,0,.44-.02.68Z"/>
      <polygon class="cls-1" points="1659.22 1887.52 1659.2 1873.71 1657.49 1873.72 1657.51 1889.08 1665.68 1889.06 1665.68 1887.51 1659.22 1887.52"/>
      <path class="cls-1" d="M1672.12,1876.94c-2.59,0-4.95,1.78-4.94,6.1,0,4.45,1.81,6.18,5.13,6.17,1.67,0,2.89-.49,3.66-1.08l-.75-1.31c-.49.44-1.54.9-2.7.9-2.34,0-3.54-1.11-3.69-4.05h7.42c.08-.78.13-1.48.13-2.07,0-2.83-1.49-4.67-4.25-4.66ZM1674.7,1882.26h-5.85c.15-2.86,1.6-3.85,3.12-3.85,1.89,0,2.75,1.14,2.75,3.17,0,.13,0,.44-.02.68Z"/>
      <path class="cls-1" d="M1688.15,1887.74c-.81,0-1.14-.72-1.14-1.79v-5.39c-.01-2.5-1.49-3.61-3.98-3.61-2.42,0-3.51,1.39-3.92,1.96l1.22.98c.34-.57,1.09-1.45,2.66-1.45,1.54,0,2.47.57,2.47,2.52v1.29c-4.14-.06-6.66,1.24-6.66,3.87,0,1.62,1.21,3.17,3.37,3.17,1.97,0,2.91-.95,3.47-1.6h.09c.28.81.97,1.44,2.12,1.44.21,0,.45-.04.6-.13v-1.25s-.3,0-.3,0ZM1682.55,1887.88c-1.35,0-2.1-.85-2.1-1.9,0-1.8,2.2-2.5,5.01-2.4v2.67c-.53.81-1.58,1.62-2.91,1.63Z"/>
      <path class="cls-1" d="M1695.76,1876.9c-1.35,0-2.42.66-2.94,1.52h-.09s-.37-1.31-.37-1.31h-1.26s.02,11.92.02,11.92h1.65s-.01-8.88-.01-8.88c.56-1.07,1.73-1.54,2.87-1.54.43,0,.88.04,1.31.17v-1.78c-.26-.07-.65-.11-1.18-.11Z"/>
      <path class="cls-1" d="M1703.87,1876.84c-1.82,0-3,1.08-3.32,1.49h-.09s-.34-1.25-.34-1.25h-1.26s.02,11.92.02,11.92h1.67s-.01-8.53-.01-8.53c.41-1.16,1.52-2.13,2.96-2.13,1.63,0,2.51,1,2.51,2.82v7.82s1.68,0,1.68,0v-8.22c-.08-2.65-1.48-3.94-3.81-3.94Z"/>
      <rect class="cls-1" x="1711.72" y="1877.07" width="1.67" height="11.92" transform="translate(-2.82 2.57) rotate(-.09)"/>
      <path class="cls-1" d="M1712.44,1872.34c-.66,0-1.2.53-1.2,1.25,0,.7.54,1.23,1.2,1.23.71,0,1.24-.53,1.24-1.23,0-.72-.54-1.25-1.25-1.25Z"/>
      <path class="cls-1" d="M1722.37,1876.82c-1.82,0-3,1.08-3.32,1.49h-.09s-.35-1.25-.35-1.25h-1.26s.02,11.92.02,11.92h1.67s-.01-8.53-.01-8.53c.41-1.16,1.52-2.13,2.96-2.13,1.63,0,2.51,1,2.51,2.82v7.82s1.68,0,1.68,0v-8.22c-.08-2.65-1.48-3.94-3.81-3.94Z"/>
      <path class="cls-1" d="M1734.72,1876.93c-3.86,0-5.68,2.57-5.67,6.39,0,4.05,2.04,5.59,4.45,5.58,1.5,0,2.49-.62,2.85-.95h.09s0,1.1,0,1.1c0,2.13-.85,3.18-2.98,3.18-1.56,0-2.49-.52-3.07-1.11l-.96,1.36c.47.48,1.63,1.27,3.84,1.27,2.92,0,4.8-1.56,4.8-4.7l-.02-11.51c-.71-.35-1.84-.61-3.32-.61ZM1733.94,1887.4c-1.65,0-3.2-.89-3.2-4.31,0-3.15,1.49-4.67,3.74-4.67.75,0,1.42.13,1.91.33v7.49c-.55.74-1.53,1.16-2.45,1.16Z"/>
      <path class="cls-1" d="M1753.28,1874.93c1.57,0,2.44.48,3.09,1.03l1.07-1.34c-.49-.44-1.7-1.27-3.99-1.27-4.01,0-6.15,2.99-6.14,8.03,0,4.73,1.79,7.78,5.93,7.77,2.14,0,3.45-.64,4.11-1.3l-.95-1.25c-.53.53-1.41.94-2.94.95-2.87,0-4.4-2.16-4.4-6.33,0-4.34,1.6-6.29,4.21-6.3Z"/>
      <path class="cls-1" d="M1764.31,1876.8c-2.59,0-4.95,1.78-4.94,6.1,0,4.45,1.81,6.18,5.13,6.17,1.67,0,2.89-.49,3.66-1.08l-.75-1.31c-.49.44-1.54.9-2.7.9-2.34,0-3.54-1.11-3.69-4.05h7.42c.08-.78.13-1.48.13-2.07,0-2.83-1.49-4.67-4.25-4.66ZM1766.89,1882.12h-5.85c.15-2.86,1.6-3.85,3.12-3.85,1.89,0,2.75,1.14,2.75,3.17,0,.13,0,.44-.02.68Z"/>
      <path class="cls-1" d="M1776.63,1876.73c-1.82,0-3,1.08-3.32,1.49h-.08s-.35-1.25-.35-1.25h-1.26s.02,11.92.02,11.92h1.67s-.01-8.53-.01-8.53c.41-1.16,1.52-2.13,2.96-2.13,1.63,0,2.51,1,2.51,2.82v7.82s1.68,0,1.68,0v-8.22c-.08-2.65-1.48-3.94-3.81-3.94Z"/>
      <path class="cls-1" d="M1787.65,1887.5c-1.03,0-1.69-.55-1.7-1.88v-7.27s3.2,0,3.2,0v-1.38s-3.22,0-3.22,0v-3.13s-1.14,0-1.14,0l-.51,3.09-1.74.33v1.1s1.74,0,1.74,0v7.36c.01,2.26,1.07,3.29,3,3.28,1.39,0,2.16-.29,2.62-.55l-.47-1.36c-.3.2-.84.42-1.78.42Z"/>
      <path class="cls-1" d="M1796.42,1876.75c-2.59,0-4.95,1.78-4.94,6.1,0,4.45,1.81,6.18,5.13,6.17,1.67,0,2.89-.49,3.67-1.08l-.75-1.31c-.49.44-1.54.9-2.7.9-2.34,0-3.54-1.11-3.69-4.05h7.42c.08-.78.13-1.48.12-2.07,0-2.83-1.49-4.67-4.25-4.66ZM1799,1882.07h-5.85c.14-2.86,1.6-3.85,3.12-3.85,1.89,0,2.75,1.14,2.75,3.17,0,.13,0,.44-.02.68Z"/>
      <path class="cls-1" d="M1808.39,1876.73c-1.35,0-2.42.66-2.94,1.52h-.08s-.37-1.31-.37-1.31h-1.26s.02,11.92.02,11.92h1.65s-.01-8.88-.01-8.88c.56-1.07,1.73-1.54,2.87-1.54.43,0,.88.04,1.31.17v-1.78c-.26-.07-.65-.11-1.18-.11Z"/>
    </g>
    <g>
      <path class="cls-4" d="M1882.85,1809.89v58.93c0,6.6-1.92,12.76-5.23,17.93-.14.22-.29.44-.44.66-.02.03-.04.06-.06.09-.49.73-1.01,1.43-1.55,2.11-.18.23-.37.45-.56.68-.02.03-.05.06-.07.09-6.05,7.11-15.03,11.61-25.05,11.61v-92.11s32.97,0,32.97,0Z"/>
      <path class="cls-7" d="M1876.26,1803.65v84.2c0,.61-.5,1.11-1.11,1.11h-25.27c-6.49,0-12.43-2.34-17.03-6.23-.92-.77-1.78-1.61-2.59-2.51-4.2-4.67-6.76-10.86-6.76-17.63v-85.31s26.38,0,26.38,0c6.44,0,12.34,2.31,16.92,6.14.92.77,1.79,1.6,2.6,2.49,1.77,1.94,3.25,4.15,4.37,6.55.55,1.17,1.01,2.38,1.39,3.63.53,1.78.88,3.64,1.02,5.55.05.66.08,1.33.08,2.01Z"/>
      <rect class="cls-6" x="1849.88" y="1809.89" width="26.38" height="79.07"/>
      <path class="cls-3" d="M1876.26,1803.65v6.24s-26.38,0-26.38,0v-32.61c6.62,0,12.67,2.44,17.31,6.47.9.79,1.76,1.64,2.55,2.54,1.74,1.98,3.18,4.23,4.26,6.67.53,1.19.97,2.42,1.32,3.69.61,2.23.94,4.58.94,7.01Z"/>
      <g>
        <g>
          <path class="cls-5" d="M1840.7,1875.39l-7.84,7.33c-.92-.77-1.78-1.61-2.59-2.51l7.87-7.35-14.63-13.68v-4.92s17.19,16.07,17.19,16.07c1.46,1.37,1.46,3.69,0,5.06Z"/>
          <path class="cls-5" d="M1833.19,1819.74l-9.68,9.05v-4.92s6.98-6.53,6.98-6.53h-6.98s0-3.6,0-3.6h7.32c3.14,0,4.66,3.85,2.37,6Z"/>
          <path class="cls-5" d="M1846.03,1826.36v30.1c0,3.03-3.62,4.6-5.83,2.53l-16.69-15.6v-4.92s18.93,17.69,18.93,17.69v-29.49s-11.23,10.5-11.23,10.5l-2.46-2.63,11.45-10.7c2.21-2.07,5.83-.5,5.83,2.53Z"/>
          <path class="cls-5" d="M1842.43,1783.89v9.17s-11.23-10.5-11.23-10.5l-2.46,2.63,11.45,10.7c2.21,2.07,5.83.5,5.83-2.53v-9.48s-3.6,0-3.6,0Z"/>
          <path class="cls-5" d="M1830.88,1806.04h-7.37s0-3.6,0-3.6h7.03s-7.03-6.58-7.03-6.58v-4.92s9.73,9.1,9.73,9.1c2.3,2.15.78,6-2.37,6Z"/>
        </g>
        <g>
          <path class="cls-5" d="M1876.26,1817.34h-6.98s6.98,6.53,6.98,6.53v4.92s-9.68-9.05-9.68-9.05c-2.3-2.15-.78-6,2.37-6h7.31s0,3.6,0,3.6Z"/>
          <path class="cls-5" d="M1869.74,1786.29l-10.17,9.61c-2.22,2.07-5.83.5-5.83-2.53v-9.47s3.59,0,3.59,0v9.17s9.86-9.32,9.86-9.32c.9.79,1.76,1.64,2.55,2.54Z"/>
          <path class="cls-5" d="M1876.26,1804.45v1.59s-7.37,0-7.37,0c-3.14,0-4.66-3.85-2.37-6l7.47-7.08c.53,1.19.97,2.42,1.32,3.69l-6.09,5.79h6.96c.05.66.08,1.33.08,2.01Z"/>
          <g>
            <path class="cls-5" d="M1882.85,1853.02l-21.23,19.84,15.5,14.64c-.49.73-1.01,1.43-1.55,2.11-.18.23-.37.45-.56.68-.02.03-.05.06-.07.09l-15.87-14.99c-1.46-1.37-1.46-3.69,0-5.06l23.79-22.24v4.93Z"/>
            <path class="cls-5" d="M1882.85,1832.3v4.92s-23.29,21.77-23.29,21.77c-2.22,2.07-5.83.5-5.83-2.53v-30.1c0-3.03,3.61-4.6,5.83-2.53l11.45,10.7-2.46,2.63-11.23-10.5v29.49s25.52-23.85,25.52-23.85Z"/>
          </g>
        </g>
      </g>
    </g>
  </g>
  <g>
    <g>
      <path class="cls-1" d="M153.38,1845.57c0-.22.11-.32.32-.32h2.07c.26,0,.44.11.55.32l9.97,16.52h.13v-16.52c0-.22.11-.32.33-.32h2.06c.22,0,.33.11.33.32v21.37c0,.22-.11.32-.32.32h-2.07c-.26,0-.44-.11-.55-.32l-10.01-16.45h-.1v16.45c0,.22-.11.32-.33.32h-2.06c-.22,0-.33-.11-.33-.32v-21.37Z"/>
      <path class="cls-1" d="M174.56,1845.57c0-.22.11-.32.33-.32h13.27c.22,0,.32.11.32.32v2.04c0,.22-.11.32-.32.32h-10.49c-.13,0-.19.07-.19.19v6.48c0,.13.06.19.19.19h8.9c.22,0,.32.11.32.32v2.04c0,.22-.11.32-.32.32h-8.9c-.13,0-.19.07-.19.19v6.7c0,.13.06.19.19.19h10.49c.22,0,.32.11.32.32v2.04c0,.22-.11.32-.32.32h-13.27c-.22,0-.33-.11-.33-.32v-21.37Z"/>
      <path class="cls-1" d="M192.8,1845.57c0-.22.11-.32.33-.32h2.26c.22,0,.33.11.33.32v18.81c0,.13.06.19.19.19h10.49c.22,0,.32.11.32.32v2.04c0,.22-.11.32-.32.32h-13.27c-.22,0-.33-.11-.33-.32v-21.37Z"/>
      <path class="cls-1" d="M209.05,1862.44c-.11-.32-.2-.65-.28-.99-.08-.33-.14-.73-.18-1.2-.04-.46-.08-1.02-.1-1.67-.02-.65-.03-1.42-.03-2.33,0-.91.01-1.68.03-2.33.02-.65.05-1.2.1-1.67.04-.46.1-.86.18-1.2.08-.33.17-.66.28-.99.56-1.75,1.47-3.05,2.72-3.9,1.25-.85,2.78-1.28,4.6-1.28,1.64,0,3.07.38,4.29,1.15,1.22.77,2.14,1.86,2.77,3.29.06.19.02.34-.13.42l-1.94.94c-.22.11-.37.05-.45-.16-.43-.86-1-1.57-1.72-2.12-.71-.55-1.65-.83-2.82-.83-1.21,0-2.18.28-2.91.84-.73.56-1.28,1.36-1.65,2.4-.06.24-.12.49-.18.76s-.1.6-.13,1c-.03.4-.06.9-.08,1.49-.02.59-.03,1.32-.03,2.19,0,.86,0,1.59.03,2.19.02.59.05,1.09.08,1.49.03.4.08.74.13,1.02.05.28.11.53.18.75.37,1.04.92,1.84,1.65,2.4s1.71.84,2.91.84,2.1-.28,2.82-.83c.71-.55,1.28-1.26,1.72-2.12.09-.22.24-.27.45-.16l1.94.94c.15.09.19.23.13.42-.63,1.43-1.55,2.52-2.77,3.29-1.22.77-2.65,1.15-4.29,1.15-1.81,0-3.35-.43-4.6-1.28-1.25-.85-2.16-2.15-2.72-3.9Z"/>
      <path class="cls-1" d="M227.12,1864.15c0-.22.11-.32.32-.32h2.46c.22,0,.32.11.32.32v2.78c0,.22-.11.32-.32.32h-2.46c-.22,0-.32-.11-.32-.32v-2.78Z"/>
      <path class="cls-1" d="M240.2,1873.45c-1.1,0-2.14-.21-3.12-.63-.98-.42-1.73-.98-2.25-1.67-.13-.15-.12-.3.03-.45l1.33-1.33c.15-.15.31-.15.49,0,.54.5,1.09.88,1.67,1.15.57.27,1.24.41,1.99.41,1.29,0,2.27-.34,2.93-1.03.66-.68.99-1.74.99-3.17v-1.82s-.03,0-.03,0c-.37.66-.89,1.18-1.57,1.57-.68.39-1.59.59-2.74.59-1.32,0-2.42-.32-3.3-.96s-1.52-1.57-1.91-2.8c-.19-.58-.33-1.18-.4-1.8-.08-.62-.11-1.38-.11-2.28,0-.91.04-1.67.11-2.28.08-.62.21-1.22.41-1.8.39-1.23,1.03-2.16,1.91-2.8.89-.64,1.99-.96,3.3-.96,1.14,0,2.06.19,2.74.58.68.39,1.2.91,1.57,1.55h.03v-1.46c0-.22.11-.32.32-.32h2.07c.22,0,.32.11.32.32v14.51c0,2.22-.58,3.92-1.73,5.1-1.15,1.18-2.83,1.77-5.04,1.77ZM240.58,1864.54c1.67,0,2.78-.77,3.32-2.32.13-.39.22-.82.28-1.29.05-.47.08-1.04.08-1.71s-.03-1.23-.08-1.69c-.05-.46-.15-.9-.28-1.31-.54-1.53-1.65-2.29-3.32-2.29-1.65,0-2.74.76-3.28,2.29-.13.41-.23.86-.29,1.34-.07.48-.1,1.04-.1,1.66,0,1.23.13,2.23.39,3,.54,1.55,1.64,2.32,3.28,2.32Z"/>
      <path class="cls-1" d="M257.98,1867.62c-1.51,0-2.8-.37-3.87-1.1-1.07-.73-1.82-1.76-2.25-3.08-.17-.54-.3-1.11-.39-1.7-.09-.59-.13-1.34-.13-2.25,0-.91.04-1.65.13-2.23.09-.58.22-1.14.39-1.68.43-1.34,1.18-2.37,2.25-3.09,1.07-.72,2.36-1.09,3.87-1.09,1.51,0,2.8.36,3.87,1.09,1.07.72,1.82,1.75,2.25,3.09.17.54.3,1.1.39,1.68s.13,1.33.13,2.23-.04,1.66-.13,2.25c-.09.59-.22,1.16-.39,1.7-.43,1.32-1.18,2.34-2.25,3.08-1.07.73-2.36,1.1-3.87,1.1ZM257.98,1865.09c.86,0,1.6-.21,2.2-.63.6-.42,1.04-1.02,1.29-1.8.13-.43.22-.88.28-1.34s.08-1.07.08-1.83-.03-1.36-.08-1.81c-.05-.45-.15-.9-.28-1.33-.26-.78-.69-1.38-1.29-1.8-.6-.42-1.34-.63-2.2-.63-.86,0-1.6.21-2.2.63-.6.42-1.04,1.02-1.29,1.8-.13.43-.22.87-.28,1.33-.05.45-.08,1.06-.08,1.81,0,.76.03,1.37.08,1.83.05.46.15.91.28,1.34.26.78.69,1.38,1.29,1.8.6.42,1.34.63,2.2.63Z"/>
      <path class="cls-1" d="M273.07,1867.26c-.19,0-.32-.11-.39-.32l-5.57-14.86c-.06-.22.02-.32.26-.32h2.23c.19,0,.34.11.42.32l4.02,11.14h.07s3.92-11.14,3.92-11.14c.07-.22.19-.32.39-.32h2.2c.24,0,.32.11.26.32l-5.54,14.86c-.06.22-.21.32-.42.32h-1.84Z"/>
      <path class="cls-1" d="M281.85,1864.15c0-.22.11-.32.32-.32h2.46c.22,0,.32.11.32.32v2.78c0,.22-.11.32-.32.32h-2.46c-.22,0-.32-.11-.32-.32v-2.78Z"/>
      <path class="cls-1" d="M295.22,1867.62c-.76,0-1.46-.07-2.1-.21-.65-.14-1.24-.32-1.77-.55-.53-.23-1-.47-1.42-.74s-.79-.54-1.12-.83c-.15-.15-.15-.3,0-.45l1.33-1.42c.15-.15.3-.15.45,0,.58.5,1.29.92,2.12,1.26.83.34,1.72.52,2.67.52,1.14,0,2-.22,2.56-.66.56-.44.84-1.01.84-1.7,0-.6-.2-1.09-.6-1.44s-1.2-.6-2.41-.73l-1.65-.16c-1.53-.17-2.69-.63-3.47-1.36-.78-.73-1.16-1.74-1.16-3.01,0-1.49.5-2.65,1.51-3.48,1-.83,2.42-1.25,4.26-1.25,1.14,0,2.19.16,3.12.49.94.32,1.73.73,2.38,1.23.17.11.19.26.06.45l-1.1,1.39c-.13.15-.28.17-.45.06-.5-.32-1.12-.62-1.86-.87-.74-.26-1.52-.39-2.32-.39-.97,0-1.71.2-2.2.6-.5.4-.74.91-.74,1.54,0,.63.22,1.11.65,1.44s1.24.56,2.4.66l1.62.16c1.58.15,2.76.6,3.53,1.36.77.76,1.15,1.76,1.15,3.01,0,1.53-.54,2.76-1.62,3.69-1.08.93-2.63,1.39-4.66,1.39Z"/>
      <path class="cls-1" d="M315.14,1867.26c-.21,0-.32-.11-.32-.32v-1.36s-.03,0-.03,0c-.37.58-.93,1.07-1.68,1.46s-1.73.58-2.91.58c-.73,0-1.42-.1-2.06-.29-.64-.19-1.19-.49-1.65-.88-.47-.39-.83-.88-1.1-1.46s-.4-1.27-.4-2.05c0-1.65.53-2.86,1.6-3.64,1.07-.78,2.55-1.17,4.45-1.17h3.53c.13,0,.19-.06.19-.19v-1.13c0-1.07-.26-1.84-.78-2.31-.52-.47-1.5-.71-2.95-.71-.89,0-1.62.1-2.2.31-.58.21-1.1.47-1.55.79-.19.15-.35.14-.45-.03l-.87-1.49c-.09-.17-.06-.32.07-.45.58-.45,1.32-.82,2.2-1.1.89-.28,1.91-.42,3.08-.42,2.2,0,3.76.41,4.68,1.22.92.81,1.38,2.16,1.38,4.06v10.26c0,.22-.11.32-.32.32h-1.89ZM310.82,1865.29c1.23,0,2.2-.26,2.89-.79.69-.53,1.04-1.28,1.04-2.25v-1.72c0-.13-.06-.19-.19-.19h-3.12c-1.37,0-2.35.2-2.96.6s-.91,1.04-.91,1.93c0,.8.28,1.4.84,1.81.56.41,1.37.61,2.41.61Z"/>
    </g>
    <path class="cls-1" d="M320.42,1823.36h-170.16c-18.21,0-33.02,14.81-33.02,33.02s14.81,33.02,33.02,33.02h170.16c18.21,0,33.02-14.81,33.02-33.02s-14.81-33.02-33.02-33.02ZM351.01,1856.37c0,16.86-13.72,30.58-30.58,30.58h-170.16c-16.86,0-30.58-13.72-30.58-30.58s13.72-30.58,30.58-30.58h170.16c16.86,0,30.58,13.72,30.58,30.58Z"/>
  </g>
  <rect class="cls-2" x="117.65" y="1777.78" width="1764.71" height="111.37"/>
  <rect class="cls-2" x="117.65" y="112.13" width="1764.71" height="1609.08"/>
</svg>