<?xml version="1.0" encoding="UTF-8"?>
<svg id="Layer_1" data-name="Layer 1" xmlns="http://www.w3.org/2000/svg" viewBox="0 0 80 80">
  <defs>
    <style>
      .cls-1 {
        fill: #552f91;
      }
    </style>
  </defs>
  <path class="cls-1" d="M66.65,22.29H13.35c-1.25,0-2.28,1.02-2.28,2.27v30.88c0,1.25,1.02,2.27,2.28,2.27h53.31c1.25,0,2.28-1.02,2.28-2.27v-30.88c0-1.25-1.02-2.27-2.28-2.27ZM37.65,30.84h4.72v3.03h-4.72v-3.03ZM37.65,38.56h4.72v3.03h-4.72v-3.03ZM28.4,30.84h4.72v3.03h-4.72v-3.03ZM28.4,38.56h4.72v3.03h-4.72v-3.03ZM23.87,41.59h-4.72v-3.03h4.72v3.03ZM23.87,33.87h-4.72v-3.03h4.72v3.03ZM51.62,49.16h-23.22v-3.03h23.22v3.03ZM51.62,41.59h-4.72v-3.03h4.72v3.03ZM51.62,33.87h-4.72v-3.03h4.72v3.03ZM60.86,41.59h-4.72v-3.03h4.72v3.03ZM60.86,33.87h-4.72v-3.03h4.72v3.03Z"/>
</svg>