<?xml version="1.0" encoding="UTF-8"?>
<svg id="Layer_1" data-name="Layer 1" xmlns="http://www.w3.org/2000/svg" viewBox="0 0 80 80">
  <defs>
    <style>
      .cls-1 {
        fill: #552f91;
      }
    </style>
  </defs>
  <path class="cls-1" d="M67.88,21.05l-.77-1.93h-6.23v-6.21s-1.89-.77-1.89-.77l-5.3,5.3c-4.16-2.58-9.07-4.07-14.31-4.07-15.03,0-27.26,12.23-27.26,27.26s12.23,27.26,27.26,27.26,27.26-12.23,27.26-27.26c0-5.25-1.49-10.15-4.07-14.31l4.54-4.54.76-.71ZM58.14,26.45l-2.2-.24-5.65,5.65c1.93,2.4,3.1,5.44,3.1,8.76,0,7.72-6.28,14-14,14s-14-6.28-14-14,6.28-14,14-14c3.31,0,6.36,1.16,8.76,3.1l5.65-5.65-.24-2.2,4.3-4.3v4.59h4.59l-4.3,4.3Z"/>
  <path class="cls-1" d="M42.8,39.35c.15.4.24.82.24,1.27,0,2.01-1.64,3.65-3.65,3.65s-3.65-1.64-3.65-3.65,1.64-3.65,3.65-3.65c.45,0,.87.09,1.26.24l5.33-5.33c-1.84-1.39-4.12-2.23-6.59-2.23-6.05,0-10.97,4.92-10.97,10.97s4.92,10.97,10.97,10.97,10.96-4.92,10.96-10.97c0-2.48-.84-4.76-2.23-6.6l-5.33,5.33Z"/>
</svg>