<?xml version="1.0" encoding="UTF-8"?>
<svg id="Layer_1" data-name="Layer 1" xmlns="http://www.w3.org/2000/svg" viewBox="0 0 80 80">
  <defs>
    <style>
      .cls-1 {
        fill: #552f91;
      }
    </style>
  </defs>
  <path class="cls-1" d="M27.61,51.98l11.32,6.47-7.65,5.96c-.41.32-.9.48-1.4.48-.34,0-.68-.07-1-.23-.78-.38-1.27-1.17-1.27-2.04v-10.64Z"/>
  <path class="cls-1" d="M68.74,17.37l-.15.13c.03.34,0,.67-.13,1l-17.18,43.51-19.59-11.19,22.31-20.14-2.03-2.25-23.05,20.8-17.67-10.1c.17-.15.37-.27.58-.36l53.61-23.19c.3-.13.62-.17.94-.17l.33-.29.37.42c.31.1.6.25.85.49.33.32.55.72.64,1.15l.17.19Z"/>
</svg>