<?xml version="1.0" encoding="UTF-8"?>
<svg id="Layer_1" data-name="Layer 1" xmlns="http://www.w3.org/2000/svg" viewBox="0 0 80 80">
  <defs>
    <style>
      .cls-1 {
        fill: none;
        stroke: #552f91;
        stroke-miterlimit: 10;
        stroke-width: 3.03px;
      }
    </style>
  </defs>
  <path class="cls-1" d="M59.02,46.93l5.33-5.33c.89-.89.89-2.33,0-3.22l-5.33-5.33c-.43-.43-.67-1.01-.67-1.61v-7.53c0-1.26-1.02-2.28-2.28-2.28h-7.53c-.6,0-1.18-.24-1.61-.67l-5.33-5.33c-.89-.89-2.33-.89-3.22,0l-5.33,5.33c-.43.43-1.01.67-1.61.67h-7.53c-1.26,0-2.28,1.02-2.28,2.28v7.53c0,.6-.24,1.18-.67,1.61l-5.33,5.33c-.89.89-.89,2.33,0,3.22l5.33,5.33c.43.43.67,1.01.67,1.61v7.53c0,1.26,1.02,2.28,2.28,2.28h7.53c.6,0,1.18.24,1.61.67l5.33,5.33c.89.89,2.33.89,3.22,0l5.33-5.33c.43-.43,1.01-.67,1.61-.67h7.53c1.26,0,2.28-1.02,2.28-2.28v-7.53c0-.6.24-1.18.67-1.61Z"/>
  <path class="cls-1" d="M29.25,41l6.06,6.06c.3.3.78.3,1.07,0l14.36-14.36"/>
</svg>