<?xml version="1.0" encoding="UTF-8"?>
<svg id="Layer_1" data-name="Layer 1" xmlns="http://www.w3.org/2000/svg" viewBox="0 0 80 80">
  <defs>
    <style>
      .cls-1 {
        fill: #552f91;
      }
    </style>
  </defs>
  <path class="cls-1" d="M38.72,44.81v.63c0,.57.17,1.12.48,1.59l.26.4c.54.81,1.43,1.29,2.4,1.29s1.95-.53,2.47-1.39l.18-.3c.27-.45.41-.96.41-1.49v-.73h-6.21Z"/>
  <path class="cls-1" d="M41.95,22.81s-.09,0-.14,0c-4.86,0-8.71,3.7-8.81,8.48-.05,2.37.89,4.12,2.43,6.19.36.49.7.85,1.03,1.2.7.76,1.43,1.55,1.93,3.09h4.01s2.91,0,2.91,0c.04-.13.08-.27.13-.39.51-1.27,1.21-1.97,1.89-2.65.38-.38.74-.75,1.12-1.25,1.54-2.07,2.48-3.83,2.43-6.2-.11-4.83-4.04-8.55-8.91-8.48Z"/>
  <path class="cls-1" d="M59.31,16.92c-4.43-4.83-11.06-7.39-19.17-7.39-14.1,0-20.42,9.73-20.42,19.37v4.95l-4.14,8.27c-.58,1.15-.62,2.49-.13,3.67.49,1.18,1.47,2.09,2.67,2.48l1.71.57c.22,1.84.77,5.87,1.78,9.24.85,2.81,3.67,4.56,6.58,4.07l1.73-.29v8.6h25.22v-8.76c0-4.53,1.81-7.61,3.91-11.17,2.38-4.04,5.08-8.62,5.73-16.2.58-6.74-1.37-12.93-5.49-17.42ZM50.87,39.29c-.51.69-.99,1.17-1.41,1.59-.56.57-.94.94-1.22,1.64-.19.46-.28,1.01-.28,1.64v1.39c0,1.08-.29,2.13-.85,3.05l-.18.3c-1.06,1.77-3,2.86-5.07,2.86s-3.83-.99-4.93-2.65l-.26-.4c-.64-.97-.98-2.1-.98-3.27v-1.36c0-.48-.06-.92-.17-1.28-.3-.97-.65-1.35-1.3-2.05-.36-.39-.78-.84-1.24-1.46-1.87-2.51-3.1-4.85-3.02-8.07.15-6.51,5.43-11.55,11.99-11.44.06,0,.12,0,.19,0,6.44,0,11.61,4.99,11.76,11.44.08,3.41-1.41,5.9-3.02,8.07Z"/>
</svg>