<?xml version="1.0" encoding="UTF-8"?>
<svg id="Layer_1" data-name="Layer 1" xmlns="http://www.w3.org/2000/svg" viewBox="0 0 80 80">
  <defs>
    <style>
      .cls-1 {
        fill: #552f91;
      }
    </style>
  </defs>
  <g>
    <path class="cls-1" d="M33.16,44.94h13.68c8.63,0,15.63,7,15.63,15.63v3.08H17.53v-3.08c0-8.63,7-15.63,15.63-15.63Z"/>
    <path class="cls-1" d="M63.99,65.17H16.01v-4.6c0-9.46,7.69-17.15,17.15-17.15h13.68c9.46,0,17.15,7.69,17.15,17.15v4.6ZM19.05,62.14h41.91v-1.57c0-7.78-6.33-14.11-14.11-14.11h-13.68c-7.78,0-14.11,6.33-14.11,14.11v1.57Z"/>
  </g>
  <g>
    <circle class="cls-1" cx="40.57" cy="27.3" r="10.95"/>
    <path class="cls-1" d="M40.57,39.77c-6.88,0-12.47-5.59-12.47-12.47s5.59-12.47,12.47-12.47,12.47,5.59,12.47,12.47-5.59,12.47-12.47,12.47ZM40.57,17.86c-5.2,0-9.44,4.23-9.44,9.44s4.23,9.44,9.44,9.44,9.44-4.23,9.44-9.44-4.23-9.44-9.44-9.44Z"/>
  </g>
</svg>