<?xml version="1.0" encoding="UTF-8"?>
<svg id="Layer_1" data-name="Layer 1" xmlns="http://www.w3.org/2000/svg" viewBox="0 0 80 80">
  <defs>
    <style>
      .cls-1 {
        fill: #552f91;
      }
    </style>
  </defs>
  <path class="cls-1" d="M65.42,37.3l-5.33-5.33c-.14-.14-.22-.34-.22-.54v-7.53c0-2.09-1.7-3.79-3.79-3.79h-7.53c-.2,0-.39-.08-.54-.22l-5.33-5.33c-1.43-1.43-3.93-1.43-5.36,0l-5.33,5.33c-.14.14-.33.22-.54.22h-7.53c-2.09,0-3.79,1.7-3.79,3.79v7.53c0,.2-.08.39-.22.54l-5.33,5.33c-.72.72-1.11,1.67-1.11,2.68s.39,1.97,1.11,2.68l5.33,5.33c.14.14.22.33.22.54v7.53c0,2.09,1.7,3.79,3.79,3.79h7.53c.2,0,.39.08.54.22l5.33,5.33c.74.74,1.71,1.11,2.68,1.11s1.94-.37,2.68-1.11l5.33-5.33c.14-.14.33-.22.54-.22h7.53c2.09,0,3.79-1.7,3.79-3.79v-7.53c0-.2.08-.39.22-.54l5.33-5.33c.72-.72,1.11-1.67,1.11-2.68s-.39-1.97-1.11-2.68ZM37.46,48.12c-.43.43-1,.67-1.61.67s-1.18-.24-1.61-.67l-6.06-6.06,2.14-2.15,5.53,5.53,13.82-13.82,2.14,2.14-14.36,14.36Z"/>
</svg>