<?xml version="1.0" encoding="UTF-8"?>
<svg id="Layer_1" data-name="Layer 1" xmlns="http://www.w3.org/2000/svg" viewBox="0 0 80 80">
  <defs>
    <style>
      .cls-1 {
        fill: none;
        stroke: #552f91;
        stroke-miterlimit: 10;
        stroke-width: 3.03px;
      }
    </style>
  </defs>
  <g>
    <path class="cls-1" d="M40,12.03v8.4c.95-.55,2.05-.87,3.23-.87,3.57,0,6.46,2.89,6.46,6.46s-2.89,6.46-6.46,6.46c-1.18,0-2.28-.32-3.23-.87v8.4"/>
    <path class="cls-1" d="M67.97,40h-8.4c.55.95.87,2.05.87,3.23,0,3.57-2.89,6.46-6.46,6.46s-6.46-2.89-6.46-6.46c0-1.18.32-2.28.87-3.23h-8.4"/>
    <path class="cls-1" d="M40,67.97v-8.4c-.95.55-2.05.87-3.23.87-3.57,0-6.46-2.89-6.46-6.46s2.89-6.46,6.46-6.46c1.18,0,2.28.32,3.23.87v-8.4"/>
    <path class="cls-1" d="M12.03,40h8.4c-.55-.95-.87-2.05-.87-3.23,0-3.57,2.89-6.46,6.46-6.46s6.46,2.89,6.46,6.46c0,1.18-.32,2.28-.87,3.23h8.4"/>
    <path class="cls-1" d="M40,12.03h-17.21c-5.94,0-10.76,4.82-10.76,10.76v17.21"/>
    <path class="cls-1" d="M67.97,40v17.21c0,5.94-4.82,10.76-10.76,10.76h-17.21"/>
    <path class="cls-1" d="M40,67.97h-17.21c-5.94,0-10.76-4.82-10.76-10.76v-17.21"/>
  </g>
  <g>
    <line class="cls-1" x1="40" y1="12.03" x2="43.23" y2="12.03"/>
    <path class="cls-1" d="M49.64,12.03h7.58c5.94,0,10.76,4.82,10.76,10.76v10.78"/>
    <line class="cls-1" x1="67.97" y1="36.77" x2="67.97" y2="40"/>
  </g>
</svg>