<?xml version="1.0" encoding="UTF-8"?>
<svg id="Layer_1" data-name="Layer 1" xmlns="http://www.w3.org/2000/svg" viewBox="0 0 80 80">
  <defs>
    <style>
      .cls-1 {
        fill: #552f91;
      }
    </style>
  </defs>
  <path class="cls-1" d="M61.74,29.24l6.29-6.29.23-.29c.97-1.62,1.87-5.64-1.7-9.21-3.58-3.57-7.59-2.67-9.21-1.7l-6.55,6.54,10.95,10.95Z"/>
  <path class="cls-1" d="M50.99,39.99l8.61-8.61-4.42-4.42-28.86,28.86-2.14-2.14,28.86-28.86-4.39-4.39-8.26,8.24L21.66,9.94l-11.71,11.72,18.72,18.72-12.86,12.84-4.57,15.55,15.55-4.57,12.85-12.85,18.71,18.71,11.71-11.71-19.07-18.35ZM14.23,21.66l7.42-7.43,3.31,3.31-4.08,4.08,2.14,2.14,4.08-4.08,2.27,2.27-1.87,1.87,2.14,2.15,1.87-1.87,2.27,2.27-4.08,4.08,2.14,2.14,4.08-4.08,2.29,2.29-7.43,7.42L14.23,21.66ZM41.78,49.2l7.07-7.07,2.32,2.22-3.77,3.77,2.14,2.14,3.82-3.82,2.32,2.22-1.66,1.66,2.14,2.15,1.71-1.71,2.32,2.22-3.96,3.96,2.14,2.14,4.01-4.01,3.39,3.24-7.43,7.42-16.56-16.56Z"/>
</svg>