<?xml version="1.0" encoding="UTF-8"?><svg id="Layer_1" xmlns="http://www.w3.org/2000/svg" viewBox="0 0 584.83 268.82"><path d="M483.94,146.22l-10.13,10.13h0s-10.13,10.13-10.13,10.13l26.32,26.32c5.6,5.6,14.67,5.6,20.27,0,2.79-2.79,4.19-6.46,4.2-10.12v-.03c0-3.66-1.4-7.32-4.2-10.12l-26.32-26.32Z" style="fill:#00b1db;"/><path d="M490,99.63l-26.32,26.32,10.13,10.13h0s10.13,10.13,10.13,10.13l26.32-26.32c2.8-2.79,4.19-6.46,4.2-10.12v-.03c0-3.66-1.4-7.32-4.2-10.12-5.6-5.6-14.67-5.6-20.27,0" style="fill:#00b1db;"/><path d="M473.81,156.35l10.13-10.13-10.13-10.13h0s-10.13-10.13-10.13-10.13l-26.26-26.26c-5.6-5.58-14.66-5.58-20.26.01-5.6,5.6-5.6,14.67,0,20.27l25.34,25.34.91.91-.97.97-25.28,25.28c-5.6,5.6-5.6,14.67,0,20.27,5.59,5.59,14.66,5.6,20.26.01l26.26-26.26,10.13-10.13h0Z" style="fill:#0078b9;"/><path d="M214.34,95.35v23.36c0,2.55,2.06,4.61,4.61,4.61h48.17c2.55,0,4.61,2.06,4.61,4.61v10.22c0,2.55-2.06,4.61-4.61,4.61h-48.17c-2.55,0-4.61,2.06-4.61,4.61v25.88c0,2.55,2.06,4.61,4.61,4.61h52.67c2.55,0,4.61,2.06,4.61,4.61v10.22c0,2.55-2.06,4.61-4.61,4.61h-66.27c-6.27,0-11.35-5.08-11.35-11.35v-103.32c0-6.27,5.08-11.34,11.35-11.34h66.27c2.55,0,4.61,2.06,4.61,4.61v10.22c0,2.55-2.06,4.61-4.61,4.61h-52.67c-2.55,0-4.61,2.06-4.61,4.61" style="fill:#434243;"/><path d="M335.05,150.33h-13.68c-2.55,0-4.61,2.06-4.61,4.61v37.76c0,2.55-2.06,4.61-4.61,4.61h-11.11c-2.55,0-4.61-2.06-4.61-4.61v-110.06c0-6.27,5.08-11.34,11.35-11.34h40.65c27.35,0,42.82,16.2,42.82,39.96,0,20.7-11.7,34.21-31.67,37.99l31.77,40.61c2.37,3.03.21,7.45-3.63,7.45h-13.27c-1.44,0-2.79-.67-3.66-1.81l-33.91-44.27c-.44-.57-1.11-.9-1.83-.9M316.76,127.72c0,2.55,2.06,4.61,4.61,4.61h24.9c16.73,0,24.47-8.64,24.47-20.88s-7.92-20.7-24.47-20.7h-24.9c-2.55,0-4.61,2.06-4.61,4.61v32.36Z" style="fill:#434243;"/><path d="M159.37,87.02c-9.61-11.09-22.04-16.64-37.29-16.64-10.53,0-19.48,2.34-26.87,7.01-7.39,4.68-13.38,11.79-17.96,21.33-4.58,9.55-6.87,21.7-6.87,36.45,0,20.33,5.08,36.33,15.25,47.99,8.93,10.19,21.11,15.29,36.54,15.29s27.43-5.15,36.36-15.46c10.17-11.66,15.25-27.85,15.25-48.58s-4.81-36.3-14.41-47.39M143.26,166.47c-5.57,7.07-12.58,10.6-21.05,10.6s-15.46-3.56-21.14-10.69c-5.68-7.13-8.53-17.81-8.53-32.06s2.75-25.26,8.26-32.19c5.51-6.93,12.64-10.39,21.41-10.39s15.85,3.44,21.27,10.31c5.42,6.87,8.13,17.49,8.13,31.85s-2.78,25.5-8.35,32.57" style="fill:#434243;"/></svg>