<?xml version="1.0" encoding="UTF-8"?><svg id="Layer_1" xmlns="http://www.w3.org/2000/svg" viewBox="0 0 827.79 403.6"><rect x="85.87" y="205.01" width="6.12" height="6.46" rx=".69" ry=".69" style="fill:#fff;"/><path d="M86.96,199.45h16.24c2.41,0,4.44-.27,6.11-.8,1.67-.53,3.01-1.24,4.03-2.12,1.02-.88,1.75-1.87,2.19-2.95.44-1.09.66-2.19.66-3.3,0-1.02-.16-1.96-.48-2.81-.32-.86-.6-1.47-.82-1.84h4.97s.02,0,.03,0c.02,0,.04,0,.06,0h7.65c.09,0,.15-.02.23-.03.09,0,.16.03.25.03h5.42c3.66,0,6.07-1.2,7.23-3.61.6,1.2,1.46,2.11,2.57,2.71,1.11.6,2.41.9,3.89.9h14.11c1.95,0,3.5-.3,4.66-.9.46.6,1.25.9,2.37.9h23.4c1.86,0,3.46-.22,4.8-.66s2.44-1.18,3.27-2.22c.84-1.04,1.45-2.41,1.84-4.1.39-1.69.59-3.76.59-6.22,0-2.22-.26-4.33-.77-6.32-.51-1.99-1.4-3.74-2.68-5.25-1.28-1.51-2.98-2.7-5.12-3.58-2.13-.88-4.83-1.32-8.08-1.32-2.93,0-5.78.42-8.56,1.25-2.78.83-5.31,1.85-7.59,3.06v-21.13c-.01-.46-.24-.7-.71-.7h-4.45c-.46,0-.69.23-.69.7v37.39c0,1.39-.27,2.35-.8,2.88s-1.38.8-2.54.8h-12.37c-1.9,0-3.42-.39-4.55-1.18-1.14-.79-1.7-1.97-1.7-3.54v-17.58c0-.46-.23-.69-.7-.69h-4.45c-.46,0-.7.23-.7.69v18.63c0,1.39-.27,2.35-.8,2.88s-1.38.8-2.54.8h-4.38c-.09,0-.15.03-.23.03-.09,0-.16-.03-.25-.03h-7.65s-.03,0-.05,0c0,0-.01,0-.02,0h-5.63c-1.34,0-2.67-.15-3.96-.45-1.3-.3-2.61-.7-3.93-1.18-1.32-.49-2.68-1.02-4.07-1.6-1.39-.58-2.83-1.15-4.31-1.7-.42-.14-.69.02-.83.49l-1.53,4.17c-.14.42,0,.7.42.83,2.36.88,4.46,1.65,6.29,2.29,1.83.65,3.36,1.29,4.59,1.91,1.23.63,2.15,1.31,2.78,2.05.63.74.94,1.62.94,2.64,0,1.16-.54,2.15-1.63,2.99-1.09.83-3.02,1.25-5.8,1.25h-15.36c-1.53,0-2.98-.17-4.34-.52-1.37-.35-2.58-.92-3.65-1.7-1.07-.79-1.91-1.84-2.54-3.16-.63-1.32-.94-2.93-.94-4.83,0-2.08.38-4.08,1.15-5.98.76-1.9,1.56-3.5,2.4-4.8.23-.37.16-.67-.21-.9l-3.82-2.09c-.46-.28-.79-.25-.97.07-1.21,1.71-2.26,3.83-3.16,6.36-.9,2.53-1.36,5.16-1.36,7.89,0,4.73,1.41,8.44,4.23,11.16,2.82,2.71,6.94,4.07,12.35,4.07ZM169.42,176.86v-11.19c1.02-.51,2.14-1.02,3.37-1.53,1.23-.51,2.52-.97,3.89-1.39,1.37-.42,2.77-.75,4.2-1.01,1.44-.25,2.85-.38,4.24-.38,2.08,0,3.82.24,5.21.73,1.39.49,2.5,1.19,3.34,2.12.83.93,1.42,2.06,1.77,3.41.35,1.34.52,2.87.52,4.59,0,1.62-.08,2.95-.24,4-.16,1.04-.48,1.85-.94,2.43-.46.58-1.11.98-1.95,1.22-.83.23-1.9.35-3.2.35h-20.57c.23-1.07.35-2.18.35-3.34Z" style="fill:#fff;"/><rect x="94.35" y="205.01" width="6.12" height="6.46" rx=".69" ry=".69" style="fill:#fff;"/><path d="M136.33,143.84h4.73c.38,0,.69.31.69.69v5.07c0,.38-.31.7-.7.7h-4.73c-.38,0-.7-.31-.7-.7v-5.07c0-.38.31-.69.69-.69Z" style="fill:#fff;"/><path d="M241.18,185.61s.02,0,.04,0h5.42c2.92,0,5-.71,6.26-2.12,1.25-1.41,1.88-3.62,1.88-6.64v-37.81c0-.46-.23-.69-.7-.69h-4.45c-.46,0-.69.23-.69.69v37.46c0,1.39-.27,2.35-.8,2.88s-1.38.8-2.54.8h-4.38s-.02,0-.03,0c-.01,0-.02,0-.03,0h-4.8v-9.1c0-5.33-1.16-9.19-3.48-11.57-2.32-2.39-5.54-3.58-9.66-3.58-1.81,0-3.52.31-5.14.94-1.62.63-3.05,1.58-4.27,2.85-1.23,1.27-2.2,2.9-2.92,4.87-.72,1.97-1.08,4.27-1.08,6.92s.3,4.86.9,6.67c.6,1.81,1.48,3.26,2.64,4.34,1.16,1.09,2.56,1.88,4.2,2.36,1.64.49,3.49.73,5.53.73h7.44v1.81c0,1.3-.16,2.37-.49,3.23-.33.86-.78,1.53-1.36,2.02-.58.49-1.26.83-2.05,1.04-.79.21-1.65.31-2.57.31h-8.34c-.46,0-.69.23-.69.7v4.03c0,.46.23.69.69.69h8.62c1.81,0,3.45-.23,4.93-.69,1.48-.46,2.75-1.18,3.79-2.16,1.04-.97,1.85-2.22,2.43-3.75.58-1.53.87-3.38.87-5.56v-1.67h4.8s.02,0,.03,0ZM230.51,180.19h-7.02c-2.59,0-4.55-.63-5.87-1.88-1.32-1.25-1.98-3.52-1.98-6.81,0-3.06.68-5.51,2.05-7.37,1.37-1.85,3.21-2.78,5.53-2.78,2.59,0,4.46.86,5.59,2.57,1.13,1.72,1.7,4.1,1.7,7.16v9.1Z" style="fill:#fff;"/><rect x="264.5" y="138.35" width="5.84" height="47.26" rx=".69" ry=".69" style="fill:#fff;"/><path d="M320.38,185.61s.01,0,.02,0c.02,0,.03,0,.05,0h15.15c3.66,0,6.07-1.2,7.23-3.61.6,1.2,1.46,2.11,2.57,2.71,1.11.6,2.41.9,3.89.9h3.34c3.66,0,6.07-1.2,7.23-3.61.6,1.2,1.46,2.11,2.57,2.71,1.11.6,2.41.9,3.89.9h3.34c2.92,0,5-.71,6.26-2.12,1.25-1.41,1.88-3.62,1.88-6.64v-18.97c0-.46-.23-.69-.69-.69h-4.45c-.46,0-.7.23-.7.69v18.63c0,1.39-.27,2.35-.8,2.88s-1.38.8-2.54.8h-1.74c-1.85,0-3.34-.39-4.45-1.18-1.11-.79-1.67-1.97-1.67-3.54v-11.61c0-.46-.23-.69-.7-.69h-4.45c-.46,0-.69.23-.69.69v12.65c0,1.39-.27,2.35-.8,2.88-.53.53-1.38.8-2.54.8h-1.74c-1.85,0-3.34-.39-4.45-1.18-1.11-.79-1.67-1.97-1.67-3.54v-11.61c0-.46-.23-.69-.69-.69h-4.45c-.46,0-.69.23-.69.69v12.65c0,1.39-.27,2.35-.8,2.88s-1.38.8-2.54.8h-14.11s-.03,0-.05,0c0,0-.01,0-.02,0h-7.65s-.03,0-.05,0c0,0-.01,0-.02,0h-.76c-1.9,0-3.42-.39-4.55-1.18-1.14-.79-1.7-1.97-1.7-3.54v-17.58c0-.46-.23-.69-.69-.69h-4.45c-.46,0-.7.23-.7.69v30.23c0,3.94-1.88,5.91-5.63,5.91h-1.6c-.46,0-.7.23-.7.7v4.03c0,.46.23.69.7.69h1.88c3.66,0,6.44-.97,8.34-2.92,1.9-1.95,2.85-4.8,2.85-8.55v-4.59c1.3,1.48,3.15,2.22,5.56,2.22h1.46s.02,0,.02,0c.02,0,.03,0,.04,0h7.65Z" style="fill:#fff;"/><path d="M359.58,143.84h4.73c.38,0,.69.31.69.69v5.07c0,.38-.31.69-.69.69h-4.73c-.38,0-.7-.31-.7-.7v-5.07c0-.38.31-.7.7-.7Z" style="fill:#fff;"/><path d="M351.1,143.84h4.73c.38,0,.69.31.69.69v5.07c0,.38-.31.7-.7.7h-4.73c-.38,0-.69-.31-.69-.69v-5.07c0-.38.31-.69.69-.69Z" style="fill:#fff;"/><path d="M355.41,135.71h4.73c.38,0,.7.31.7.7v5.07c0,.38-.31.69-.69.69h-4.73c-.38,0-.69-.31-.69-.69v-5.07c0-.38.31-.7.7-.7Z" style="fill:#fff;"/><path d="M389.67,182.52c1.16,1.09,2.56,1.88,4.2,2.36,1.64.49,3.49.73,5.53.73h7.44v1.81c0,1.3-.16,2.37-.49,3.23-.33.86-.78,1.53-1.36,2.02-.58.49-1.26.83-2.05,1.04-.79.21-1.65.31-2.57.31h-8.34c-.46,0-.69.23-.69.7v4.03c0,.46.23.69.69.69h8.62c1.81,0,3.45-.23,4.93-.69,1.48-.46,2.75-1.18,3.79-2.16,1.04-.97,1.85-2.22,2.43-3.75s.87-3.38.87-5.56v-1.67h4.8s.03,0,.05,0c.03,0,.06,0,.09,0h7.65s.01,0,.02,0c.02,0,.03,0,.05,0h7.65s.01,0,.02,0c.02,0,.03,0,.05,0h7.65s.01,0,.02,0c.02,0,.03,0,.05,0h10.64c1.3,0,2.71-.2,4.24-.59,1.53-.39,2.78-1.33,3.75-2.81,1.16,1.34,2.57,2.33,4.24,2.95,1.67.63,3.59.94,5.77.94s4.03-.3,5.7-.9c1.67-.6,3.08-1.57,4.24-2.92.46.74,1.02,1.33,1.67,1.77.65.44,1.33.78,2.05,1.01.72.23,1.45.38,2.19.45.74.07,1.44.1,2.09.1h14.6c2.92,0,5-.71,6.25-2.12,1.25-1.41,1.88-3.62,1.88-6.64v-37.81c0-.46-.23-.69-.69-.69h-4.45c-.46,0-.69.23-.69.69v37.46c0,1.39-.27,2.35-.8,2.88-.53.53-1.38.8-2.54.8h-14.04c-1.02,0-1.98-.43-2.89-1.29s-1.38-2.47-1.42-4.83c.04-.46.08-.95.1-1.46.02-.51.03-1.02.03-1.53,0-5.33-1.18-9.19-3.54-11.57-2.36-2.39-5.61-3.58-9.73-3.58s-7.37,1.19-9.73,3.58c-2.36,2.39-3.54,6.24-3.54,11.57v1.42c0,.44.02.89.07,1.36,0,1.2-.13,2.21-.38,3.02-.26.81-.59,1.46-1.01,1.95-.42.49-.88.83-1.39,1.04-.51.21-1.02.31-1.53.31h-11.12s-.03,0-.05,0c0,0-.01,0-.02,0h-7.65s-.03,0-.05,0c0,0-.01,0-.02,0h-7.65s-.03,0-.05,0c0,0-.01,0-.02,0h-7.65s-.06,0-.1,0c-.01,0-.02,0-.04,0h-4.8v-9.1c0-5.33-1.16-9.19-3.48-11.57-2.32-2.39-5.54-3.58-9.66-3.58-1.81,0-3.52.31-5.14.94-1.62.63-3.05,1.58-4.27,2.85-1.23,1.27-2.2,2.9-2.92,4.87-.72,1.97-1.08,4.27-1.08,6.92s.3,4.86.9,6.67c.6,1.81,1.48,3.26,2.64,4.34ZM463.73,163.93c1.18-1.71,3.07-2.57,5.66-2.57s4.48.86,5.66,2.57c1.18,1.72,1.77,4.1,1.77,7.16,0,3.34-.59,5.77-1.77,7.3-1.18,1.53-3.07,2.29-5.66,2.29s-4.48-.76-5.66-2.29c-1.18-1.53-1.77-3.96-1.77-7.3,0-3.06.59-5.44,1.77-7.16ZM394.02,164.14c1.37-1.85,3.21-2.78,5.53-2.78,2.59,0,4.46.86,5.59,2.57,1.13,1.72,1.7,4.1,1.7,7.16v9.1h-7.02c-2.59,0-4.55-.63-5.87-1.88-1.32-1.25-1.98-3.52-1.98-6.81,0-3.06.68-5.51,2.05-7.37Z" style="fill:#fff;"/><path d="M391.97,150.86h14.8c.28,0,.42-.16.42-.49v-2.22c0-.32-.14-.49-.42-.49h-7.85c-.51-.28-1.02-.72-1.53-1.32-.51-.6-.76-1.41-.76-2.43,0-.88.3-1.69.9-2.43.6-.74,1.57-1.11,2.92-1.11.88,0,1.62.15,2.22.45.6.3,1.13.66,1.6,1.08.23.23.42.3.56.21l1.81-1.53c.23-.23.25-.49.07-.76-.51-.79-1.32-1.42-2.43-1.91-1.11-.49-2.32-.73-3.61-.73-1.48,0-2.7.22-3.65.66-.95.44-1.73.99-2.33,1.63-.6.65-1.02,1.36-1.25,2.12-.23.76-.35,1.49-.35,2.19,0,.83.12,1.58.35,2.22.23.65.53,1.21.9,1.67h-2.36c-.28,0-.42.16-.42.49v2.22c0,.32.14.49.42.49Z" style="fill:#fff;"/><path d="M520.48,138.35h4.45c.38,0,.7.31.7.7v45.87c0,.38-.31.69-.69.69h-4.45c-.38,0-.69-.31-.69-.69v-45.87c0-.38.31-.7.7-.7Z" style="fill:#fff;"/><path d="M95.45,280.65h6.51c.36,0,.65.29.65.65v6.32c0,.36-.29.64-.64.64h-6.51c-.36,0-.64-.29-.64-.64v-6.32c0-.36.29-.64.64-.64Z" style="fill:#fff;"/><rect x="84.88" y="280.65" width="7.74" height="7.61" rx=".64" ry=".64" style="fill:#fff;"/><rect x="220.79" y="221.72" width="7.8" height="7.61" rx=".64" ry=".64" style="fill:#fff;"/><path d="M229.83,237.84c-1.31-1.12-2.83-1.91-4.55-2.38-1.72-.47-3.53-.71-5.43-.71s-3.58.24-5.3.71c-1.72.47-3.25,1.26-4.59,2.38-1.34,1.11-2.4,2.6-3.2,4.46-.8,1.86-1.19,4.21-1.19,7.04,0,2.44.35,4.37,1.04,5.78h-4.96c-.23,0-.43.02-.63.07h-9.82c-1.12,0-2.04-.33-2.77-1-.73-.67-1.14-1.71-1.23-3.13,0-.26,0-.53.03-.81.02-.28.03-.57.03-.87,0-4.9-1.29-8.56-3.88-10.99-2.59-2.43-6.05-3.64-10.4-3.64-4.57,0-8.08,1.15-10.53,3.45-2.46,2.3-3.68,5.6-3.68,9.9v1.29c-.09,2.24-.53,3.76-1.32,4.58-.8.82-1.69,1.23-2.68,1.23h-43.38c-1.25,0-2.44-.13-3.58-.39-1.14-.26-2.29-.59-3.45-1-1.16-.41-2.34-.87-3.55-1.39-1.2-.52-2.49-1.03-3.87-1.55-.39-.13-.64.02-.77.45l-2.06,6.38c-.13.39,0,.64.39.78,2.19.82,4.05,1.51,5.58,2.1,1.53.58,2.76,1.12,3.71,1.61.94.5,1.63.99,2.06,1.48.43.49.64,1.06.64,1.71,0,.39-.1.76-.29,1.13-.19.37-.53.68-1,.94-.47.26-1.14.46-2,.61-.86.15-1.94.23-3.23.23h-10.86c-1.12,0-2.25-.11-3.39-.32-1.14-.22-2.17-.6-3.07-1.16-.9-.56-1.65-1.33-2.23-2.32-.58-.99-.87-2.24-.87-3.74,0-1.42.26-2.84.77-4.26.52-1.42,1.14-2.73,1.87-3.93.21-.34.15-.62-.19-.84l-6.55-3.29c-.43-.26-.75-.19-.96.19-1.07,1.63-2.02,3.6-2.85,5.9-.83,2.3-1.25,4.65-1.25,7.06,0,2.23.34,4.26,1.03,6.06.69,1.8,1.75,3.34,3.19,4.61,1.44,1.27,3.27,2.25,5.48,2.93,2.21.69,4.85,1.03,7.9,1.03h14.38c4.68,0,8.11-.88,10.28-2.64,2.17-1.76,3.26-4,3.26-6.71,0-.86-.13-1.63-.39-2.32-.26-.69-.49-1.2-.71-1.55h38.1c.64,0,1.37-.03,2.19-.1.82-.07,1.64-.21,2.48-.45.84-.24,1.64-.59,2.42-1.06.77-.47,1.4-1.1,1.87-1.87,1.29,1.46,2.9,2.48,4.81,3.06,1.92.58,4.02.87,6.3.87s4.47-.31,6.43-.93c1.96-.62,3.59-1.71,4.88-3.26.52.86,1.13,1.54,1.82,2.03.69.5,1.43.87,2.2,1.13.77.26,1.57.42,2.39.48.76.06,1.49.08,2.22.09.02,0,.02,0,.04,0h8.32c.08,0,.13-.03.21-.03.07,0,.11.03.18.03h18.21c2.02,0,3.91-.21,5.65-.64s3.25-1.17,4.52-2.22c1.27-1.05,2.27-2.45,3-4.19.73-1.74,1.1-3.92,1.1-6.54,0-2.84-.39-5.19-1.16-7.06-.78-1.87-1.82-3.36-3.13-4.48ZM176.94,254.19c-.86.97-2.19,1.45-4,1.45s-3.09-.48-3.97-1.45c-.88-.97-1.32-2.68-1.32-5.13,0-4.34,1.76-6.51,5.29-6.51s5.29,2.17,5.29,6.51c0,2.45-.43,4.16-1.29,5.13ZM223.79,254c-.88.92-2.19,1.38-3.94,1.38s-3.07-.47-3.94-1.41c-.88-.94-1.31-2.65-1.31-5.13,0-4.19,1.75-6.29,5.26-6.29s5.25,2.16,5.25,6.48c0,2.39-.44,4.05-1.31,4.97Z" style="fill:#fff;"/><rect x="210.86" y="221.72" width="7.74" height="7.61" rx=".64" ry=".64" style="fill:#fff;"/><path d="M273.72,219.14h-7.87c-.43,0-.64.22-.64.64v31.98c0,1.29-.25,2.18-.74,2.67-.49.5-1.28.74-2.35.74h-3.68c-1.51,0-2.68-.31-3.51-.93-.84-.62-1.3-1.47-1.39-2.55v-15.21c0-.43-.21-.64-.64-.64h-7.87c-.43,0-.64.21-.64.64v23.6c0,1.33-.04,2.51-.13,3.55-.09,1.03-.29,1.9-.61,2.61s-.81,1.25-1.45,1.61-1.55.55-2.71.55h-1.42c-.43,0-.64.21-.64.64v6.51c0,.43.21.64.64.64h2.97c4.56,0,7.78-1.17,9.67-3.51,1.89-2.34,2.84-5.96,2.84-10.86v-1.03c.73.9,1.61,1.49,2.64,1.77s2.26.42,3.68.42h6.96c2.71,0,4.64-.65,5.8-1.97,1.16-1.31,1.74-3.36,1.74-6.16v-35.07c0-.43-.22-.64-.64-.64Z" style="fill:#fff;"/><path d="M290.49,219.14h-7.75c-.43,0-.64.22-.64.64v42.55c0,.43.21.64.64.64h7.75c.43,0,.64-.21.64-.64v-42.55c0-.43-.21-.64-.64-.64Z" style="fill:#fff;"/><rect x="389.39" y="268.6" width="7.74" height="7.61" rx=".64" ry=".64" style="fill:#fff;"/><path d="M399.96,268.6h6.51c.36,0,.65.29.65.65v6.32c0,.36-.29.64-.64.64h-6.51c-.36,0-.64-.29-.64-.64v-6.32c0-.36.29-.64.64-.64Z" style="fill:#fff;"/><rect x="470.43" y="221.72" width="7.74" height="7.61" rx=".64" ry=".64" style="fill:#fff;"/><rect x="480.36" y="221.72" width="7.8" height="7.61" rx=".64" ry=".64" style="fill:#fff;"/><path d="M524.98,219.14h-7.87c-.43,0-.64.22-.64.64v31.98c0,1.29-.25,2.18-.74,2.67s-1.28.74-2.35.74h-3.67c-1.55,0-2.73-.3-3.55-.9-.82-.6-1.27-1.46-1.35-2.58v-31.91c0-.43-.21-.64-.64-.64h-7.87c-.43,0-.64.22-.64.64v29.53c0,.95-.02,1.78-.06,2.51-.04.73-.16,1.34-.35,1.84-.19.5-.51.87-.94,1.13-.43.26-1.01.39-1.74.39h-2.26s-.01,0-.02,0c-.02,0-.03,0-.05,0h-1.48c-1.51,0-2.68-.31-3.51-.93s-1.3-1.47-1.39-2.55v-15.21c0-.43-.21-.64-.64-.64h-7.75c-.43,0-.64.21-.64.64v13.41c0,1.93-.17,3.3-.52,4.09-.34.8-1.2,1.19-2.58,1.19h-4s-.09.01-.13.01c-.02,0-.04-.01-.06-.01h-8.28c-.5,0-.98-.02-1.45-.07.73-.52,1.47-1.13,2.22-1.84.75-.71,1.43-1.5,2.03-2.39.6-.88,1.08-1.84,1.45-2.87.36-1.03.55-2.13.55-3.29,0-1.42-.29-2.74-.87-3.97-.58-1.22-1.49-2.29-2.74-3.19-1.25-.9-2.83-1.6-4.74-2.1-1.91-.49-4.18-.74-6.8-.74-1.81,0-3.61.14-5.41.42s-3.43.64-4.87,1.1c-1.44.45-2.61.95-3.51,1.48-.9.54-1.35,1.09-1.35,1.64v4.19c0,.64.07,1.15.19,1.52s.36.68.71.93c1.59,1.12,3.05,2.4,4.38,3.84,1.33,1.44,2.3,3.06,2.9,4.87-.77.21-1.58.34-2.42.39-.84.04-1.62.07-2.35.07h-8.19c-1.55,0-2.73-.3-3.55-.9-.82-.6-1.27-1.46-1.35-2.58v-31.91c0-.43-.21-.64-.64-.64h-7.87c-.43,0-.64.22-.64.64v29.53c0,.95-.02,1.78-.06,2.51-.04.73-.16,1.34-.35,1.84-.19.5-.51.87-.93,1.13-.43.26-1.01.39-1.74.39h-2.26s-.01,0-.02,0c-.02,0-.03,0-.05,0h-1.48c-1.51,0-2.68-.31-3.51-.93-.84-.62-1.3-1.47-1.39-2.55v-15.21c0-.43-.21-.64-.64-.64h-7.75c-.43,0-.64.21-.64.64v13.41c0,1.93-.17,3.3-.52,4.09-.34.8-1.2,1.19-2.58,1.19h-4s-.07,0-.1,0c-.03,0-.06,0-.09,0h-35.01c-1.12,0-2.04-.33-2.77-1-.73-.67-1.14-1.71-1.23-3.13,0-.26.01-.53.03-.81.02-.28.03-.57.03-.87,0-2.84-.39-5.19-1.16-7.06-.78-1.87-1.82-3.36-3.13-4.48-1.31-1.12-2.83-1.91-4.56-2.38-1.72-.47-3.53-.71-5.43-.71s-3.71.24-5.43.71c-1.72.47-3.24,1.27-4.56,2.38-1.31,1.12-2.36,2.61-3.13,4.48-.78,1.87-1.16,4.22-1.16,7.06v1.35c0,.43.02.84.06,1.23-.09.82-.33,1.47-.74,1.97-.41.49-.9.95-1.48,1.35-.58.41-1.18.82-1.81,1.23-.62.41-1.2.92-1.74,1.55-.54.62-.98,1.4-1.32,2.32-.34.92-.52,2.12-.52,3.58v12.25h9.15v-10.9c0-.78.11-1.39.32-1.84.22-.45.49-.84.81-1.16.32-.32.66-.61,1-.87.35-.26.67-.62.97-1.1,1.2,1.12,2.62,1.91,4.23,2.39,1.62.47,3.39.71,5.33.71,2.33,0,4.47-.31,6.43-.93,1.96-.62,3.59-1.71,4.88-3.26.56.86,1.19,1.54,1.88,2.03.69.5,1.42.87,2.17,1.13.75.26,1.53.42,2.32.48.77.06,1.52.09,2.27.09,0,0,.01,0,.02,0h33.27s.07-.01.1-.02c.03,0,.06.02.09.02h6.64c2.35,0,4.2-.19,5.54-.58,1.34-.39,2.36-1.27,3.04-2.64.81,1.38,1.82,2.26,3.02,2.64,1.2.39,2.62.58,4.25.58.01,0,.02,0,.03,0,.01,0,.02,0,.03,0h5.8c2.11,0,3.77-.23,5-.68,1.22-.45,2.16-1.3,2.81-2.55.82,1.38,1.83,2.26,3.03,2.64,1.17.38,2.56.56,4.14.57.02,0,.03,0,.04,0h9.74c1.25,0,2.67-.14,4.26-.42s3.09-.81,4.51-1.58c1.25.78,2.57,1.3,3.97,1.58s2.87.42,4.42.42h10.25s.06-.02.09-.02c.04,0,.06.02.1.02h6.64c2.35,0,4.2-.19,5.54-.58,1.34-.39,2.36-1.27,3.04-2.64.81,1.38,1.82,2.26,3.02,2.64,1.2.39,2.62.58,4.26.58.01,0,.02,0,.03,0,.01,0,.02,0,.03,0h5.8c2.11,0,3.77-.23,5-.68,1.22-.45,2.16-1.3,2.8-2.55.82,1.38,1.83,2.26,3.03,2.64,1.16.37,2.52.55,4.08.57.04,0,.07.01.11.01h6.96c2.71,0,4.64-.65,5.8-1.97,1.16-1.31,1.74-3.36,1.74-6.16v-35.07c0-.43-.21-.64-.64-.64ZM337.56,254.19c-.85.97-2.18,1.45-3.97,1.45s-3.07-.48-3.94-1.45c-.88-.97-1.31-2.68-1.31-5.13,0-4.34,1.75-6.51,5.26-6.51s5.25,2.17,5.25,6.51c0,2.45-.43,4.16-1.28,5.13ZM453.18,250.48c-.97,1.25-2.16,2.3-3.58,3.16-.47-1.85-1.29-3.66-2.45-5.45-1.16-1.78-2.62-3.28-4.38-4.48.39-.21,1.14-.46,2.26-.74,1.12-.28,2.41-.42,3.87-.42,1.81,0,3.21.32,4.22.97,1.01.64,1.52,1.65,1.52,3.03s-.48,2.69-1.45,3.93Z" style="fill:#fff;"/><path d="M745.78,249.01c-6.43,0-11.63-5.21-11.63-11.63v-39.29c0-6.43,5.21-11.63,11.63-11.63s11.63,5.21,11.63,11.63v39.29c0,6.43-5.21,11.63-11.63,11.63Z" style="fill:#fff;"/><path d="M593,175.49c-6.43,0-11.63,5.21-11.63,11.63v20.63c0-6.43,5.21-11.63,11.63-11.63s11.63,5.21,11.63,11.63v-20.63c0-6.43-5.21-11.63-11.63-11.63Z" style="fill:#d9d9d9;"/><path d="M593,196.12c-6.43,0-11.63,5.21-11.63,11.63v13.94c0,6.43,5.21,11.63,11.63,11.63s11.63-5.21,11.63-11.63v-13.94c0-6.43-5.21-11.63-11.63-11.63Z" style="fill:#fff;"/><path d="M668.94,134.99c-6.43,0-11.63,5.21-11.63,11.63v52.37c0-6.43,5.21-11.63,11.63-11.63s11.63,5.21,11.63,11.63v-52.37c0-6.43-5.21-11.63-11.63-11.63Z" style="fill:#d9d9d9;"/><path d="M668.94,253.53c-6.43,0-11.63-5.21-11.63-11.63v79.7c0,6.43,5.21,11.63,11.63,11.63s11.63-5.21,11.63-11.63v-79.7c0,6.43-5.21,11.63-11.63,11.63Z" style="fill:#c5c5c5;"/><path d="M668.94,187.35c-6.43,0-11.63,5.21-11.63,11.63v42.91c0,6.43,5.21,11.63,11.63,11.63s11.63-5.21,11.63-11.63v-42.91c0-6.43-5.21-11.63-11.63-11.63Z" style="fill:#fff;"/><path d="M630.97,213.83c-6.43,0-11.63-5.21-11.63-11.64v72.6c0,6.43,5.21,11.63,11.63,11.63s11.63-5.21,11.63-11.63v-72.6c0,6.43-5.21,11.64-11.63,11.64Z" style="fill:#c5c5c5;"/><path d="M630.97,115.94c-6.43,0-11.63,5.21-11.63,11.64v42.47c0-6.43,5.21-11.63,11.63-11.63s11.63,5.21,11.63,11.63v-42.47c0-6.43-5.21-11.64-11.63-11.64Z" style="fill:#d9d9d9;"/><path d="M630.97,158.41c-6.43,0-11.63,5.21-11.63,11.63v32.15c0,6.43,5.21,11.64,11.63,11.64s11.63-5.21,11.63-11.64v-32.15c0-6.43-5.21-11.63-11.63-11.63Z" style="fill:#fff;"/><path d="M706.91,70.37c-6.43,0-11.63,5.21-11.63,11.64v96.96c0-6.43,5.21-11.63,11.63-11.63s11.63,5.21,11.63,11.63v-96.96c0-6.43-5.21-11.64-11.63-11.64Z" style="fill:#d9d9d9;"/><path d="M706.91,207.72c-6.43,0-11.63-5.21-11.63-11.64v60.9c0,6.43,5.21,11.63,11.63,11.63s11.63-5.21,11.63-11.63v-60.9c0,6.43-5.21,11.64-11.63,11.64Z" style="fill:#c5c5c5;"/><path d="M706.91,167.34c-6.43,0-11.63,5.21-11.63,11.63v17.11c0,6.43,5.21,11.64,11.63,11.64s11.63-5.21,11.63-11.64v-17.11c0-6.43-5.21-11.63-11.63-11.63Z" style="fill:#fff;"/></svg>