<?xml version="1.0" encoding="UTF-8"?><svg id="Layer_1" xmlns="http://www.w3.org/2000/svg" viewBox="0 0 595.72 661.15"><path d="M374.25,186.44c-6.42,0-11.63,5.21-11.63,11.63v39.29c0,6.43,5.21,11.63,11.63,11.63s11.63-5.21,11.63-11.63v-39.29c0-6.43-5.21-11.63-11.63-11.63Z" style="fill:#4d008c;"/><path d="M221.47,175.48c-6.43,0-11.63,5.21-11.63,11.63v20.63c0-6.43,5.21-11.63,11.63-11.63s11.63,5.21,11.63,11.63v-20.63c0-6.43-5.21-11.63-11.63-11.63Z" style="fill:#a0d8f0;"/><path d="M221.47,196.11c-6.43,0-11.63,5.21-11.63,11.63v13.93c0,6.43,5.21,11.63,11.63,11.63s11.63-5.21,11.63-11.63v-13.93c0-6.43-5.21-11.63-11.63-11.63Z" style="fill:#2f0368;"/><path d="M335.38,70.37c-6.42,0-11.63,5.21-11.63,11.63v96.96c0-6.43,5.21-11.63,11.63-11.63s11.63,5.21,11.63,11.63v-96.96c0-6.43-5.21-11.63-11.63-11.63Z" style="fill:#a0d8f0;"/><path d="M335.38,207.71c-6.42,0-11.63-5.21-11.63-11.63v60.9c0,6.43,5.21,11.63,11.63,11.63s11.63-5.21,11.63-11.63v-60.9c0,6.43-5.21,11.63-11.63,11.63Z" style="fill:#00a7e1;"/><path d="M335.38,167.33c-6.42,0-11.63,5.21-11.63,11.63v17.11c0,6.43,5.21,11.63,11.63,11.63s11.63-5.21,11.63-11.63v-17.11c0-6.43-5.21-11.63-11.63-11.63Z" style="fill:#058dd4;"/><path d="M297.41,134.98c-6.43,0-11.63,5.21-11.63,11.63v52.36c0-6.43,5.21-11.63,11.63-11.63s11.63,5.21,11.63,11.63v-52.36c0-6.43-5.21-11.63-11.63-11.63Z" style="fill:#a267be;"/><path d="M297.41,253.52c-6.43,0-11.63-5.21-11.63-11.63v79.7c0,6.43,5.21,11.63,11.63,11.63s11.63-5.21,11.63-11.63v-79.7c0,6.43-5.21,11.63-11.63,11.63Z" style="fill:#4d008c;"/><path d="M297.41,187.35c-6.43,0-11.63,5.21-11.63,11.63v42.9c0,6.43,5.21,11.63,11.63,11.63s11.63-5.21,11.63-11.63v-42.9c0-6.43-5.21-11.63-11.63-11.63Z" style="fill:#2f0368;"/><path d="M259.44,213.83c-6.43,0-11.63-5.21-11.63-11.63v72.6c0,6.43,5.21,11.63,11.63,11.63s11.63-5.21,11.63-11.63v-72.6c0,6.43-5.21,11.63-11.63,11.63Z" style="fill:#43b666;"/><path d="M259.44,115.93c-6.43,0-11.63,5.21-11.63,11.63v42.47c0-6.43,5.21-11.63,11.63-11.63s11.63,5.21,11.63,11.63v-42.47c0-6.43-5.21-11.63-11.63-11.63Z" style="fill:#a2d9af;"/><path d="M259.44,158.41c-6.43,0-11.63,5.21-11.63,11.63v32.15c0,6.43,5.21,11.63,11.63,11.63s11.63-5.21,11.63-11.63v-32.15c0-6.43-5.21-11.63-11.63-11.63Z" style="fill:#299c46;"/><rect x="85.86" y="459.56" width="6.11" height="6.46" rx=".69" ry=".69" style="fill:#1a1a1a;"/><path d="M86.95,454h16.23c2.4,0,4.44-.27,6.1-.8,1.66-.53,3-1.24,4.02-2.12,1.02-.88,1.75-1.86,2.18-2.95.44-1.09.66-2.19.66-3.3,0-1.02-.16-1.96-.48-2.81-.32-.86-.6-1.47-.82-1.84h4.97s.02,0,.03,0c.02,0,.04,0,.06,0h7.64c.09,0,.15-.02.23-.03.09,0,.16.03.25.03h5.42c3.66,0,6.07-1.2,7.22-3.61.6,1.2,1.46,2.11,2.57,2.71,1.11.6,2.41.9,3.89.9h14.1c1.95,0,3.5-.3,4.66-.9.46.6,1.25.9,2.37.9h23.38c1.86,0,3.45-.22,4.8-.66s2.44-1.18,3.27-2.22c.84-1.04,1.45-2.41,1.84-4.1.39-1.69.59-3.76.59-6.22,0-2.22-.26-4.33-.77-6.32-.51-1.99-1.4-3.74-2.68-5.24-1.28-1.5-2.98-2.7-5.11-3.58-2.13-.88-4.82-1.32-8.07-1.32-2.92,0-5.78.42-8.56,1.25-2.78.83-5.31,1.85-7.58,3.06v-21.12c-.01-.46-.24-.7-.71-.7h-4.45c-.46,0-.69.23-.69.7v37.37c0,1.39-.27,2.35-.8,2.88-.53.53-1.38.8-2.54.8h-12.36c-1.9,0-3.42-.39-4.55-1.18-1.14-.79-1.7-1.97-1.7-3.54v-17.57c0-.46-.23-.69-.7-.69h-4.44c-.46,0-.7.23-.7.69v18.62c0,1.39-.27,2.35-.8,2.88s-1.38.8-2.53.8h-4.38c-.09,0-.15.03-.23.03-.09,0-.16-.03-.25-.03h-7.64s-.03,0-.05,0c0,0-.01,0-.02,0h-5.63c-1.34,0-2.66-.15-3.96-.45-1.3-.3-2.6-.7-3.93-1.18-1.32-.49-2.67-1.02-4.06-1.6-1.39-.58-2.83-1.15-4.31-1.7-.42-.14-.69.02-.83.49l-1.53,4.17c-.14.42,0,.7.42.83,2.36.88,4.46,1.65,6.29,2.29,1.83.65,3.36,1.29,4.58,1.91,1.23.63,2.15,1.31,2.78,2.05.63.74.94,1.62.94,2.64,0,1.16-.54,2.15-1.63,2.99-1.09.83-3.02,1.25-5.8,1.25h-15.35c-1.53,0-2.98-.17-4.34-.52-1.37-.35-2.58-.91-3.65-1.7-1.07-.79-1.91-1.84-2.54-3.16-.63-1.32-.94-2.93-.94-4.83,0-2.08.38-4.07,1.15-5.97.76-1.9,1.56-3.5,2.4-4.79.23-.37.16-.67-.21-.9l-3.82-2.08c-.46-.28-.79-.25-.97.07-1.21,1.71-2.26,3.83-3.16,6.36-.9,2.52-1.35,5.15-1.35,7.88,0,4.72,1.41,8.44,4.23,11.15,2.82,2.71,6.94,4.07,12.35,4.07ZM169.36,431.43v-11.18c1.02-.51,2.14-1.02,3.37-1.53,1.23-.51,2.52-.97,3.89-1.39,1.37-.42,2.77-.75,4.2-1.01,1.44-.25,2.85-.38,4.24-.38,2.08,0,3.82.24,5.21.73,1.39.49,2.5,1.19,3.33,2.12.83.93,1.42,2.06,1.77,3.4.35,1.34.52,2.87.52,4.58,0,1.62-.08,2.95-.24,3.99-.16,1.04-.48,1.85-.94,2.43-.46.58-1.11.98-1.94,1.22-.83.23-1.9.35-3.2.35h-20.56c.23-1.07.35-2.18.35-3.33Z" style="fill:#1a1a1a;"/><rect x="94.34" y="459.56" width="6.11" height="6.46" rx=".69" ry=".69" style="fill:#1a1a1a;"/><path d="M136.29,398.43h4.72c.38,0,.7.31.7.7v5.07c0,.38-.31.7-.7.7h-4.72c-.38,0-.7-.31-.7-.7v-5.07c0-.38.31-.69.69-.69Z" style="fill:#1a1a1a;"/><path d="M241.08,440.18s.02,0,.04,0h5.42c2.92,0,5-.71,6.25-2.12,1.25-1.41,1.88-3.62,1.88-6.63v-37.79c0-.46-.23-.69-.7-.69h-4.45c-.46,0-.69.23-.69.69v37.44c0,1.39-.27,2.35-.8,2.88s-1.38.8-2.54.8h-4.38s-.02,0-.03,0c-.01,0-.02,0-.03,0h-4.79v-9.1c0-5.32-1.16-9.18-3.47-11.57-2.32-2.38-5.53-3.58-9.65-3.58-1.81,0-3.52.31-5.14.94-1.62.63-3.04,1.57-4.27,2.85-1.23,1.27-2.2,2.89-2.92,4.86-.72,1.97-1.08,4.27-1.08,6.91s.3,4.86.9,6.67c.6,1.81,1.48,3.25,2.64,4.34,1.16,1.09,2.56,1.88,4.2,2.36,1.64.49,3.48.73,5.52.73h7.43v1.81c0,1.3-.16,2.37-.49,3.23-.33.86-.78,1.53-1.35,2.01-.58.49-1.26.83-2.05,1.04-.79.21-1.64.31-2.57.31h-8.34c-.46,0-.69.23-.69.7v4.03c0,.46.23.69.69.69h8.61c1.81,0,3.45-.23,4.93-.69,1.48-.46,2.74-1.18,3.79-2.16,1.04-.97,1.85-2.22,2.43-3.75.58-1.53.87-3.38.87-5.56v-1.67h4.79s.02,0,.03,0ZM230.41,434.76h-7.02c-2.59,0-4.55-.63-5.87-1.88-1.32-1.25-1.98-3.52-1.98-6.81,0-3.06.68-5.51,2.05-7.36,1.37-1.85,3.21-2.78,5.52-2.78,2.59,0,4.46.86,5.59,2.57,1.13,1.71,1.7,4.1,1.7,7.16v9.1Z" style="fill:#1a1a1a;"/><path d="M265.08,392.95h4.44c.38,0,.69.31.69.69v45.85c0,.38-.31.69-.69.69h-4.45c-.38,0-.69-.31-.69-.69v-45.84c0-.38.31-.7.7-.7Z" style="fill:#1a1a1a;"/><path d="M320.23,440.18s.01,0,.02,0c.02,0,.03,0,.05,0h15.14c3.66,0,6.07-1.2,7.22-3.61.6,1.2,1.46,2.11,2.57,2.71,1.11.6,2.41.9,3.89.9h3.33c3.66,0,6.07-1.2,7.22-3.61.6,1.2,1.46,2.11,2.57,2.71,1.11.6,2.41.9,3.89.9h3.33c2.92,0,5-.71,6.25-2.12,1.25-1.41,1.88-3.62,1.88-6.63v-18.96c0-.46-.23-.69-.69-.69h-4.45c-.46,0-.7.23-.7.69v18.62c0,1.39-.27,2.35-.8,2.88s-1.38.8-2.53.8h-1.74c-1.85,0-3.33-.39-4.45-1.18-1.11-.79-1.67-1.97-1.67-3.54v-11.6c0-.46-.23-.69-.7-.69h-4.45c-.46,0-.69.23-.69.69v12.64c0,1.39-.27,2.35-.8,2.88-.53.53-1.38.8-2.54.8h-1.74c-1.85,0-3.33-.39-4.45-1.18-1.11-.79-1.67-1.97-1.67-3.54v-11.6c0-.46-.23-.69-.69-.69h-4.45c-.46,0-.69.23-.69.69v12.64c0,1.39-.27,2.35-.8,2.88-.53.53-1.38.8-2.53.8h-14.1s-.03,0-.05,0c0,0-.01,0-.02,0h-7.64s-.03,0-.05,0c0,0-.01,0-.02,0h-.76c-1.9,0-3.42-.39-4.55-1.18-1.14-.79-1.7-1.97-1.7-3.54v-17.57c0-.46-.23-.69-.69-.69h-4.45c-.46,0-.7.23-.7.69v30.22c0,3.94-1.88,5.9-5.63,5.9h-1.6c-.46,0-.7.23-.7.7v4.03c0,.46.23.69.7.69h1.88c3.66,0,6.44-.97,8.34-2.92,1.9-1.95,2.85-4.79,2.85-8.54v-4.58c1.3,1.48,3.15,2.22,5.56,2.22h1.46s.02,0,.02,0c.02,0,.03,0,.04,0h7.64Z" style="fill:#1a1a1a;"/><path d="M359.41,398.43h4.72c.38,0,.69.31.69.69v5.07c0,.38-.31.69-.69.69h-4.72c-.38,0-.7-.31-.7-.7v-5.07c0-.38.31-.69.69-.69Z" style="fill:#1a1a1a;"/><path d="M350.93,398.43h4.72c.38,0,.69.31.69.69v5.07c0,.38-.31.7-.7.7h-4.72c-.38,0-.69-.31-.69-.69v-5.07c0-.38.31-.69.69-.69Z" style="fill:#1a1a1a;"/><path d="M355.24,390.31h4.72c.38,0,.69.31.69.69v5.07c0,.38-.31.69-.69.69h-4.72c-.38,0-.7-.31-.7-.7v-5.07c0-.38.31-.7.7-.7Z" style="fill:#1a1a1a;"/><path d="M389.48,437.09c1.16,1.09,2.56,1.88,4.2,2.36,1.64.49,3.48.73,5.52.73h7.43v1.81c0,1.3-.16,2.37-.49,3.23-.33.86-.78,1.53-1.35,2.01-.58.49-1.26.83-2.05,1.04-.79.21-1.64.31-2.57.31h-8.34c-.46,0-.69.23-.69.7v4.03c0,.46.23.69.69.69h8.61c1.81,0,3.45-.23,4.93-.69,1.48-.46,2.74-1.18,3.79-2.16,1.04-.97,1.85-2.22,2.43-3.75s.87-3.38.87-5.56v-1.67h4.79s.03,0,.05,0c.03,0,.06,0,.09,0h7.64s.01,0,.02,0c.02,0,.03,0,.05,0h7.64s.01,0,.02,0c.02,0,.03,0,.05,0h7.64s.01,0,.02,0c.02,0,.03,0,.05,0h10.63c1.3,0,2.71-.2,4.24-.59,1.53-.39,2.78-1.33,3.75-2.81,1.16,1.34,2.57,2.33,4.24,2.95,1.67.63,3.59.94,5.77.94s4.03-.3,5.69-.9c1.67-.6,3.08-1.57,4.24-2.92.46.74,1.02,1.33,1.67,1.77.65.44,1.33.78,2.05,1.01.72.23,1.45.38,2.19.45.74.07,1.44.1,2.08.1h14.59c2.92,0,5-.71,6.25-2.12,1.25-1.41,1.88-3.62,1.88-6.63v-37.79c0-.46-.23-.69-.69-.69h-4.45c-.46,0-.69.23-.69.69v37.44c0,1.39-.27,2.35-.8,2.88-.53.53-1.38.8-2.53.8h-14.03c-1.02,0-1.98-.43-2.88-1.28s-1.38-2.47-1.42-4.83c.04-.46.08-.95.1-1.46.02-.51.03-1.02.03-1.53,0-5.32-1.18-9.18-3.54-11.57-2.36-2.38-5.6-3.58-9.73-3.58s-7.36,1.19-9.73,3.58c-2.36,2.39-3.54,6.24-3.54,11.57v1.42c0,.44.02.89.07,1.35,0,1.2-.13,2.21-.38,3.02-.26.81-.59,1.46-1.01,1.95-.42.49-.88.83-1.39,1.04-.51.21-1.02.31-1.53.31h-11.11s-.03,0-.05,0c0,0-.01,0-.02,0h-7.64s-.03,0-.05,0c0,0-.01,0-.02,0h-7.64s-.03,0-.05,0c0,0-.01,0-.02,0h-7.64s-.06,0-.1,0c-.01,0-.02,0-.04,0h-4.79v-9.1c0-5.32-1.16-9.18-3.47-11.57-2.32-2.38-5.53-3.58-9.65-3.58-1.81,0-3.52.31-5.14.94-1.62.63-3.04,1.57-4.27,2.85-1.23,1.27-2.2,2.89-2.92,4.86-.72,1.97-1.08,4.27-1.08,6.91s.3,4.86.9,6.67c.6,1.81,1.48,3.25,2.64,4.34ZM463.5,418.51c1.18-1.71,3.07-2.57,5.66-2.57s4.48.86,5.66,2.57c1.18,1.71,1.77,4.1,1.77,7.16,0,3.33-.59,5.76-1.77,7.29-1.18,1.53-3.07,2.29-5.66,2.29s-4.48-.76-5.66-2.29c-1.18-1.53-1.77-3.96-1.77-7.29,0-3.06.59-5.44,1.77-7.16ZM393.82,418.72c1.37-1.85,3.21-2.78,5.52-2.78,2.59,0,4.46.86,5.59,2.57,1.13,1.71,1.7,4.1,1.7,7.16v9.1h-7.02c-2.59,0-4.55-.63-5.87-1.88-1.32-1.25-1.98-3.52-1.98-6.81,0-3.06.68-5.51,2.05-7.36Z" style="fill:#1a1a1a;"/><path d="M391.78,405.45h14.8c.28,0,.42-.16.42-.49v-2.22c0-.32-.14-.49-.42-.49h-7.85c-.51-.28-1.02-.72-1.53-1.32-.51-.6-.76-1.41-.76-2.43,0-.88.3-1.69.9-2.43.6-.74,1.57-1.11,2.92-1.11.88,0,1.62.15,2.22.45.6.3,1.13.66,1.6,1.08.23.23.42.3.56.21l1.81-1.53c.23-.23.25-.49.07-.76-.51-.79-1.32-1.42-2.43-1.91-1.11-.49-2.32-.73-3.61-.73-1.48,0-2.7.22-3.65.66-.95.44-1.73.98-2.33,1.63-.6.65-1.02,1.35-1.25,2.12-.23.76-.35,1.49-.35,2.19,0,.83.12,1.57.35,2.22.23.65.53,1.21.9,1.67h-2.36c-.28,0-.42.16-.42.49v2.22c0,.32.14.49.42.49Z" style="fill:#1a1a1a;"/><path d="M520.21,392.95h4.44c.38,0,.7.31.7.7v45.84c0,.38-.31.69-.69.69h-4.45c-.38,0-.69-.31-.69-.69v-45.84c0-.38.31-.7.7-.7Z" style="fill:#1a1a1a;"/><path d="M95.44,535.16h6.51c.36,0,.65.29.65.65v6.31c0,.36-.29.64-.64.64h-6.51c-.36,0-.64-.29-.64-.64v-6.31c0-.36.29-.64.64-.64Z" style="fill:#1a1a1a;"/><rect x="84.87" y="535.16" width="7.73" height="7.6" rx=".64" ry=".64" style="fill:#1a1a1a;"/><rect x="220.7" y="476.26" width="7.8" height="7.6" rx=".64" ry=".64" style="fill:#1a1a1a;"/><path d="M229.74,492.37c-1.31-1.12-2.83-1.91-4.55-2.38-1.72-.47-3.53-.71-5.42-.71s-3.57.24-5.3.71c-1.72.47-3.25,1.26-4.59,2.38-1.34,1.11-2.4,2.6-3.2,4.46-.8,1.86-1.19,4.21-1.19,7.03,0,2.44.35,4.37,1.04,5.78h-4.96c-.22,0-.43.02-.63.07h-9.82c-1.12,0-2.04-.33-2.77-1-.73-.67-1.14-1.71-1.22-3.13,0-.26,0-.53.03-.81.02-.28.03-.57.03-.87,0-4.9-1.29-8.56-3.88-10.99-2.58-2.43-6.05-3.64-10.4-3.64-4.56,0-8.07,1.15-10.53,3.45-2.45,2.3-3.68,5.6-3.68,9.89v1.29c-.09,2.23-.53,3.76-1.32,4.57-.79.82-1.69,1.23-2.67,1.23h-43.36c-1.25,0-2.44-.13-3.58-.39-1.14-.26-2.29-.59-3.45-1-1.16-.41-2.34-.87-3.54-1.38-1.2-.52-2.49-1.03-3.87-1.55-.39-.13-.64.02-.77.45l-2.06,6.38c-.13.39,0,.64.39.77,2.19.82,4.05,1.51,5.57,2.09,1.52.58,2.76,1.12,3.7,1.61.94.49,1.63.99,2.06,1.48.43.49.64,1.06.64,1.71,0,.39-.1.76-.29,1.13-.19.37-.53.68-1,.94-.47.26-1.14.46-2,.61-.86.15-1.94.23-3.23.23h-10.85c-1.12,0-2.25-.11-3.39-.32-1.14-.22-2.16-.6-3.07-1.16-.9-.56-1.65-1.33-2.23-2.32-.58-.99-.87-2.23-.87-3.74,0-1.42.26-2.84.77-4.25.51-1.42,1.14-2.73,1.87-3.93.21-.34.15-.62-.19-.84l-6.54-3.29c-.43-.26-.75-.19-.96.19-1.07,1.63-2.02,3.6-2.85,5.9-.83,2.3-1.25,4.65-1.25,7.06,0,2.23.34,4.25,1.03,6.06.69,1.8,1.75,3.34,3.19,4.61,1.44,1.27,3.26,2.25,5.48,2.93,2.21.69,4.84,1.03,7.89,1.03h14.37c4.68,0,8.11-.88,10.28-2.64,2.17-1.76,3.25-3.99,3.25-6.7,0-.86-.13-1.63-.39-2.32-.26-.69-.49-1.2-.71-1.55h38.07c.64,0,1.37-.03,2.19-.1.82-.07,1.64-.21,2.48-.45.84-.24,1.64-.59,2.42-1.06.77-.47,1.39-1.09,1.87-1.87,1.29,1.46,2.89,2.48,4.81,3.06,1.92.58,4.01.87,6.3.87s4.46-.31,6.42-.93c1.96-.62,3.58-1.71,4.87-3.25.52.86,1.12,1.54,1.82,2.03.69.49,1.43.87,2.2,1.13.77.26,1.57.42,2.38.48.76.06,1.49.08,2.22.09.02,0,.02,0,.04,0h8.31c.08,0,.13-.03.21-.03.07,0,.11.03.18.03h18.2c2.02,0,3.91-.21,5.65-.64,1.74-.43,3.25-1.17,4.52-2.22,1.27-1.05,2.27-2.45,3-4.19.73-1.74,1.1-3.92,1.1-6.54,0-2.84-.39-5.19-1.16-7.06-.77-1.87-1.82-3.36-3.13-4.48ZM176.88,508.71c-.86.97-2.19,1.45-4,1.45s-3.08-.48-3.96-1.45-1.32-2.67-1.32-5.12c0-4.34,1.76-6.51,5.28-6.51s5.28,2.17,5.28,6.51c0,2.45-.43,4.16-1.29,5.12ZM223.7,508.52c-.88.92-2.19,1.38-3.94,1.38s-3.06-.47-3.94-1.41c-.88-.94-1.31-2.65-1.31-5.13,0-4.19,1.75-6.28,5.25-6.28s5.25,2.16,5.25,6.48c0,2.39-.44,4.05-1.31,4.97Z" style="fill:#1a1a1a;"/><rect x="210.77" y="476.26" width="7.73" height="7.6" rx=".64" ry=".64" style="fill:#1a1a1a;"/><path d="M273.6,473.69h-7.86c-.43,0-.64.22-.64.64v31.96c0,1.29-.25,2.18-.74,2.67-.49.49-1.28.74-2.35.74h-3.67c-1.5,0-2.67-.31-3.51-.93-.84-.62-1.3-1.47-1.39-2.55v-15.21c0-.43-.21-.64-.64-.64h-7.86c-.43,0-.64.21-.64.64v23.58c0,1.33-.04,2.51-.13,3.54-.09,1.03-.29,1.9-.61,2.61s-.81,1.25-1.45,1.61-1.55.55-2.71.55h-1.42c-.43,0-.64.21-.64.64v6.51c0,.43.21.64.64.64h2.96c4.55,0,7.77-1.17,9.67-3.51,1.89-2.34,2.84-5.96,2.84-10.86v-1.03c.73.9,1.61,1.49,2.64,1.77,1.03.28,2.25.42,3.67.42h6.96c2.71,0,4.64-.65,5.8-1.97,1.16-1.31,1.74-3.36,1.74-6.15v-35.05c0-.43-.22-.64-.64-.64Z" style="fill:#1a1a1a;"/><path d="M290.36,473.69h-7.74c-.43,0-.64.22-.64.64v42.53c0,.43.21.64.64.64h7.74c.43,0,.64-.21.64-.64v-42.53c0-.43-.21-.64-.64-.64Z" style="fill:#1a1a1a;"/><rect x="389.2" y="523.11" width="7.73" height="7.6" rx=".64" ry=".64" style="fill:#1a1a1a;"/><path d="M399.76,523.11h6.51c.36,0,.65.29.65.65v6.31c0,.36-.29.64-.64.64h-6.51c-.36,0-.64-.29-.64-.64v-6.31c0-.36.29-.64.64-.64Z" style="fill:#1a1a1a;"/><rect x="470.19" y="476.26" width="7.73" height="7.6" rx=".64" ry=".64" style="fill:#1a1a1a;"/><rect x="480.11" y="476.26" width="7.8" height="7.6" rx=".64" ry=".64" style="fill:#1a1a1a;"/><path d="M524.71,473.69h-7.86c-.43,0-.64.22-.64.64v31.96c0,1.29-.25,2.18-.74,2.67s-1.28.74-2.35.74h-3.67c-1.55,0-2.73-.3-3.54-.9-.82-.6-1.27-1.46-1.35-2.58v-31.9c0-.43-.21-.64-.64-.64h-7.86c-.43,0-.64.22-.64.64v29.51c0,.95-.02,1.78-.06,2.51-.04.73-.16,1.34-.35,1.84-.19.49-.51.87-.94,1.13-.43.26-1.01.39-1.74.39h-2.25s-.01,0-.02,0c-.02,0-.03,0-.05,0h-1.48c-1.51,0-2.67-.31-3.51-.93s-1.3-1.47-1.38-2.55v-15.21c0-.43-.21-.64-.64-.64h-7.74c-.43,0-.64.21-.64.64v13.4c0,1.93-.17,3.3-.52,4.09-.34.8-1.2,1.19-2.58,1.19h-3.99s-.09.01-.13.01c-.02,0-.04-.01-.06-.01h-8.28c-.49,0-.98-.02-1.45-.07.73-.52,1.47-1.13,2.22-1.84.75-.71,1.43-1.5,2.03-2.39.6-.88,1.08-1.84,1.45-2.87.36-1.03.55-2.13.55-3.29,0-1.42-.29-2.74-.87-3.96-.58-1.22-1.49-2.29-2.74-3.19-1.25-.9-2.83-1.6-4.74-2.09-1.91-.49-4.18-.74-6.8-.74-1.8,0-3.61.14-5.41.42s-3.43.64-4.86,1.09c-1.44.45-2.61.95-3.51,1.48-.9.54-1.35,1.09-1.35,1.64v4.19c0,.64.07,1.15.19,1.51s.36.68.71.93c1.59,1.12,3.05,2.39,4.38,3.84,1.33,1.44,2.3,3.06,2.9,4.86-.77.21-1.58.34-2.42.39-.84.04-1.62.07-2.35.07h-8.18c-1.55,0-2.73-.3-3.54-.9-.82-.6-1.27-1.46-1.35-2.58v-31.9c0-.43-.21-.64-.64-.64h-7.86c-.43,0-.64.22-.64.64v29.51c0,.95-.02,1.78-.06,2.51-.04.73-.16,1.34-.35,1.84-.19.49-.51.87-.93,1.13-.43.26-1.01.39-1.74.39h-2.25s-.01,0-.02,0c-.02,0-.03,0-.05,0h-1.48c-1.5,0-2.67-.31-3.51-.93-.84-.62-1.3-1.47-1.39-2.55v-15.21c0-.43-.21-.64-.64-.64h-7.74c-.43,0-.64.21-.64.64v13.4c0,1.93-.17,3.3-.52,4.09-.34.8-1.2,1.19-2.58,1.19h-4s-.07,0-.1,0c-.03,0-.06,0-.09,0h-34.99c-1.12,0-2.04-.33-2.77-1-.73-.67-1.14-1.71-1.22-3.13,0-.26.01-.53.03-.81.02-.28.03-.57.03-.87,0-2.84-.39-5.19-1.16-7.06-.78-1.87-1.82-3.36-3.13-4.48-1.31-1.12-2.83-1.91-4.55-2.38-1.72-.47-3.53-.71-5.42-.71s-3.7.24-5.42.71c-1.72.47-3.24,1.27-4.55,2.38-1.31,1.12-2.36,2.61-3.13,4.48-.78,1.87-1.16,4.22-1.16,7.06v1.35c0,.43.02.84.06,1.23-.09.82-.33,1.47-.74,1.97-.41.49-.9.95-1.48,1.35-.58.41-1.18.82-1.8,1.23-.62.41-1.2.92-1.74,1.55-.54.62-.98,1.4-1.32,2.32-.34.92-.51,2.12-.51,3.58v12.24h9.15v-10.89c0-.77.11-1.39.32-1.84.22-.45.49-.84.81-1.16.32-.32.66-.61,1-.87.35-.26.67-.62.97-1.1,1.2,1.12,2.61,1.91,4.23,2.39,1.61.47,3.39.71,5.33.71,2.32,0,4.46-.31,6.42-.93,1.96-.62,3.58-1.71,4.87-3.25.56.86,1.19,1.54,1.88,2.03.69.49,1.41.87,2.17,1.13.75.26,1.52.42,2.32.48.77.06,1.52.09,2.27.09,0,0,.01,0,.02,0h33.25s.07-.01.1-.02c.03,0,.06.02.09.02h6.64c2.35,0,4.19-.19,5.54-.58,1.34-.39,2.36-1.27,3.04-2.64.81,1.37,1.82,2.25,3.02,2.64,1.2.39,2.62.58,4.25.58.01,0,.02,0,.03,0,.01,0,.02,0,.03,0h5.8c2.11,0,3.77-.23,4.99-.68s2.16-1.3,2.8-2.54c.82,1.37,1.83,2.25,3.03,2.64,1.17.38,2.56.56,4.14.57.02,0,.03,0,.04,0h9.73c1.25,0,2.66-.14,4.25-.42,1.59-.28,3.09-.81,4.51-1.58,1.25.77,2.57,1.3,3.96,1.58,1.4.28,2.87.42,4.41.42h10.25s.06-.02.09-.02c.04,0,.06.02.1.02h6.64c2.35,0,4.19-.19,5.54-.58,1.34-.39,2.36-1.27,3.04-2.64.81,1.37,1.82,2.25,3.02,2.64,1.2.39,2.62.58,4.25.58.01,0,.02,0,.03,0,.01,0,.02,0,.03,0h5.8c2.11,0,3.77-.23,5-.68,1.22-.45,2.16-1.3,2.8-2.54.82,1.37,1.83,2.25,3.03,2.64,1.16.37,2.52.55,4.07.57.04,0,.07.01.11.01h6.96c2.71,0,4.64-.65,5.8-1.97,1.16-1.31,1.74-3.36,1.74-6.15v-35.05c0-.43-.21-.64-.64-.64ZM337.4,508.71c-.85.97-2.18,1.45-3.97,1.45s-3.06-.48-3.94-1.45c-.88-.97-1.31-2.67-1.31-5.12,0-4.34,1.75-6.51,5.25-6.51s5.25,2.17,5.25,6.51c0,2.45-.43,4.16-1.28,5.12ZM452.96,505c-.97,1.25-2.16,2.3-3.58,3.16-.47-1.85-1.29-3.66-2.45-5.44-1.16-1.78-2.62-3.28-4.38-4.48.39-.21,1.14-.46,2.25-.74,1.12-.28,2.41-.42,3.87-.42,1.8,0,3.21.32,4.22.97,1.01.64,1.51,1.65,1.51,3.03s-.48,2.68-1.45,3.93Z" style="fill:#1a1a1a;"/><path d="M70.37,564c0-.21.1-.31.31-.31h1.99c.25,0,.42.1.53.31l9.58,15.86h.12v-15.86c0-.21.11-.31.32-.31h1.98c.21,0,.32.1.32.31v20.53c0,.21-.1.31-.31.31h-1.99c-.25,0-.42-.1-.53-.31l-9.61-15.8h-.09v15.8c0,.21-.1.31-.31.31h-1.98c-.21,0-.31-.1-.31-.31v-20.53Z" style="fill:#1a1a1a;"/><path d="M99.67,584.84c-.2,0-.31-.1-.31-.31v-1.31h-.03c-.35.56-.89,1.03-1.62,1.4-.73.37-1.66.56-2.8.56-.71,0-1.36-.09-1.98-.28s-1.14-.47-1.59-.84c-.45-.37-.8-.84-1.06-1.4-.26-.56-.39-1.22-.39-1.97,0-1.58.51-2.75,1.54-3.49,1.03-.75,2.45-1.12,4.28-1.12h3.39c.12,0,.19-.06.19-.19v-1.08c0-1.03-.25-1.77-.75-2.22s-1.44-.68-2.83-.68c-.85,0-1.56.1-2.12.3-.56.2-1.06.45-1.49.76-.19.15-.33.13-.44-.03l-.84-1.43c-.08-.17-.06-.31.06-.44.56-.43,1.26-.79,2.12-1.06.85-.27,1.83-.4,2.95-.4,2.11,0,3.61.39,4.49,1.17.88.78,1.32,2.08,1.32,3.9v9.86c0,.21-.1.31-.31.31h-1.81ZM95.52,582.94c1.19,0,2.11-.25,2.78-.76.67-.51,1-1.23,1-2.16v-1.65c0-.12-.06-.19-.19-.19h-3c-1.31,0-2.26.19-2.84.58s-.87,1-.87,1.85c0,.77.27,1.35.81,1.74.54.39,1.31.59,2.31.59Z" style="fill:#1a1a1a;"/><path d="M111.12,584.99c-1.45,0-2.48-.34-3.1-1.01-.61-.67-.92-1.75-.92-3.22v-8.52c0-.12-.06-.19-.19-.19h-1.24c-.21,0-.31-.1-.31-.31v-1.49c0-.21.1-.31.31-.31h1.24c.12,0,.19-.06.19-.19v-4.2c0-.21.1-.31.31-.31h1.99c.21,0,.31.11.31.31v4.2c0,.12.06.19.19.19h2.36c.21,0,.31.1.31.31v1.49c0,.21-.1.31-.31.31h-2.36c-.12,0-.19.06-.19.19v8.43c0,.75.15,1.25.45,1.51s.78.39,1.45.39h.65c.21,0,.31.11.31.31v1.8c0,.21-.1.31-.31.31h-1.15Z" style="fill:#1a1a1a;"/><path d="M116.88,566.58c-.21,0-.31-.1-.31-.31v-2.27c0-.21.1-.31.31-.31h2.12c.21,0,.31.1.31.31v2.27c0,.21-.1.31-.31.31h-2.12ZM116.94,584.84c-.21,0-.31-.1-.31-.31v-14.28c0-.21.1-.31.31-.31h1.99c.21,0,.31.1.31.31v14.28c0,.21-.1.31-.31.31h-1.99Z" style="fill:#1a1a1a;"/><path d="M129.82,585.18c-1.45,0-2.69-.35-3.72-1.06-1.03-.7-1.75-1.69-2.16-2.95-.17-.52-.29-1.06-.37-1.63-.08-.57-.12-1.29-.12-2.16s.04-1.59.12-2.14c.08-.56.21-1.1.37-1.62.41-1.29,1.14-2.28,2.16-2.97,1.03-.69,2.27-1.04,3.72-1.04s2.69.35,3.72,1.04c1.03.7,1.75,1.69,2.16,2.97.17.52.29,1.06.37,1.62.08.56.12,1.27.12,2.14s-.04,1.59-.12,2.16c-.08.57-.21,1.12-.37,1.63-.42,1.27-1.14,2.25-2.16,2.95s-2.27,1.06-3.72,1.06ZM129.82,582.75c.83,0,1.53-.2,2.12-.61.58-.4,1-.98,1.24-1.73.12-.42.21-.85.26-1.29.05-.45.08-1.03.08-1.76s-.03-1.31-.08-1.74c-.05-.43-.14-.86-.26-1.27-.25-.75-.66-1.32-1.24-1.73-.58-.4-1.29-.61-2.12-.61s-1.53.2-2.12.61c-.58.4-.99.98-1.24,1.73-.12.42-.21.84-.26,1.27-.05.44-.08,1.02-.08,1.74s.03,1.31.08,1.76c.05.45.14.88.26,1.29.25.75.66,1.32,1.24,1.73.58.4,1.29.61,2.12.61Z" style="fill:#1a1a1a;"/><path d="M150.06,584.84c-.21,0-.31-.1-.31-.31v-8.71c0-1.2-.28-2.14-.82-2.8-.55-.66-1.38-1-2.5-1-1.02,0-1.84.33-2.47.98-.63.65-.95,1.54-.95,2.66v8.87c0,.21-.1.31-.31.31h-1.99c-.21,0-.31-.1-.31-.31v-14.28c0-.21.1-.31.31-.31h1.99c.21,0,.31.1.31.31v1.37h.03c.35-.58.88-1.06,1.59-1.45.71-.38,1.57-.58,2.58-.58,1.62,0,2.88.51,3.79,1.52.91,1.02,1.37,2.37,1.37,4.07v9.33c0,.21-.11.31-.31.31h-1.99Z" style="fill:#1a1a1a;"/><path d="M166.33,584.84c-.21,0-.31-.1-.31-.31v-1.31h-.03c-.35.56-.89,1.03-1.62,1.4-.73.37-1.66.56-2.8.56-.7,0-1.36-.09-1.98-.28s-1.14-.47-1.59-.84c-.45-.37-.8-.84-1.06-1.4-.26-.56-.39-1.22-.39-1.97,0-1.58.51-2.75,1.54-3.49,1.03-.75,2.45-1.12,4.28-1.12h3.39c.12,0,.19-.06.19-.19v-1.08c0-1.03-.25-1.77-.75-2.22s-1.44-.68-2.83-.68c-.85,0-1.55.1-2.12.3-.56.2-1.06.45-1.49.76-.19.15-.33.13-.44-.03l-.84-1.43c-.08-.17-.06-.31.06-.44.56-.43,1.27-.79,2.12-1.06.85-.27,1.83-.4,2.95-.4,2.12,0,3.61.39,4.49,1.17.88.78,1.32,2.08,1.32,3.9v9.86c0,.21-.1.31-.31.31h-1.81ZM162.18,582.94c1.19,0,2.11-.25,2.78-.76.67-.51,1-1.23,1-2.16v-1.65c0-.12-.06-.19-.19-.19h-3c-1.31,0-2.26.19-2.84.58-.58.38-.88,1-.88,1.85,0,.77.27,1.35.81,1.74.54.39,1.31.59,2.31.59Z" style="fill:#1a1a1a;"/><path d="M177.03,584.99c-1.31,0-2.24-.32-2.8-.95-.56-.63-.84-1.62-.84-2.97v-17.07c0-.21.1-.31.31-.31h1.99c.21,0,.31.1.31.31v16.92c0,.62.12,1.05.36,1.29s.62.36,1.14.36h.59c.21,0,.31.11.31.31v1.8c0,.21-.1.31-.31.31h-1.06Z" style="fill:#1a1a1a;"/><path d="M189.6,564c0-.21.1-.31.31-.31h7.12c3.63,0,5.93,1.5,6.91,4.51.08.29.16.59.23.9.07.31.13.7.19,1.15.05.46.09,1.01.11,1.65.02.64.03,1.43.03,2.36s-.01,1.72-.03,2.36c-.02.64-.06,1.19-.11,1.65-.05.46-.11.84-.19,1.15-.07.31-.15.61-.23.9-.97,3.01-3.28,4.51-6.91,4.51h-7.12c-.21,0-.31-.1-.31-.31v-20.53ZM192.4,582.07c0,.12.06.19.19.19h3.87c1.28,0,2.31-.22,3.1-.67.78-.45,1.35-1.19,1.7-2.23.06-.19.12-.4.19-.65.06-.25.11-.57.14-.95.03-.38.06-.86.08-1.42.02-.56.03-1.25.03-2.08s-.01-1.52-.03-2.09c-.02-.56-.05-1.03-.08-1.42-.03-.38-.08-.7-.14-.95-.06-.25-.12-.47-.19-.65-.35-1.04-.92-1.78-1.7-2.23-.79-.45-1.82-.67-3.1-.67h-3.87c-.12,0-.19.06-.19.19v15.61Z" style="fill:#1a1a1a;"/><path d="M209.16,566.58c-.21,0-.31-.1-.31-.31v-2.27c0-.21.1-.31.31-.31h2.12c.21,0,.31.1.31.31v2.27c0,.21-.11.31-.31.31h-2.12ZM209.23,584.84c-.21,0-.31-.1-.31-.31v-14.28c0-.21.1-.31.31-.31h1.99c.21,0,.31.1.31.31v14.28c0,.21-.1.31-.31.31h-1.99Z" style="fill:#1a1a1a;"/><path d="M221.48,590.78c-1.06,0-2.06-.2-3-.61-.94-.4-1.66-.94-2.16-1.6-.12-.15-.11-.29.03-.44l1.27-1.27c.15-.15.3-.15.47,0,.52.48,1.05.84,1.6,1.1.55.26,1.19.39,1.91.39,1.24,0,2.18-.33,2.82-.98.63-.66.95-1.67.95-3.05v-1.75h-.03c-.35.63-.86,1.13-1.51,1.51-.65.38-1.53.57-2.63.57-1.26,0-2.32-.31-3.17-.92-.85-.61-1.46-1.51-1.83-2.69-.19-.56-.32-1.14-.39-1.73-.07-.59-.11-1.32-.11-2.19s.04-1.6.11-2.19c.07-.59.2-1.17.39-1.73.37-1.18.98-2.08,1.83-2.69s1.91-.92,3.17-.92c1.1,0,1.98.19,2.63.56.65.37,1.16.87,1.51,1.49h.03v-1.4c0-.21.1-.31.31-.31h1.99c.21,0,.31.1.31.31v13.93c0,2.14-.56,3.77-1.66,4.9-1.11,1.13-2.72,1.7-4.84,1.7ZM221.84,582.22c1.6,0,2.67-.74,3.19-2.23.12-.37.21-.78.27-1.24.05-.45.08-1,.08-1.64s-.03-1.18-.08-1.63c-.05-.45-.14-.86-.27-1.25-.52-1.47-1.58-2.2-3.19-2.2s-2.64.73-3.16,2.2c-.12.39-.22.82-.28,1.29-.06.47-.09,1-.09,1.6,0,1.18.12,2.14.37,2.88.52,1.49,1.57,2.23,3.16,2.23Z" style="fill:#1a1a1a;"/><path d="M233.33,566.58c-.21,0-.31-.1-.31-.31v-2.27c0-.21.1-.31.31-.31h2.12c.21,0,.31.1.31.31v2.27c0,.21-.11.31-.31.31h-2.12ZM233.4,584.84c-.21,0-.31-.1-.31-.31v-14.28c0-.21.1-.31.31-.31h1.99c.21,0,.31.1.31.31v14.28c0,.21-.1.31-.31.31h-1.99Z" style="fill:#1a1a1a;"/><path d="M245.12,584.99c-1.45,0-2.48-.34-3.09-1.01-.61-.67-.92-1.75-.92-3.22v-8.52c0-.12-.06-.19-.19-.19h-1.24c-.21,0-.31-.1-.31-.31v-1.49c0-.21.1-.31.31-.31h1.24c.12,0,.19-.06.19-.19v-4.2c0-.21.1-.31.31-.31h1.99c.21,0,.31.11.31.31v4.2c0,.12.06.19.19.19h2.36c.21,0,.31.1.31.31v1.49c0,.21-.11.31-.31.31h-2.36c-.12,0-.19.06-.19.19v8.43c0,.75.15,1.25.45,1.51.3.26.78.39,1.44.39h.65c.21,0,.31.11.31.31v1.8c0,.21-.11.31-.31.31h-1.15Z" style="fill:#1a1a1a;"/><path d="M259.64,584.84c-.21,0-.31-.1-.31-.31v-1.31h-.03c-.35.56-.89,1.03-1.62,1.4-.73.37-1.66.56-2.8.56-.7,0-1.36-.09-1.98-.28s-1.14-.47-1.59-.84c-.45-.37-.8-.84-1.06-1.4-.26-.56-.39-1.22-.39-1.97,0-1.58.51-2.75,1.54-3.49,1.03-.75,2.45-1.12,4.28-1.12h3.39c.12,0,.19-.06.19-.19v-1.08c0-1.03-.25-1.77-.75-2.22s-1.44-.68-2.83-.68c-.85,0-1.55.1-2.12.3-.56.2-1.06.45-1.49.76-.19.15-.33.13-.44-.03l-.84-1.43c-.08-.17-.06-.31.06-.44.56-.43,1.27-.79,2.12-1.06s1.83-.4,2.95-.4c2.12,0,3.61.39,4.49,1.17.88.78,1.32,2.08,1.32,3.9v9.86c0,.21-.1.31-.31.31h-1.81ZM255.49,582.94c1.19,0,2.11-.25,2.78-.76.67-.51,1-1.23,1-2.16v-1.65c0-.12-.06-.19-.19-.19h-3c-1.31,0-2.26.19-2.84.58-.58.38-.88,1-.88,1.85,0,.77.27,1.35.81,1.74.54.39,1.31.59,2.31.59Z" style="fill:#1a1a1a;"/><path d="M270.35,584.99c-1.31,0-2.24-.32-2.8-.95-.56-.63-.84-1.62-.84-2.97v-17.07c0-.21.1-.31.31-.31h1.99c.21,0,.31.1.31.31v16.92c0,.62.12,1.05.36,1.29s.62.36,1.14.36h.59c.21,0,.31.11.31.31v1.8c0,.21-.1.31-.31.31h-1.06Z" style="fill:#1a1a1a;"/><path d="M282.91,564c0-.21.1-.31.31-.31h2.17c.21,0,.31.1.31.31v18.07c0,.12.06.19.19.19h10.08c.21,0,.31.1.31.31v1.96c0,.21-.11.31-.31.31h-12.75c-.21,0-.31-.1-.31-.31v-20.53Z" style="fill:#1a1a1a;"/><path d="M305.15,585.18c-1.51,0-2.78-.35-3.81-1.04-1.03-.69-1.75-1.7-2.16-3-.17-.48-.29-1.01-.37-1.59-.08-.58-.12-1.31-.12-2.18s.04-1.6.11-2.19c.07-.59.19-1.12.36-1.57.41-1.31,1.13-2.3,2.16-2.99s2.25-1.03,3.69-1.03,2.66.35,3.68,1.04c1.03.7,1.75,1.69,2.16,2.97.08.25.15.5.2.76.05.26.1.55.14.89.04.33.07.71.09,1.14.02.42.03.92.03,1.48,0,.21-.12.31-.34.31h-9.42c-.12,0-.19.06-.19.19,0,.42.02.76.06,1.03.04.27.1.53.19.78.29.87.76,1.52,1.4,1.94.64.42,1.43.64,2.36.64s1.65-.16,2.27-.47c.62-.31,1.14-.71,1.56-1.18.16-.16.32-.19.47-.06l1.28,1.15c.14.12.15.27.03.44-.6.75-1.39,1.36-2.38,1.83-.98.48-2.13.71-3.44.71ZM308.45,576.06c.12,0,.19-.06.19-.19,0-.68-.07-1.23-.22-1.67-.25-.74-.67-1.31-1.26-1.71-.59-.4-1.31-.6-2.16-.6s-1.57.2-2.16.6c-.59.4-1.01.97-1.26,1.71-.15.43-.22.99-.22,1.67,0,.12.06.19.19.19h6.91Z" style="fill:#1a1a1a;"/><path d="M324.53,584.84c-.21,0-.31-.1-.31-.31v-1.31h-.03c-.35.56-.89,1.03-1.62,1.4-.73.37-1.66.56-2.8.56-.7,0-1.36-.09-1.98-.28s-1.14-.47-1.59-.84c-.45-.37-.8-.84-1.06-1.4-.26-.56-.39-1.22-.39-1.97,0-1.58.51-2.75,1.54-3.49,1.03-.75,2.45-1.12,4.28-1.12h3.39c.12,0,.19-.06.19-.19v-1.08c0-1.03-.25-1.77-.75-2.22s-1.44-.68-2.83-.68c-.85,0-1.55.1-2.12.3-.56.2-1.06.45-1.49.76-.19.15-.33.13-.44-.03l-.84-1.43c-.08-.17-.06-.31.06-.44.56-.43,1.27-.79,2.12-1.06.85-.27,1.83-.4,2.95-.4,2.12,0,3.61.39,4.49,1.17.88.78,1.32,2.08,1.32,3.9v9.86c0,.21-.1.31-.31.31h-1.81ZM320.38,582.94c1.19,0,2.11-.25,2.78-.76.67-.51,1-1.23,1-2.16v-1.65c0-.12-.06-.19-.19-.19h-3c-1.31,0-2.26.19-2.84.58-.58.38-.88,1-.88,1.85,0,.77.27,1.35.81,1.74.54.39,1.31.59,2.31.59Z" style="fill:#1a1a1a;"/><path d="M331.97,584.84c-.21,0-.31-.1-.31-.31v-14.28c0-.21.1-.31.31-.31h1.99c.21,0,.31.1.31.31v1.52h.03c.33-.64.82-1.17,1.48-1.57.65-.4,1.48-.61,2.47-.61.6,0,1.17.1,1.7.3.53.2.98.47,1.35.82.15.15.17.29.06.44l-1.15,1.52c-.12.17-.27.19-.43.06-.35-.23-.72-.4-1.09-.53-.37-.12-.78-.19-1.21-.19-1.14,0-1.96.4-2.46,1.2-.5.8-.75,1.85-.75,3.16v8.15c0,.21-.1.31-.31.31h-1.99Z" style="fill:#1a1a1a;"/><path d="M354.08,584.84c-.21,0-.31-.1-.31-.31v-8.71c0-1.2-.28-2.14-.82-2.8-.55-.66-1.38-1-2.5-1-1.02,0-1.84.33-2.47.98-.63.65-.95,1.54-.95,2.66v8.87c0,.21-.1.31-.31.31h-1.99c-.21,0-.31-.1-.31-.31v-14.28c0-.21.1-.31.31-.31h1.99c.21,0,.31.1.31.31v1.37h.03c.35-.58.88-1.06,1.59-1.45s1.56-.58,2.58-.58c1.62,0,2.88.51,3.8,1.52.91,1.02,1.37,2.37,1.37,4.07v9.33c0,.21-.11.31-.31.31h-1.99Z" style="fill:#1a1a1a;"/><path d="M361.58,566.58c-.21,0-.31-.1-.31-.31v-2.27c0-.21.1-.31.31-.31h2.12c.21,0,.31.1.31.31v2.27c0,.21-.11.31-.31.31h-2.12ZM361.64,584.84c-.21,0-.31-.1-.31-.31v-14.28c0-.21.1-.31.31-.31h1.99c.21,0,.31.1.31.31v14.28c0,.21-.1.31-.31.31h-1.99Z" style="fill:#1a1a1a;"/><path d="M378.72,584.84c-.21,0-.31-.1-.31-.31v-8.71c0-1.2-.28-2.14-.82-2.8-.55-.66-1.38-1-2.5-1-1.02,0-1.84.33-2.47.98-.63.65-.95,1.54-.95,2.66v8.87c0,.21-.1.31-.31.31h-1.99c-.21,0-.31-.1-.31-.31v-14.28c0-.21.1-.31.31-.31h1.99c.21,0,.31.1.31.31v1.37h.03c.35-.58.88-1.06,1.59-1.45s1.56-.58,2.58-.58c1.62,0,2.88.51,3.8,1.52.91,1.02,1.37,2.37,1.37,4.07v9.33c0,.21-.11.31-.31.31h-1.99Z" style="fill:#1a1a1a;"/><path d="M390.82,590.78c-1.06,0-2.06-.2-3-.61-.94-.4-1.66-.94-2.16-1.6-.12-.15-.11-.29.03-.44l1.27-1.27c.15-.15.3-.15.47,0,.52.48,1.05.84,1.6,1.1.55.26,1.19.39,1.91.39,1.24,0,2.18-.33,2.82-.98s.95-1.67.95-3.05v-1.75h-.03c-.35.63-.86,1.13-1.51,1.51-.65.38-1.53.57-2.63.57-1.26,0-2.32-.31-3.17-.92-.85-.61-1.46-1.51-1.83-2.69-.19-.56-.32-1.14-.39-1.73-.07-.59-.11-1.32-.11-2.19s.04-1.6.11-2.19c.07-.59.2-1.17.39-1.73.37-1.18.98-2.08,1.83-2.69s1.91-.92,3.17-.92c1.1,0,1.98.19,2.63.56.65.37,1.16.87,1.51,1.49h.03v-1.4c0-.21.1-.31.31-.31h1.99c.21,0,.31.1.31.31v13.93c0,2.14-.56,3.77-1.66,4.9-1.11,1.13-2.72,1.7-4.84,1.7ZM391.18,582.22c1.6,0,2.67-.74,3.19-2.23.12-.37.21-.78.27-1.24.05-.45.08-1,.08-1.64s-.03-1.18-.08-1.63c-.05-.45-.14-.86-.27-1.25-.52-1.47-1.58-2.2-3.19-2.2s-2.64.73-3.16,2.2c-.12.39-.22.82-.28,1.29-.06.47-.09,1-.09,1.6,0,1.18.12,2.14.37,2.88.52,1.49,1.57,2.23,3.16,2.23Z" style="fill:#1a1a1a;"/><path d="M409.95,564c0-.21.1-.31.31-.31h2.17c.21,0,.31.1.31.31v20.53c0,.21-.11.31-.31.31h-2.17c-.21,0-.31-.1-.31-.31v-20.53Z" style="fill:#1a1a1a;"/><path d="M427.55,584.84c-.21,0-.31-.1-.31-.31v-8.71c0-1.2-.28-2.14-.82-2.8-.55-.66-1.38-1-2.5-1-1.02,0-1.84.33-2.47.98-.63.65-.95,1.54-.95,2.66v8.87c0,.21-.1.31-.31.31h-1.99c-.21,0-.31-.1-.31-.31v-14.28c0-.21.1-.31.31-.31h1.99c.21,0,.31.1.31.31v1.37h.03c.35-.58.88-1.06,1.59-1.45.7-.38,1.56-.58,2.58-.58,1.62,0,2.88.51,3.8,1.52.91,1.02,1.37,2.37,1.37,4.07v9.33c0,.21-.11.31-.31.31h-1.99Z" style="fill:#1a1a1a;"/><path d="M444.13,584.84c-.21,0-.31-.1-.31-.31v-1.43h-.03c-.35.6-.87,1.1-1.54,1.49-.67.39-1.57.59-2.69.59-1.31,0-2.4-.3-3.27-.9-.87-.6-1.49-1.49-1.87-2.68-.21-.6-.35-1.22-.42-1.87-.07-.64-.11-1.43-.11-2.36s.04-1.71.11-2.35c.07-.63.21-1.25.42-1.85.37-1.18,1-2.07,1.87-2.67.87-.6,1.96-.9,3.27-.9,1.12,0,2.02.19,2.69.58.67.38,1.19.88,1.54,1.48h.03v-7.65c0-.21.1-.31.31-.31h1.99c.21,0,.31.1.31.31v20.53c0,.21-.1.31-.31.31h-1.99ZM440.18,582.75c1.7,0,2.8-.76,3.3-2.27.12-.35.21-.77.27-1.26.05-.49.08-1.11.08-1.85s-.03-1.36-.08-1.83c-.05-.48-.14-.9-.27-1.27-.5-1.49-1.6-2.24-3.3-2.24s-2.75.75-3.27,2.24c-.12.41-.21.87-.26,1.37-.05.5-.08,1.08-.08,1.74s.03,1.28.08,1.77c.05.5.14.94.26,1.34.52,1.51,1.61,2.27,3.27,2.27Z" style="fill:#1a1a1a;"/><path d="M451.78,566.58c-.21,0-.31-.1-.31-.31v-2.27c0-.21.1-.31.31-.31h2.12c.21,0,.31.1.31.31v2.27c0,.21-.11.31-.31.31h-2.12ZM451.85,584.84c-.21,0-.31-.1-.31-.31v-14.28c0-.21.1-.31.31-.31h1.99c.21,0,.31.1.31.31v14.28c0,.21-.1.31-.31.31h-1.99Z" style="fill:#1a1a1a;"/><path d="M458.35,577.37c0-.83.04-1.55.12-2.16.08-.61.2-1.15.34-1.6.41-1.31,1.14-2.3,2.18-2.99,1.04-.68,2.27-1.03,3.7-1.03,1.14,0,2.14.22,3,.67.86.45,1.56,1.06,2.1,1.85.1.17.07.31-.09.43l-1.37,1.12c-.17.12-.31.11-.44-.03-.43-.54-.89-.94-1.37-1.21-.48-.27-1.09-.4-1.84-.4-.81,0-1.5.19-2.08.57-.58.39-1,.97-1.24,1.76-.12.39-.21.83-.26,1.31-.05.48-.08,1.05-.08,1.71s.03,1.24.08,1.73c.05.49.14.93.26,1.32.25.79.66,1.37,1.24,1.76s1.28.58,2.08.58c.75,0,1.36-.13,1.84-.4.48-.27.93-.67,1.37-1.21.12-.15.27-.16.44-.03l1.37,1.12c.16.12.2.27.09.44-.54.79-1.24,1.4-2.1,1.85-.86.45-1.86.67-3,.67-1.43,0-2.66-.34-3.7-1.02-1.04-.69-1.76-1.68-2.18-2.99-.15-.46-.26-.99-.34-1.6-.08-.61-.12-1.34-.12-2.19Z" style="fill:#1a1a1a;"/><path d="M482.58,584.84c-.21,0-.31-.1-.31-.31v-1.31h-.03c-.35.56-.89,1.03-1.62,1.4-.73.37-1.66.56-2.8.56-.7,0-1.36-.09-1.98-.28s-1.14-.47-1.59-.84c-.45-.37-.8-.84-1.06-1.4-.26-.56-.39-1.22-.39-1.97,0-1.58.51-2.75,1.54-3.49,1.03-.75,2.45-1.12,4.28-1.12h3.39c.12,0,.19-.06.19-.19v-1.08c0-1.03-.25-1.77-.75-2.22s-1.44-.68-2.83-.68c-.85,0-1.55.1-2.12.3-.56.2-1.06.45-1.49.76-.19.15-.33.13-.44-.03l-.84-1.43c-.08-.17-.06-.31.06-.44.56-.43,1.27-.79,2.12-1.06s1.83-.4,2.95-.4c2.12,0,3.61.39,4.49,1.17.88.78,1.32,2.08,1.32,3.9v9.86c0,.21-.1.31-.31.31h-1.81ZM478.43,582.94c1.19,0,2.11-.25,2.78-.76.67-.51,1-1.23,1-2.16v-1.65c0-.12-.06-.19-.19-.19h-3c-1.31,0-2.26.19-2.84.58-.58.38-.88,1-.88,1.85,0,.77.27,1.35.81,1.74.54.39,1.31.59,2.31.59Z" style="fill:#1a1a1a;"/><path d="M494.02,584.99c-1.45,0-2.48-.34-3.09-1.01-.61-.67-.92-1.75-.92-3.22v-8.52c0-.12-.06-.19-.19-.19h-1.24c-.21,0-.31-.1-.31-.31v-1.49c0-.21.1-.31.31-.31h1.24c.12,0,.19-.06.19-.19v-4.2c0-.21.1-.31.31-.31h1.99c.21,0,.31.11.31.31v4.2c0,.12.06.19.19.19h2.36c.21,0,.31.1.31.31v1.49c0,.21-.11.31-.31.31h-2.36c-.12,0-.19.06-.19.19v8.43c0,.75.15,1.25.45,1.51.3.26.78.39,1.44.39h.65c.21,0,.31.11.31.31v1.8c0,.21-.11.31-.31.31h-1.15Z" style="fill:#1a1a1a;"/><path d="M505.01,585.18c-1.45,0-2.69-.35-3.72-1.06-1.03-.7-1.75-1.69-2.16-2.95-.17-.52-.29-1.06-.37-1.63-.08-.57-.12-1.29-.12-2.16s.04-1.59.12-2.14c.08-.56.21-1.1.37-1.62.41-1.29,1.13-2.28,2.16-2.97,1.02-.69,2.27-1.04,3.72-1.04s2.69.35,3.72,1.04c1.02.7,1.75,1.69,2.16,2.97.16.52.29,1.06.37,1.62.08.56.12,1.27.12,2.14s-.04,1.59-.12,2.16c-.08.57-.21,1.12-.37,1.63-.42,1.27-1.14,2.25-2.16,2.95-1.03.7-2.27,1.06-3.72,1.06ZM505.01,582.75c.83,0,1.54-.2,2.12-.61.58-.4,1-.98,1.24-1.73.12-.42.21-.85.26-1.29.05-.45.08-1.03.08-1.76s-.03-1.31-.08-1.74c-.05-.43-.14-.86-.26-1.27-.25-.75-.66-1.32-1.24-1.73-.58-.4-1.29-.61-2.12-.61s-1.54.2-2.12.61c-.58.4-1,.98-1.24,1.73-.12.42-.21.84-.26,1.27-.05.44-.08,1.02-.08,1.74s.03,1.31.08,1.76c.05.45.14.88.26,1.29.25.75.66,1.32,1.24,1.73.58.4,1.29.61,2.12.61Z" style="fill:#1a1a1a;"/><path d="M515.89,584.84c-.21,0-.31-.1-.31-.31v-14.28c0-.21.1-.31.31-.31h1.99c.21,0,.31.1.31.31v1.52h.03c.33-.64.82-1.17,1.48-1.57.65-.4,1.48-.61,2.47-.61.6,0,1.17.1,1.7.3.53.2.98.47,1.35.82.15.15.17.29.06.44l-1.15,1.52c-.12.17-.27.19-.43.06-.35-.23-.72-.4-1.09-.53-.37-.12-.78-.19-1.21-.19-1.14,0-1.96.4-2.46,1.2-.5.8-.75,1.85-.75,3.16v8.15c0,.21-.1.31-.31.31h-1.99Z" style="fill:#1a1a1a;"/></svg>