<?xml version="1.0" encoding="UTF-8"?><svg id="Layer_1" xmlns="http://www.w3.org/2000/svg" viewBox="0 0 584.83 388.91"><path d="M80.25,318.53c-1.71,0-3.17-.4-4.35-1.2-1.19-.8-2.04-1.98-2.56-3.56-.1-.3-.19-.61-.25-.93-.07-.32-.12-.69-.16-1.12-.04-.43-.07-.94-.09-1.54-.02-.6-.03-1.32-.03-2.15s.01-1.55.03-2.15c.02-.6.05-1.11.09-1.54.04-.43.09-.8.16-1.12.07-.32.15-.63.25-.93.52-1.57,1.37-2.76,2.56-3.56s2.64-1.2,4.35-1.2,3.19.4,4.38,1.2,2.04,1.98,2.56,3.56c.1.3.18.61.25.93.07.32.12.69.16,1.12.04.43.07.94.09,1.54.02.6.03,1.32.03,2.15s-.01,1.56-.03,2.15c-.02.6-.05,1.11-.09,1.54-.04.43-.09.8-.16,1.12-.07.32-.15.63-.25.93-.52,1.58-1.37,2.76-2.56,3.56-1.19.8-2.65,1.2-4.38,1.2ZM80.25,316.05c1.14,0,2.06-.26,2.78-.78s1.24-1.27,1.56-2.24c.06-.18.11-.4.16-.67.05-.27.1-.6.15-1,.05-.4.08-.87.1-1.41.02-.54.03-1.18.03-1.91s-.01-1.38-.03-1.91c-.02-.54-.06-1.01-.1-1.41-.05-.4-.1-.73-.15-1-.05-.27-.1-.49-.16-.67-.32-.98-.84-1.72-1.56-2.24-.72-.52-1.65-.78-2.78-.78s-2.06.26-2.77.78c-.71.52-1.22,1.27-1.54,2.24-.06.18-.11.4-.16.67s-.1.6-.15,1c-.05.4-.08.87-.1,1.41s-.03,1.18-.03,1.91,0,1.38.03,1.91.05,1.01.1,1.41c.05.4.1.73.15,1s.1.49.16.67c.32.98.83,1.72,1.54,2.24.71.52,1.63.78,2.77.78Z" style="fill:#434243;"/><path d="M92.9,318.2c-.2,0-.3-.1-.3-.3v-19.74c0-.2.1-.3.3-.3h7.24c.98,0,1.86.14,2.66.43.8.29,1.48.7,2.03,1.23.56.53.99,1.17,1.3,1.91.31.75.46,1.58.46,2.5s-.15,1.75-.46,2.5c-.31.75-.74,1.39-1.3,1.91-.56.53-1.23.94-2.03,1.23s-1.68.43-2.65.43h-4.68c-.12,0-.18.06-.18.18v7.72c0,.2-.1.3-.3.3h-2.09ZM100,307.53c1.25,0,2.23-.32,2.92-.96.69-.64,1.04-1.51,1.04-2.63s-.35-1.99-1.04-2.63c-.7-.64-1.67-.96-2.92-.96h-4.53c-.12,0-.18.06-.18.18v6.82c0,.12.06.18.18.18h4.53Z" style="fill:#434243;"/><path d="M110.84,298.17c0-.2.1-.3.3-.3h12.26c.2,0,.3.1.3.3v1.88c0,.2-.1.3-.3.3h-9.69c-.12,0-.18.06-.18.18v5.98c0,.12.06.18.18.18h8.22c.2,0,.3.1.3.3v1.88c0,.2-.1.3-.3.3h-8.22c-.12,0-.18.06-.18.18v6.19c0,.12.06.18.18.18h9.69c.2,0,.3.1.3.3v1.88c0,.2-.1.3-.3.3h-12.26c-.2,0-.3-.1-.3-.3v-19.74ZM128.25,298.17c0-.2.1-.3.3-.3h1.91c.24,0,.41.1.51.3l9.21,15.25h.12v-15.25c0-.2.1-.3.3-.3h1.91c.2,0,.3.1.3.3v19.74c0,.2-.1.3-.3.3h-1.91c-.24,0-.41-.1-.51-.3l-9.24-15.19h-.09v15.19c0,.2-.1.3-.3.3h-1.91c-.2,0-.3-.1-.3-.3v-19.74ZM156.12,298.17c0-.2.1-.3.3-.3h12.26c.2,0,.3.1.3.3v1.88c0,.2-.1.3-.3.3h-9.69c-.12,0-.18.06-.18.18v5.98c0,.12.06.18.18.18h8.22c.2,0,.3.1.3.3v1.88c0,.2-.1.3-.3.3h-8.22c-.12,0-.18.06-.18.18v6.19c0,.12.06.18.18.18h9.69c.2,0,.3.1.3.3v1.88c0,.2-.1.3-.3.3h-12.26c-.2,0-.3-.1-.3-.3v-19.74ZM173.52,298.17c0-.2.1-.3.3-.3h6.85c3.49,0,5.7,1.45,6.64,4.34.08.28.15.57.22.87.07.3.13.67.18,1.11.05.44.08.97.1,1.59.02.62.03,1.38.03,2.27s-.01,1.66-.03,2.27c-.02.62-.06,1.15-.1,1.59-.05.44-.11.81-.18,1.11-.07.3-.14.59-.22.87-.94,2.89-3.15,4.34-6.64,4.34h-6.85c-.2,0-.3-.1-.3-.3v-19.74ZM176.22,315.54c0,.12.06.18.18.18h3.73c1.23,0,2.23-.21,2.98-.64.76-.43,1.3-1.14,1.64-2.14.06-.18.12-.39.18-.63.06-.24.1-.54.13-.91.03-.37.05-.82.07-1.36.02-.54.03-1.21.03-2s-.01-1.47-.03-2c-.02-.54-.04-.99-.07-1.36-.03-.37-.07-.67-.13-.91-.06-.24-.12-.45-.18-.63-.34-1-.88-1.71-1.64-2.14-.76-.43-1.75-.64-2.98-.64h-3.73c-.12,0-.18.06-.18.18v15.01Z" style="fill:#434243;"/><path d="M199.8,318.53c-2.26,0-4.03-.63-5.3-1.9-1.28-1.27-1.92-3.11-1.92-5.52v-12.95c0-.2.1-.3.3-.3h2.09c.2,0,.3.1.3.3v12.92c0,1.66.41,2.9,1.24,3.72s1.92,1.24,3.29,1.24,2.44-.41,3.26-1.24c.82-.83,1.24-2.07,1.24-3.72v-12.92c0-.2.1-.3.3-.3h2.09c.2,0,.3.1.3.3v12.95c0,2.41-.64,4.25-1.92,5.52s-3.04,1.9-5.27,1.9Z" style="fill:#434243;"/><path d="M212.22,313.75c-.1-.3-.19-.6-.25-.91-.07-.31-.12-.68-.16-1.11-.04-.43-.07-.94-.09-1.54-.02-.6-.03-1.32-.03-2.15s.01-1.55.03-2.15c.02-.6.05-1.11.09-1.54.04-.43.09-.8.16-1.11.07-.31.15-.61.25-.91.52-1.62,1.36-2.82,2.51-3.6,1.16-.79,2.57-1.18,4.25-1.18,1.52,0,2.84.35,3.96,1.06,1.13.71,1.98,1.72,2.56,3.04.06.18.02.31-.12.39l-1.79.87c-.2.1-.34.05-.42-.15-.4-.8-.93-1.45-1.58-1.96-.66-.51-1.53-.76-2.6-.76s-2.01.26-2.69.78c-.68.52-1.19,1.26-1.53,2.21-.06.22-.11.45-.16.7-.05.25-.09.56-.12.93-.03.37-.05.83-.08,1.38s-.03,1.22-.03,2.02,0,1.47.03,2.02c.02.55.04,1.01.08,1.38.03.37.07.68.12.94.05.26.1.49.16.69.34.96.85,1.69,1.53,2.21s1.57.78,2.69.78,1.94-.25,2.6-.76c.66-.51,1.19-1.16,1.58-1.96.08-.2.22-.25.42-.15l1.79.87c.14.08.18.21.12.39-.58,1.32-1.43,2.33-2.56,3.04-1.13.71-2.45,1.06-3.96,1.06-1.67,0-3.09-.39-4.25-1.18-1.16-.79-1.99-1.99-2.51-3.6Z" style="fill:#434243;"/><path d="M235.13,298.17c.06-.2.18-.3.36-.3h1.94c.2,0,.33.1.39.3l6.97,19.74c.06.2-.01.3-.21.3h-2.09c-.2,0-.33-.1-.39-.3l-1.56-4.43h-8.22l-1.56,4.43c-.08.2-.21.3-.39.3h-2.09c-.2,0-.27-.1-.21-.3l7.06-19.74ZM239.68,311l-3.2-9.21h-.06l-3.23,9.21h6.49Z" style="fill:#434243;"/><path d="M250.96,318.2c-.2,0-.3-.1-.3-.3v-17.38c0-.12-.06-.18-.18-.18h-5.56c-.2,0-.3-.1-.3-.3v-1.88c0-.2.1-.3.3-.3h14.18c.2,0,.3.1.3.3v1.88c0,.2-.1.3-.3.3h-5.56c-.12,0-.18.06-.18.18v17.38c0,.2-.1.3-.3.3h-2.09Z" style="fill:#434243;"/><path d="M263.09,298.17c0-.2.1-.3.3-.3h2.09c.2,0,.3.1.3.3v19.74c0,.2-.1.3-.3.3h-2.09c-.2,0-.3-.1-.3-.3v-19.74Z" style="fill:#434243;"/><path d="M278.08,318.53c-1.71,0-3.17-.4-4.35-1.2-1.19-.8-2.04-1.98-2.56-3.56-.1-.3-.19-.61-.25-.93-.07-.32-.12-.69-.16-1.12-.04-.43-.07-.94-.09-1.54-.02-.6-.03-1.32-.03-2.15s.01-1.55.03-2.15c.02-.6.05-1.11.09-1.54.04-.43.09-.8.16-1.12.07-.32.15-.63.25-.93.52-1.57,1.37-2.76,2.56-3.56s2.64-1.2,4.35-1.2,3.19.4,4.38,1.2,2.04,1.98,2.56,3.56c.1.3.18.61.25.93.07.32.12.69.16,1.12.04.43.07.94.09,1.54.02.6.03,1.32.03,2.15s-.01,1.56-.03,2.15c-.02.6-.05,1.11-.09,1.54-.04.43-.09.8-.16,1.12-.07.32-.15.63-.25.93-.52,1.58-1.37,2.76-2.56,3.56-1.19.8-2.65,1.2-4.38,1.2ZM278.08,316.05c1.14,0,2.06-.26,2.78-.78s1.24-1.27,1.56-2.24c.06-.18.11-.4.16-.67.05-.27.1-.6.15-1,.05-.4.08-.87.1-1.41.02-.54.03-1.18.03-1.91s-.01-1.38-.03-1.91c-.02-.54-.06-1.01-.1-1.41-.05-.4-.1-.73-.15-1-.05-.27-.1-.49-.16-.67-.32-.98-.84-1.72-1.56-2.24-.72-.52-1.65-.78-2.78-.78s-2.06.26-2.77.78c-.71.52-1.22,1.27-1.54,2.24-.06.18-.11.4-.16.67s-.1.6-.15,1c-.05.4-.08.87-.1,1.41s-.03,1.18-.03,1.91,0,1.38.03,1.91.05,1.01.1,1.41c.05.4.1.73.15,1s.1.49.16.67c.32.98.83,1.72,1.54,2.24.71.52,1.63.78,2.77.78Z" style="fill:#434243;"/><path d="M290.43,298.17c0-.2.1-.3.3-.3h1.91c.24,0,.41.1.51.3l9.21,15.25h.12v-15.25c0-.2.1-.3.3-.3h1.91c.2,0,.3.1.3.3v19.74c0,.2-.1.3-.3.3h-1.91c-.24,0-.41-.1-.51-.3l-9.24-15.19h-.09v15.19c0,.2-.1.3-.3.3h-1.91c-.2,0-.3-.1-.3-.3v-19.74Z" style="fill:#434243;"/><path d="M315.82,298.17c.06-.2.18-.3.36-.3h1.94c.2,0,.33.1.39.3l6.97,19.74c.06.2-.01.3-.21.3h-2.09c-.2,0-.33-.1-.39-.3l-1.56-4.43h-8.22l-1.56,4.43c-.08.2-.21.3-.39.3h-2.09c-.2,0-.27-.1-.21-.3l7.06-19.74ZM320.37,311l-3.2-9.21h-.06l-3.23,9.21h6.49Z" style="fill:#434243;"/><path d="M329.22,298.17c0-.2.1-.3.3-.3h2.09c.2,0,.3.1.3.3v17.38c0,.12.06.18.18.18h9.69c.2,0,.3.1.3.3v1.88c0,.2-.1.3-.3.3h-12.26c-.2,0-.3-.1-.3-.3v-19.74Z" style="fill:#434243;"/><path d="M365.41,318.2c-.18,0-.31-.1-.39-.3l-4.05-8.31h-4.47c-.12,0-.18.06-.18.18v8.13c0,.2-.1.3-.3.3h-2.09c-.2,0-.3-.1-.3-.3v-19.74c0-.2.1-.3.3-.3h7.37c.96,0,1.83.14,2.61.42.78.28,1.45.67,2.01,1.18.56.51.99,1.13,1.3,1.85.31.73.46,1.53.46,2.41,0,1.38-.36,2.54-1.08,3.5-.72.96-1.69,1.64-2.93,2.03l4.34,8.58c.06.1.07.18.03.25-.04.07-.11.1-.21.1h-2.42ZM361.23,307.11c1.19,0,2.12-.29,2.77-.88.66-.59.98-1.42.98-2.5s-.33-1.91-.98-2.5c-.66-.59-1.58-.88-2.77-.88h-4.74c-.12,0-.18.06-.18.18v6.4c0,.12.06.18.18.18h4.74ZM372.64,298.17c0-.2.1-.3.3-.3h12.26c.2,0,.3.1.3.3v1.88c0,.2-.1.3-.3.3h-9.69c-.12,0-.18.06-.18.18v5.98c0,.12.06.18.18.18h8.22c.2,0,.3.1.3.3v1.88c0,.2-.1.3-.3.3h-8.22c-.12,0-.18.06-.18.18v6.19c0,.12.06.18.18.18h9.69c.2,0,.3.1.3.3v1.88c0,.2-.1.3-.3.3h-12.26c-.2,0-.3-.1-.3-.3v-19.74ZM396.21,318.53c-.72,0-1.43-.07-2.12-.21-.7-.14-1.36-.32-1.97-.55-.62-.23-1.19-.5-1.7-.81-.52-.31-.97-.63-1.35-.97-.14-.14-.15-.29-.03-.45l1.32-1.56c.12-.14.26-.15.42-.03.66.52,1.48,1,2.45,1.44.98.44,2.05.66,3.23.66,1.42,0,2.52-.32,3.3-.96.79-.64,1.18-1.48,1.18-2.51,0-.44-.07-.84-.21-1.2-.14-.36-.37-.68-.7-.96-.33-.28-.76-.52-1.3-.72-.54-.2-1.22-.35-2.03-.45l-1.02-.15c-3.99-.54-5.98-2.41-5.98-5.62,0-.9.15-1.71.46-2.45.31-.74.75-1.37,1.33-1.88.58-.52,1.28-.92,2.09-1.2.82-.28,1.73-.42,2.75-.42,1.2,0,2.34.17,3.42.52,1.09.35,2.01.8,2.77,1.36.16.12.18.26.06.42l-1.02,1.64c-.12.14-.26.16-.42.06-.84-.52-1.64-.9-2.42-1.15-.78-.25-1.61-.37-2.48-.37-1.26,0-2.21.3-2.87.91-.66.61-.99,1.4-.99,2.38,0,.86.32,1.56.96,2.11.64.55,1.74.93,3.32,1.15l.99.15c1.99.28,3.49.88,4.49,1.79,1,.92,1.5,2.21,1.5,3.89,0,.9-.15,1.72-.46,2.47-.31.75-.78,1.39-1.41,1.93s-1.41.96-2.33,1.27-2,.46-3.21.46ZM415.02,318.53c-1.71,0-3.17-.4-4.35-1.2-1.19-.8-2.04-1.98-2.56-3.56-.1-.3-.18-.61-.25-.93-.07-.32-.12-.69-.16-1.12-.04-.43-.07-.94-.09-1.54-.02-.6-.03-1.32-.03-2.15s0-1.56.03-2.15c.02-.6.05-1.11.09-1.54.04-.43.09-.8.16-1.12.07-.32.15-.63.25-.93.52-1.57,1.37-2.76,2.56-3.56,1.19-.8,2.64-1.2,4.35-1.2s3.19.4,4.38,1.2c1.19.8,2.04,1.98,2.56,3.56.1.3.18.61.25.93.07.32.12.69.16,1.12.04.43.07.94.09,1.54.02.6.03,1.32.03,2.15s-.01,1.56-.03,2.15c-.02.6-.05,1.11-.09,1.54-.04.43-.09.8-.16,1.12-.07.32-.15.63-.25.93-.52,1.58-1.37,2.76-2.56,3.56-1.19.8-2.65,1.2-4.38,1.2ZM415.02,316.05c1.14,0,2.06-.26,2.78-.78.72-.52,1.24-1.27,1.56-2.24.06-.18.11-.4.16-.67.05-.27.1-.6.15-1,.05-.4.08-.87.1-1.41.02-.54.03-1.18.03-1.91s-.01-1.38-.03-1.91c-.02-.54-.06-1.01-.1-1.41-.05-.4-.1-.73-.15-1-.05-.27-.1-.49-.16-.67-.32-.98-.84-1.72-1.56-2.24-.72-.52-1.64-.78-2.78-.78s-2.06.26-2.77.78c-.71.52-1.22,1.27-1.54,2.24-.06.18-.11.4-.16.67-.05.27-.1.6-.15,1-.05.4-.09.87-.1,1.41-.02.54-.03,1.18-.03,1.91s0,1.38.03,1.91c.02.54.05,1.01.1,1.41.05.4.1.73.15,1,.05.27.1.49.16.67.32.98.83,1.72,1.54,2.24.71.52,1.63.78,2.77.78Z" style="fill:#434243;"/><path d="M434.45,318.53c-2.26,0-4.03-.63-5.3-1.9-1.28-1.27-1.92-3.11-1.92-5.52v-12.95c0-.2.1-.3.3-.3h2.09c.2,0,.3.1.3.3v12.92c0,1.66.41,2.9,1.24,3.72s1.92,1.24,3.29,1.24,2.44-.41,3.26-1.24c.82-.83,1.24-2.07,1.24-3.72v-12.92c0-.2.1-.3.3-.3h2.09c.2,0,.3.1.3.3v12.95c0,2.41-.64,4.25-1.92,5.52-1.28,1.27-3.04,1.9-5.27,1.9Z" style="fill:#434243;"/><path d="M458.84,318.2c-.18,0-.31-.1-.39-.3l-4.05-8.31h-4.47c-.12,0-.18.06-.18.18v8.13c0,.2-.1.3-.3.3h-2.09c-.2,0-.3-.1-.3-.3v-19.74c0-.2.1-.3.3-.3h7.37c.96,0,1.83.14,2.61.42.78.28,1.45.67,2.01,1.18.56.51.99,1.13,1.3,1.85.31.73.46,1.53.46,2.41,0,1.38-.36,2.54-1.08,3.5s-1.69,1.64-2.93,2.03l4.34,8.58c.06.1.07.18.03.25-.04.07-.11.1-.21.1h-2.42ZM454.66,307.11c1.19,0,2.12-.29,2.77-.88.66-.59.98-1.42.98-2.5s-.33-1.91-.98-2.5c-.66-.59-1.58-.88-2.77-.88h-4.74c-.12,0-.18.06-.18.18v6.4c0,.12.06.18.18.18h4.74Z" style="fill:#434243;"/><path d="M465.8,313.75c-.1-.3-.19-.6-.25-.91-.07-.31-.12-.68-.16-1.11-.04-.43-.07-.94-.09-1.54-.02-.6-.03-1.32-.03-2.15s.01-1.55.03-2.15c.02-.6.05-1.11.09-1.54.04-.43.09-.8.16-1.11.07-.31.15-.61.25-.91.52-1.62,1.36-2.82,2.51-3.6,1.16-.79,2.57-1.18,4.25-1.18,1.52,0,2.84.35,3.96,1.06,1.13.71,1.98,1.72,2.56,3.04.06.18.02.31-.12.39l-1.79.87c-.2.1-.34.05-.42-.15-.4-.8-.93-1.45-1.58-1.96-.66-.51-1.53-.76-2.6-.76s-2.01.26-2.69.78c-.68.52-1.19,1.26-1.53,2.21-.06.22-.11.45-.16.7-.05.25-.09.56-.12.93-.03.37-.05.83-.08,1.38s-.03,1.22-.03,2.02,0,1.47.03,2.02c.02.55.04,1.01.08,1.38.03.37.07.68.12.94.05.26.1.49.16.69.34.96.85,1.69,1.53,2.21s1.57.78,2.69.78,1.94-.25,2.6-.76c.66-.51,1.19-1.16,1.58-1.96.08-.2.22-.25.42-.15l1.79.87c.14.08.18.21.12.39-.58,1.32-1.43,2.33-2.56,3.04-1.13.71-2.45,1.06-3.96,1.06-1.67,0-3.09-.39-4.25-1.18-1.16-.79-1.99-1.99-2.51-3.6Z" style="fill:#434243;"/><path d="M483.48,298.17c0-.2.1-.3.3-.3h12.26c.2,0,.3.1.3.3v1.88c0,.2-.1.3-.3.3h-9.69c-.12,0-.18.06-.18.18v5.98c0,.12.06.18.18.18h8.22c.2,0,.3.1.3.3v1.88c0,.2-.1.3-.3.3h-8.22c-.12,0-.18.06-.18.18v6.19c0,.12.06.18.18.18h9.69c.2,0,.3.1.3.3v1.88c0,.2-.1.3-.3.3h-12.26c-.2,0-.3-.1-.3-.3v-19.74Z" style="fill:#434243;"/><path d="M507.04,318.53c-.72,0-1.43-.07-2.12-.21-.7-.14-1.36-.32-1.97-.55-.62-.23-1.19-.5-1.7-.81-.52-.31-.97-.63-1.35-.97-.14-.14-.15-.29-.03-.45l1.32-1.56c.12-.14.26-.15.42-.03.66.52,1.48,1,2.45,1.44.98.44,2.05.66,3.23.66,1.42,0,2.52-.32,3.3-.96.79-.64,1.18-1.48,1.18-2.51,0-.44-.07-.84-.21-1.2-.14-.36-.37-.68-.7-.96-.33-.28-.76-.52-1.3-.72-.54-.2-1.22-.35-2.03-.45l-1.02-.15c-3.99-.54-5.98-2.41-5.98-5.62,0-.9.15-1.71.46-2.45.31-.74.75-1.37,1.33-1.88.58-.52,1.28-.92,2.09-1.2.82-.28,1.73-.42,2.75-.42,1.2,0,2.34.17,3.42.52,1.09.35,2.01.8,2.77,1.36.16.12.18.26.06.42l-1.02,1.64c-.12.14-.26.16-.42.06-.84-.52-1.64-.9-2.42-1.15-.78-.25-1.61-.37-2.48-.37-1.26,0-2.21.3-2.87.91-.66.61-.99,1.4-.99,2.38,0,.86.32,1.56.96,2.11.64.55,1.74.93,3.32,1.15l.99.15c1.99.28,3.49.88,4.49,1.79,1,.92,1.5,2.21,1.5,3.89,0,.9-.15,1.72-.46,2.47-.31.75-.78,1.39-1.41,1.93s-1.41.96-2.33,1.27-2,.46-3.21.46Z" style="fill:#434243;"/><rect x="161.35" y="245.05" width="3.95" height="4.18" rx=".45" ry=".45" style="fill:#414042;"/><rect x="353.16" y="245.05" width="3.95" height="4.18" rx=".45" ry=".45" style="fill:#414042;"/><rect x="358.64" y="245.05" width="3.95" height="4.18" rx=".45" ry=".45" style="fill:#414042;"/><path d="M110.41,256.36c-.77-1.05-1.82-1.89-3.14-2.54-1.32-.64-3.01-.97-5.08-.97-1.8,0-3.31.34-4.56,1.03-1.24.69-2.28,1.56-3.12,2.6-.18.21-.13.42.13.63l1.97,1.62c.24.18.45.16.63-.04.66-.72,1.41-1.29,2.27-1.71.85-.42,1.79-.63,2.8-.63,1.17,0,2.14.19,2.92.56.78.37,1.4.91,1.86,1.62.46.7.8,1.54,1.01,2.51.21.97.31,2.04.31,3.21,0,.81-.04,1.49-.13,2.04-.09.55-.27,1-.54,1.32-.27.33-.66.56-1.17.7-.51.13-1.18.2-2.02.2h-14.72c-.75,0-1.29-.17-1.64-.52-.34-.34-.52-.97-.52-1.86v-15.22c0-.3-.15-.45-.45-.45h-2.87c-.3,0-.45.15-.45.45v1.93h-4.4c-1.11,0-2.18.16-3.21.47s-1.94.82-2.72,1.53c-.78.7-1.41,1.62-1.88,2.76-.48,1.14-.72,2.54-.72,4.22,0,1.41.21,2.63.63,3.66.42,1.03.99,1.89,1.73,2.56.73.67,1.6,1.18,2.6,1.5,1,.33,2.09.49,3.25.49.99,0,1.9-.13,2.74-.4.84-.27,1.56-.67,2.15-1.21.27,1.29.81,2.21,1.64,2.76.82.55,1.97.83,3.43.83h16.78c1.11,0,2.07-.13,2.9-.38.83-.25,1.51-.68,2.04-1.28.53-.6.92-1.39,1.18-2.38.26-.99.39-2.23.39-3.73s-.15-2.89-.45-4.27c-.3-1.38-.84-2.59-1.61-3.64ZM83.93,260.85c0,1.8-.35,3.2-1.05,4.2-.7,1-1.91,1.5-3.61,1.5-1.44,0-2.54-.4-3.32-1.19-.78-.79-1.17-1.97-1.17-3.52,0-2.07.44-3.49,1.32-4.29.88-.79,2.03-1.19,3.43-1.19h4.4v4.49Z" style="fill:#414042;"/><rect x="74.91" y="243.25" width="3.95" height="4.18" rx=".45" ry=".45" style="fill:#414042;"/><rect x="140.52" y="245.05" width="3.95" height="4.18" rx=".45" ry=".45" style="fill:#414042;"/><rect x="146" y="245.05" width="3.95" height="4.18" rx=".45" ry=".45" style="fill:#414042;"/><rect x="80.39" y="243.25" width="3.95" height="4.18" rx=".45" ry=".45" style="fill:#414042;"/><rect x="247.65" y="243.25" width="3.95" height="4.18" rx=".45" ry=".45" style="fill:#414042;"/><rect x="242.17" y="243.25" width="3.95" height="4.18" rx=".45" ry=".45" style="fill:#414042;"/><rect x="261.25" y="276.21" width="3.95" height="4.18" rx=".45" ry=".45" style="fill:#414042;"/><rect x="437.21" y="241.5" width="3.77" height="30.53" rx=".45" ry=".45" style="fill:#414042;"/><path d="M430.44,253.67h-2.87c-.3,0-.45.15-.45.45v19.53c0,2.54-1.21,3.82-3.64,3.82h-1.03c-.3,0-.45.15-.45.45v2.6c0,.3.15.45.45.45h1.21c2.36,0,4.16-.63,5.39-1.89,1.23-1.26,1.84-3.1,1.84-5.52v-19.44c0-.3-.15-.45-.45-.45Z" style="fill:#414042;"/><path d="M411.55,252.86h-6.6c-.3,0-.45.15-.45.45v2.6c0,.3.15.45.45.45h5.21c3.41,0,5.12,1.51,5.12,4.54v3.59c0,.78-.04,1.42-.13,1.93-.09.51-.27.92-.54,1.23-.27.31-.66.54-1.17.67-.51.13-1.18.2-2.02.2h-8.57c-.3,0-.45.15-.45.45v2.6c0,.3.15.45.45.45h9.96c1.14,0,2.11-.12,2.93-.36.81-.24,1.49-.65,2.02-1.23.53-.58.92-1.37,1.18-2.36.26-.99.39-2.23.39-3.73v-3.5c0-2.75-.73-4.77-2.18-6.06-1.45-1.29-3.31-1.93-5.59-1.93Z" style="fill:#414042;"/><path d="M209.5,241.5h-2.87c-.3,0-.45.15-.45.45v24.2c0,.9-.17,1.52-.52,1.86-.34.34-.89.52-1.64.52h-4.08c-.66,0-1.28-.28-1.86-.83-.58-.55-.89-1.59-.92-3.12.03-.3.05-.61.07-.94.01-.33.02-.66.02-.99,0-3.44-.76-5.93-2.29-7.48-1.53-1.54-3.62-2.31-6.28-2.31s-4.76.77-6.28,2.31c-1.53,1.54-2.29,4.03-2.29,7.48v.92c0,.28.01.58.04.88,0,.78-.08,1.43-.25,1.95-.16.52-.38.94-.65,1.26-.27.31-.57.54-.9.67-.33.13-.66.2-.99.2h-8.48c-.3,0-.52.02-.67.04,1.26-.87,2.24-1.96,2.94-3.28.7-1.32,1.05-2.74,1.05-4.27,0-1.2-.18-2.3-.54-3.3-.36-1-.91-1.86-1.64-2.58-.73-.72-1.65-1.28-2.76-1.68-1.11-.4-2.42-.61-3.95-.61s-2.84.2-3.95.61c-1.11.4-2.03.97-2.76,1.68-.73.72-1.28,1.58-1.64,2.58-.36,1-.54,2.1-.54,3.3,0,1.53.35,2.94,1.05,4.24.7,1.3,1.67,2.39,2.89,3.26h-7.14c-1.23,0-2.21-.25-2.94-.76-.73-.51-1.1-1.27-1.1-2.29v-11.36c0-.3-.15-.45-.45-.45h-2.87c-.3,0-.45.15-.45.45v12.03c0,.9-.17,1.52-.52,1.86-.34.34-.89.52-1.64.52h-3.05c-.06,0-.12,0-.18.01-.06,0-.12-.01-.18-.01h-3.1v-5.88c0-3.44-.75-5.93-2.24-7.48-1.5-1.54-3.58-2.31-6.24-2.31-1.17,0-2.27.2-3.32.61-1.05.4-1.97,1.02-2.76,1.84-.79.82-1.42,1.87-1.89,3.14-.46,1.27-.7,2.76-.7,4.47s.19,3.14.58,4.31c.39,1.17.96,2.1,1.71,2.81.75.7,1.65,1.21,2.71,1.53,1.06.31,2.25.47,3.57.47h4.8v1.17c0,.84-.11,1.53-.31,2.09-.21.55-.5.99-.87,1.3-.37.31-.82.54-1.32.67-.51.13-1.06.2-1.66.2h-5.39c-.3,0-.45.15-.45.45v2.6c0,.3.15.45.45.45h5.56c1.17,0,2.23-.15,3.19-.45.96-.3,1.77-.76,2.45-1.39.67-.63,1.2-1.44,1.57-2.42.37-.99.56-2.19.56-3.59v-1.08h3.1c.06,0,.12,0,.18,0,.06,0,.12,0,.18,0h3.72c2.36,0,3.92-.78,4.67-2.33.39.78.94,1.36,1.66,1.75.72.39,1.56.58,2.51.58h6.42c.87,0,1.86-.04,2.98-.13,1.12-.09,2.18-.4,3.16-.94.87.54,1.78.85,2.74.94.96.09,1.97.13,3.05.13h7.9c.84,0,1.75-.13,2.74-.38.99-.25,1.8-.86,2.42-1.82.75.87,1.66,1.5,2.74,1.91,1.08.4,2.32.61,3.72.61s2.6-.2,3.68-.58c1.08-.39,1.99-1.02,2.74-1.89.3.48.66.86,1.08,1.14.42.28.86.5,1.32.65.46.15.93.25,1.41.29.48.04.93.07,1.35.07h4.44c1.89,0,3.23-.46,4.04-1.37.81-.91,1.21-2.34,1.21-4.29v-24.43c0-.3-.15-.45-.45-.45ZM131.01,268.53h-4.53c-1.68,0-2.94-.4-3.79-1.21-.85-.81-1.28-2.27-1.28-4.4,0-1.98.44-3.56,1.32-4.76.88-1.2,2.07-1.8,3.57-1.8,1.68,0,2.88.55,3.61,1.66.73,1.11,1.1,2.65,1.1,4.62v5.88ZM163.32,267.77c-1.38-.54-2.54-1.35-3.5-2.45-.96-1.09-1.44-2.45-1.44-4.06s.46-2.8,1.39-3.64c.93-.84,2.11-1.26,3.55-1.26s2.62.42,3.55,1.26c.93.84,1.39,2.05,1.39,3.64s-.48,2.97-1.44,4.06c-.96,1.09-2.12,1.91-3.5,2.45ZM192.34,267.36c-.76.99-1.98,1.48-3.66,1.48s-2.89-.49-3.66-1.48c-.76-.99-1.14-2.56-1.14-4.71,0-1.98.38-3.52,1.14-4.62.76-1.11,1.98-1.66,3.66-1.66s2.89.55,3.66,1.66c.76,1.11,1.14,2.65,1.14,4.62,0,2.16-.38,3.73-1.14,4.71Z" style="fill:#414042;"/><path d="M501.53,241.5h-2.87c-.3,0-.45.15-.45.45v24.2c0,.9-.17,1.52-.52,1.86-.34.34-.89.52-1.64.52h-4.08c-.66,0-1.28-.28-1.86-.83-.58-.55-.89-1.59-.92-3.12.03-.3.05-.61.07-.94.01-.33.02-.66.02-.99,0-3.44-.76-5.93-2.29-7.48-1.53-1.54-3.62-2.31-6.28-2.31s-4.76.77-6.28,2.31c-1.53,1.54-2.29,4.03-2.29,7.48v.92c0,.28.01.58.04.88,0,.78-.08,1.43-.25,1.95-.16.52-.38.94-.65,1.26-.27.31-.57.54-.9.67-.33.13-.66.2-.99.2h-2.24s-.02,0-.03,0c0,0-.01,0-.02,0h-3.1v-5.88c0-3.44-.75-5.93-2.24-7.48-1.5-1.54-3.58-2.31-6.24-2.31-1.17,0-2.27.2-3.32.61-1.05.4-1.97,1.02-2.76,1.84-.79.82-1.42,1.87-1.89,3.14-.46,1.27-.7,2.76-.7,4.47s.19,3.14.58,4.31c.39,1.17.96,2.1,1.71,2.81.75.7,1.65,1.21,2.72,1.53,1.06.31,2.25.47,3.57.47h4.8v1.17c0,.84-.1,1.53-.31,2.09-.21.55-.5.99-.88,1.3-.37.31-.82.54-1.32.67-.51.13-1.06.2-1.66.2h-5.39c-.3,0-.45.15-.45.45v2.6c0,.3.15.45.45.45h5.56c1.17,0,2.23-.15,3.19-.45.96-.3,1.77-.76,2.45-1.39.67-.63,1.2-1.44,1.57-2.42.37-.99.56-2.19.56-3.59v-1.08h3.1s.02,0,.03,0c0,0,.01,0,.02,0h1.93c.84,0,1.75-.13,2.74-.38.99-.25,1.8-.86,2.42-1.82.75.87,1.66,1.5,2.74,1.91,1.08.4,2.32.61,3.73.61s2.6-.2,3.68-.58c1.08-.39,1.99-1.02,2.74-1.89.3.48.66.86,1.08,1.14.42.28.86.5,1.32.65.46.15.93.25,1.41.29.48.04.93.07,1.35.07h4.44c1.89,0,3.23-.46,4.04-1.37.81-.91,1.21-2.34,1.21-4.29v-24.43c0-.3-.15-.45-.45-.45ZM460.24,268.53h-4.53c-1.68,0-2.94-.4-3.79-1.21-.85-.81-1.28-2.27-1.28-4.4,0-1.98.44-3.56,1.32-4.76.88-1.2,2.07-1.8,3.57-1.8,1.68,0,2.88.55,3.61,1.66.73,1.11,1.1,2.65,1.1,4.62v5.88ZM484.36,267.36c-.76.99-1.98,1.48-3.66,1.48s-2.89-.49-3.66-1.48c-.76-.99-1.14-2.56-1.14-4.71,0-1.98.38-3.52,1.14-4.62.76-1.11,1.98-1.66,3.66-1.66s2.89.55,3.66,1.66c.76,1.11,1.14,2.65,1.14,4.62,0,2.16-.38,3.73-1.14,4.71Z" style="fill:#414042;"/><rect x="379.73" y="241.5" width="3.77" height="30.53" rx=".45" ry=".45" style="fill:#414042;"/><rect x="508.53" y="241.5" width="3.77" height="30.53" rx=".45" ry=".45" style="fill:#414042;"/><rect x="266.72" y="276.21" width="3.95" height="4.18" rx=".45" ry=".45" style="fill:#414042;"/><rect x="216.51" y="241.5" width="3.77" height="30.53" rx=".45" ry=".45" style="fill:#414042;"/><rect x="301.19" y="276.21" width="3.95" height="4.18" rx=".45" ry=".45" style="fill:#414042;"/><rect x="306.67" y="276.21" width="3.95" height="4.18" rx=".45" ry=".45" style="fill:#414042;"/><path d="M372.73,241.5h-2.87c-.3,0-.45.15-.45.45v24.2c0,.9-.17,1.52-.52,1.86-.34.34-.89.52-1.64.52h-3.37c-1.23,0-2.21-.25-2.94-.76-.73-.51-1.1-1.27-1.1-2.29v-11.36c0-.3-.15-.45-.45-.45h-2.87c-.3,0-.45.15-.45.45v12.03c0,.9-.17,1.52-.52,1.86-.34.34-.89.52-1.64.52h-3.05c-.05,0-.09,0-.14,0-.06,0-.11,0-.17,0h-7.29c-.22,0-.44-.03-.65-.09.6-.36,1.2-.83,1.82-1.41.61-.58,1.17-1.24,1.66-1.98.49-.73.9-1.54,1.21-2.42.31-.88.47-1.8.47-2.76,0-2.16-.76-3.86-2.29-5.12-1.53-1.26-3.89-1.89-7.09-1.89-1.02,0-1.99.08-2.92.22-.93.15-1.77.34-2.54.58-.76.24-1.44.49-2.02.76s-1.05.51-1.41.72c-.3.18-.45.48-.45.9v2.69c0,.15.04.29.11.43.07.13.25.29.52.47.66.48,1.31.96,1.95,1.44.64.48,1.23,1.04,1.77,1.68.54.64,1.01,1.38,1.41,2.22.4.84.73,1.86.96,3.05-.87.24-1.62.38-2.27.43-.64.04-1.16.07-1.55.07h-6.28c-1.23,0-2.21-.25-2.94-.76-.73-.51-1.1-1.27-1.1-2.29v-23.53c0-.3-.15-.45-.45-.45h-2.87c-.3,0-.45.15-.45.45v24.2c0,.9-.17,1.52-.52,1.86-.34.34-.89.52-1.64.52h-3.37c-1.23,0-2.21-.25-2.94-.76-.73-.51-1.1-1.27-1.1-2.29v-11.36c0-.3-.15-.45-.45-.45h-2.87c-.3,0-.45.15-.45.45v12.03c0,.9-.17,1.52-.52,1.86-.34.34-.89.52-1.64.52h-3.05s-.09,0-.13,0c-.05,0-.09,0-.14,0h-1.3c-.66,0-1.28-.28-1.86-.83-.58-.55-.89-1.59-.92-3.12.03-.3.05-.61.07-.94.01-.33.02-.66.02-.99,0-3.44-.76-5.93-2.29-7.48-1.53-1.54-3.62-2.31-6.28-2.31s-4.76.77-6.28,2.31c-1.53,1.54-2.29,4.03-2.29,7.48v.92c0,.28.01.58.04.88,0,.78-.08,1.43-.25,1.95-.16.52-.38.94-.65,1.26s-.57.54-.9.67c-.33.13-.66.2-.99.2h-2.78c-1.23,0-2.21-.25-2.94-.76-.73-.51-1.1-1.27-1.1-2.29v-11.36c0-.3-.15-.45-.45-.45h-2.87c-.3,0-.45.15-.45.45v12.03c0,.9-.17,1.52-.52,1.86-.34.34-.89.52-1.64.52h-3.05c-.06,0-.11,0-.17,0-.05,0-.09,0-.15,0h-1.97c-.75,0-1.29-.17-1.64-.52-.34-.34-.52-.97-.52-1.86v-15.22c0-.3-.15-.45-.45-.45h-2.87c-.3,0-.45.15-.45.45v1.93h-4.4c-1.11,0-2.18.16-3.21.47-1.03.31-1.94.82-2.71,1.53-.78.7-1.41,1.62-1.89,2.76-.48,1.14-.72,2.54-.72,4.22,0,1.41.21,2.63.63,3.66.42,1.03.99,1.89,1.73,2.56.73.67,1.6,1.18,2.6,1.5,1,.33,2.09.49,3.25.49.99,0,1.9-.13,2.74-.4.84-.27,1.56-.67,2.15-1.21.27,1.29.81,2.21,1.64,2.76.82.55,1.97.83,3.43.83h2.65c.06,0,.11,0,.17,0,.05,0,.1,0,.15,0h3.72c2.36,0,3.92-.78,4.67-2.33.39.78.94,1.36,1.66,1.75.72.39,1.56.58,2.51.58h2.92c.84,0,1.75-.13,2.74-.38.99-.25,1.8-.86,2.42-1.82.75.87,1.66,1.5,2.74,1.91,1.08.4,2.32.61,3.73.61s2.6-.2,3.68-.58c1.08-.39,1.99-1.02,2.74-1.89.3.48.66.86,1.08,1.14.42.28.86.5,1.32.65.46.15.93.25,1.41.29.48.04.93.07,1.35.07h.99s.09,0,.13,0c.05,0,.09,0,.14,0h3.73c2.36,0,3.92-.78,4.67-2.33.39.78.94,1.36,1.66,1.75.72.39,1.56.58,2.51.58h4.49c2.36,0,3.92-.78,4.67-2.33.39.78.94,1.36,1.66,1.75.72.39,1.56.58,2.51.58h7.05c.87,0,1.85-.1,2.96-.29,1.11-.19,2.15-.56,3.14-1.1.87.54,1.79.91,2.76,1.1.97.2,2,.29,3.07.29h6.33c.05,0,.09,0,.14,0,.06,0,.11,0,.17,0h3.72c2.36,0,3.92-.78,4.67-2.33.39.78.94,1.36,1.66,1.75.72.39,1.56.58,2.51.58h4.49c1.89,0,3.23-.46,4.04-1.37.81-.91,1.21-2.34,1.21-4.29v-24.43c0-.3-.15-.45-.45-.45ZM251.19,260.85c0,1.8-.35,3.2-1.05,4.2-.7,1-1.91,1.5-3.61,1.5-1.44,0-2.54-.4-3.32-1.19-.78-.79-1.17-1.97-1.17-3.52,0-2.07.44-3.49,1.32-4.29.88-.79,2.03-1.19,3.43-1.19h4.4v4.49ZM290.17,267.36c-.76.99-1.98,1.48-3.66,1.48s-2.89-.49-3.66-1.48c-.76-.99-1.14-2.56-1.14-4.71,0-1.98.38-3.52,1.14-4.62.76-1.11,1.98-1.66,3.66-1.66s2.89.55,3.66,1.66c.76,1.11,1.14,2.65,1.14,4.62,0,2.16-.38,3.73-1.14,4.71ZM340.86,265.59c-.54.46-1.05.85-1.53,1.15-.51-2.16-1.34-4.01-2.49-5.57-1.15-1.56-2.49-2.77-4.02-3.64.33-.21,1-.46,2.02-.74,1.02-.28,2.2-.43,3.55-.43.75,0,1.46.06,2.13.18.67.12,1.25.32,1.73.61.48.28.86.67,1.14,1.14.28.48.43,1.09.43,1.84s-.14,1.41-.43,2.09c-.28.67-.64,1.29-1.08,1.84-.43.55-.92,1.06-1.46,1.53Z" style="fill:#414042;"/><path d="M483.43,146.13l-10.12,10.12h0s-10.12,10.12-10.12,10.12l26.29,26.29c5.59,5.59,14.65,5.59,20.24,0,2.79-2.79,4.19-6.45,4.19-10.11v-.03c0-3.66-1.4-7.32-4.19-10.11l-26.29-26.29Z" style="fill:#00b1db;"/><path d="M489.48,99.6l-26.29,26.29,10.12,10.12h0s10.12,10.12,10.12,10.12l26.29-26.29c2.79-2.79,4.19-6.45,4.19-10.11v-.03c0-3.66-1.4-7.32-4.19-10.11-5.59-5.59-14.65-5.59-20.24,0" style="fill:#00b1db;"/><path d="M473.31,156.25l10.12-10.12-10.12-10.12h0s-10.12-10.12-10.12-10.12l-26.23-26.23c-5.59-5.58-14.65-5.57-20.23.01-5.59,5.59-5.59,14.65,0,20.24l25.31,25.31.91.91-.97.97-25.25,25.25c-5.59,5.59-5.59,14.65,0,20.24,5.59,5.59,14.64,5.59,20.23.01l26.23-26.23,10.12-10.12h0Z" style="fill:#0078b9;"/><path d="M214.16,95.32v23.33c0,2.54,2.06,4.61,4.61,4.61h48.11c2.54,0,4.61,2.06,4.61,4.61v10.21c0,2.54-2.06,4.61-4.61,4.61h-48.11c-2.54,0-4.61,2.06-4.61,4.6v25.85c0,2.54,2.06,4.61,4.61,4.61h52.61c2.54,0,4.61,2.06,4.61,4.61v10.21c0,2.54-2.06,4.61-4.61,4.61h-66.19c-6.26,0-11.33-5.07-11.33-11.33v-103.2c0-6.26,5.07-11.33,11.33-11.33h66.19c2.54,0,4.61,2.06,4.61,4.6v10.21c0,2.54-2.06,4.61-4.61,4.61h-52.61c-2.54,0-4.61,2.06-4.61,4.61" style="fill:#434243;"/><path d="M334.72,150.23h-13.66c-2.54,0-4.61,2.06-4.61,4.61v37.72c0,2.54-2.06,4.61-4.61,4.61h-11.09c-2.54,0-4.61-2.06-4.61-4.61v-109.92c0-6.26,5.07-11.33,11.33-11.33h40.6c27.32,0,42.77,16.18,42.77,39.91,0,20.68-11.68,34.16-31.63,37.94l31.73,40.56c2.36,3.02.21,7.44-3.63,7.44h-13.25c-1.43,0-2.79-.67-3.66-1.81l-33.87-44.22c-.44-.57-1.11-.9-1.83-.9M316.45,127.64c0,2.54,2.06,4.61,4.61,4.61h24.87c16.71,0,24.44-8.63,24.44-20.86s-7.91-20.68-24.44-20.68h-24.87c-2.54,0-4.61,2.06-4.61,4.61v32.32Z" style="fill:#434243;"/><path d="M159.26,87c-9.6-11.08-22.01-16.62-37.25-16.62-10.51,0-19.46,2.33-26.84,7-7.38,4.67-13.36,11.77-17.94,21.3-4.58,9.53-6.86,21.67-6.86,36.41,0,20.31,5.08,36.28,15.23,47.93,8.92,10.18,21.08,15.27,36.49,15.27s27.4-5.15,36.32-15.44c10.16-11.64,15.24-27.82,15.24-48.52s-4.8-36.25-14.39-47.34M143.17,166.35c-5.56,7.06-12.57,10.59-21.02,10.59s-15.44-3.56-21.11-10.67c-5.68-7.12-8.52-17.79-8.52-32.02s2.75-25.23,8.25-32.15c5.5-6.92,12.63-10.38,21.38-10.38s15.83,3.43,21.24,10.29c5.41,6.86,8.12,17.47,8.12,31.81s-2.78,25.47-8.34,32.53" style="fill:#434243;"/></svg>