<?xml version="1.0" encoding="UTF-8"?>
<svg id="Layer_1" data-name="Layer 1" xmlns="http://www.w3.org/2000/svg" viewBox="0 0 80 80">
  <defs>
    <style>
      .cls-1 {
        fill: #552f91;
      }
    </style>
  </defs>
  <path class="cls-1" d="M64.97,44.46l-4.3-2.48c-.71-.41-1.13-1.14-1.13-2s.42-1.55,1.12-1.96l4.31-2.48c1.08-.63,1.45-2.02.83-3.11l-6.35-11c-.63-1.08-2.03-1.46-3.1-.83l-4.33,2.5c-.65.37-1.46.38-2.14.02l-.12-.07c-.7-.4-1.13-1.13-1.13-1.91v-5.01c0-1.26-1.02-2.28-2.28-2.28h-12.69c-1.25,0-2.28,1.02-2.28,2.28v5.01c0,.74-.4,1.44-1.04,1.86l-.12.07c-.7.4-1.55.41-2.22.03l-4.34-2.52c-1.08-.61-2.47-.24-3.1.84l-6.36,11c-.61,1.08-.24,2.47.84,3.1l4.35,2.52c.67.38,1.08,1.12,1.08,1.96s-.42,1.54-1.09,1.93l-4.34,2.51c-1.08.63-1.45,2.02-.83,3.11l6.35,11c.63,1.08,2.02,1.45,3.11.83l4.33-2.5c.62-.36,1.4-.38,2.07-.06l.28.16c.64.41,1.04,1.12,1.04,1.85v5.01c0,1.26,1.02,2.28,2.28,2.28h12.69c1.25,0,2.28-1.02,2.28-2.28v-5.01c0-.77.43-1.5,1.13-1.9l.19-.1h.01c.66-.33,1.43-.3,2.06.06l4.33,2.5c.53.31,1.14.39,1.74.23.58-.16,1.06-.53,1.37-1.06l6.36-11c.61-1.08.24-2.47-.84-3.1ZM47.33,40c0,4.04-3.29,7.32-7.32,7.32s-7.32-3.29-7.32-7.32,3.29-7.32,7.32-7.32,7.32,3.29,7.32,7.32Z"/>
</svg>