<?xml version="1.0" encoding="UTF-8"?>
<svg id="Layer_1" data-name="Layer 1" xmlns="http://www.w3.org/2000/svg" viewBox="0 0 80 80">
  <defs>
    <style>
      .cls-1 {
        fill: #552f91;
      }
    </style>
  </defs>
  <circle class="cls-1" cx="40" cy="38.5" r="5.18"/>
  <path class="cls-1" d="M39.96,11.14l-22.9,9.34v22.86c0,4.05,1.78,7.87,4.9,10.47l18,15.04,18.06-15.04c3.12-2.6,4.91-6.42,4.91-10.49v-22.85l-22.97-9.34ZM48.21,38.5c0,.95-.17,1.87-.47,2.72l4.08,2.35-1.52,2.63-4.08-2.35c-1.19,1.39-2.84,2.37-4.71,2.72v4.7h-3.03v-4.7c-1.87-.35-3.51-1.33-4.71-2.72l-4.08,2.35-1.52-2.63,4.08-2.35c-.3-.85-.47-1.76-.47-2.72s.17-1.87.47-2.72l-4.08-2.35,1.52-2.63,4.08,2.35c1.19-1.39,2.84-2.37,4.71-2.72v-4.7h3.03v4.7c1.87.35,3.51,1.33,4.71,2.72l4.08-2.35,1.52,2.63-4.08,2.35c.3.85.47,1.76.47,2.72Z"/>
</svg>