<?xml version="1.0" encoding="UTF-8"?>
<svg id="Layer_1" data-name="Layer 1" xmlns="http://www.w3.org/2000/svg" viewBox="0 0 80 80">
  <defs>
    <style>
      .cls-1 {
        fill: #552f91;
      }
    </style>
  </defs>
  <path class="cls-1" d="M46.65,51.22c.02-.08.04-.15.06-.22.1-.22.26-.41.47-.54.22-.06.46-.13.7-.21l6.77-.85c1.13-.14,2.06-.94,2.35-2.04.37-1.37,1.32-4.74,2.23-6.57,1.24-2.48,2.14-4.28,5.68-4.28h4.87v-3.03h-1.85c1.06-1.35,1.7-3.04,1.7-4.88,0-4.36-3.55-7.91-7.91-7.91s-7.91,3.55-7.91,7.91c0,3.31,2.04,6.14,4.92,7.32-.99,1.08-1.63,2.35-2.21,3.51-.97,1.94-1.91,5.14-2.41,6.97l-2.39.3v-2.76c0-4.11-2.68-7.67-6.57-9.38,1.67-1.45,2.73-3.58,2.73-5.97,0-4.36-3.55-7.91-7.91-7.91s-7.91,3.55-7.91,7.91c0,2.38,1.06,4.51,2.73,5.97-3.88,1.71-6.57,5.27-6.57,9.38v2.76l-2.39-.3c-.5-1.84-1.44-5.04-2.41-6.97-.58-1.16-1.22-2.44-2.21-3.51,2.88-1.18,4.92-4.02,4.92-7.32,0-4.36-3.55-7.91-7.91-7.91s-7.91,3.55-7.91,7.91c0,1.84.64,3.53,1.7,4.88h-1.8v3.03h4.82c3.54,0,4.44,1.79,5.68,4.28.91,1.82,1.87,5.2,2.23,6.57.29,1.1,1.22,1.9,2.35,2.04l6.83.85c.28.11,1.18.51,1.21,1.23,0,.66-.54,1.19-1.2,1.19h-9.06c-1.51,0-2.88-.95-3.41-2.36l-2.58-6.88-2.84,1.07,2.58,6.88c.27.72.67,1.37,1.16,1.95v5.99h3.03v-3.93c.66.21,1.35.33,2.06.33h33.78c.71,0,1.4-.12,2.06-.33v3.93h3.03v-5.98c.48-.57.89-1.22,1.16-1.95l2.58-6.88-2.84-1.07-2.58,6.88c-.53,1.41-1.9,2.36-3.41,2.36h-9.06c-.65,0-1.18-.52-1.19-1.17,0-.09.02-.18.04-.26,0,0,0-.01,0-.02ZM56.84,28.61c0-2.69,2.19-4.88,4.88-4.88s4.88,2.19,4.88,4.88-2.19,4.88-4.88,4.88-4.88-2.19-4.88-4.88ZM18.23,23.73c2.69,0,4.88,2.19,4.88,4.88s-2.19,4.88-4.88,4.88-4.88-2.19-4.88-4.88,2.19-4.88,4.88-4.88Z"/>
</svg>