<?xml version="1.0" encoding="UTF-8"?>
<svg id="Layer_1" data-name="Layer 1" xmlns="http://www.w3.org/2000/svg" viewBox="0 0 80 80">
  <defs>
    <style>
      .cls-1 {
        fill: #552f91;
      }
    </style>
  </defs>
  <path class="cls-1" d="M40.25,23.13c-.08,0-.16,0-.25,0-.08,0-.16,0-.25,0-9.28,0-16.68,7.14-16.89,16.37-.1,4.6,1.67,7.97,4.37,11.6.66.89,1.26,1.54,1.8,2.11,1.16,1.25,1.87,2.03,2.39,4.49v3.04c0,1.59.46,3.14,1.34,4.47l.4.6c1.5,2.27,4.02,3.62,6.74,3.62s5.48-1.5,6.93-3.92l.27-.45c.76-1.26,1.16-2.7,1.16-4.17v-3.19c.5-2.33,1.28-3.13,2.46-4.31.61-.61,1.31-1.31,2.04-2.29,2.7-3.63,4.47-7,4.37-11.6-.21-9.23-7.6-16.37-16.89-16.37ZM40,25.15s0,0,0,0v-.5s.01.5.01.5c0,0,0,0,0,0ZM44.51,63.5l-.27.45c-.91,1.51-2.57,2.45-4.33,2.45s-3.28-.85-4.21-2.26l-.4-.6c-.55-.83-.84-1.8-.84-2.79v-1.69h10.78s0,1.85,0,1.85c0,.92-.25,1.82-.72,2.61Z"/>
  <rect class="cls-1" x="38.56" y="10.58" width="3.03" height="6.02"/>
  <rect class="cls-1" x="10.22" y="38.4" width="6.61" height="3.03"/>
  <rect class="cls-1" x="63.17" y="38.4" width="6.61" height="3.03"/>
  <rect class="cls-1" x="17.97" y="57.12" width="6.61" height="3.03" transform="translate(-35.23 32.22) rotate(-45)"/>
  <rect class="cls-1" x="55.42" y="19.68" width="6.61" height="3.03" transform="translate(2.21 47.72) rotate(-44.99)"/>
  <rect class="cls-1" x="57.21" y="55.34" width="3.03" height="6.61" transform="translate(-24.27 58.71) rotate(-45.01)"/>
  <rect class="cls-1" x="19.76" y="17.89" width="3.03" height="6.61" transform="translate(-8.75 21.25) rotate(-45)"/>
</svg>