<?xml version="1.0" encoding="UTF-8"?><svg id="Layer_1" xmlns="http://www.w3.org/2000/svg" viewBox="0 0 898.13 403.6"><path d="M300.81,132.92c0-.47.23-.71.71-.71h4.52c.57,0,.97.24,1.2.71l21.76,36.03h.28v-36.03c0-.47.24-.71.72-.71h4.5c.48,0,.72.24.72.71v46.62c0,.47-.24.71-.71.71h-4.52c-.56,0-.97-.24-1.2-.71l-21.83-35.88h-.21v35.88c0,.47-.24.71-.71.71h-4.5c-.48,0-.72-.24-.72-.71v-46.62Z" style="fill:#1a1a1a;"/><path d="M367.35,180.24c-.47,0-.7-.24-.7-.71v-2.97h-.07c-.8,1.27-2.03,2.33-3.67,3.18-1.65.85-3.77,1.27-6.36,1.27-1.6,0-3.1-.21-4.49-.64-1.39-.42-2.59-1.06-3.6-1.91-1.01-.85-1.81-1.91-2.4-3.19s-.88-2.76-.88-4.47c0-3.59,1.17-6.24,3.5-7.94,2.33-1.7,5.57-2.55,9.71-2.55h7.7c.28,0,.42-.14.42-.42v-2.45c0-2.34-.57-4.02-1.7-5.05-1.13-1.03-3.27-1.54-6.43-1.54-1.93,0-3.53.22-4.8.67-1.27.45-2.4,1.02-3.39,1.73-.42.33-.75.31-.99-.07l-1.91-3.25c-.19-.38-.14-.71.14-.99,1.27-.99,2.87-1.79,4.8-2.4,1.93-.61,4.17-.92,6.71-.92,4.8,0,8.21.88,10.21,2.65s3,4.72,3,8.87v22.39c0,.47-.23.71-.7.71h-4.12ZM357.92,175.94c2.7,0,4.8-.58,6.31-1.73,1.51-1.15,2.27-2.79,2.27-4.91v-3.74c0-.28-.14-.42-.42-.42h-6.81c-2.98,0-5.13.44-6.46,1.31-1.32.87-1.99,2.27-1.99,4.2,0,1.74.62,3.06,1.85,3.96,1.23.9,2.98,1.34,5.25,1.34Z" style="fill:#1a1a1a;"/><path d="M393.35,180.6c-3.3,0-5.64-.76-7.03-2.3-1.39-1.53-2.09-3.97-2.09-7.31v-19.36c0-.28-.14-.42-.42-.42h-2.83c-.47,0-.71-.24-.71-.71v-3.39c0-.47.23-.71.71-.71h2.83c.28,0,.42-.14.42-.42v-9.54c0-.47.24-.71.71-.71h4.52c.47,0,.71.24.71.71v9.54c0,.28.14.42.42.42h5.37c.47,0,.71.24.71.71v3.39c0,.47-.24.71-.71.71h-5.37c-.28,0-.42.14-.42.42v19.14c0,1.7.34,2.84,1.02,3.43.68.59,1.78.88,3.28.88h1.48c.47,0,.71.24.71.71v4.1c0,.47-.24.71-.71.71h-2.61Z" style="fill:#1a1a1a;"/><path d="M406.42,138.78c-.47,0-.71-.24-.71-.71v-5.16c0-.47.24-.71.71-.71h4.8c.47,0,.71.24.71.71v5.16c0,.47-.24.71-.71.71h-4.8ZM406.56,180.24c-.47,0-.71-.24-.71-.71v-32.42c0-.47.23-.71.71-.71h4.52c.47,0,.71.24.71.71v32.42c0,.47-.24.71-.71.71h-4.52Z" style="fill:#1a1a1a;"/><path d="M435.8,181.02c-3.3,0-6.11-.8-8.44-2.4-2.33-1.6-3.97-3.84-4.91-6.71-.38-1.18-.66-2.41-.85-3.71-.19-1.29-.28-2.93-.28-4.91s.09-3.6.28-4.87c.19-1.27.47-2.5.85-3.67.94-2.92,2.58-5.17,4.91-6.75,2.33-1.58,5.15-2.37,8.44-2.37s6.11.79,8.44,2.37c2.33,1.58,3.97,3.83,4.91,6.75.38,1.18.66,2.4.85,3.67.19,1.27.28,2.9.28,4.87s-.09,3.61-.28,4.91c-.19,1.3-.47,2.53-.85,3.71-.94,2.87-2.58,5.11-4.91,6.71-2.33,1.6-5.15,2.4-8.44,2.4ZM435.8,175.51c1.88,0,3.48-.46,4.8-1.38,1.32-.92,2.26-2.23,2.82-3.92.28-.94.48-1.92.6-2.93.12-1.01.18-2.34.18-3.99s-.06-2.97-.18-3.96c-.12-.99-.32-1.95-.6-2.9-.56-1.7-1.51-3-2.82-3.92-1.32-.92-2.92-1.38-4.8-1.38s-3.49.46-4.8,1.38c-1.32.92-2.26,2.22-2.82,3.92-.28.94-.48,1.91-.6,2.9-.12.99-.18,2.31-.18,3.96s.06,2.98.18,3.99c.12,1.01.32,1.99.6,2.93.56,1.7,1.51,3,2.82,3.92,1.32.92,2.92,1.38,4.8,1.38Z" style="fill:#1a1a1a;"/><path d="M481.79,180.24c-.47,0-.71-.24-.71-.71v-19.78c0-2.73-.63-4.85-1.87-6.36-1.25-1.51-3.14-2.26-5.69-2.26-2.31,0-4.18.74-5.62,2.22-1.44,1.48-2.15,3.5-2.15,6.04v20.13c0,.47-.24.71-.71.71h-4.52c-.47,0-.71-.24-.71-.71v-32.42c0-.47.23-.71.71-.71h4.52c.47,0,.71.24.71.71v3.11h.07c.8-1.32,2-2.41,3.6-3.28,1.6-.87,3.56-1.31,5.86-1.31,3.67,0,6.55,1.16,8.62,3.46,2.07,2.31,3.11,5.39,3.11,9.25v21.19c0,.47-.24.71-.71.71h-4.52Z" style="fill:#1a1a1a;"/><path d="M518.72,180.24c-.46,0-.7-.24-.7-.71v-2.97h-.07c-.8,1.27-2.03,2.33-3.67,3.18-1.65.85-3.77,1.27-6.36,1.27-1.6,0-3.1-.21-4.49-.64s-2.59-1.06-3.6-1.91c-1.01-.85-1.81-1.91-2.4-3.19-.59-1.28-.88-2.76-.88-4.47,0-3.59,1.17-6.24,3.5-7.94,2.33-1.7,5.57-2.55,9.71-2.55h7.7c.28,0,.42-.14.42-.42v-2.45c0-2.34-.56-4.02-1.7-5.05-1.13-1.03-3.27-1.54-6.43-1.54-1.93,0-3.53.22-4.8.67-1.27.45-2.4,1.02-3.39,1.73-.42.33-.75.31-.99-.07l-1.91-3.25c-.19-.38-.14-.71.14-.99,1.27-.99,2.87-1.79,4.8-2.4,1.93-.61,4.17-.92,6.71-.92,4.8,0,8.2.88,10.21,2.65,2,1.77,3,4.72,3,8.87v22.39c0,.47-.23.71-.7.71h-4.12ZM509.3,175.94c2.7,0,4.8-.58,6.31-1.73,1.51-1.15,2.27-2.79,2.27-4.91v-3.74c0-.28-.14-.42-.42-.42h-6.81c-2.98,0-5.13.44-6.46,1.31-1.32.87-1.99,2.27-1.99,4.2,0,1.74.61,3.06,1.84,3.96,1.23.9,2.98,1.34,5.25,1.34Z" style="fill:#1a1a1a;"/><path d="M543.03,180.6c-2.97,0-5.09-.72-6.36-2.15-1.27-1.44-1.91-3.68-1.91-6.75v-38.78c0-.47.24-.71.71-.71h4.52c.47,0,.71.24.71.71v38.43c0,1.41.27,2.39.81,2.93.54.54,1.4.81,2.58.81h1.34c.47,0,.71.24.71.71v4.1c0,.47-.24.71-.71.71h-2.4Z" style="fill:#1a1a1a;"/><path d="M571.57,132.92c0-.47.23-.71.71-.71h16.18c8.24,0,13.47,3.42,15.68,10.24.19.66.36,1.34.53,2.05.17.71.31,1.58.42,2.61.12,1.04.2,2.28.25,3.74.05,1.46.07,3.25.07,5.37s-.02,3.91-.07,5.37c-.05,1.46-.13,2.71-.25,3.74-.12,1.04-.26,1.91-.42,2.61-.17.71-.34,1.39-.53,2.05-2.21,6.83-7.44,10.24-15.68,10.24h-16.18c-.47,0-.71-.24-.71-.71v-46.62ZM577.93,173.96c0,.28.14.42.42.42h8.8c2.91,0,5.26-.51,7.04-1.52,1.78-1.01,3.07-2.69,3.87-5.05.14-.42.28-.92.42-1.48.14-.57.25-1.28.32-2.15.07-.87.13-1.94.18-3.21.05-1.27.07-2.85.07-4.73s-.02-3.46-.07-4.73c-.05-1.27-.11-2.34-.18-3.21-.07-.87-.18-1.59-.32-2.15-.14-.57-.28-1.06-.42-1.48-.8-2.36-2.09-4.04-3.87-5.05-1.78-1.01-4.13-1.52-7.04-1.52h-8.8c-.28,0-.42.14-.42.42v35.46Z" style="fill:#1a1a1a;"/><path d="M616,138.78c-.47,0-.71-.24-.71-.71v-5.16c0-.47.24-.71.71-.71h4.8c.47,0,.71.24.71.71v5.16c0,.47-.24.71-.71.71h-4.8ZM616.14,180.24c-.47,0-.71-.24-.71-.71v-32.42c0-.47.24-.71.71-.71h4.52c.47,0,.71.24.71.71v32.42c0,.47-.24.71-.71.71h-4.52Z" style="fill:#1a1a1a;"/><path d="M643.97,193.74c-2.4,0-4.67-.46-6.82-1.38-2.15-.92-3.78-2.13-4.91-3.64-.28-.33-.26-.66.07-.99l2.9-2.9c.33-.33.68-.33,1.06,0,1.18,1.08,2.39,1.92,3.64,2.51,1.25.59,2.7.88,4.35.88,2.82,0,4.96-.75,6.39-2.24,1.44-1.49,2.15-3.8,2.15-6.92v-3.97h-.07c-.8,1.43-1.94,2.58-3.43,3.44-1.48.86-3.47,1.29-5.97,1.29-2.87,0-5.27-.69-7.2-2.08-1.93-1.39-3.32-3.43-4.17-6.11-.42-1.27-.72-2.58-.88-3.92s-.25-3-.25-4.98.08-3.64.25-4.98.46-2.65.88-3.92c.85-2.68,2.24-4.72,4.17-6.11,1.93-1.39,4.33-2.08,7.2-2.08,2.5,0,4.49.42,5.97,1.27,1.48.85,2.62,1.98,3.43,3.39h.07v-3.18c0-.47.23-.71.71-.71h4.52c.47,0,.71.24.71.71v31.65c0,4.85-1.26,8.56-3.78,11.13-2.52,2.57-6.18,3.85-10.98,3.85ZM644.79,174.31c3.64,0,6.05-1.69,7.24-5.07.28-.84.48-1.78.6-2.82.12-1.03.18-2.28.18-3.73s-.06-2.69-.18-3.7c-.12-1.01-.32-1.96-.6-2.85-1.18-3.33-3.6-5-7.24-5s-5.98,1.67-7.17,5c-.28.89-.5,1.87-.64,2.92-.14,1.06-.21,2.27-.21,3.63,0,2.68.28,4.86.85,6.55,1.18,3.38,3.57,5.07,7.17,5.07Z" style="fill:#1a1a1a;"/><path d="M670.89,138.78c-.47,0-.71-.24-.71-.71v-5.16c0-.47.24-.71.71-.71h4.8c.47,0,.71.24.71.71v5.16c0,.47-.24.71-.71.71h-4.8ZM671.03,180.24c-.47,0-.71-.24-.71-.71v-32.42c0-.47.24-.71.71-.71h4.52c.47,0,.71.24.71.71v32.42c0,.47-.24.71-.71.71h-4.52Z" style="fill:#1a1a1a;"/><path d="M697.66,180.6c-3.3,0-5.64-.76-7.03-2.3-1.39-1.53-2.08-3.97-2.08-7.31v-19.36c0-.28-.14-.42-.42-.42h-2.82c-.47,0-.71-.24-.71-.71v-3.39c0-.47.24-.71.71-.71h2.82c.28,0,.42-.14.42-.42v-9.54c0-.47.24-.71.71-.71h4.52c.47,0,.71.24.71.71v9.54c0,.28.14.42.42.42h5.37c.47,0,.71.24.71.71v3.39c0,.47-.24.71-.71.71h-5.37c-.28,0-.42.14-.42.42v19.14c0,1.7.34,2.84,1.02,3.43.68.59,1.78.88,3.28.88h1.48c.47,0,.71.24.71.71v4.1c0,.47-.24.71-.71.71h-2.61Z" style="fill:#1a1a1a;"/><path d="M730.64,180.24c-.46,0-.7-.24-.7-.71v-2.97h-.07c-.8,1.27-2.03,2.33-3.67,3.18-1.65.85-3.77,1.27-6.36,1.27-1.6,0-3.1-.21-4.49-.64s-2.59-1.06-3.6-1.91c-1.01-.85-1.81-1.91-2.4-3.19-.59-1.28-.88-2.76-.88-4.47,0-3.59,1.17-6.24,3.5-7.94,2.33-1.7,5.57-2.55,9.71-2.55h7.7c.28,0,.42-.14.42-.42v-2.45c0-2.34-.56-4.02-1.7-5.05-1.13-1.03-3.27-1.54-6.43-1.54-1.93,0-3.53.22-4.8.67-1.27.45-2.4,1.02-3.39,1.73-.42.33-.75.31-.99-.07l-1.91-3.25c-.19-.38-.14-.71.14-.99,1.27-.99,2.87-1.79,4.8-2.4,1.93-.61,4.17-.92,6.71-.92,4.8,0,8.2.88,10.21,2.65,2,1.77,3,4.72,3,8.87v22.39c0,.47-.23.71-.7.71h-4.12ZM721.22,175.94c2.7,0,4.8-.58,6.31-1.73,1.51-1.15,2.27-2.79,2.27-4.91v-3.74c0-.28-.14-.42-.42-.42h-6.81c-2.98,0-5.13.44-6.46,1.31-1.32.87-1.99,2.27-1.99,4.2,0,1.74.61,3.06,1.84,3.96,1.23.9,2.98,1.34,5.25,1.34Z" style="fill:#1a1a1a;"/><path d="M754.95,180.6c-2.97,0-5.09-.72-6.36-2.15-1.27-1.44-1.91-3.68-1.91-6.75v-38.78c0-.47.24-.71.71-.71h4.52c.47,0,.71.24.71.71v38.43c0,1.41.27,2.39.81,2.93.54.54,1.4.81,2.58.81h1.34c.47,0,.71.24.71.71v4.1c0,.47-.24.71-.71.71h-2.4Z" style="fill:#1a1a1a;"/><path d="M300.81,214.97c0-.44.22-.65.66-.65h8.32c.44,0,.66.22.66.66v34.99c0,.26.13.39.39.39h19.66c.44,0,.65.22.65.65v7.22c0,.43-.22.65-.65.65h-29.03c-.44,0-.66-.22-.66-.66v-43.25Z" style="fill:#1a1a1a;"/><path d="M350.29,259.6c-3.63,0-6.64-.79-9.04-2.36-2.4-1.57-4.06-3.8-4.98-6.68-.35-1.01-.62-2.1-.82-3.28-.2-1.18-.3-2.6-.3-4.26s.09-3.09.26-4.29.44-2.3.79-3.31c.92-2.88,2.57-5.1,4.95-6.65s5.28-2.33,8.68-2.33,6.48.79,8.81,2.36c2.34,1.57,3.96,3.76,4.88,6.55.17.52.33,1.08.46,1.67.13.59.24,1.26.33,2s.15,1.6.2,2.59c.04.98.07,2.15.07,3.51,0,.44-.24.65-.72.65h-19.2c-.26,0-.39.13-.39.39.04.66.17,1.25.39,1.77.44,1.4,1.22,2.45,2.36,3.15s2.53,1.05,4.19,1.05c1.57,0,2.95-.25,4.13-.75,1.18-.5,2.23-1.19,3.15-2.06.39-.31.7-.31.92,0l4.32,4.06c.35.31.37.61.07.92-1.53,1.62-3.43,2.91-5.7,3.87-2.27.96-4.87,1.44-7.8,1.44ZM355.13,239.68c.26,0,.39-.13.39-.39,0-.48-.03-.91-.1-1.28-.07-.37-.14-.73-.23-1.08-.35-1.09-.99-1.94-1.93-2.56-.94-.61-2.06-.92-3.37-.92s-2.44.31-3.37.92c-.94.61-1.58,1.46-1.93,2.56-.09.35-.16.71-.23,1.08-.07.37-.1.8-.1,1.28,0,.26.13.39.39.39h10.49Z" style="fill:#1a1a1a;"/><path d="M389.86,258.88c-.44,0-.65-.22-.65-.66v-2.1h-.07c-.83,1.05-1.95,1.89-3.34,2.52-1.4.63-3.19.95-5.37.95-1.4,0-2.74-.19-4.03-.56-1.29-.37-2.41-.95-3.37-1.74s-1.73-1.79-2.29-3.01c-.57-1.22-.85-2.69-.85-4.39,0-3.49,1.21-6.07,3.64-7.73,2.43-1.66,5.6-2.49,9.53-2.49h5.64c.26,0,.39-.13.39-.39v-1.18c0-1.48-.45-2.58-1.34-3.28s-2.61-1.05-5.14-1.05c-1.62,0-3.01.2-4.19.59-1.18.39-2.14.87-2.88,1.44-.35.26-.63.22-.85-.13l-2.95-5.18c-.22-.39-.15-.7.2-.92,1.35-.96,3-1.73,4.95-2.29,1.94-.57,4.23-.85,6.85-.85s4.76.23,6.55.69,3.24,1.16,4.36,2.1c1.11.94,1.92,2.13,2.43,3.57s.75,3.14.75,5.11v20.31c0,.44-.22.66-.66.66h-7.27ZM383.18,252.72c3.93,0,5.9-1.46,5.9-4.39v-2.16c0-.26-.13-.39-.39-.39h-4.46c-3.76,0-5.64,1.2-5.64,3.61,0,2.23,1.53,3.34,4.59,3.34Z" style="fill:#1a1a1a;"/><path d="M406.51,258.88c-.44,0-.66-.22-.66-.66v-30.4c0-.44.22-.65.66-.65h7.86c.44,0,.66.22.66.65v2.69h.07c.74-1.27,1.81-2.26,3.21-2.98,1.4-.72,3.08-1.08,5.05-1.08,1.05,0,2.06.17,3.05.49.98.33,1.82.8,2.52,1.41.31.26.37.57.2.92l-3.67,6.68c-.22.26-.52.31-.92.13-1.57-1.01-3.1-1.49-4.59-1.44-1.7.09-2.95.72-3.73,1.9-.79,1.18-1.18,2.84-1.18,4.98v16.71c0,.44-.22.66-.66.66h-7.86Z" style="fill:#1a1a1a;"/><path d="M453.49,258.88c-.44,0-.66-.22-.66-.66v-18.22c0-1.75-.4-3.14-1.21-4.19-.81-1.05-2.04-1.57-3.7-1.57-1.57,0-2.8.53-3.67,1.57-.87,1.05-1.31,2.45-1.31,4.19v18.22c0,.44-.22.66-.65.66h-7.86c-.44,0-.65-.22-.65-.66v-30.4c0-.44.22-.65.65-.65h7.86c.44,0,.65.22.65.66v2.25h.07c.74-1,1.78-1.84,3.11-2.53,1.33-.69,3.02-1.04,5.08-1.04,1.75,0,3.3.28,4.65.85,1.35.57,2.49,1.37,3.41,2.42.92,1.05,1.61,2.29,2.06,3.73.46,1.44.69,3.03.69,4.78v19.94c0,.44-.22.65-.66.65h-7.86Z" style="fill:#1a1a1a;"/><path d="M470.66,222.12c-.44,0-.65-.21-.65-.65v-6.43c0-.43.21-.65.65-.65h7.87c.43,0,.65.22.65.65v6.43c0,.44-.22.65-.65.65h-7.87ZM470.66,258.88c-.44,0-.65-.22-.65-.66v-30.4c0-.44.21-.65.65-.65h7.87c.43,0,.65.22.65.65v30.4c0,.44-.22.66-.65.66h-7.87Z" style="fill:#1a1a1a;"/><path d="M507.16,258.88c-.44,0-.66-.22-.66-.66v-18.22c0-1.75-.4-3.14-1.21-4.19-.81-1.05-2.04-1.57-3.7-1.57-1.57,0-2.8.53-3.67,1.57-.87,1.05-1.31,2.45-1.31,4.19v18.22c0,.44-.22.66-.65.66h-7.86c-.44,0-.65-.22-.65-.66v-30.4c0-.44.22-.65.65-.65h7.86c.44,0,.65.22.65.66v2.25h.07c.74-1,1.78-1.84,3.11-2.53,1.33-.69,3.03-1.04,5.08-1.04,1.75,0,3.3.28,4.65.85,1.35.57,2.49,1.37,3.41,2.42.92,1.05,1.61,2.29,2.06,3.73.46,1.44.69,3.03.69,4.78v19.94c0,.44-.22.65-.66.65h-7.86Z" style="fill:#1a1a1a;"/><path d="M535.21,271.39c-1.18,0-2.36-.12-3.54-.36-1.18-.24-2.3-.57-3.37-.98-1.07-.42-2.04-.92-2.91-1.51-.87-.59-1.6-1.24-2.16-1.93-.26-.35-.24-.68.07-.98l4.65-4.72c.31-.31.63-.31.98,0,1,.87,2.03,1.55,3.08,2.03,1.05.48,2.21.72,3.47.72,2.23,0,3.84-.58,4.85-1.74,1-1.16,1.51-2.92,1.51-5.27v-2.69h-.07c-.7,1.14-1.73,2.03-3.08,2.69-1.35.65-3.04.98-5.05.98-2.62,0-4.84-.64-6.65-1.93-1.81-1.29-3.14-3.2-3.96-5.73-.35-1.18-.61-2.37-.79-3.57s-.26-2.65-.26-4.36.09-3.17.26-4.39c.17-1.22.44-2.4.79-3.54.83-2.53,2.15-4.44,3.96-5.73,1.81-1.29,4.03-1.93,6.65-1.93,2.01,0,3.69.33,5.05.98,1.35.65,2.38,1.55,3.08,2.69h.07v-2.29c0-.44.22-.65.66-.65h7.86c.44,0,.65.22.65.65v27.65c0,10.62-5.26,15.92-15.79,15.92ZM536.52,249.9c1.27,0,2.28-.28,3.05-.85.76-.57,1.32-1.42,1.67-2.56.22-.61.37-1.25.46-1.93.09-.68.13-1.52.13-2.52s-.04-1.85-.13-2.52c-.09-.68-.24-1.32-.46-1.93-.35-1.14-.91-1.99-1.67-2.56-.77-.57-1.78-.85-3.05-.85s-2.27.29-3.01.85c-.74.57-1.31,1.42-1.7,2.56-.18.61-.31,1.26-.39,1.93-.09.68-.13,1.52-.13,2.52s.04,1.85.13,2.52c.09.68.22,1.32.39,1.93.39,1.14.96,1.99,1.7,2.56.74.57,1.75.85,3.01.85Z" style="fill:#1a1a1a;"/><path d="M574.85,214.97c0-.44.22-.65.65-.65h8.32c.44,0,.65.22.65.65v43.25c0,.44-.22.66-.65.66h-8.32c-.44,0-.65-.22-.65-.66v-43.25Z" style="fill:#1a1a1a;"/><path d="M612.59,258.88c-.44,0-.66-.22-.66-.66v-18.22c0-1.75-.4-3.14-1.21-4.19-.81-1.05-2.04-1.57-3.7-1.57-1.57,0-2.8.53-3.67,1.57-.87,1.05-1.31,2.45-1.31,4.19v18.22c0,.44-.22.66-.65.66h-7.86c-.44,0-.65-.22-.65-.66v-30.4c0-.44.22-.65.65-.65h7.86c.44,0,.65.22.65.66v2.25h.07c.74-1,1.78-1.84,3.11-2.53,1.33-.69,3.03-1.04,5.08-1.04,1.75,0,3.3.28,4.65.85,1.35.57,2.49,1.37,3.41,2.42.92,1.05,1.61,2.29,2.06,3.73.46,1.44.69,3.03.69,4.78v19.94c0,.44-.22.65-.66.65h-7.86Z" style="fill:#1a1a1a;"/><path d="M648.44,258.88c-.44,0-.66-.22-.66-.66v-2.29h-.07c-.74,1.09-1.79,1.98-3.14,2.65-1.35.68-3.08,1.02-5.18,1.02-2.67,0-4.92-.65-6.75-1.93s-3.17-3.18-4-5.67c-.39-1.27-.68-2.57-.85-3.9-.18-1.33-.26-3.03-.26-5.08s.09-3.8.26-5.11c.17-1.31.46-2.6.85-3.87.83-2.53,2.16-4.43,4-5.7,1.83-1.27,4.08-1.9,6.75-1.9,2.1,0,3.82.34,5.18,1.02,1.35.68,2.4,1.56,3.14,2.65h.07v-15.14c0-.44.22-.65.66-.65h7.86c.44,0,.66.22.66.65v43.25c0,.44-.22.66-.66.66h-7.86ZM642.34,251.87c2.49,0,4.1-1.14,4.85-3.41.22-.61.37-1.32.46-2.13.09-.81.13-1.91.13-3.31s-.04-2.5-.13-3.31c-.09-.81-.24-1.52-.46-2.13-.7-2.27-2.32-3.41-4.85-3.41s-4.22,1.14-4.92,3.41c-.22.61-.37,1.32-.46,2.13-.09.81-.13,1.91-.13,3.31s.04,2.5.13,3.31c.09.81.24,1.52.46,2.13.74,2.27,2.38,3.41,4.92,3.41Z" style="fill:#1a1a1a;"/><path d="M665.87,222.12c-.44,0-.65-.21-.65-.65v-6.43c0-.43.22-.65.65-.65h7.86c.44,0,.65.22.65.65v6.43c0,.44-.22.65-.65.65h-7.86ZM665.87,258.88c-.44,0-.65-.22-.65-.66v-30.4c0-.44.22-.65.65-.65h7.86c.44,0,.65.22.65.65v30.4c0,.44-.22.66-.65.66h-7.86Z" style="fill:#1a1a1a;"/><path d="M695.75,259.6c-3.36,0-6.25-.75-8.65-2.26-2.4-1.51-4.08-3.75-5.05-6.72-.35-.96-.6-2.05-.75-3.28-.16-1.22-.23-2.66-.23-4.32s.07-3.1.23-4.32c.15-1.22.4-2.32.75-3.28.96-2.97,2.64-5.21,5.05-6.72,2.4-1.51,5.29-2.26,8.65-2.26,2.75,0,5.16.56,7.21,1.67,2.05,1.11,3.65,2.55,4.78,4.29.22.35.17.66-.13.92l-5.7,3.74c-.39.26-.72.22-.98-.13-.7-.96-1.43-1.66-2.19-2.1s-1.72-.66-2.85-.66c-1.22,0-2.26.29-3.11.85-.85.57-1.45,1.42-1.8,2.56-.22.66-.37,1.4-.46,2.23-.09.83-.13,1.9-.13,3.21s.04,2.38.13,3.21c.09.83.24,1.57.46,2.23.35,1.14.95,1.99,1.8,2.56s1.89.85,3.11.85c1.13,0,2.09-.22,2.85-.66.76-.44,1.5-1.14,2.19-2.1.26-.35.59-.39.98-.13l5.7,3.74c.31.26.35.57.13.92-1.14,1.75-2.73,3.18-4.78,4.29-2.05,1.11-4.46,1.67-7.21,1.67Z" style="fill:#1a1a1a;"/><path d="M731.98,258.88c-.44,0-.65-.22-.65-.66v-2.1h-.07c-.83,1.05-1.94,1.89-3.34,2.52-1.4.63-3.19.95-5.37.95-1.4,0-2.74-.19-4.03-.56-1.29-.37-2.42-.95-3.37-1.74-.96-.79-1.73-1.79-2.29-3.01-.57-1.22-.85-2.69-.85-4.39,0-3.49,1.21-6.07,3.64-7.73,2.43-1.66,5.6-2.49,9.53-2.49h5.64c.26,0,.39-.13.39-.39v-1.18c0-1.48-.45-2.58-1.34-3.28s-2.61-1.05-5.14-1.05c-1.62,0-3.01.2-4.19.59-1.18.39-2.14.87-2.88,1.44-.35.26-.64.22-.85-.13l-2.95-5.18c-.22-.39-.15-.7.2-.92,1.35-.96,3-1.73,4.95-2.29,1.94-.57,4.23-.85,6.85-.85s4.76.23,6.55.69c1.79.46,3.24,1.16,4.36,2.1,1.11.94,1.92,2.13,2.43,3.57.5,1.44.75,3.14.75,5.11v20.31c0,.44-.22.66-.66.66h-7.27ZM725.3,252.72c3.93,0,5.9-1.46,5.9-4.39v-2.16c0-.26-.13-.39-.39-.39h-4.46c-3.76,0-5.64,1.2-5.64,3.61,0,2.23,1.53,3.34,4.59,3.34Z" style="fill:#1a1a1a;"/><path d="M758.79,259.27c-3.69,0-6.31-.85-7.85-2.56s-2.31-4.37-2.31-8v-14.41c0-.26-.13-.39-.39-.39h-1.96c-.44,0-.66-.22-.66-.66v-5.44c0-.44.22-.65.66-.65h1.96c.26,0,.39-.13.39-.39v-8.52c0-.44.22-.65.66-.65h7.85c.44,0,.66.22.66.65v8.52c0,.26.13.39.39.39h4.06c.44,0,.66.22.66.65v5.44c0,.44-.22.66-.66.66h-4.06c-.26,0-.39.13-.39.39v14.08c0,1.18.22,2,.65,2.47.44.46,1.18.69,2.23.69h1.57c.44,0,.66.22.66.65v6.43c0,.43-.22.65-.66.65h-3.47Z" style="fill:#1a1a1a;"/><path d="M782.9,259.6c-3.37,0-6.27-.76-8.72-2.29-2.45-1.53-4.13-3.73-5.05-6.62-.35-1.14-.61-2.3-.78-3.51-.18-1.2-.26-2.59-.26-4.16s.09-2.96.26-4.16c.17-1.2.44-2.37.78-3.51.92-2.88,2.6-5.09,5.05-6.62,2.45-1.53,5.35-2.29,8.72-2.29s6.27.77,8.71,2.29c2.45,1.53,4.13,3.73,5.05,6.62.35,1.14.61,2.3.79,3.51.17,1.2.26,2.59.26,4.16s-.09,2.96-.26,4.16c-.18,1.2-.44,2.37-.79,3.51-.92,2.88-2.6,5.09-5.05,6.62-2.45,1.53-5.35,2.29-8.71,2.29ZM782.9,251.87c2.53,0,4.17-1.14,4.91-3.41.22-.74.37-1.5.46-2.26.09-.76.13-1.82.13-3.18s-.04-2.41-.13-3.18c-.09-.77-.24-1.52-.46-2.26-.74-2.27-2.38-3.41-4.91-3.41s-4.17,1.14-4.92,3.41c-.22.74-.37,1.5-.46,2.26-.09.76-.13,1.82-.13,3.18s.04,2.41.13,3.18c.09.77.24,1.52.46,2.26.74,2.27,2.38,3.41,4.92,3.41Z" style="fill:#1a1a1a;"/><path d="M805.05,258.88c-.44,0-.65-.22-.65-.66v-30.4c0-.44.22-.65.65-.65h7.86c.44,0,.65.22.65.65v2.69h.07c.74-1.27,1.81-2.26,3.21-2.98,1.4-.72,3.08-1.08,5.05-1.08,1.05,0,2.06.17,3.05.49.98.33,1.82.8,2.52,1.41.31.26.37.57.2.92l-3.67,6.68c-.22.26-.52.31-.92.13-1.57-1.01-3.1-1.49-4.59-1.44-1.7.09-2.95.72-3.74,1.9s-1.18,2.84-1.18,4.98v16.71c0,.44-.22.66-.65.66h-7.86Z" style="fill:#1a1a1a;"/><path d="M234.79,186.45c-6.42,0-11.63,5.21-11.63,11.63v39.29c0,6.43,5.21,11.63,11.63,11.63s11.64-5.21,11.64-11.63v-39.29c0-6.43-5.21-11.63-11.64-11.63Z" style="fill:#4d008c;"/><path d="M82.01,175.49c-6.43,0-11.63,5.21-11.63,11.63v20.63c0-6.43,5.21-11.63,11.63-11.63s11.63,5.21,11.63,11.63v-20.63c0-6.43-5.21-11.63-11.63-11.63Z" style="fill:#a0d8f0;"/><path d="M82.01,196.12c-6.43,0-11.63,5.21-11.63,11.63v13.94c0,6.43,5.21,11.63,11.63,11.63s11.63-5.21,11.63-11.63v-13.94c0-6.43-5.21-11.63-11.63-11.63Z" style="fill:#2f0368;"/><path d="M195.92,70.37c-6.43,0-11.63,5.21-11.63,11.64v96.96c0-6.43,5.21-11.63,11.63-11.63s11.64,5.21,11.64,11.63v-96.96c0-6.43-5.21-11.64-11.64-11.64Z" style="fill:#a0d8f0;"/><path d="M195.92,207.72c-6.43,0-11.63-5.21-11.63-11.64v60.9c0,6.43,5.21,11.63,11.63,11.63s11.64-5.21,11.64-11.63v-60.9c0,6.43-5.21,11.64-11.64,11.64Z" style="fill:#00a7e1;"/><path d="M195.92,167.34c-6.43,0-11.63,5.21-11.63,11.63v17.11c0,6.43,5.21,11.64,11.63,11.64s11.64-5.21,11.64-11.64v-17.11c0-6.43-5.21-11.63-11.64-11.63Z" style="fill:#058dd4;"/><path d="M157.95,134.99c-6.43,0-11.63,5.21-11.63,11.63v52.37c0-6.43,5.21-11.63,11.63-11.63s11.63,5.21,11.63,11.63v-52.37c0-6.43-5.21-11.63-11.63-11.63Z" style="fill:#a267be;"/><path d="M157.95,253.53c-6.43,0-11.63-5.21-11.63-11.63v79.7c0,6.43,5.21,11.63,11.63,11.63s11.63-5.21,11.63-11.63v-79.7c0,6.43-5.21,11.63-11.63,11.63Z" style="fill:#4d008c;"/><path d="M157.95,187.35c-6.43,0-11.63,5.21-11.63,11.63v42.91c0,6.43,5.21,11.63,11.63,11.63s11.63-5.21,11.63-11.63v-42.91c0-6.43-5.21-11.63-11.63-11.63Z" style="fill:#2f0368;"/><path d="M119.98,213.83c-6.43,0-11.63-5.21-11.63-11.64v72.6c0,6.43,5.21,11.63,11.63,11.63s11.63-5.21,11.63-11.63v-72.6c0,6.43-5.21,11.64-11.63,11.64Z" style="fill:#43b666;"/><path d="M119.98,115.94c-6.43,0-11.63,5.21-11.63,11.64v42.47c0-6.43,5.21-11.63,11.63-11.63s11.63,5.21,11.63,11.63v-42.47c0-6.43-5.21-11.64-11.63-11.64Z" style="fill:#a2d9af;"/><path d="M119.98,158.41c-6.43,0-11.63,5.21-11.63,11.63v32.15c0,6.43,5.21,11.64,11.63,11.64s11.63-5.21,11.63-11.64v-32.15c0-6.43-5.21-11.63-11.63-11.63Z" style="fill:#299c46;"/></svg>