<?xml version="1.0" encoding="UTF-8"?>
<svg id="Layer_1" data-name="Layer 1" xmlns="http://www.w3.org/2000/svg" viewBox="0 0 2000 278.79">
  <defs>
    <style>
      .cls-1, .cls-2 {
        fill: #454b4c;
      }

      .cls-3 {
        fill: #01c2f3;
      }

      .cls-4 {
        fill: #9c50bc;
      }

      .cls-5 {
        fill: #fff;
      }

      .cls-2 {
        font-family: DINNextLTArabic-Regular, 'DIN Next LT Arabic';
        font-size: 32.61px;
      }

      .cls-6 {
        fill: #552f91;
      }

      .cls-7 {
        fill: #27b67b;
      }
    </style>
  </defs>
  <g>
    <g>
      <path class="cls-1" d="M1624.19,105.94c-.29,0-.42.16-.42.45v1.91c0,.29.13.42.42.42h1.61c.29,0,.42-.13.42-.42v-1.91c0-.29-.13-.45-.42-.45h-1.61Z"/>
      <path class="cls-1" d="M1623.03,102.86h11.28c.64,0,1.19-.52,1.19-1.17v-13.36c0-1.65,1.35-3.01,2.99-3.01s2.99,1.36,2.99,3.01v9.53c0,.65.55,1.2,1.19,1.2h10.43c1.25,0,2.25-.36,2.99-1.1.03-.03.1-.13.1-.16,0,.03.03.03.06.07.77.78,1.96,1.2,3.53,1.2h17.09c3.41,0,5.46-2.07,5.46-5.51v-3.11c0-4.35-2.41-7.49-6.59-7.49-2.31,0-5.07,1.52-8.25,4.51v-11.38c0-.29-.13-.45-.42-.45h-1.48c-.29,0-.48.16-.48.45v20.62s-5.75,0-5.75,0c-.93,0-1.58-.2-1.9-.52-.19-.2-.26-.45-.26-.81v-11.35c0-.29-.16-.45-.45-.45h-1.48c-.29,0-.45.16-.45.45v10.89c0,1.2-.51,1.78-1.67,1.78h-9.34s0-8.36,0-8.36c0-1.49-.51-2.76-1.57-3.79-1.06-1.07-2.28-1.59-3.76-1.59s-2.76.52-3.79,1.59c-1.06,1.04-1.54,2.3-1.54,3.79v12.16s-10.05,0-10.05,0c-2.51,0-4.59-2.11-4.59-4.64,0-1.98,1.22-3.57,2.6-4.28l.67-.36c.16-.1.22-.2.22-.36,0-.07-.03-.13-.06-.23l-.67-1.36c-.06-.13-.19-.23-.39-.23-.06,0-.13,0-.19.03l-.67.36c-2.06,1.07-3.86,3.44-3.86,6.42,0,1.94.68,3.6,2.02,4.96,1.38,1.36,2.99,2.04,4.85,2.04ZM1667.48,90.67c1.16-1.46,2.54-2.72,4.18-3.76,1.64-1.04,2.99-1.59,4.08-1.59,1.67,0,2.89.71,3.6,2.11.42.84.64,1.88.64,3.02v3.11c0,2.17-.96,3.14-3.12,3.14h-9.38s0-6.03,0-6.03Z"/>
      <path class="cls-1" d="M1628.49,105.94c-.29,0-.45.16-.45.45v1.91c0,.29.16.42.45.42h1.57c.29,0,.42-.13.42-.42v-1.91c0-.29-.13-.45-.42-.45h-1.57Z"/>
      <path class="cls-1" d="M1655.21,79.74h1.58c.29,0,.45-.13.45-.42v-1.91c0-.29-.16-.45-.45-.45h-1.58c-.29,0-.42.16-.42.45v1.91c0,.29.13.42.42.42Z"/>
      <path class="cls-1" d="M1712.11,76.11c0-.29-.13-.45-.42-.45h-1.51c-.29,0-.42.16-.42.45v18.84c0,1.17-.51,1.72-1.7,1.75h-.03s-7.45,0-7.45,0v-6.91c0-1.88-.67-3.5-1.99-4.83-1.32-1.33-2.92-2.01-4.79-2.01s-3.5.68-4.82,2.01c-1.32,1.33-1.99,2.95-1.99,4.83v2.43c0,1.88.67,3.5,1.99,4.83,1.32,1.33,2.95,2.01,4.82,2.01h4.4v.39c0,2.14-1.83,3.99-3.95,3.99h-3.34c-.26,0-.42.13-.42.42v1.52c0,.29.16.42.42.42h3.34c1.7,0,3.18-.62,4.43-1.88,1.25-1.26,1.9-2.76,1.9-4.48v-.39s7.45,0,7.45,0c2.47,0,4.08-1.59,4.08-4.12v-18.84ZM1698.21,96.7h-4.4c-2.41,0-4.43-2.04-4.43-4.47v-2.43c0-2.43,2.02-4.47,4.43-4.47,2.41,0,4.4,2.04,4.4,4.47v6.91Z"/>
      <path class="cls-1" d="M1717.7,99.07h1.54c.26,0,.39-.13.39-.42v-22.56c0-.29-.13-.42-.38-.42h-1.54c-.29,0-.42.13-.42.42v22.56c0,.29.13.42.42.42Z"/>
      <path class="cls-1" d="M1729.58,105.81h1.61c3.4,0,5.49-2.07,5.49-5.51v-1.23s3.3,0,3.3,0h1.61s14.16,0,14.16,0c2.51,0,4.08-1.59,4.08-4.12v-3.08c0-2.11-.64-3.86-1.99-5.25-1.35-1.39-3.05-2.07-5.11-2.07h-6.01c.35-3.5,2.22-5.28,5.56-5.28h2.67c.29,0,.42-.13.42-.42v-1.52c0-.29-.13-.42-.42-.42h-2.67c-5.17,0-7.97,3.53-7.97,8.85,0,.65.55,1.17,1.19,1.17h7.23c2.86,0,4.75,2.04,4.75,4.96v3.08c0,1.2-.58,1.75-1.77,1.75h-14.13s-1.61,0-1.61,0h-3.3s0-12.64,0-12.64c0-.29-.16-.45-.45-.45h-1.51c-.29,0-.42.16-.42.45v16.24c0,2.17-.96,3.14-3.11,3.14h-1.61c-.29,0-.42.13-.42.42v1.52c0,.29.13.42.42.42Z"/>
      <path class="cls-1" d="M1734.72,79.74h1.57c.29,0,.45-.13.45-.42v-1.91c0-.29-.16-.45-.45-.45h-1.57c-.29,0-.42.16-.42.45v1.91c0,.29.13.42.42.42Z"/>
      <path class="cls-1" d="M1761.82,105.81h1.61c3.4,0,5.49-2.07,5.49-5.51v-1.23s15.67,0,15.67,0c1.77,0,3.34-.62,4.66-1.88.8,1.2,2.18,1.88,3.85,1.88h4.87c2.47,0,4.08-1.59,4.08-4.12v-18.84c0-.29-.13-.45-.42-.45h-1.51c-.29,0-.42.16-.42.45v18.84c0,1.17-.51,1.72-1.7,1.75h-.03s-5.32,0-5.32,0c-1.06,0-1.83-.42-2.06-1.3.51-1.01.77-2.04.77-3.18v-2.43c0-1.88-.67-3.53-1.99-4.86-1.32-1.33-2.92-2.01-4.79-2.01-1.86,0-3.47.68-4.79,2.01-1.32,1.33-1.99,2.98-1.99,4.86v6.91s-8.89,0-8.89,0v-12.64c0-.29-.16-.45-.45-.45h-1.48c-.29,0-.45.16-.45.45v16.24c0,2.17-.96,3.14-3.11,3.14h-1.61c-.29,0-.42.13-.42.42v1.52c0,.29.13.42.42.42ZM1780.16,89.79c0-2.43,1.99-4.47,4.43-4.47s4.43,2.01,4.43,4.47v2.43c0,2.46-1.99,4.47-4.43,4.47h-4.43s0-6.91,0-6.91Z"/>
      <path class="cls-1" d="M1809.18,75.66h-1.54c-.29,0-.42.13-.42.42v22.56c0,.29.13.42.42.42h1.54c.26,0,.39-.13.39-.42v-22.56c0-.29-.13-.42-.38-.42Z"/>
      <path class="cls-1" d="M1566.3,145.97c.29,0,.43-.13.43-.42v-1.92c0-.29-.13-.46-.43-.46h-1.63c-.29,0-.43.16-.43.46v1.92c0,.29.13.42.43.42h1.63Z"/>
      <path class="cls-1" d="M1571.07,145.55v-1.92c0-.29-.13-.46-.42-.46h-1.6c-.29,0-.46.16-.46.46v1.92c0,.29.16.42.46.42h1.6c.29,0,.42-.13.42-.42Z"/>
      <path class="cls-1" d="M1596.21,120.73h-1.5c-.29,0-.46.16-.46.46v10.96c0,1.2-.52,1.73-1.7,1.76h-7.93s0-8.39,0-8.39c0-1.5-.52-2.76-1.6-3.81-1.08-1.07-2.32-1.59-3.82-1.59-1.5,0-2.81.52-3.85,1.59-1.08,1.04-1.57,2.31-1.57,3.81v12.2s-10.22,0-10.22,0c-2.55,0-4.67-2.11-4.67-4.65,0-1.98,1.24-3.58,2.65-4.29l.69-.36c.16-.1.23-.2.23-.36,0-.07-.03-.13-.07-.23l-.69-1.37c-.07-.13-.2-.23-.39-.23-.06,0-.13,0-.19.03l-.69.36c-2.09,1.07-3.92,3.45-3.92,6.44,0,1.95.69,3.61,2.06,4.98,1.4,1.37,3.04,2.05,4.93,2.05h11.46c.65,0,1.21-.52,1.21-1.17v-13.4c0-1.66,1.37-3.02,3.04-3.02s3.04,1.37,3.04,3.02v9.56c0,.65.55,1.2,1.21,1.2h9.04c2.52,0,4.18-1.59,4.18-4.13v-10.96c0-.29-.16-.46-.46-.46Z"/>
      <path class="cls-1" d="M1594.64,116.89h1.6c.29,0,.46-.13.46-.42v-1.92c0-.29-.16-.46-.46-.46h-1.6c-.29,0-.42.16-.42.46v1.92c0,.29.13.42.42.42Z"/>
      <path class="cls-1" d="M1614.6,136.67v-9.69c0-1.89-.69-3.51-2.03-4.85-1.34-1.33-2.97-2.02-4.87-2.02s-3.53.68-4.87,2.02c-1.34,1.33-2.02,2.96-2.02,4.85v2.44c0,1.89.69,3.51,2.02,4.85,1.34,1.33,2.97,2.02,4.87,2.02h4.47v.39c0,2.15-1.86,4-4.02,4h-3.4c-.29,0-.43.13-.43.42v1.53c0,.29.13.42.43.42h3.4c1.73,0,3.26-.62,4.54-1.89,1.27-1.27,1.9-2.77,1.9-4.49ZM1612.18,133.91h-4.47c-2.45,0-4.51-2.05-4.51-4.49v-2.44c0-2.47,2.06-4.49,4.51-4.49s4.47,2.05,4.47,4.49v6.93Z"/>
      <path class="cls-1" d="M1637.59,114.1c-.29,0-.43.16-.43.46v1.92c0,.29.13.42.43.42h1.6c.29,0,.46-.13.46-.42v-1.92c0-.29-.16-.46-.46-.46h-1.6Z"/>
      <path class="cls-1" d="M1633.25,114.1c-.29,0-.46.16-.46.46v1.92c0,.29.16.42.46.42h1.63c.29,0,.43-.13.43-.42v-1.92c0-.29-.13-.46-.43-.46h-1.63Z"/>
      <path class="cls-1" d="M1659.54,135.01l.07.07c.78.78,1.96,1.2,3.56,1.2h4.11c2.52,0,4.15-1.59,4.15-4.13v-18.9c0-.29-.13-.46-.42-.46h-1.53c-.29,0-.43.16-.43.46v18.9c0,1.17-.52,1.73-1.73,1.76h-.03s-4.5,0-4.5,0c-.98,0-1.6-.2-1.93-.52-.2-.16-.29-.42-.29-.81v-3.51c0-2.12-.69-3.87-2.06-5.27-1.37-1.4-3.1-2.08-5.19-2.08h-6.07c.36-3.51,2.25-5.27,5.65-5.27h2.71c.29,0,.42-.16.42-.46v-1.53c0-.26-.13-.42-.42-.42h-2.71c-5.23,0-8.1,3.51-8.1,8.85,0,.65.52,1.2,1.21,1.2h7.32c2.94,0,4.87,2.05,4.87,4.98v3.06c0,1.24-.59,1.79-1.8,1.79h-16.72c-.95,0-1.6-.2-1.93-.52-.19-.2-.29-.46-.29-.81v-11.38c0-.29-.13-.46-.42-.46h-1.54c-.26,0-.43.16-.43.46v10.93c0,1.17-.52,1.79-1.7,1.79h-9.54s0-12.69,0-12.69c0-.29-.16-.46-.46-.46h-1.5c-.29,0-.46.16-.46.46v16.3c0,2.18-.98,3.15-3.17,3.15h-1.63c-.29,0-.43.13-.43.42v1.53c0,.29.13.42.43.42h1.63c3.46,0,5.59-2.08,5.59-5.53v-1.24s9.48,0,9.48,0c1.27,0,2.25-.36,3-1.11l.13-.16s.03.03.03.07c.78.78,2.02,1.2,3.63,1.2h16.33c1.37,0,2.42-.46,3.14-1.27Z"/>
      <path class="cls-1" d="M1680.56,115.85v14.93c0,.29.13.42.43.42h1.54c.29,0,.42-.13.42-.42v-14.93c0-.29-.13-.46-.42-.46h-1.54c-.29,0-.43.16-.43.46Z"/>
      <path class="cls-1" d="M1684.51,144.35c.2,0,.33-.13.33-.33v-.68c0-.2-.13-.29-.33-.29h-3.33s0-1.92,0-1.92c0-.62.52-1.14,1.14-1.14.52,0,.88.26,1.08.71l.1.29c.07.13.13.2.26.2.03,0,.1,0,.16-.03l.62-.26c.13-.07.23-.13.23-.26,0-.03,0-.1-.03-.13l-.16-.32c-.43-.98-1.18-1.5-2.25-1.5-1.34,0-2.45,1.11-2.45,2.44v1.92h-.91c-.2,0-.29.1-.29.29v.68c0,.2.1.33.29.33h5.55Z"/>
      <path class="cls-1" d="M1691.21,113.25c0-.29-.13-.46-.43-.46h-1.53c-.29,0-.43.16-.43.46v17.5c0,2.18-.98,3.15-3.17,3.15h-9.67c-.29,0-.43.13-.43.42v1.5c0,.29.13.46.43.46h9.67c3.46,0,5.55-2.05,5.55-5.53v-17.5Z"/>
      <path class="cls-1" d="M1698.45,112.8h-1.57c-.29,0-.43.13-.43.42v22.64c0,.29.13.42.42.42h1.57c.26,0,.39-.13.39-.42v-22.64c0-.29-.13-.42-.39-.42Z"/>
      <path class="cls-1" d="M1738.55,139.37h-1.63c-.29,0-.43.16-.43.46v1.89c0,.29.13.46.43.46h1.63c.29,0,.42-.16.42-.46v-1.89c0-.29-.13-.46-.42-.46Z"/>
      <path class="cls-1" d="M1741.29,139.37h1.61c.25,0,.46.2.46.46v1.88c0,.25-.2.46-.46.46h-1.6c-.25,0-.46-.2-.46-.46v-1.89c0-.25.2-.46.46-.46Z"/>
      <path class="cls-1" d="M1783.51,114.1c-.29,0-.46.16-.46.46v1.92c0,.29.16.42.46.42h1.63c.29,0,.43-.13.43-.42v-1.92c0-.29-.13-.46-.43-.46h-1.63Z"/>
      <path class="cls-1" d="M1787.86,114.1c-.29,0-.43.16-.43.46v1.92c0,.29.13.42.43.42h1.6c.29,0,.46-.13.46-.42v-1.92c0-.29-.16-.46-.46-.46h-1.6Z"/>
      <path class="cls-1" d="M1809.14,112.8h-1.53c-.29,0-.43.16-.43.46v18.9c0,1.17-.52,1.73-1.73,1.76h-.03s-4.47,0-4.47,0c-.95,0-1.6-.2-1.93-.52-.2-.16-.29-.42-.29-.81v-19.32c0-.29-.13-.46-.42-.46h-1.53c-.29,0-.43.16-.43.46v18.87c0,1.2-.55,1.79-1.73,1.79h-4.7c-.95,0-1.6-.2-1.93-.52-.19-.2-.29-.46-.29-.81v-11.38c0-.29-.13-.46-.42-.46h-1.54c-.26,0-.42.16-.42.46v10.93c0,1.17-.52,1.79-1.7,1.79h-11.46s3.2-6.8,3.2-6.8c.06-.16.1-.33.1-.49v-.13c-.16-1.72-.95-3.22-2.38-4.49-1.44-1.27-3.1-1.92-4.93-1.92s-3.46.68-4.93,2.05c-1.37,1.23-2.16,2.67-2.38,4.29v.16c0,.16.03.36.1.52l3.2,6.8h-8.26c-.95,0-1.6-.2-1.93-.52-.2-.16-.29-.42-.29-.81v-19.32c0-.29-.13-.46-.43-.46h-1.53c-.29,0-.43.16-.43.46v18.87c0,1.2-.55,1.79-1.73,1.79h-4.7c-.95,0-1.6-.2-1.93-.52-.2-.2-.26-.46-.26-.81v-11.38c0-.29-.16-.46-.46-.46h-1.5c-.29,0-.46.16-.46.46v10.93c0,1.2-.52,1.79-1.7,1.79h-6.56c-1.05,0-1.89-.46-2.12-1.3.52-1.01.78-2.05.78-3.19v-2.47c0-1.89-.69-3.51-2.02-4.85-1.34-1.33-2.94-2.02-4.83-2.02s-3.53.68-4.87,2.02c-1.34,1.33-2.02,2.96-2.02,4.85v6.93s-1.18,0-1.18,0c-2.52,0-4.61,2.08-4.61,4.58v4.39c0,.29.13.42.43.42h1.54c.29,0,.46-.13.46-.42v-4.39c0-1.2.98-2.18,2.19-2.18h8.07c1.8,0,3.4-.62,4.74-1.89.82,1.2,2.19,1.89,3.92,1.89h6.04c1.27,0,2.29-.36,3.04-1.11.03-.03.1-.13.1-.16,0,.03.03.03.07.07.78.78,1.99,1.2,3.59,1.2h4.24c1.27,0,2.29-.36,3-1.11.03-.03.1-.1.13-.16.82.81,1.96,1.27,3.62,1.27h27.3c1.27,0,2.25-.36,3-1.11l.13-.16s.03.03.03.07c.78.78,2.02,1.2,3.63,1.2h4.24c1.27,0,2.29-.36,3-1.11.03-.03.1-.1.13-.16.82.81,1.96,1.27,3.62,1.27h4.08c2.52,0,4.15-1.59,4.15-4.13v-18.9c0-.29-.13-.46-.43-.46ZM1728.27,129.42c0,2.47-2.03,4.46-4.51,4.46h-4.51s0-6.93,0-6.93c0-2.44,2.06-4.45,4.51-4.45s4.51,2.02,4.51,4.45v2.47ZM1766.76,133.91l-3.5-7.48c.23-1.01.82-1.92,1.7-2.7.98-.81,2.03-1.23,3.17-1.23s2.25.39,3.2,1.17c.98.75,1.53,1.66,1.7,2.73l-3.5,7.51h-2.78Z"/>
      <path class="cls-1" d="M1565.81,152.64v9.07c.01.35.02,3.66.06,4.12h-.15c-.13-.33-1.59-3.15-1.74-3.46l-5.07-9.72h-2.4s.02,15.36.02,15.36h1.63s-.01-9.21-.01-9.21c0-.55-.03-3.75-.07-4.08h.17c.13.37,1.57,3.17,1.72,3.48l5.12,9.79h2.36s-.02-15.36-.02-15.36h-1.61Z"/>
      <path class="cls-1" d="M1579.96,166.69c-.81,0-1.14-.72-1.14-1.79v-5.39c-.01-2.5-1.49-3.61-3.98-3.61-2.42,0-3.51,1.39-3.92,1.96l1.22.98c.34-.57,1.09-1.45,2.66-1.45,1.54,0,2.47.57,2.47,2.52v1.29c-4.14-.06-6.66,1.24-6.66,3.87,0,1.62,1.21,3.17,3.37,3.17,1.97,0,2.91-.95,3.47-1.6h.09c.28.81.97,1.44,2.12,1.44.21,0,.45-.04.6-.13v-1.25s-.3,0-.3,0ZM1574.36,166.83c-1.35,0-2.1-.85-2.1-1.9,0-1.8,2.2-2.5,5.01-2.4v2.67c-.53.81-1.58,1.62-2.91,1.63Z"/>
      <path class="cls-1" d="M1586.65,166.59c-1.03,0-1.69-.55-1.7-1.88v-7.27s3.2,0,3.2,0v-1.38s-3.22,0-3.22,0v-3.13s-1.14,0-1.14,0l-.51,3.09-1.74.33v1.1s1.74,0,1.74,0v7.36c.01,2.26,1.07,3.29,3,3.28,1.39,0,2.16-.29,2.61-.55l-.47-1.36c-.3.2-.83.42-1.78.42Z"/>
      <rect class="cls-1" x="1591.66" y="156.04" width="1.67" height="11.92" transform="translate(-.24 2.39) rotate(-.09)"/>
      <path class="cls-1" d="M1592.37,151.31c-.66,0-1.2.53-1.2,1.25,0,.7.54,1.23,1.2,1.23.71,0,1.24-.53,1.24-1.23,0-.72-.54-1.25-1.25-1.25Z"/>
      <path class="cls-1" d="M1601.56,155.81c-3.54,0-4.88,2.53-4.88,6.21,0,3.66,1.23,6.13,4.77,6.13,3.54,0,4.91-2.57,4.9-6.25,0-3.64-1.23-6.09-4.79-6.08ZM1601.57,166.66c-2.23,0-3.18-1.57-3.18-4.77,0-3.09.83-4.6,3.04-4.61,2.25,0,3.2,1.55,3.2,4.75,0,3.11-.81,4.63-3.06,4.63Z"/>
      <path class="cls-1" d="M1614.29,155.77c-1.82,0-3,1.08-3.32,1.49h-.09s-.34-1.25-.34-1.25h-1.26s.02,11.92.02,11.92h1.67s-.01-8.53-.01-8.53c.41-1.16,1.52-2.13,2.96-2.13,1.63,0,2.51,1,2.51,2.82v7.82s1.68,0,1.68,0v-8.22c-.08-2.65-1.48-3.94-3.81-3.94Z"/>
      <path class="cls-1" d="M1630.3,166.61c-.81,0-1.14-.72-1.14-1.79v-5.39c-.01-2.5-1.49-3.61-3.98-3.61-2.42,0-3.51,1.39-3.92,1.96l1.22.98c.34-.57,1.09-1.45,2.66-1.45,1.54,0,2.47.57,2.47,2.52v1.29c-4.14-.06-6.66,1.24-6.66,3.87,0,1.62,1.21,3.17,3.37,3.17,1.97,0,2.91-.95,3.47-1.6h.09c.28.81.97,1.44,2.12,1.44.21,0,.45-.04.6-.13v-1.25s-.3,0-.3,0ZM1624.71,166.75c-1.35,0-2.1-.85-2.1-1.9,0-1.8,2.2-2.5,5.01-2.4v2.67c-.53.81-1.58,1.62-2.91,1.63Z"/>
      <path class="cls-1" d="M1636.28,166.58c-.88,0-1.22-.46-1.22-1.51l-.02-13.81h-1.65s.02,14.27.02,14.27c0,1.56.78,2.52,2.38,2.52.45,0,1.03-.07,1.46-.27v-1.45c-.22.11-.54.24-.97.24Z"/>
      <path class="cls-1" d="M1649.95,155.76c-2.59,0-4.95,1.78-4.94,6.1,0,4.45,1.81,6.18,5.13,6.17,1.67,0,2.89-.49,3.66-1.08l-.75-1.31c-.49.44-1.54.9-2.7.9-2.34,0-3.54-1.11-3.69-4.05h7.42c.08-.78.13-1.48.13-2.07,0-2.83-1.49-4.67-4.25-4.66ZM1652.53,161.08h-5.85c.15-2.86,1.6-3.85,3.12-3.85,1.89,0,2.75,1.14,2.75,3.17,0,.13,0,.44-.02.68Z"/>
      <polygon class="cls-1" points="1659.22 166.31 1659.2 152.5 1657.49 152.5 1657.51 167.86 1665.68 167.85 1665.68 166.3 1659.22 166.31"/>
      <path class="cls-1" d="M1672.12,155.72c-2.59,0-4.95,1.78-4.94,6.1,0,4.45,1.81,6.18,5.13,6.17,1.67,0,2.89-.49,3.66-1.08l-.75-1.31c-.49.44-1.54.9-2.7.9-2.34,0-3.54-1.11-3.69-4.05h7.42c.08-.78.13-1.48.13-2.07,0-2.83-1.49-4.67-4.25-4.66ZM1674.7,161.04h-5.85c.15-2.86,1.6-3.85,3.12-3.85,1.89,0,2.75,1.14,2.75,3.17,0,.13,0,.44-.02.68Z"/>
      <path class="cls-1" d="M1688.15,166.52c-.81,0-1.14-.72-1.14-1.79v-5.39c-.01-2.5-1.49-3.61-3.98-3.61-2.42,0-3.51,1.39-3.92,1.96l1.22.98c.34-.57,1.09-1.45,2.66-1.45,1.54,0,2.47.57,2.47,2.52v1.29c-4.14-.06-6.66,1.24-6.66,3.87,0,1.62,1.21,3.17,3.37,3.17,1.97,0,2.91-.95,3.47-1.6h.09c.28.81.97,1.44,2.12,1.44.21,0,.45-.04.6-.13v-1.25s-.3,0-.3,0ZM1682.55,166.66c-1.35,0-2.1-.85-2.1-1.9,0-1.8,2.2-2.5,5.01-2.4v2.67c-.53.81-1.58,1.62-2.91,1.63Z"/>
      <path class="cls-1" d="M1695.76,155.69c-1.35,0-2.42.66-2.94,1.52h-.09s-.37-1.31-.37-1.31h-1.26s.02,11.92.02,11.92h1.65s-.01-8.88-.01-8.88c.56-1.07,1.73-1.54,2.87-1.54.43,0,.88.04,1.31.17v-1.78c-.26-.07-.65-.11-1.18-.11Z"/>
      <path class="cls-1" d="M1703.87,155.63c-1.82,0-3,1.08-3.32,1.49h-.09s-.34-1.25-.34-1.25h-1.26s.02,11.92.02,11.92h1.67s-.01-8.53-.01-8.53c.41-1.16,1.52-2.13,2.96-2.13,1.63,0,2.51,1,2.51,2.82v7.82s1.68,0,1.68,0v-8.22c-.08-2.65-1.48-3.94-3.81-3.94Z"/>
      <rect class="cls-1" x="1711.72" y="155.86" width="1.67" height="11.92" transform="translate(-.24 2.57) rotate(-.09)"/>
      <path class="cls-1" d="M1712.44,151.13c-.66,0-1.2.53-1.2,1.25,0,.7.54,1.23,1.2,1.23.71,0,1.24-.53,1.24-1.23,0-.72-.54-1.25-1.25-1.25Z"/>
      <path class="cls-1" d="M1722.37,155.6c-1.82,0-3,1.08-3.32,1.49h-.09s-.35-1.25-.35-1.25h-1.26s.02,11.92.02,11.92h1.67s-.01-8.53-.01-8.53c.41-1.16,1.52-2.13,2.96-2.13,1.63,0,2.51,1,2.51,2.82v7.82s1.68,0,1.68,0v-8.22c-.08-2.65-1.48-3.94-3.81-3.94Z"/>
      <path class="cls-1" d="M1734.72,155.72c-3.86,0-5.68,2.57-5.67,6.39,0,4.05,2.04,5.59,4.45,5.58,1.5,0,2.49-.62,2.85-.95h.09s0,1.1,0,1.1c0,2.13-.85,3.18-2.98,3.18-1.56,0-2.49-.52-3.07-1.11l-.96,1.36c.47.48,1.63,1.27,3.84,1.27,2.92,0,4.8-1.56,4.8-4.7l-.02-11.51c-.71-.35-1.84-.61-3.32-.61ZM1733.94,166.19c-1.65,0-3.2-.89-3.2-4.31,0-3.15,1.49-4.67,3.74-4.67.75,0,1.42.13,1.91.33v7.49c-.55.74-1.53,1.16-2.45,1.16Z"/>
      <path class="cls-1" d="M1753.28,153.72c1.57,0,2.44.48,3.09,1.03l1.07-1.34c-.49-.44-1.7-1.27-3.99-1.27-4.01,0-6.15,2.99-6.14,8.03,0,4.73,1.79,7.78,5.93,7.77,2.14,0,3.45-.64,4.11-1.3l-.95-1.25c-.53.53-1.41.94-2.94.95-2.87,0-4.4-2.16-4.4-6.33,0-4.34,1.6-6.29,4.21-6.3Z"/>
      <path class="cls-1" d="M1764.31,155.58c-2.59,0-4.95,1.78-4.94,6.1,0,4.45,1.81,6.18,5.13,6.17,1.67,0,2.89-.49,3.66-1.08l-.75-1.31c-.49.44-1.54.9-2.7.9-2.34,0-3.54-1.11-3.69-4.05h7.42c.08-.78.13-1.48.13-2.07,0-2.83-1.49-4.67-4.25-4.66ZM1766.89,160.9h-5.85c.15-2.86,1.6-3.85,3.12-3.85,1.89,0,2.75,1.14,2.75,3.17,0,.13,0,.44-.02.68Z"/>
      <path class="cls-1" d="M1776.63,155.52c-1.82,0-3,1.08-3.32,1.49h-.08s-.35-1.25-.35-1.25h-1.26s.02,11.92.02,11.92h1.67s-.01-8.53-.01-8.53c.41-1.16,1.52-2.13,2.96-2.13,1.63,0,2.51,1,2.51,2.82v7.82s1.68,0,1.68,0v-8.22c-.08-2.65-1.48-3.94-3.81-3.94Z"/>
      <path class="cls-1" d="M1787.65,166.28c-1.03,0-1.69-.55-1.7-1.88v-7.27s3.2,0,3.2,0v-1.38s-3.22,0-3.22,0v-3.13s-1.14,0-1.14,0l-.51,3.09-1.74.33v1.1s1.74,0,1.74,0v7.36c.01,2.26,1.07,3.29,3,3.28,1.39,0,2.16-.29,2.62-.55l-.47-1.36c-.3.2-.84.42-1.78.42Z"/>
      <path class="cls-1" d="M1796.42,155.53c-2.59,0-4.95,1.78-4.94,6.1,0,4.45,1.81,6.18,5.13,6.17,1.67,0,2.89-.49,3.67-1.08l-.75-1.31c-.49.44-1.54.9-2.7.9-2.34,0-3.54-1.11-3.69-4.05h7.42c.08-.78.13-1.48.12-2.07,0-2.83-1.49-4.67-4.25-4.66ZM1799,160.85h-5.85c.14-2.86,1.6-3.85,3.12-3.85,1.89,0,2.75,1.14,2.75,3.17,0,.13,0,.44-.02.68Z"/>
      <path class="cls-1" d="M1808.39,155.52c-1.35,0-2.42.66-2.94,1.52h-.08s-.37-1.31-.37-1.31h-1.26s.02,11.92.02,11.92h1.65s-.01-8.88-.01-8.88c.56-1.07,1.73-1.54,2.87-1.54.43,0,.88.04,1.31.17v-1.78c-.26-.07-.65-.11-1.18-.11Z"/>
    </g>
    <g>
      <path class="cls-4" d="M1882.85,88.67v58.93c0,6.6-1.92,12.76-5.23,17.93-.14.22-.29.44-.44.66-.02.03-.04.06-.06.09-.49.73-1.01,1.43-1.55,2.11-.18.23-.37.45-.56.68-.02.03-.05.06-.07.09-6.05,7.11-15.03,11.61-25.05,11.61v-92.11s32.97,0,32.97,0Z"/>
      <path class="cls-7" d="M1876.26,82.44v84.2c0,.61-.5,1.11-1.11,1.11h-25.27c-6.49,0-12.43-2.34-17.03-6.23-.92-.77-1.78-1.61-2.59-2.51-4.2-4.67-6.76-10.86-6.76-17.63V56.07s26.38,0,26.38,0c6.44,0,12.34,2.31,16.92,6.14.92.77,1.79,1.6,2.6,2.49,1.77,1.94,3.25,4.15,4.37,6.55.55,1.17,1.01,2.38,1.39,3.63.53,1.78.88,3.64,1.02,5.55.05.66.08,1.33.08,2.01Z"/>
      <rect class="cls-6" x="1849.88" y="88.68" width="26.38" height="79.07"/>
      <path class="cls-3" d="M1876.26,82.44v6.24s-26.38,0-26.38,0v-32.61c6.62,0,12.67,2.44,17.31,6.47.9.79,1.76,1.64,2.55,2.54,1.74,1.98,3.18,4.23,4.26,6.67.53,1.19.97,2.42,1.32,3.69.61,2.23.94,4.58.94,7.01Z"/>
      <g>
        <g>
          <path class="cls-5" d="M1840.7,154.18l-7.84,7.33c-.92-.77-1.78-1.61-2.59-2.51l7.87-7.35-14.63-13.68v-4.92s17.19,16.07,17.19,16.07c1.46,1.37,1.46,3.69,0,5.06Z"/>
          <path class="cls-5" d="M1833.19,98.53l-9.68,9.05v-4.92s6.98-6.53,6.98-6.53h-6.98s0-3.6,0-3.6h7.32c3.14,0,4.66,3.85,2.37,6Z"/>
          <path class="cls-5" d="M1846.03,105.15v30.1c0,3.03-3.62,4.6-5.83,2.53l-16.69-15.6v-4.92s18.93,17.69,18.93,17.69v-29.49s-11.23,10.5-11.23,10.5l-2.46-2.63,11.45-10.7c2.21-2.07,5.83-.5,5.83,2.53Z"/>
          <path class="cls-5" d="M1842.43,62.68v9.17s-11.23-10.5-11.23-10.5l-2.46,2.63,11.45,10.7c2.21,2.07,5.83.5,5.83-2.53v-9.48s-3.6,0-3.6,0Z"/>
          <path class="cls-5" d="M1830.88,84.82h-7.37s0-3.6,0-3.6h7.03s-7.03-6.58-7.03-6.58v-4.92s9.73,9.1,9.73,9.1c2.3,2.15.78,6-2.37,6Z"/>
        </g>
        <g>
          <path class="cls-5" d="M1876.26,96.13h-6.98s6.98,6.53,6.98,6.53v4.92s-9.68-9.05-9.68-9.05c-2.3-2.15-.78-6,2.37-6h7.31s0,3.6,0,3.6Z"/>
          <path class="cls-5" d="M1869.74,65.08l-10.17,9.61c-2.22,2.07-5.83.5-5.83-2.53v-9.47s3.59,0,3.59,0v9.17s9.86-9.32,9.86-9.32c.9.79,1.76,1.64,2.55,2.54Z"/>
          <path class="cls-5" d="M1876.26,83.23v1.59s-7.37,0-7.37,0c-3.14,0-4.66-3.85-2.37-6l7.47-7.08c.53,1.19.97,2.42,1.32,3.69l-6.09,5.79h6.96c.05.66.08,1.33.08,2.01Z"/>
          <g>
            <path class="cls-5" d="M1882.85,131.81l-21.23,19.84,15.5,14.64c-.49.73-1.01,1.43-1.55,2.11-.18.23-.37.45-.56.68-.02.03-.05.06-.07.09l-15.87-14.99c-1.46-1.37-1.46-3.69,0-5.06l23.79-22.24v4.93Z"/>
            <path class="cls-5" d="M1882.85,111.09v4.92s-23.29,21.77-23.29,21.77c-2.22,2.07-5.83.5-5.83-2.53v-30.1c0-3.03,3.61-4.6,5.83-2.53l11.45,10.7-2.46,2.63-11.23-10.5v29.49s25.52-23.85,25.52-23.85Z"/>
          </g>
        </g>
      </g>
    </g>
  </g>
  <g>
    <text class="cls-2" transform="translate(152.93 143.5)"><tspan x="0" y="0">إدارة رأس المال البشري</tspan></text>
    <path class="cls-1" d="M434.55,104.53c16.82,0,30.51,13.69,30.51,30.51s-13.69,30.51-30.51,30.51H149.66c-16.82,0-30.51-13.69-30.51-30.51s13.69-30.51,30.51-30.51h284.9M434.55,102.03H149.66c-18.2,0-33.01,14.81-33.01,33.01s14.81,33.01,33.01,33.01h284.9c18.2,0,33.01-14.81,33.01-33.01s-14.81-33.01-33.01-33.01h0Z"/>
  </g>
</svg>