<?xml version="1.0" encoding="UTF-8"?><svg id="Layer_1" xmlns="http://www.w3.org/2000/svg" viewBox="0 0 827.79 357.52"><path d="M757.38,70.37l-125.85,47.97-47.14,58.59c29.58-1.83,62.06-4.09,90.84-4.01l82.15-102.55" style="fill:#4d2c86;"/><path d="M675.22,172.92l-88.44,110.39c69.14-21.69,165.89-51.74,170.63-81.6v-1.07c-2.01-21.82-37.62-27.6-82.19-27.72Z" style="fill:#00b3de;"/><path d="M757.37,70.38l-82.15,102.55c44.57.12,80.18,5.9,82.19,27.72l-.04-130.26" style="fill:#01197e;"/><path d="M87.43,267.58c-.05-.45-.12-.84-.2-1.19-.08-.34-.17-.69-.28-1.03-.53-1.63-1.47-2.92-2.83-3.85-1.36-.94-3.02-1.4-5-1.4s-3.53.46-4.91,1.38c-1.37.92-2.32,2.21-2.85,3.87-.21.61-.37,1.29-.47,2.06-.11.77-.16,1.65-.16,2.65s.06,1.88.18,2.63c.12.75.28,1.43.49,2.04.52,1.66,1.47,2.96,2.83,3.89,1.36.93,3.06,1.4,5.09,1.4,1.77,0,3.31-.3,4.63-.91,1.32-.61,2.39-1.38,3.2-2.33.16-.21.14-.4-.04-.55l-2.33-2.06c-.18-.16-.38-.13-.59.08-.48.53-1.07.96-1.78,1.3-.71.34-1.61.51-2.69.51-2.19,0-3.61-.96-4.27-2.89-.08-.21-.15-.44-.2-.67-.05-.24-.08-.5-.08-.79,0-.16.08-.24.24-.24h11.74c.29,0,.43-.13.43-.4,0-.77-.01-1.43-.04-2-.03-.57-.07-1.07-.12-1.52ZM82.88,268.21h-7.47c-.16,0-.24-.08-.24-.24,0-.61.08-1.16.24-1.64.26-.77.72-1.38,1.38-1.81.66-.44,1.45-.66,2.37-.66s1.67.22,2.33.66,1.12,1.04,1.38,1.81c.16.48.24,1.02.24,1.64,0,.16-.08.24-.24.24Z" style="fill:#424143;"/><path d="M109.68,275.37h-12.33c-.16,0-.24-.08-.24-.24v-22.02c0-.26-.13-.4-.4-.4h-3.87c-.26,0-.4.13-.4.4v26.09c0,.26.13.4.4.4h16.84c.26,0,.4-.13.4-.4v-3.43c0-.26-.13-.4-.4-.4Z" style="fill:#424143;"/><path d="M129.57,267.58c-.05-.45-.12-.84-.2-1.19-.08-.34-.17-.69-.28-1.03-.53-1.63-1.47-2.92-2.83-3.85-1.36-.94-3.02-1.4-5-1.4s-3.53.46-4.91,1.38c-1.37.92-2.32,2.21-2.85,3.87-.21.61-.37,1.29-.47,2.06-.11.77-.16,1.65-.16,2.65s.06,1.88.18,2.63c.12.75.28,1.43.49,2.04.52,1.66,1.47,2.96,2.83,3.89,1.36.93,3.06,1.4,5.09,1.4,1.77,0,3.31-.3,4.63-.91,1.32-.61,2.39-1.38,3.2-2.33.16-.21.14-.4-.04-.55l-2.33-2.06c-.18-.16-.38-.13-.59.08-.48.53-1.07.96-1.78,1.3-.71.34-1.61.51-2.69.51-2.19,0-3.61-.96-4.27-2.89-.08-.21-.15-.44-.2-.67-.05-.24-.08-.5-.08-.79,0-.16.08-.24.24-.24h11.74c.29,0,.43-.13.43-.4,0-.77-.01-1.43-.04-2-.03-.57-.07-1.07-.12-1.52ZM125.02,268.21h-7.47c-.16,0-.24-.08-.24-.24,0-.61.08-1.16.24-1.64.26-.77.72-1.38,1.38-1.81.66-.44,1.45-.66,2.37-.66s1.67.22,2.33.66c.66.44,1.12,1.04,1.38,1.81.16.48.24,1.02.24,1.64,0,.16-.08.24-.24.24Z" style="fill:#424143;"/><path d="M141.62,260.11c-1.58,0-2.91.17-3.99.51-1.08.34-2,.79-2.77,1.34-.18.13-.21.3-.08.51l1.46,2.61c.13.24.32.26.55.08.45-.37,1.01-.68,1.7-.93.69-.25,1.57-.38,2.65-.38,1.61,0,2.71.25,3.32.76.61.51.91,1.32.91,2.43v.92c0,.16-.08.24-.24.24h-3.87c-2.37,0-4.24.49-5.59,1.46-1.36.97-2.03,2.5-2.03,4.57,0,1,.17,1.86.51,2.58.34.72.8,1.32,1.38,1.79s1.26.83,2.04,1.06c.78.24,1.6.35,2.47.35,1.34,0,2.46-.2,3.36-.61.9-.41,1.57-.94,2.02-1.6h.04v1.38c0,.26.13.4.4.4h3.32c.26,0,.4-.13.4-.4v-12.45c0-2.32-.6-4-1.8-5.06-1.2-1.05-3.25-1.58-6.15-1.58ZM145.38,273.19c0,1.11-.36,1.92-1.09,2.45-.73.53-1.77.79-3.14.79-2.19,0-3.28-.79-3.28-2.37,0-.9.33-1.55.99-1.96.66-.41,1.7-.61,3.12-.61h3.16c.16,0,.24.08.24.24v1.46Z" style="fill:#424143;"/><path d="M166.79,260.52c-.7-.28-1.43-.41-2.19-.41-1.21,0-2.23.22-3.05.67-.82.45-1.45,1.04-1.9,1.78h-.04v-1.62c0-.26-.13-.4-.4-.4h-3.64c-.26,0-.4.13-.4.4v18.26c0,.26.13.4.4.4h3.64c.26,0,.4-.13.4-.4v-10.32c0-1.53.28-2.71.85-3.56.57-.84,1.48-1.27,2.75-1.27.53,0,1.01.08,1.46.24s.9.38,1.35.67c.21.16.4.13.55-.08l2.09-2.65c.13-.18.11-.37-.08-.55-.5-.5-1.1-.89-1.8-1.17Z" style="fill:#424143;"/><path d="M186.21,262.12c-.58-.63-1.27-1.13-2.08-1.48-.8-.36-1.72-.53-2.75-.53-1.26,0-2.31.22-3.14.65-.83.43-1.46.96-1.88,1.56h-.04v-1.38c0-.26-.13-.4-.4-.4h-3.64c-.26,0-.4.13-.4.4v18.26c0,.26.13.4.4.4h3.64c.26,0,.4-.13.4-.4v-10.99c0-1.24.32-2.24.95-3,.63-.76,1.53-1.15,2.69-1.15s2.08.38,2.69,1.15c.61.77.91,1.77.91,3v10.99c0,.26.13.4.4.4h3.64c.26,0,.4-.13.4-.4v-12.02c0-1.03-.15-1.97-.45-2.83-.3-.86-.75-1.6-1.33-2.24Z" style="fill:#424143;"/><path d="M193.96,252.72h3.64c.22,0,.4.18.4.4v3.44c0,.22-.18.4-.4.4h-3.64c-.22,0-.4-.18-.4-.4v-3.44c0-.22.18-.4.4-.4Z" style="fill:#424143;"/><rect x="193.57" y="260.54" width="4.43" height="19.05" rx=".4" ry=".4" style="fill:#424143;"/><path d="M218.08,262.12c-.58-.63-1.27-1.13-2.08-1.48-.8-.36-1.72-.53-2.75-.53-1.26,0-2.31.22-3.14.65-.83.43-1.46.96-1.88,1.56h-.04v-1.38c0-.26-.13-.4-.4-.4h-3.64c-.26,0-.4.13-.4.4v18.26c0,.26.13.4.4.4h3.64c.26,0,.4-.13.4-.4v-10.99c0-1.24.32-2.24.95-3,.63-.76,1.53-1.15,2.69-1.15s2.08.38,2.69,1.15c.61.77.91,1.77.91,3v10.99c0,.26.13.4.4.4h3.64c.26,0,.4-.13.4-.4v-12.02c0-1.03-.15-1.97-.45-2.83-.3-.86-.75-1.6-1.33-2.24Z" style="fill:#424143;"/><path d="M240.45,260.54h-3.64c-.26,0-.4.13-.4.4v1.42h-.04c-.45-.69-1.07-1.23-1.88-1.64-.8-.41-1.82-.61-3.06-.61-1.61,0-2.97.4-4.07,1.19-1.11.79-1.91,1.95-2.41,3.48-.24.74-.4,1.46-.49,2.17-.09.71-.14,1.59-.14,2.65s.04,1.94.14,2.67c.09.72.26,1.46.49,2.19.5,1.5,1.3,2.65,2.41,3.44,1.11.79,2.46,1.19,4.07,1.19,1.24,0,2.26-.2,3.06-.6.8-.4,1.43-.95,1.88-1.64h.04v1.78c0,1.51-.34,2.65-1.03,3.41s-1.77,1.15-3.24,1.15-2.91-.59-4.15-1.78c-.21-.18-.41-.18-.59,0l-2.33,2.33c-.18.19-.2.37-.04.55.74.87,1.74,1.56,3,2.08,1.27.51,2.57.77,3.91.77,2.95,0,5.17-.77,6.66-2.31,1.49-1.54,2.23-3.68,2.23-6.42v-17.47c0-.26-.13-.4-.4-.4ZM236.32,271.29c-.07.49-.18.95-.34,1.4-.26.79-.67,1.39-1.21,1.81-.54.42-1.28.63-2.21.63-1.72,0-2.85-.82-3.38-2.44-.16-.45-.27-.91-.34-1.4-.07-.48-.1-1.06-.1-1.71,0-1.23.15-2.27.44-3.11.53-1.6,1.66-2.4,3.38-2.4.93,0,1.66.21,2.21.63.54.42.95,1.01,1.21,1.77.29.84.44,1.88.44,3.11,0,.66-.03,1.23-.1,1.71Z" style="fill:#424143;"/><rect x="256.03" y="252.72" width="4.66" height="26.88" rx=".4" ry=".4" style="fill:#424143;"/><path d="M280.85,262.12c-.58-.63-1.27-1.13-2.08-1.48-.8-.36-1.72-.53-2.75-.53-1.26,0-2.31.22-3.14.65-.83.43-1.46.96-1.88,1.56h-.04v-1.38c0-.26-.13-.4-.4-.4h-3.64c-.26,0-.4.13-.4.4v18.26c0,.26.13.4.4.4h3.64c.26,0,.4-.13.4-.4v-10.99c0-1.24.32-2.24.95-3,.63-.76,1.53-1.15,2.69-1.15s2.08.38,2.69,1.15c.61.77.91,1.77.91,3v10.99c0,.26.13.4.4.4h3.64c.26,0,.4-.13.4-.4v-12.02c0-1.03-.15-1.97-.45-2.83-.3-.86-.75-1.6-1.33-2.24Z" style="fill:#424143;"/><path d="M302.52,262.12c-.58-.63-1.27-1.13-2.08-1.48-.8-.36-1.72-.53-2.75-.53-1.26,0-2.31.22-3.14.65-.83.43-1.46.96-1.88,1.56h-.04v-1.38c0-.26-.13-.4-.4-.4h-3.64c-.26,0-.4.13-.4.4v18.26c0,.26.13.4.4.4h3.64c.26,0,.4-.13.4-.4v-10.99c0-1.24.32-2.24.95-3,.63-.76,1.53-1.15,2.69-1.15s2.08.38,2.69,1.15c.61.77.91,1.77.91,3v10.99c0,.26.13.4.4.4h3.64c.26,0,.4-.13.4-.4v-12.02c0-1.03-.15-1.97-.45-2.83-.3-.86-.75-1.6-1.33-2.24Z" style="fill:#424143;"/><path d="M325.17,265.36c-.53-1.66-1.48-2.95-2.87-3.87s-3.04-1.38-4.96-1.38-3.62.46-5,1.38c-1.38.92-2.34,2.21-2.87,3.87-.21.69-.37,1.38-.47,2.08-.11.7-.16,1.58-.16,2.63s.05,1.93.16,2.63c.1.7.26,1.39.47,2.08.53,1.66,1.48,2.95,2.87,3.87,1.38.92,3.05,1.38,5,1.38s3.58-.46,4.96-1.38,2.34-2.21,2.87-3.87c.21-.69.37-1.38.48-2.08.11-.7.16-1.58.16-2.63s-.05-1.93-.16-2.63c-.11-.7-.26-1.39-.48-2.08ZM321.22,272.07c-.05.51-.16,1.02-.32,1.52-.29.79-.73,1.4-1.32,1.84-.59.43-1.34.65-2.23.65s-1.65-.22-2.25-.65c-.61-.43-1.05-1.05-1.34-1.84-.16-.5-.26-1.01-.32-1.52-.05-.51-.08-1.18-.08-2s.03-1.48.08-1.98c.05-.5.16-1.01.32-1.54.29-.79.74-1.4,1.34-1.84.61-.43,1.36-.65,2.25-.65s1.64.22,2.23.65c.59.44,1.03,1.05,1.32,1.84.16.53.26,1.04.32,1.54.05.5.08,1.16.08,1.98s-.03,1.48-.08,2Z" style="fill:#424143;"/><path d="M345.76,260.54h-3.79c-.24,0-.4.13-.47.4l-4.11,12.37h-.08l-4.19-12.37c-.08-.26-.24-.4-.48-.4h-3.87c-.29,0-.4.13-.32.4l6.72,18.26c.08.26.25.4.51.4h3.16c.26,0,.44-.13.51-.4l6.72-18.26c.08-.26-.03-.4-.32-.4Z" style="fill:#424143;"/><path d="M356.84,260.11c-1.58,0-2.91.17-3.99.51-1.08.34-2,.79-2.77,1.34-.18.13-.21.3-.08.51l1.46,2.61c.13.24.32.26.55.08.45-.37,1.01-.68,1.7-.93.69-.25,1.57-.38,2.65-.38,1.61,0,2.71.25,3.32.76.61.51.91,1.32.91,2.43v.92c0,.16-.08.24-.24.24h-3.87c-2.37,0-4.24.49-5.59,1.46-1.36.97-2.03,2.5-2.03,4.57,0,1,.17,1.86.51,2.58.34.72.8,1.32,1.38,1.79s1.26.83,2.04,1.06c.78.24,1.6.35,2.47.35,1.34,0,2.46-.2,3.36-.61.9-.41,1.57-.94,2.02-1.6h.04v1.38c0,.26.13.4.4.4h3.32c.26,0,.4-.13.4-.4v-12.45c0-2.32-.6-4-1.8-5.06-1.2-1.05-3.25-1.58-6.15-1.58ZM360.59,273.19c0,1.11-.36,1.92-1.09,2.45-.73.53-1.77.79-3.14.79-2.19,0-3.28-.79-3.28-2.37,0-.9.33-1.55.99-1.96.66-.41,1.7-.61,3.12-.61h3.16c.16,0,.24.08.24.24v1.46Z" style="fill:#424143;"/><path d="M377.87,260.54h-2.53c-.16,0-.24-.08-.24-.24v-5.22c0-.26-.13-.4-.4-.4h-3.64c-.26,0-.4.13-.4.4v5.22c0,.16-.08.24-.24.24h-1.27c-.26,0-.4.13-.4.4v2.65c0,.26.13.4.4.4h1.27c.16,0,.24.08.24.24v10.04c0,1.87.4,3.27,1.21,4.19.8.92,2.17,1.38,4.09,1.38h1.9c.26,0,.4-.13.4-.4v-3.16c0-.26-.13-.4-.4-.4h-.99c-.61,0-1.05-.12-1.34-.38-.29-.25-.44-.72-.44-1.4v-9.88c0-.16.08-.24.24-.24h2.53c.26,0,.4-.13.4-.4v-2.65c0-.26-.13-.4-.4-.4Z" style="fill:#424143;"/><rect x="383.08" y="260.54" width="4.43" height="19.05" rx=".4" ry=".4" style="fill:#424143;"/><path d="M383.48,252.72h3.64c.22,0,.4.18.4.4v3.44c0,.22-.18.4-.4.4h-3.64c-.22,0-.4-.18-.4-.4v-3.44c0-.22.18-.4.4-.4Z" style="fill:#424143;"/><path d="M408.58,265.36c-.53-1.66-1.48-2.95-2.87-3.87s-3.04-1.38-4.96-1.38-3.62.46-5,1.38c-1.38.92-2.34,2.21-2.87,3.87-.21.69-.37,1.38-.47,2.08-.11.7-.16,1.58-.16,2.63s.05,1.93.16,2.63c.1.7.26,1.39.47,2.08.53,1.66,1.48,2.95,2.87,3.87,1.38.92,3.05,1.38,5,1.38s3.58-.46,4.96-1.38,2.34-2.21,2.87-3.87c.21-.69.37-1.38.48-2.08.11-.7.16-1.58.16-2.63s-.05-1.93-.16-2.63c-.11-.7-.26-1.39-.48-2.08ZM404.63,272.07c-.05.51-.16,1.02-.32,1.52-.29.79-.73,1.4-1.32,1.84-.59.43-1.34.65-2.23.65s-1.65-.22-2.25-.65c-.61-.43-1.05-1.05-1.34-1.84-.16-.5-.26-1.01-.32-1.52-.05-.51-.08-1.18-.08-2s.03-1.48.08-1.98c.05-.5.16-1.01.32-1.54.29-.79.74-1.4,1.34-1.84.61-.43,1.36-.65,2.25-.65s1.64.22,2.23.65c.59.44,1.03,1.05,1.32,1.84.16.53.26,1.04.32,1.54.05.5.08,1.16.08,1.98s-.03,1.48-.08,2Z" style="fill:#424143;"/><path d="M428.27,262.12c-.58-.63-1.27-1.13-2.08-1.48-.8-.36-1.72-.53-2.75-.53-1.26,0-2.31.22-3.14.65-.83.43-1.46.96-1.88,1.56h-.04v-1.38c0-.26-.13-.4-.4-.4h-3.64c-.26,0-.4.13-.4.4v18.26c0,.26.13.4.4.4h3.64c.26,0,.4-.13.4-.4v-10.99c0-1.24.32-2.24.95-3,.63-.76,1.53-1.15,2.69-1.15s2.08.38,2.69,1.15c.61.77.91,1.77.91,3v10.99c0,.26.13.4.4.4h3.64c.26,0,.4-.13.4-.4v-12.02c0-1.03-.15-1.97-.45-2.83-.3-.86-.75-1.6-1.33-2.24Z" style="fill:#424143;"/><path d="M456.65,253.11c-.08-.26-.25-.4-.51-.4h-3.64c-.26,0-.43.13-.51.4l-9.21,26.09c-.08.26.01.4.28.4h3.83c.26,0,.44-.13.51-.4l1.78-5.22h10.12l1.78,5.22c.08.26.25.4.51.4h3.87c.26,0,.36-.13.28-.4l-9.09-26.09ZM450.61,269.83l3.6-10.44h.12l3.56,10.44h-7.27Z" style="fill:#424143;"/><path d="M493.54,260.54h-3.79c-.26,0-.44.13-.51.4l-3.48,12.57h-.08l-3.87-12.57c-.08-.26-.25-.4-.51-.4h-2.84c-.26,0-.44.13-.51.4l-3.64,12.57h-.08l-3.68-12.57c-.08-.26-.25-.4-.51-.4h-3.8c-.26,0-.35.13-.28.4l6.01,18.26c.08.26.24.4.47.4h3.24c.24,0,.4-.13.48-.4l3.72-12.18h.08l3.68,12.18c.08.26.24.4.48.4h3.24c.24,0,.4-.13.48-.4l6.01-18.26c.08-.26-.01-.4-.28-.4Z" style="fill:#424143;"/><path d="M504.53,260.11c-1.58,0-2.91.17-3.99.51-1.08.34-2,.79-2.77,1.34-.18.13-.21.3-.08.51l1.46,2.61c.13.24.32.26.55.08.45-.37,1.01-.68,1.7-.93.69-.25,1.57-.38,2.65-.38,1.61,0,2.71.25,3.32.76.61.51.91,1.32.91,2.43v.92c0,.16-.08.24-.24.24h-3.87c-2.37,0-4.24.49-5.59,1.46-1.36.97-2.03,2.5-2.03,4.57,0,1,.17,1.86.51,2.58.34.72.8,1.32,1.38,1.79.58.47,1.26.83,2.04,1.06.78.24,1.6.35,2.47.35,1.34,0,2.46-.2,3.36-.61.9-.41,1.57-.94,2.02-1.6h.04v1.38c0,.26.13.4.4.4h3.32c.26,0,.4-.13.4-.4v-12.45c0-2.32-.6-4-1.8-5.06-1.2-1.05-3.25-1.58-6.15-1.58ZM508.28,273.19c0,1.11-.36,1.92-1.09,2.45-.73.53-1.77.79-3.14.79-2.19,0-3.28-.79-3.28-2.37,0-.9.33-1.55.99-1.96.66-.41,1.7-.61,3.12-.61h3.16c.16,0,.24.08.24.24v1.46Z" style="fill:#424143;"/><path d="M529.69,260.52c-.7-.28-1.43-.41-2.19-.41-1.21,0-2.23.22-3.05.67-.82.45-1.45,1.04-1.9,1.78h-.04v-1.62c0-.26-.13-.4-.4-.4h-3.64c-.26,0-.4.13-.4.4v18.26c0,.26.13.4.4.4h3.64c.26,0,.4-.13.4-.4v-10.32c0-1.53.28-2.71.85-3.56.57-.84,1.48-1.27,2.75-1.27.53,0,1.01.08,1.46.24.45.16.9.38,1.35.67.21.16.4.13.55-.08l2.09-2.65c.13-.18.11-.37-.08-.55-.5-.5-1.1-.89-1.8-1.17Z" style="fill:#424143;"/><path d="M549.83,252.72h-3.64c-.26,0-.4.13-.4.4v9.25h-.04c-.45-.66-1.08-1.2-1.9-1.62-.82-.42-1.87-.63-3.16-.63-1.63,0-3.02.38-4.15,1.15-1.13.76-1.95,1.91-2.45,3.44-.24.74-.41,1.5-.51,2.27-.11.78-.16,1.81-.16,3.1s.05,2.32.16,3.1c.1.78.28,1.53.51,2.27.5,1.53,1.32,2.68,2.45,3.44,1.13.76,2.52,1.14,4.15,1.14,1.29,0,2.35-.21,3.16-.63.82-.42,1.45-.96,1.9-1.62h.04v1.42c0,.26.13.4.4.4h3.64c.26,0,.4-.13.4-.4v-26.09c0-.26-.13-.4-.4-.4ZM545.7,272.17c-.07.53-.17,1.01-.3,1.46-.53,1.63-1.71,2.45-3.56,2.45s-2.99-.82-3.52-2.45c-.13-.45-.23-.93-.3-1.46-.07-.53-.1-1.23-.1-2.09s.03-1.57.1-2.1c.06-.53.16-1.01.3-1.46.53-1.63,1.7-2.45,3.52-2.45s3.03.82,3.56,2.45c.13.45.23.94.3,1.46.06.53.1,1.23.1,2.1s-.04,1.57-.1,2.09Z" style="fill:#424143;"/><path d="M115.3,167.06c.34,0,.51-.17.51-.51v-4.39c0-.34-.17-.51-.51-.51h-4.25c-.34,0-.51.17-.51.51v4.39c0,.34.17.51.51.51h4.25Z" style="fill:#424143;"/><path d="M121.88,167.06c.34,0,.51-.17.51-.51v-4.39c0-.34-.17-.51-.51-.51h-4.25c-.34,0-.5.17-.5.51v4.39c0,.34.17.51.5.51h4.25Z" style="fill:#424143;"/><path d="M173.64,157.35c1.61,0,2.89-.19,3.85-.56.95-.37,1.66-1.06,2.13-2.04.57,1.09,1.34,1.8,2.32,2.12.98.32,2.13.48,3.44.48,0,0,.02,0,.02,0,0,0,.02,0,.03,0h4.71c2.11,0,3.61-.51,4.51-1.54.9-1.03,1.35-2.64,1.35-4.83v-27.52c0-.34-.17-.51-.5-.51h-4.66c-.33,0-.5.17-.5.51v26.16c0,1.01-.19,1.71-.58,2.09-.39.39-1,.58-1.85.58h-2.48s-.02,0-.03,0c0,0-.02,0-.03,0h-.86c-1.28,0-2.3-.27-3.06-.81-.76-.54-1.14-1.31-1.14-2.32v-12.3c0-.34-.17-.5-.5-.5h-4.31c-.2,0-.39.03-.58.1-.18.07-.28.2-.28.4v10.49c0,.91-.02,1.67-.05,2.3-.03.62-.13,1.13-.28,1.51-.15.39-.39.67-.71.86-.32.19-.78.28-1.39.28h-3.29s-.08,0-.12,0c-.04,0-.08,0-.13,0h-7.36c-.32,0-.62-.03-.88-.1.61-.4,1.23-.91,1.87-1.51.64-.61,1.21-1.29,1.72-2.04.51-.76.92-1.58,1.24-2.47.32-.89.48-1.84.48-2.85,0-2.35-.89-4.25-2.68-5.7-1.79-1.45-4.62-2.17-8.5-2.17-1.42,0-2.8.12-4.15.35-1.35.24-2.55.53-3.59.88-1.05.35-1.89.75-2.53,1.19-.64.44-.96.84-.96,1.21v3.18c0,.27.03.51.08.73.05.22.26.46.63.73.67.47,1.34.95,2,1.44.66.49,1.27,1.04,1.85,1.66.57.62,1.09,1.34,1.54,2.15.45.81.82,1.76,1.09,2.87-.91.2-1.7.33-2.38.38-.68.05-1.28.07-1.82.07h-5.92s-.02,0-.03,0c0,0-.02,0-.02,0h-.86c-1.28,0-2.3-.27-3.06-.81-.76-.54-1.14-1.31-1.14-2.32v-25.71c0-.34-.17-.51-.5-.51h-4.66c-.33,0-.5.17-.5.51v26.16c0,1.01-.19,1.71-.58,2.09-.39.39-1,.58-1.85.58h-2.48s-.02,0-.03,0c0,0-.02,0-.02,0h-.86c-1.28,0-2.3-.27-3.06-.81-.76-.54-1.14-1.31-1.14-2.32v-12.3c0-.34-.17-.5-.5-.5h-4.31c-.2,0-.39.03-.58.1-.18.07-.28.2-.28.4v10.49c0,.91-.02,1.67-.05,2.3-.03.62-.13,1.13-.28,1.51-.15.39-.39.67-.71.86-.32.19-.78.28-1.39.28h-3.29s-.08,0-.13,0c-.04,0-.08,0-.13,0h-6.07c-.2,0-.38.02-.54.05h-.87c-.78,0-1.48-.29-2.1-.88-.62-.59-.97-1.59-1.04-3.01.03-.27.06-.55.08-.83.02-.29.03-.58.03-.89,0-2.06-.26-3.81-.78-5.26-.52-1.45-1.25-2.61-2.18-3.49-.93-.88-2.03-1.52-3.31-1.92-1.28-.41-2.67-.61-4.15-.61s-2.87.2-4.15.61c-1.28.41-2.39,1.05-3.31,1.92-.93.88-1.65,2.04-2.17,3.49-.52,1.45-.78,3.2-.78,5.26,0,.41,0,.78.03,1.14.02.35.04.7.08,1.04-.07.64-.28,1.16-.63,1.54-.35.39-.76.74-1.21,1.06-.45.32-.94.64-1.47.96-.52.32-1.01.72-1.47,1.19-.46.47-.83,1.06-1.11,1.77-.29.71-.43,1.6-.43,2.68v9.46h5.67v-8.4c0-.78.12-1.37.36-1.77.24-.41.54-.73.88-.99.34-.25.71-.49,1.09-.71.38-.22.71-.55.99-.99.87,1.05,1.96,1.8,3.26,2.28,1.3.47,2.77.71,4.42.71s3.21-.24,4.6-.71c1.38-.47,2.53-1.25,3.43-2.33.44.67.94,1.19,1.49,1.54.55.35,1.14.62,1.74.78.61.17,1.22.27,1.85.3.59.03,1.16.05,1.71.05.01,0,.02,0,.04,0h6.07s.09,0,.13,0c.04,0,.08,0,.12,0h4.71c1.61,0,2.89-.19,3.85-.56.95-.37,1.66-1.06,2.13-2.04.57,1.09,1.34,1.8,2.32,2.12.98.32,2.13.48,3.44.48,0,0,.01,0,.02,0,0,0,.02,0,.03,0h4.25c1.51,0,2.7-.19,3.59-.59.89-.39,1.56-1.06,2.03-2.02.57,1.09,1.34,1.8,2.32,2.12.98.32,2.12.48,3.44.48,0,0,.02,0,.03,0s.02,0,.03,0h7.29c.98,0,2.09-.11,3.34-.33,1.25-.22,2.43-.63,3.54-1.24.98.61,2.02,1.02,3.11,1.24,1.1.22,2.25.33,3.47.33h7.54s.08,0,.13,0c.04,0,.08,0,.13,0h4.71ZM90.62,151.25c-.77.96-1.96,1.44-3.57,1.44s-2.81-.47-3.6-1.42c-.79-.94-1.18-2.5-1.18-4.66,0-1.99.4-3.51,1.18-4.55.79-1.05,1.99-1.57,3.6-1.57,3.15,0,4.73,2.04,4.73,6.12,0,2.12-.39,3.67-1.16,4.63ZM159.47,146.16c-.27.64-.62,1.24-1.04,1.8-.42.55-.91,1.07-1.47,1.54-.56.47-1.11.88-1.65,1.21-.47-1.96-1.26-3.72-2.35-5.29-1.1-1.57-2.42-2.84-3.97-3.82.37-.2,1.05-.44,2.05-.71.99-.27,2.17-.4,3.52-.4,1.55,0,2.83.27,3.82.81.99.54,1.49,1.5,1.49,2.89,0,.67-.14,1.33-.4,1.97Z" style="fill:#424143;"/><path d="M172.12,131.29h4.25c.34,0,.51-.17.51-.51v-4.39c0-.34-.17-.51-.51-.51h-4.25c-.34,0-.51.17-.51.51v4.39c0,.34.17.51.51.51Z" style="fill:#424143;"/><path d="M178.69,131.29h4.25c.34,0,.51-.17.51-.51v-4.39c0-.34-.17-.51-.51-.51h-4.25c-.34,0-.51.17-.51.51v4.39c0,.34.17.51.51.51Z" style="fill:#424143;"/><path d="M203.13,157.35h4.66c.33,0,.5-.17.5-.51v-33.39c0-.34-.17-.51-.5-.51h-4.66c-.33,0-.5.17-.5.51v33.39c0,.34.17.51.5.51Z" style="fill:#424143;"/><path d="M238.53,167.57h11.52c1.82,0,3.36-.19,4.62-.58,1.26-.39,2.29-.9,3.08-1.54.79-.64,1.37-1.38,1.74-2.23.37-.84.55-1.74.55-2.68,0-.68-.11-1.31-.33-1.9-.22-.59-.41-1.02-.58-1.29h3.49s.09,0,.13-.01c.06,0,.1.01.16.01h14.09c1.56,0,2.98-.18,4.26-.53,1.28-.35,2.38-.95,3.3-1.8.91-.84,1.62-1.94,2.13-3.29.51-1.35.76-3.02.76-5.01s-.26-3.81-.79-5.26c-.52-1.45-1.25-2.61-2.18-3.49-.93-.88-2.04-1.52-3.32-1.92-1.28-.41-2.67-.61-4.16-.61-1.39,0-2.71.2-3.98.61-1.27.41-2.38,1.05-3.35,1.92-.96.88-1.73,2.04-2.28,3.49-.56,1.45-.84,3.2-.84,5.26,0,2.29.39,4.17,1.16,5.61h-4.55c-.17-.03-.35-.05-.55-.05h-5.05c-.97,0-1.91-.11-2.81-.33-.91-.22-1.83-.49-2.78-.81-.94-.32-1.91-.69-2.88-1.11-.98-.42-2.01-.84-3.09-1.24-.3-.1-.51.02-.61.35l-1.37,4c-.1.31,0,.51.3.61,1.72.64,3.21,1.2,4.48,1.65,1.27.46,2.31.9,3.14,1.32.83.42,1.43.86,1.82,1.32.39.46.58,1.01.58,1.65,0,.78-.37,1.42-1.11,1.93-.74.51-2.12.76-4.15.76h-9.87c-.98,0-1.94-.11-2.88-.33-.95-.22-1.79-.58-2.53-1.09-.74-.51-1.34-1.18-1.8-2.02-.46-.84-.68-1.91-.68-3.19s.24-2.6.73-3.85c.49-1.25,1.02-2.34,1.59-3.29.17-.27.12-.49-.15-.66l-4-2.08c-.3-.2-.54-.17-.71.1-.44.61-.85,1.31-1.24,2.1-.39.79-.73,1.64-1.04,2.53-.3.89-.55,1.82-.73,2.78s-.28,1.91-.28,2.86c0,3.47,1.07,6.22,3.21,8.25,2.14,2.02,5.4,3.04,9.78,3.04ZM273.46,142.04c.81-1.03,1.99-1.54,3.54-1.54,3.2,0,4.81,2.04,4.81,6.12,0,2.12-.39,3.62-1.16,4.48-.78.86-1.99,1.29-3.64,1.29s-2.82-.45-3.59-1.34c-.78-.89-1.16-2.46-1.16-4.68,0-1.86.4-3.3,1.21-4.33Z" style="fill:#424143;"/><path d="M244.37,171.06c-.34,0-.5.17-.5.51v4.39c0,.34.17.51.5.51h4.25c.34,0,.51-.17.51-.51v-4.39c0-.34-.17-.51-.51-.51h-4.25Z" style="fill:#424143;"/><path d="M237.79,171.06c-.34,0-.51.17-.51.51v4.39c0,.34.17.51.51.51h4.25c.34,0,.51-.17.51-.51v-4.39c0-.34-.17-.51-.51-.51h-4.25Z" style="fill:#424143;"/><path d="M274.57,131.29h4.86c.33,0,.5-.17.5-.51v-4.39c0-.34-.17-.51-.5-.51h-4.86c-.34,0-.51.17-.51.51v4.39c0,.34.17.51.51.51Z" style="fill:#424143;"/><path d="M313.38,158.31v-21.45c0-.34-.17-.51-.5-.51h-4.66c-.33,0-.5.17-.5.51v21.35c0,1.45-.31,2.53-.93,3.24-.62.71-1.65,1.06-3.06,1.06h-1.11c-.34,0-.51.17-.51.5v4.05c0,.34.17.51.51.51h1.87c5.94,0,8.91-3.09,8.91-9.26Z" style="fill:#424143;"/><path d="M325.67,157.35h4s.02,0,.03,0c0,0,.01,0,.02,0h14.87c1.58,0,2.89-.21,3.93-.64,1.04-.43,1.84-1.18,2.41-2.27.57,1.19,1.37,1.98,2.42,2.35,1.05.38,2.28.56,3.69.56.05,0,.09,0,.14-.01.05,0,.1.01.16.01h4.71c1.61,0,2.89-.19,3.85-.56.95-.37,1.66-1.06,2.13-2.04.57,1.09,1.34,1.8,2.32,2.12.98.32,2.13.48,3.44.48,0,0,.01,0,.02,0,.01,0,.02,0,.03,0h4.71c2.11,0,3.61-.51,4.52-1.54.9-1.03,1.35-2.64,1.35-4.83v-14.12c0-.34-.17-.51-.5-.51h-4.66c-.33,0-.5.17-.5.5v12.76c0,1.01-.19,1.71-.58,2.09-.39.39-1,.58-1.85.58h-2.48s-.01,0-.02,0c-.01,0-.02,0-.03,0h-.86c-1.28,0-2.3-.27-3.06-.81-.76-.54-1.14-1.31-1.14-2.32v-12.3c0-.34-.17-.5-.5-.5h-4.31c-.2,0-.39.03-.58.1-.18.07-.28.2-.28.4v10.49c0,.91-.02,1.67-.05,2.3-.03.62-.13,1.13-.28,1.51-.15.39-.39.67-.71.86-.32.19-.78.28-1.39.28h-3.29c-.05,0-.1,0-.15.01-.05,0-.1-.01-.15-.01h-.86c-1.25,0-2.25-.24-3.01-.73-.76-.49-1.14-1.19-1.14-2.1v-4.2c0-2.02-.3-3.63-.9-4.83-.6-1.2-1.43-2.11-2.48-2.73-1.05-.62-2.31-1.04-3.78-1.24-1.46-.2-3.06-.32-4.78-.35l8.33-9.77c.13-.27.07-.51-.2-.71l-3.27-2.73c-.24-.13-.46-.08-.66.15l-10.93,12.85c-.13.17-.3.36-.51.56-.2.2-.3.42-.3.66v3.53c0,.34.17.51.51.51h8.15c3.44,0,5.16,1.48,5.16,4.43v2.72c0,.77-.04,1.41-.13,1.91-.09.5-.27.91-.56,1.21-.29.3-.7.52-1.24.65s-1.27.2-2.17.2h-12.55s-.02,0-.03,0c0,0-.01,0-.02,0h-1.77c-.84,0-1.46-.19-1.85-.58-.39-.39-.58-1.09-.58-2.09v-26.16c0-.34-.17-.51-.5-.51h-4.66c-.33,0-.5.17-.5.51v27.52c0,2.19.45,3.8,1.35,4.83.9,1.03,2.41,1.54,4.52,1.54Z" style="fill:#424143;"/><path d="M367.11,131.29h4.25c.34,0,.51-.17.51-.51v-4.39c0-.34-.17-.51-.51-.51h-4.25c-.34,0-.51.17-.51.51v4.39c0,.34.17.51.51.51Z" style="fill:#424143;"/><path d="M360.53,131.29h4.25c.34,0,.51-.17.51-.51v-4.39c0-.34-.17-.51-.51-.51h-4.25c-.34,0-.51.17-.51.51v4.39c0,.34.17.51.51.51Z" style="fill:#424143;"/><path d="M378.29,161.55c-.34,0-.51.17-.51.51v4.39c0,.34.17.51.51.51h4.86c.33,0,.5-.17.5-.51v-4.39c0-.34-.17-.51-.5-.51h-4.86Z" style="fill:#424143;"/><path d="M390.02,157.35h22.21c2.11,0,3.61-.51,4.51-1.54.9-1.03,1.36-2.64,1.36-4.83v-27.52c0-.34-.17-.51-.5-.51h-4.66c-.33,0-.5.17-.5.51v26.16c0,1.01-.19,1.71-.59,2.09-.39.39-1.01.58-1.86.58h-5.3v-21.76c0-.34-.17-.51-.5-.51h-4.66c-.33,0-.5.17-.5.51v21.76h-9.01c-.34,0-.5.17-.5.51v4.04c0,.34.17.51.5.51Z" style="fill:#424143;"/><path d="M429.9,122.94h-4.66c-.33,0-.5.17-.5.51v33.39c0,.34.17.51.5.51h4.66c.33,0,.5-.17.5-.51v-33.39c0-.34-.17-.51-.5-.51Z" style="fill:#424143;"/><path d="M459.59,131.29h4.25c.34,0,.51-.17.51-.51v-4.39c0-.34-.17-.51-.51-.51h-4.25c-.34,0-.51.17-.51.51v4.39c0,.34.17.51.51.51Z" style="fill:#424143;"/><path d="M453.02,131.29h4.25c.34,0,.51-.17.51-.51v-4.39c0-.34-.17-.51-.51-.51h-4.25c-.34,0-.51.17-.51.51v4.39c0,.34.17.51.51.51Z" style="fill:#424143;"/><path d="M450.79,155.17c.91.88,2.01,1.52,3.29,1.92,1.28.41,2.7.61,4.25.61s2.92-.2,4.2-.61c1.28-.41,2.39-1.05,3.32-1.92.93-.88,1.64-2.01,2.15-3.39.51-1.38.76-3.07.76-5.06s-.26-3.81-.78-5.26c-.52-1.45-1.25-2.61-2.17-3.49-.93-.88-2.03-1.52-3.32-1.92-1.28-.41-2.66-.61-4.15-.61s-2.87.2-4.15.61c-1.28.41-2.39,1.05-3.31,1.92-.93.88-1.65,2.04-2.18,3.49-.52,1.45-.78,3.2-.78,5.26s.25,3.68.76,5.06c.51,1.38,1.21,2.51,2.13,3.39ZM454.73,142.06c.77-1.04,1.98-1.56,3.63-1.56,3.15,0,4.73,2.03,4.73,6.1,0,2.12-.39,3.65-1.16,4.61-.77.96-1.96,1.43-3.57,1.43s-2.81-.47-3.6-1.41c-.79-.94-1.18-2.49-1.18-4.64,0-1.98.39-3.49,1.16-4.53Z" style="fill:#424143;"/><path d="M471.89,167.57h1.87c1.69,0,3.1-.23,4.24-.68,1.14-.46,2.05-1.14,2.74-2.05.69-.91,1.18-2.05,1.48-3.42.3-1.37.45-2.97.45-4.79v-.96c.57.71,1.27,1.18,2.1,1.38.83.21,1.81.31,2.96.31,0,0,.02,0,.02,0,0,0,.02,0,.03,0h6.07s.07,0,.11,0c.05,0,.09,0,.14,0h4.71c2.11,0,3.61-.51,4.51-1.54.9-1.03,1.35-2.64,1.35-4.83v-14.12c0-.34-.17-.51-.5-.51h-4.66c-.33,0-.5.17-.5.5v12.76c0,1.01-.19,1.71-.58,2.09-.39.39-1,.58-1.85.58h-2.48s-.06.01-.09.01c-.05,0-.1-.01-.16-.01h-6.07s-.02,0-.03,0c0,0-.02,0-.02,0h-.86c-1.28,0-2.3-.27-3.06-.81-.76-.54-1.14-1.31-1.14-2.32v-12.3c0-.34-.17-.5-.5-.5h-4.66c-.33,0-.5.17-.5.51v18.06c0,1.21-.03,2.29-.08,3.21-.05.93-.2,1.72-.45,2.38-.25.66-.65,1.15-1.19,1.49-.54.34-1.3.51-2.28.51h-1.11c-.34,0-.51.17-.51.5v4.05c0,.34.17.51.51.51Z" style="fill:#424143;"/><path d="M477.45,131.29h4.86c.34,0,.51-.17.51-.51v-4.39c0-.34-.17-.51-.51-.51h-4.86c-.34,0-.51.17-.51.51v4.39c0,.34.17.51.51.51Z" style="fill:#424143;"/><path d="M496.07,131.54h11.13c.2,0,.3-.12.3-.35v-1.97c0-.24-.1-.35-.3-.35h-5.51c-.37-.2-.73-.51-1.06-.91-.34-.4-.51-.94-.51-1.62,0-.64.21-1.19.63-1.64.42-.46,1.04-.68,1.85-.68.57,0,1.08.1,1.52.3.44.2.83.47,1.16.81.17.17.3.2.4.1l1.52-1.42c.13-.1.15-.27.05-.51-.4-.57-1.03-1.05-1.87-1.44-.84-.39-1.77-.58-2.78-.58s-1.88.15-2.61.46c-.72.3-1.31.7-1.74,1.19-.44.49-.76,1.02-.96,1.59-.2.57-.3,1.13-.3,1.67,0,.57.08,1.08.23,1.52.15.44.35.83.58,1.16h-1.72c-.2,0-.3.12-.3.35v1.97c0,.24.1.35.3.35Z" style="fill:#424143;"/><path d="M542.57,166.96c.34,0,.51-.17.51-.51v-4.39c0-.34-.17-.51-.51-.51h-4.86c-.34,0-.51.17-.51.51v4.39c0,.34.17.51.51.51h4.86Z" style="fill:#424143;"/><path d="M550.64,143.31c-.39-1.53-1.04-2.88-1.95-4.05-.91-1.16-2.12-2.09-3.64-2.78-1.52-.69-3.41-1.04-5.67-1.04-2.09,0-3.86.39-5.31,1.16-1.45.77-2.7,1.75-3.74,2.93-.2.2-.17.44.1.71l2.63,2.73c.24.2.47.18.71-.05.71-.74,1.52-1.33,2.43-1.77.91-.44,1.92-.66,3.04-.66s2.1.18,2.86.55c.76.37,1.37.89,1.85,1.56.47.67.81,1.47,1.01,2.39.2.92.3,1.92.3,3,0,.81-.05,1.49-.15,2.04-.1.55-.3,1-.61,1.34-.3.33-.72.57-1.26.7-.54.13-1.25.2-2.13.2h-19.53s-.02,0-.03,0c0,0-.02,0-.03,0h-1.77c-.84,0-1.46-.19-1.85-.58-.39-.39-.58-1.09-.58-2.09v-26.16c0-.34-.17-.51-.5-.51h-4.66c-.33,0-.5.17-.5.51v27.52c0,2.19.45,3.8,1.35,4.83.9,1.03,2.41,1.54,4.52,1.54h4s.02,0,.03,0c0,0,.01,0,.02,0h21.7c1.31,0,2.47-.13,3.47-.41.99-.27,1.82-.75,2.48-1.44.66-.69,1.15-1.63,1.49-2.81.34-1.18.51-2.68.51-4.5,0-1.72-.19-3.35-.58-4.88Z" style="fill:#424143;"/><path d="M94.1,236.67v-4.39c0-.34-.17-.51-.51-.51h-4.25c-.34,0-.5.17-.5.51v4.39c0,.34.17.51.5.51h4.25c.34,0,.51-.17.51-.51Z" style="fill:#424143;"/><path d="M87.02,237.18c.34,0,.51-.17.51-.51v-4.39c0-.34-.17-.51-.51-.51h-4.25c-.34,0-.51.17-.51.51v4.39c0,.34.17.51.51.51h4.25Z" style="fill:#424143;"/><path d="M137.56,192h4.86c.34,0,.51-.17.51-.51v-4.39c0-.34-.17-.51-.51-.51h-4.86c-.34,0-.5.17-.5.51v4.39c0,.34.17.51.5.51Z" style="fill:#424143;"/><path d="M136.9,218.06c2.11,0,3.61-.51,4.51-1.54.9-1.03,1.35-2.64,1.35-4.83v-14.12c0-.34-.17-.51-.5-.51h-4.66c-.33,0-.5.17-.5.5v12.76c0,1.01-.19,1.71-.58,2.09-.39.39-1,.58-1.85.58h-2.48s-.06.01-.09.01c-.05,0-.1-.01-.16-.01h-24.28s-.01,0-.02,0c0,0-.01,0-.02,0h-5.05c-.97,0-1.91-.11-2.81-.33-.91-.22-1.83-.49-2.78-.81s-1.91-.69-2.88-1.11c-.98-.42-2.01-.84-3.09-1.24-.3-.1-.51.02-.61.35l-1.37,4c-.1.31,0,.51.3.61,1.72.64,3.21,1.2,4.48,1.65,1.27.46,2.31.9,3.14,1.32.83.42,1.43.86,1.82,1.32.39.46.58,1.01.58,1.65,0,.78-.37,1.42-1.11,1.93-.74.51-2.12.76-4.15.76h-9.87c-.98,0-1.94-.11-2.88-.33-.95-.22-1.79-.58-2.53-1.09-.74-.51-1.34-1.18-1.8-2.02-.46-.84-.68-1.91-.68-3.19s.24-2.6.73-3.85c.49-1.25,1.02-2.34,1.59-3.29.17-.27.12-.49-.15-.66l-4-2.08c-.3-.2-.54-.17-.71.1-.44.61-.85,1.31-1.24,2.1-.39.79-.73,1.64-1.04,2.53-.3.89-.55,1.82-.73,2.78-.18.96-.28,1.91-.28,2.86,0,3.47,1.07,6.22,3.21,8.25,2.14,2.02,5.4,3.04,9.78,3.04h11.52c1.82,0,3.36-.19,4.62-.58,1.26-.39,2.29-.9,3.08-1.54.79-.64,1.37-1.38,1.74-2.23.37-.84.55-1.74.55-2.68,0-.68-.11-1.31-.33-1.9-.22-.59-.41-1.02-.58-1.29h3.49s.01,0,.02,0c0,0,.01,0,.02,0h24.28s.07,0,.11,0c.05,0,.09,0,.14,0h4.71Z" style="fill:#424143;"/><path d="M166.23,226.1c1.6-1.45,2.4-3.76,2.4-6.93v-11.84c0-2.06-.26-3.79-.76-5.21-.51-1.42-1.22-2.56-2.13-3.44-.91-.88-2-1.52-3.27-1.92-1.27-.41-2.66-.61-4.18-.61-1.39,0-2.71.21-3.96.63-1.25.42-2.36,1.1-3.32,2.02-.96.93-1.72,2.13-2.28,3.59-.56,1.47-.84,3.23-.84,5.29,0,1.92.23,3.54.68,4.86.46,1.32,1.1,2.39,1.95,3.21.84.83,1.88,1.42,3.11,1.77,1.23.35,2.64.53,4.22.53h5.11c0,1.11-.11,2.01-.33,2.68-.22.68-.53,1.2-.93,1.57-.4.37-.9.62-1.47.73-.57.12-1.2.18-1.87.18h-5.92c-.34,0-.51.17-.51.5v4.05c0,.34.17.51.51.51h6.83c3.04,0,5.36-.72,6.96-2.17ZM158.46,213c-1.62,0-2.86-.39-3.72-1.16-.86-.77-1.29-2.22-1.29-4.33,0-1.91.42-3.44,1.26-4.59.84-1.14,2.04-1.71,3.59-1.71s2.8.51,3.54,1.54c.74,1.02,1.11,2.53,1.11,4.51v5.74h-4.5Z" style="fill:#424143;"/><path d="M209.81,192h4.25c.34,0,.51-.17.51-.51v-4.39c0-.34-.17-.51-.51-.51h-4.25c-.34,0-.51.17-.51.51v4.39c0,.34.17.51.51.51Z" style="fill:#424143;"/><path d="M216.39,192h4.25c.34,0,.51-.17.51-.51v-4.39c0-.34-.17-.51-.51-.51h-4.25c-.34,0-.51.17-.51.51v4.39c0,.34.17.51.51.51Z" style="fill:#424143;"/><path d="M267.13,184.16c0-.34-.17-.51-.5-.51h-4.66c-.33,0-.5.17-.5.51v26.16c0,1.01-.19,1.71-.58,2.09-.39.39-1,.58-1.85.58h-2.48s-.02,0-.03,0-.02,0-.03,0h-.86c-1.25,0-2.25-.24-3.01-.73-.76-.49-1.14-1.19-1.14-2.1v-4.2c0-2.02-.3-3.63-.9-4.83-.6-1.2-1.43-2.11-2.48-2.73-1.05-.62-2.31-1.04-3.78-1.24-1.46-.2-3.06-.32-4.78-.35l8.33-9.77c.13-.27.07-.51-.2-.71l-3.27-2.73c-.24-.13-.46-.08-.66.15l-10.93,12.85c-.13.17-.3.36-.51.56-.2.2-.3.42-.3.66v3.53c0,.34.17.51.51.51h8.15c3.44,0,5.16,1.48,5.16,4.43v2.72c0,.77-.04,1.41-.13,1.91-.09.5-.27.91-.56,1.21-.29.3-.7.52-1.24.65-.54.13-1.27.2-2.17.2h-18.62s-.02,0-.02,0c0,0-.02,0-.02,0h-.86c-1.28,0-2.3-.27-3.06-.81-.76-.54-1.14-1.31-1.14-2.32v-12.3c0-.34-.17-.5-.5-.5h-4.31c-.2,0-.39.03-.58.1-.18.07-.28.2-.28.4v10.49c0,.91-.02,1.67-.05,2.3-.03.62-.13,1.13-.28,1.51-.15.39-.39.67-.71.86-.32.18-.78.28-1.39.28h-3.29s-.08,0-.13,0c-.04,0-.08,0-.13,0h-18.21s-.02,0-.03,0c0,0-.02,0-.02,0h-.86c-1.28,0-2.3-.27-3.06-.81-.76-.54-1.14-1.31-1.14-2.32v-12.3c0-.34-.17-.5-.5-.5h-4.66c-.33,0-.5.17-.5.51v18.06c0,1.21-.03,2.29-.08,3.21-.05.93-.2,1.72-.45,2.38-.25.66-.65,1.15-1.19,1.49-.54.34-1.3.51-2.28.51h-1.11c-.34,0-.51.17-.51.5v4.05c0,.34.17.51.51.51h1.87c1.69,0,3.1-.23,4.24-.68,1.14-.46,2.05-1.14,2.74-2.05.69-.91,1.18-2.05,1.48-3.42.3-1.37.45-2.97.45-4.79v-.96c.57.71,1.27,1.18,2.1,1.38.83.21,1.81.31,2.96.31,0,0,.02,0,.02,0,0,0,.02,0,.03,0h18.21s.08,0,.13,0c.04,0,.08,0,.12,0h4.71c1.61,0,2.89-.19,3.85-.56.95-.37,1.66-1.06,2.13-2.04.57,1.09,1.34,1.8,2.32,2.12.98.32,2.13.48,3.44.48,0,0,.02,0,.02,0,0,0,.02,0,.02,0h20.95c1.58,0,2.89-.21,3.93-.64,1.04-.43,1.84-1.18,2.41-2.27.57,1.19,1.37,1.98,2.42,2.35,1.05.38,2.28.56,3.69.56,0,0,.02,0,.02,0,0,0,.02,0,.03,0h4.71c2.11,0,3.61-.51,4.51-1.54.9-1.03,1.35-2.64,1.35-4.83v-27.52Z" style="fill:#424143;"/><path d="M278.82,229.9v1.82c0,.24.1.35.3.35h10.73c.2,0,.3-.12.3-.35v-1.82c0-.24-.1-.35-.3-.35h-5.11c-.37-.27-.73-.65-1.09-1.14-.35-.49-.53-1.07-.53-1.74,0-.71.22-1.31.66-1.8s1.05-.73,1.82-.73c.91,0,1.72.39,2.43,1.16.07.07.13.1.2.1s.17-.07.3-.2l1.32-1.22c.13-.13.13-.3,0-.5-.44-.57-1.03-1.03-1.77-1.37-.74-.34-1.58-.51-2.53-.51s-1.8.15-2.48.46c-.68.3-1.23.7-1.67,1.19-.44.49-.75,1.03-.94,1.62-.18.59-.28,1.17-.28,1.75s.08,1.11.23,1.62c.15.51.35.94.58,1.32h-1.87c-.2,0-.3.12-.3.35Z" style="fill:#424143;"/><path d="M287.42,191.24c0-.34-.17-.51-.5-.51h-4.66c-.33,0-.5.17-.5.51v21.76h-9.01c-.34,0-.5.17-.5.51v4.04c0,.34.17.51.5.51h22.21c2.11,0,3.61-.51,4.52-1.54.9-1.03,1.36-2.64,1.36-4.83v-27.52c0-.34-.17-.51-.5-.51h-4.66c-.33,0-.5.17-.5.51v26.16c0,1.01-.19,1.71-.59,2.09-.39.39-1.01.58-1.86.58h-5.3v-21.76Z" style="fill:#424143;"/><path d="M307.96,183.66h4.66c.28,0,.51.23.51.51v33.4c0,.28-.23.5-.5.5h-4.66c-.28,0-.51-.23-.51-.51v-33.4c0-.28.23-.5.5-.5Z" style="fill:#424143;"/><path d="M352.54,227.26v-4.39c0-.34-.17-.51-.51-.51h-4.86c-.34,0-.51.17-.51.51v4.39c0,.34.17.51.51.51h4.86c.34,0,.51-.17.51-.51Z" style="fill:#424143;"/><path d="M397.36,218.06h11.59c2.11,0,3.61-.51,4.51-1.54.9-1.03,1.36-2.64,1.36-4.83v-14.12c0-.34-.17-.51-.5-.51h-4.66c-.33,0-.5.17-.5.5v12.76c0,1.01-.19,1.71-.58,2.09-.39.39-1,.58-1.85.58h-34.25c-1.25,0-2.24-.25-2.98-.76-.74-.5-1.15-1.24-1.21-2.22v-12.46c0-.34-.17-.5-.51-.5h-4.65c-.34,0-.51.17-.51.5v11.04c0,.81-.03,1.5-.08,2.07-.05.57-.16,1.03-.33,1.36-.17.34-.41.58-.73.73-.32.15-.77.23-1.34.23h-20.95c-.84,0-1.46-.19-1.85-.58-.39-.39-.58-1.09-.58-2.1v-9.56c0-.34-.17-.51-.51-.51h-4.66c-.34,0-.51.17-.51.51v10.88c0,2.21.46,3.83,1.37,4.87.91,1.04,2.43,1.56,4.55,1.56h24.74c1.58,0,2.84-.19,3.77-.59.93-.39,1.63-1.06,2.1-2.02.57,1.09,1.35,1.8,2.33,2.12.85.28,1.82.43,2.91.47.08,0,.15.02.23.02h24.29Z" style="fill:#424143;"/><path d="M416.69,227.26v-4.39c0-.34-.17-.51-.5-.51h-4.25c-.34,0-.51.17-.51.51v4.39c0,.34.17.51.51.51h4.25c.34,0,.5-.17.5-.51Z" style="fill:#424143;"/><path d="M409.61,222.36h-4.25c-.34,0-.5.17-.5.51v4.39c0,.34.17.51.5.51h4.25c.34,0,.51-.17.51-.51v-4.39c0-.34-.17-.51-.51-.51Z" style="fill:#424143;"/><path d="M419.02,228.28h1.87c5.94,0,8.91-3.09,8.91-9.26v-21.45c0-.34-.17-.51-.5-.51h-4.66c-.33,0-.5.17-.5.51v21.35c0,1.45-.31,2.53-.93,3.24-.62.71-1.65,1.06-3.06,1.06h-1.11c-.34,0-.51.17-.51.5v4.05c0,.34.17.51.51.51Z" style="fill:#424143;"/><path d="M494.5,186.59c-.34,0-.51.17-.51.51v4.39c0,.34.17.51.51.51h4.25c.34,0,.51-.17.51-.51v-4.39c0-.34-.17-.51-.51-.51h-4.25Z" style="fill:#424143;"/><path d="M487.92,186.59c-.34,0-.51.17-.51.51v4.39c0,.34.17.51.51.51h4.25c.34,0,.51-.17.51-.51v-4.39c0-.34-.17-.51-.51-.51h-4.25Z" style="fill:#424143;"/><path d="M501.18,218.06s.02,0,.02,0c0,0,.02,0,.03,0h4.71c2.11,0,3.61-.51,4.51-1.54.9-1.03,1.35-2.64,1.35-4.83v-27.52c0-.34-.17-.51-.5-.51h-4.66c-.33,0-.5.17-.5.51v26.16c0,1.01-.19,1.71-.58,2.09-.39.39-1,.58-1.85.58h-2.48s-.02,0-.03,0-.02,0-.03,0h-.86c-1.28,0-2.3-.27-3.06-.81-.76-.54-1.14-1.31-1.14-2.32v-12.3c0-.34-.17-.5-.5-.5h-4.31c-.2,0-.39.03-.58.1-.18.07-.28.2-.28.4v10.49c0,.91-.02,1.67-.05,2.3-.03.62-.13,1.13-.28,1.51-.15.39-.39.67-.71.86-.32.18-.78.28-1.39.28h-3.29s-.08,0-.13,0c-.04,0-.08,0-.13,0h-24.28s-.02,0-.03,0c0,0-.02,0-.02,0h-.86c-1.28,0-2.29-.27-3.04-.81-.74-.54-1.11-1.29-1.11-2.27v-4.74c0-3.2-.83-5.5-2.48-6.91-1.65-1.41-3.9-2.12-6.72-2.12h-7.69c-.34,0-.51.17-.51.51v4.05c0,.34.17.51.51.51h6.07c1.72,0,3.01.35,3.87,1.06.86.7,1.29,1.83,1.29,3.38v3.37c0,.74-.04,1.36-.13,1.87-.09.5-.27.92-.56,1.23-.29.32-.7.54-1.24.68-.54.13-1.27.2-2.17.2h-9.41c-.34,0-.51.17-.51.51v4.04c0,.34.17.51.51.51h11.33c1.72,0,3.12-.19,4.21-.59,1.09-.39,1.95-1.17,2.58-2.32.57,1.19,1.37,1.98,2.39,2.35,1.03.38,2.25.56,3.67.56,0,0,.02,0,.02,0s.02,0,.03,0h24.28s.08,0,.13,0c.04,0,.08,0,.12,0h4.71c1.61,0,2.89-.19,3.85-.56.95-.37,1.66-1.06,2.13-2.04.57,1.09,1.34,1.8,2.32,2.12.98.32,2.13.48,3.44.48Z" style="fill:#424143;"/><path d="M518.94,183.66h4.66c.28,0,.5.23.5.5v33.4c0,.28-.23.51-.51.51h-4.66c-.28,0-.5-.23-.5-.5v-33.4c0-.28.23-.51.51-.51Z" style="fill:#424143;"/><path d="M547.82,198.68c-.91-.88-2-1.52-3.27-1.92-1.27-.41-2.66-.61-4.18-.61-1.39,0-2.71.21-3.96.63-1.25.42-2.36,1.1-3.32,2.02-.96.93-1.72,2.13-2.28,3.59-.56,1.47-.84,3.23-.84,5.29,0,1.92.23,3.54.68,4.86.46,1.32,1.1,2.39,1.95,3.21.84.83,1.88,1.42,3.11,1.77,1.23.35,2.64.53,4.22.53h5.11c0,1.11-.11,2.01-.33,2.68-.22.68-.53,1.2-.93,1.57-.4.37-.9.62-1.47.73-.57.12-1.2.18-1.87.18h-5.92c-.34,0-.51.17-.51.5v4.05c0,.34.17.51.51.51h6.83c3.04,0,5.36-.72,6.96-2.17,1.6-1.45,2.4-3.76,2.4-6.93v-11.84c0-2.06-.26-3.79-.76-5.21-.51-1.42-1.22-2.56-2.13-3.44ZM545.05,213h-4.5c-1.62,0-2.86-.39-3.72-1.16-.86-.77-1.29-2.22-1.29-4.33,0-1.91.42-3.44,1.26-4.59.84-1.14,2.04-1.71,3.59-1.71s2.8.51,3.54,1.54c.74,1.02,1.11,2.53,1.11,4.51v5.74Z" style="fill:#424143;"/></svg>