<?xml version="1.0" encoding="UTF-8"?>
<svg id="Layer_1" data-name="Layer 1" xmlns="http://www.w3.org/2000/svg" viewBox="0 0 80 80">
  <defs>
    <style>
      .cls-1 {
        fill: #552f91;
      }
    </style>
  </defs>
  <path class="cls-1" d="M69.49,22.78c0-6.76-5.51-12.27-12.28-12.27h-17.21s-17.21,0-17.21,0c-6.77,0-12.28,5.51-12.28,12.28v34.43c0,6.77,5.51,12.28,12.28,12.28h34.43c6.77,0,12.28-5.51,12.28-12.28v-15.7h0v-18.74ZM22.79,13.54h15.7v9.52l2.28-1.32c.75-.44,1.6-.67,2.46-.67,2.73,0,4.94,2.21,4.94,4.93s-2.22,4.94-4.94,4.94c-.86,0-1.71-.23-2.46-.67l-2.28-1.32v9.51h-4.69c.12-.56.19-1.13.19-1.71,0-4.4-3.58-7.97-7.97-7.97s-7.97,3.58-7.97,7.97c0,.58.06,1.15.19,1.71h-4.69v-15.7c0-5.1,4.15-9.24,9.24-9.24ZM13.54,57.21v-15.7h9.52l-1.32-2.28c-.44-.75-.67-1.61-.67-2.47,0-2.72,2.22-4.94,4.94-4.94s4.94,2.22,4.94,4.94c0,.86-.23,1.72-.67,2.47l-1.32,2.28h9.52v4.69c-.56-.12-1.13-.19-1.71-.19-4.4,0-7.97,3.58-7.97,7.97s3.58,7.97,7.97,7.97c.58,0,1.15-.06,1.71-.19v4.69h-15.7c-5.1,0-9.24-4.15-9.24-9.24ZM66.46,57.21c0,5.1-4.15,9.24-9.24,9.24h-15.7v-9.52l-2.28,1.32c-.75.44-1.61.67-2.47.67-2.72,0-4.94-2.22-4.94-4.94s2.22-4.94,4.94-4.94c.86,0,1.71.23,2.47.67l2.28,1.32v-9.52h4.69c-.12.56-.19,1.14-.19,1.71,0,4.39,3.57,7.97,7.97,7.97s7.98-3.57,7.98-7.97c0-.58-.06-1.15-.19-1.71h4.68v15.7Z"/>
</svg>