<?xml version="1.0" encoding="UTF-8"?>
<svg id="Layer_1" data-name="Layer 1" xmlns="http://www.w3.org/2000/svg" viewBox="0 0 80 80">
  <defs>
    <style>
      .cls-1 {
        fill: #552f91;
      }
    </style>
  </defs>
  <polygon class="cls-1" points="69.74 15.84 69.74 26.84 10.26 26.84 10.26 15.84 19.41 15.84 19.41 10.49 22.45 10.49 22.45 15.84 57.55 15.84 57.55 10.49 60.59 10.49 60.59 15.84 69.74 15.84"/>
  <path class="cls-1" d="M10.26,29.88v34.8c0,2.66,2.16,4.82,4.82,4.82h49.84c2.66,0,4.82-2.16,4.82-4.82V29.88H10.26ZM24.17,55.04h-3.28v-3.03h3.28v3.03ZM24.17,42.51h-3.28v-3.03h3.28v3.03ZM35.82,55.04h-3.28v-3.03h3.28v3.03ZM35.82,42.51h-3.28v-3.03h3.28v3.03ZM47.46,55.04h-3.28v-3.03h3.28v3.03ZM47.46,42.51h-3.28v-3.03h3.28v3.03ZM59.11,55.04h-3.28v-3.03h3.28v3.03ZM59.11,42.51h-3.28v-3.03h3.28v3.03Z"/>
</svg>