<?xml version="1.0" encoding="UTF-8"?>
<svg id="Layer_1" data-name="Layer 1" xmlns="http://www.w3.org/2000/svg" viewBox="0 0 80 80">
  <defs>
    <style>
      .cls-1 {
        fill: none;
        stroke: #552f91;
        stroke-miterlimit: 10;
        stroke-width: 3.03px;
      }
    </style>
  </defs>
  <circle class="cls-1" cx="40" cy="40" r="7.11"/>
  <path class="cls-1" d="M58.02,40v-.02c0-1.35.72-2.59,1.88-3.27l4.3-2.48c.36-.21.49-.67.28-1.04l-6.35-10.99c-.21-.36-.67-.49-1.04-.28l-4.34,2.5c-1.16.67-2.58.65-3.74-.02-.01,0-.02-.01-.04-.02-1.16-.67-1.89-1.89-1.89-3.22v-5.01c0-.42-.34-.76-.76-.76h-12.69c-.42,0-.76.34-.76.76v5.01c0,1.34-.73,2.56-1.89,3.22-.01,0-.02.01-.04.02-1.16.67-2.58.69-3.74.02l-4.34-2.5c-.36-.21-.83-.09-1.04.28l-6.35,10.99c-.21.36-.09.83.28,1.04l4.34,2.51c1.16.67,1.85,1.91,1.84,3.24,0,0,0,.01,0,.02s0,.01,0,.02c0,1.33-.69,2.57-1.84,3.24l-4.34,2.51c-.36.21-.49.67-.28,1.04l6.35,10.99c.21.36.67.49,1.04.28l4.34-2.5c1.16-.67,2.58-.65,3.74.02.01,0,.02.01.04.02,1.16.67,1.89,1.89,1.89,3.22v5.01c0,.42.34.76.76.76h12.69c.42,0,.76-.34.76-.76v-5.01c0-1.34.73-2.56,1.89-3.22.01,0,.02-.01.04-.02,1.16-.67,2.58-.69,3.74-.02l4.34,2.5c.36.21.83.09,1.04-.28l6.35-10.99c.21-.36.09-.83-.28-1.04l-4.3-2.48c-1.17-.67-1.88-1.92-1.88-3.27v-.02Z"/>
</svg>