<?xml version="1.0" encoding="UTF-8"?>
<svg id="Layer_1" data-name="Layer 1" xmlns="http://www.w3.org/2000/svg" viewBox="0 0 80 80">
  <defs>
    <style>
      .cls-1 {
        fill: none;
        stroke: #552f91;
        stroke-miterlimit: 10;
        stroke-width: 3.03px;
      }
    </style>
  </defs>
  <g>
    <line class="cls-1" x1="31.44" y1="61.74" x2="31.44" y2="69.71"/>
    <path class="cls-1" d="M53.63,62.47c0-10.27,8.44-13.54,9.65-27.5,1.04-12.04-6.51-23.16-23.16-23.16-12.78,0-18.9,8.68-18.9,17.85v5.31l-4.3,8.59c-.79,1.58,0,3.48,1.67,4.04l2.62.87s.54,5.62,1.83,9.93c.63,2.09,2.73,3.37,4.88,3.01l9.43-1.6"/>
    <line class="cls-1" x1="53.63" y1="69.71" x2="53.63" y2="62.47"/>
  </g>
  <g>
    <path class="cls-1" d="M41.93,22.05c-5.71-.08-10.32,4.36-10.45,9.96-.07,2.89,1.13,4.98,2.72,7.13,1.4,1.89,2.43,2.08,3,4.91"/>
    <path class="cls-1" d="M41.93,22.05c5.71-.08,10.32,4.36,10.45,9.96.07,2.89-1.13,4.98-2.72,7.13-1.4,1.89-2.64,2.08-3.21,4.91"/>
    <polyline class="cls-1" points="46.44 44.05 46.41 44.05 37.36 44.05"/>
    <path class="cls-1" d="M37.2,44.05v2.15c0,.86.25,1.71.73,2.43l.26.4c.81,1.23,2.19,1.97,3.67,1.97h0c1.54,0,2.97-.81,3.77-2.13l.18-.3c.41-.68.63-1.47.63-2.27v-2.25"/>
  </g>
</svg>