<?xml version="1.0" encoding="UTF-8"?><svg id="Layer_1" xmlns="http://www.w3.org/2000/svg" viewBox="0 0 575.02 689.3"><path d="M349.01,286.39h0s-38.69,36.16-38.69,36.16l38.56,36.44.14.13h0s0,0,0,0l2.3,2.17c.06-.09.12-.17.17-.25.4-.58.78-1.16,1.16-1.76,8.74-13.67,13.82-29.95,13.82-47.41v-41.77l-17.44,16.3h0Z" style="fill:#fff;"/><path d="M209.5,286.39v8.98c0,17.93,6.77,34.28,17.89,46.64l20.81-19.44-38.7-36.17Z" style="fill:#fff;"/><polygon points="209.5 175.71 209.5 192.97 227.97 175.71 209.5 175.71" style="fill:#fff;"/><polygon points="209.5 118.92 209.5 136.3 228.1 136.3 209.5 118.92" style="fill:#fff;"/><path d="M349.01,231.57l17.44-16.3v-59.27h-17.44v-10.18h-19.48c-8.32,0-12.33-10.18-6.26-15.86l19.77-18.74c-.91-2.03-1.91-4.03-2.99-5.95-.42-.74-.86-1.49-1.3-2.21-.17-.28-.34-.57-.53-.84-.18-.28-.35-.56-.54-.84-.36-.55-.72-1.08-1.08-1.61-.01-.02-.02-.03-.04-.05-.24-.35-.5-.7-.74-1.05-.31-.44-.63-.87-.97-1.3-.33-.43-.66-.86-1-1.28-.34-.43-.68-.85-1.03-1.26-.04-.04-.07-.08-.11-.13-.31-.38-.62-.75-.95-1.11-.06-.06-.11-.13-.18-.19.05.06.11.13.17.2l-26.89,25.4c-.91.85-1.92,1.47-2.96,1.88-5.64,2.2-12.44-1.82-12.44-8.58v-25.05h9.51v24.25h0s0,0,0,0l26.05-24.63c.08.06.15.12.21.18-.07-.07-.14-.13-.21-.19-.08-.07-.16-.13-.24-.2,0,0-.01-.01-.02-.02-.51-.44-1.03-.88-1.55-1.3-2.6-2.12-5.35-4.06-8.25-5.77-.3-.19-.61-.36-.91-.54-.9-.52-1.81-1.02-2.73-1.49-.15-.08-.29-.16-.44-.22-.73-.38-1.47-.74-2.22-1.08-.56-.26-1.12-.52-1.69-.76-.32-.14-.65-.27-.97-.41-.21-.09-.43-.19-.64-.26-.63-.25-1.26-.5-1.9-.73-.41-.16-.81-.3-1.22-.44-.55-.2-1.1-.38-1.66-.56-.21-.07-.42-.14-.64-.21-.59-.18-1.16-.35-1.75-.52-.07-.02-.15-.04-.22-.06-.84-.23-1.69-.45-2.54-.65-.46-.11-.93-.21-1.4-.31-.39-.09-.78-.17-1.18-.24-1.57-.31-3.18-.58-4.8-.77-.31-.05-.63-.08-.95-.12-.51-.06-1.04-.11-1.55-.16-.5-.05-1.01-.09-1.51-.12-.96-.07-1.93-.12-2.89-.14-.64-.02-1.27-.03-1.91-.03h-69.76v36.13l25.75,24.07c6.08,5.68,2.06,15.86-6.25,15.86h-19.49v20.38h19.36c8.31,0,12.33,10.17,6.25,15.86l-25.61,23.93v25.59l50.06,46.78v-77.99l-29.7,27.77-6.49-6.95,30.28-28.32c5.86-5.47,15.42-1.32,15.42,6.69v79.59c0,8.02-9.56,12.16-15.42,6.69l-44.15-41.26v28.77l45.47,42.49c3.87,3.62,3.87,9.77,0,13.4l-20.74,19.39c12.15,10.28,27.87,16.48,45.02,16.48h0s.01,0,.01,0v34.48c26.51,0,50.26-11.91,66.26-30.71l-4-3.77-37.98-35.87c-3.88-3.63-3.88-9.77,0-13.4l45.46-42.49,17.44-16.31v-28.76l-17.44,16.3h0s0,0,0,0l-44.15,41.26c-.73.68-1.52,1.22-2.34,1.61-5.75,2.76-13.07-1.29-13.07-8.31v-79.59c0-4.01,2.39-7.04,5.51-8.4.18-.08.36-.15.55-.22.01,0,.03-.01.04-.02,3.01-1.07,6.56-.62,9.31,1.94l30.29,28.32-6.49,6.95-29.7-27.77h0s0,0,0,0v77.98h0s0,0,0,0l50.05-46.78ZM349.01,175.71h-18.46,0s0,0,0,0l18.46,17.26h0s0,0,0,0v13.02l-25.6-23.93c-5.51-5.15-2.73-13.99,4.03-15.6.7-.17,1.44-.26,2.22-.26h19.35s0,0,0,0v9.51ZM269.06,112.32c0,8.01-9.56,12.17-15.42,6.69l-30.28-28.31,6.49-6.95,29.7,27.76v-24.26h9.51v25.06Z" style="fill:#fff;"/><path d="M348.81,136.31h.1c0-.11-.01-.27-.02-.44l.02-.1c-.02-.41-.05-.82-.08-1.23,0-.07,0-.13,0-.2,0-.05,0-.1-.01-.14,0-.11-.02-.22-.03-.32-.01-.11-.02-.21-.03-.32-.06-.78-.14-1.56-.23-2.34-.06-.49-.13-.99-.2-1.47.01,0,.01-.02,0-.02-.08-.62-.18-1.23-.28-1.84-.02-.11-.03-.21-.05-.31-.13-.71-.25-1.42-.4-2.12-.16-.76-.32-1.51-.5-2.26-.19-.75-.37-1.5-.58-2.23l-16.11,15.32h18.41Z" style="fill:#fff;"/><path d="M200.61,465.39c-3.98,0-8.74,2.62-14.21,7.76v-19.58c0-.51-.22-.78-.71-.78h-2.55c-.49,0-.83.27-.83.78v35.48h-26.86c-1.6,0-2.71-.33-3.26-.89-.33-.34-.44-.78-.44-1.4v-19.52c0-.51-.27-.78-.77-.78h-2.54c-.5,0-.77.27-.77.78v18.74c0,2.06-.89,3.07-2.88,3.07h-26.66v-14.39c0-2.57-.88-4.74-2.71-6.53-1.83-1.84-3.93-2.74-6.47-2.74s-4.75.9-6.52,2.74c-1.83,1.79-2.66,3.96-2.66,6.53v20.92h-17.3c-4.31,0-7.91-3.63-7.91-7.97,0-3.41,2.1-6.14,4.49-7.37l1.15-.62c.28-.17.39-.33.39-.62,0-.11-.06-.21-.11-.39l-1.16-2.34c-.12-.22-.33-.39-.66-.39-.11,0-.22,0-.33.05l-1.16.62c-3.54,1.85-6.63,5.91-6.63,11.05,0,3.34,1.16,6.19,3.49,8.53,2.37,2.34,5.14,3.52,8.34,3.52h19.41c1.1,0,2.04-.89,2.04-2.01v-22.98c0-2.84,2.32-5.19,5.14-5.19s5.14,2.35,5.14,5.19v16.41c0,1.11.94,2.06,2.04,2.06h28.54c2.16,0,3.87-.62,5.14-1.9.06-.06.17-.22.17-.28,0,.06.06.06.11.12,1.33,1.34,3.38,2.06,6.09,2.06h46.37c5.86,0,9.4-3.57,9.4-9.49v-5.35c0-7.47-4.14-12.89-11.33-12.89ZM207.91,483.63c0,3.74-1.66,5.41-5.36,5.41h-16.14v-10.38c1.99-2.51,4.37-4.68,7.19-6.47,2.81-1.79,5.14-2.74,7.02-2.74,2.87,0,4.97,1.23,6.2,3.63.71,1.45,1.1,3.23,1.1,5.19v5.35Z" style="fill:#fff;"/><path d="M84.35,504.95c-.5,0-.72.28-.72.78v3.29c0,.5.22.72.72.72h2.76c.5,0,.72-.22.72-.72v-3.29c0-.5-.22-.78-.72-.78h-2.76Z" style="fill:#fff;"/><path d="M91.75,504.95c-.49,0-.77.28-.77.78v3.29c0,.5.28.72.77.72h2.71c.5,0,.72-.22.72-.72v-3.29c0-.5-.22-.78-.72-.78h-2.71Z" style="fill:#fff;"/><path d="M148.32,459.87h2.71c.5,0,.77-.22.77-.72v-3.29c0-.5-.28-.78-.77-.78h-2.71c-.5,0-.72.28-.72.78v3.29c0,.5.22.72.72.72Z" style="fill:#fff;"/><path d="M280.95,452.84h-2.6c-.5,0-.72.28-.72.78v32.42c0,2-.88,2.96-2.92,3.01h-31.34v-11.88c0-3.23-1.15-6.03-3.42-8.32-2.27-2.29-5.03-3.46-8.24-3.46s-6.03,1.17-8.3,3.46c-2.27,2.29-3.43,5.08-3.43,8.32v4.18c0,3.23,1.16,6.03,3.43,8.32,2.27,2.29,5.08,3.46,8.3,3.46h7.56v.66c0,3.68-3.15,6.87-6.79,6.87h-5.76c-.44,0-.71.22-.71.72v2.62c0,.51.27.73.71.73h5.76c2.93,0,5.47-1.07,7.62-3.23,2.16-2.18,3.26-4.75,3.26-7.71v-.66h31.28c4.25,0,7.02-2.74,7.02-7.08v-32.42c0-.5-.22-.78-.71-.78ZM239.28,489.05h-7.56c-4.15,0-7.63-3.51-7.63-7.7v-4.18c0-4.18,3.48-7.7,7.63-7.7s7.56,3.52,7.56,7.7v11.88Z" style="fill:#fff;"/><path d="M291.28,493.12h2.65c.44,0,.66-.22.66-.73v-38.83c0-.5-.22-.73-.66-.73h-2.65c-.5,0-.72.22-.72.73v38.83c0,.5.22.73.72.73Z" style="fill:#fff;"/><path d="M311.73,504.73h2.76c5.86,0,9.45-3.57,9.45-9.48v-2.12h59.69c4.31,0,7.02-2.73,7.02-7.09v-5.3c0-3.63-1.11-6.64-3.43-9.04-2.32-2.4-5.25-3.57-8.79-3.57h-10.34c.61-6.02,3.82-9.09,9.56-9.09h4.59c.5,0,.72-.22.72-.73v-2.62c0-.5-.22-.72-.72-.72h-4.59c-8.9,0-13.71,6.08-13.71,15.23,0,1.12.94,2.01,2.04,2.01h12.44c4.92,0,8.18,3.51,8.18,8.54v5.3c0,2.07-1,3.01-3.04,3.01h-59.63v-21.76c0-.5-.28-.78-.77-.78h-2.6c-.5,0-.72.28-.72.78v27.95c0,3.74-1.66,5.41-5.36,5.41h-2.76c-.5,0-.72.22-.72.73v2.62c0,.5.22.73.72.73Z" style="fill:#fff;"/><path d="M320.57,459.87h2.71c.5,0,.78-.22.78-.72v-3.29c0-.5-.28-.78-.78-.78h-2.71c-.5,0-.72.28-.72.78v3.29c0,.5.22.72.72.72Z" style="fill:#fff;"/><path d="M491.61,452.84h-2.6c-.5,0-.72.28-.72.78v32.42c0,2-.88,2.96-2.92,3.01h-22.35c-1.83,0-3.16-.72-3.54-2.23.88-1.73,1.32-3.52,1.32-5.47v-4.18c0-3.23-1.16-6.08-3.43-8.37-2.26-2.29-5.02-3.46-8.23-3.46s-5.97,1.17-8.24,3.46c-2.27,2.3-3.43,5.14-3.43,8.37v11.88h-31.19v-21.76c0-.5-.28-.78-.77-.78h-2.55c-.5,0-.77.28-.77.78v27.95c0,3.74-1.66,5.41-5.36,5.41h-2.77c-.5,0-.71.22-.71.72v2.62c0,.51.22.73.71.73h2.77c5.86,0,9.46-3.58,9.46-9.49v-2.12h42.86c3.04,0,5.75-1.06,8.01-3.23,1.38,2.06,3.76,3.23,6.63,3.23h21.52c4.25,0,7.02-2.74,7.02-7.08v-32.42c0-.5-.22-.78-.71-.78ZM456.76,481.35c0,4.24-3.43,7.7-7.62,7.7h-7.63v-11.88c0-4.18,3.43-7.7,7.63-7.7s7.62,3.46,7.62,7.7v4.18Z" style="fill:#fff;"/><path d="M504.59,452.84h-2.65c-.5,0-.72.22-.72.73v38.83c0,.5.22.73.72.73h2.65c.44,0,.66-.22.66-.73v-38.83c0-.5-.22-.73-.66-.73Z" style="fill:#fff;"/><path d="M87.48,573.84c.51,0,.73-.22.73-.73v-3.3c0-.5-.23-.78-.73-.78h-2.81c-.51,0-.73.28-.73.78v3.3c0,.5.23.73.73.73h2.81Z" style="fill:#fff;"/><path d="M95.69,573.12v-3.3c0-.5-.22-.78-.73-.78h-2.76c-.51,0-.79.28-.79.78v3.3c0,.5.28.73.79.73h2.76c.51,0,.73-.22.73-.73Z" style="fill:#fff;"/><path d="M139.74,531.19c0-.5-.28-.78-.79-.78h-2.59c-.51,0-.79.28-.79.78v18.86c0,2.07-.9,2.97-2.92,3.02h-13.64v-14.44c0-2.57-.9-4.76-2.76-6.55-1.85-1.85-3.99-2.74-6.58-2.74s-4.83.9-6.63,2.74c-1.86,1.79-2.7,3.97-2.7,6.55v20.99h-17.59c-4.38,0-8.04-3.64-8.04-8,0-3.42,2.14-6.16,4.55-7.39l1.18-.62c.28-.17.39-.34.39-.62,0-.11-.06-.22-.11-.39l-1.18-2.35c-.11-.22-.34-.39-.68-.39-.11,0-.22,0-.34.05l-1.18.62c-3.6,1.85-6.75,5.93-6.75,11.08,0,3.36,1.18,6.21,3.54,8.56,2.42,2.35,5.23,3.52,8.49,3.52h19.73c1.12,0,2.08-.9,2.08-2.02v-23.06c0-2.85,2.36-5.2,5.23-5.2s5.23,2.35,5.23,5.2v16.46c0,1.12.95,2.07,2.08,2.07h15.55c4.33,0,7.19-2.74,7.19-7.11v-18.86Z" style="fill:#fff;"/><path d="M136.25,523.8h2.76c.51,0,.79-.22.79-.73v-3.3c0-.5-.28-.78-.79-.78h-2.76c-.51,0-.73.28-.73.78v3.3c0,.5.22.73.73.73Z" style="fill:#fff;"/><path d="M167.1,532.82c-2.3-2.3-5.11-3.48-8.37-3.48s-6.07,1.18-8.37,3.48c-2.31,2.29-3.48,5.09-3.48,8.33v4.2c0,3.24,1.17,6.04,3.48,8.33,2.31,2.3,5.12,3.47,8.37,3.47h7.71v.67c0,3.69-3.21,6.89-6.92,6.89h-5.84c-.51,0-.73.22-.73.72v2.63c0,.51.22.73.73.73h5.84c2.98,0,5.62-1.07,7.82-3.24,2.19-2.19,3.25-4.76,3.25-7.73v-16.68c0-3.24-1.18-6.05-3.49-8.33ZM166.44,553.08h-7.71c-4.21,0-7.75-3.53-7.75-7.72v-4.2c0-4.25,3.54-7.72,7.75-7.72s7.71,3.52,7.71,7.72v11.92Z" style="fill:#fff;"/><path d="M201.83,518.99c-.51,0-.79.28-.79.78v3.3c0,.5.28.73.79.73h2.81c.51,0,.73-.22.73-.73v-3.3c0-.5-.23-.78-.73-.78h-2.81Z" style="fill:#fff;"/><path d="M209.3,518.99c-.51,0-.73.28-.73.78v3.3c0,.5.23.73.73.73h2.75c.51,0,.79-.22.79-.73v-3.3c0-.5-.28-.78-.79-.78h-2.75Z" style="fill:#fff;"/><path d="M247.07,554.98l.11.11c1.35,1.34,3.37,2.07,6.13,2.07h7.07c4.33,0,7.14-2.74,7.14-7.11v-32.52c0-.5-.23-.78-.73-.78h-2.64c-.51,0-.73.28-.73.78v32.52c0,2.02-.9,2.97-2.98,3.02h-7.8c-1.69,0-2.76-.34-3.32-.9-.34-.28-.51-.73-.51-1.4v-6.04c0-3.64-1.18-6.66-3.54-9.07-2.36-2.41-5.34-3.58-8.94-3.58h-10.45c.62-6.04,3.88-9.07,9.72-9.07h4.67c.5,0,.73-.28.73-.78v-2.63c0-.45-.23-.73-.73-.73h-4.67c-8.99,0-13.94,6.04-13.94,15.23,0,1.12.9,2.07,2.08,2.07h12.59c5.06,0,8.37,3.52,8.37,8.56v5.26c0,2.13-1.01,3.08-3.09,3.08h-28.77c-1.63,0-2.75-.34-3.32-.9-.34-.34-.51-.78-.51-1.4v-19.59c0-.5-.22-.78-.73-.78h-2.64c-.45,0-.73.28-.73.78v18.81c0,2.02-.9,3.08-2.92,3.08h-15.56v-21.83c0-.5-.28-.78-.79-.78h-2.59c-.51,0-.79.28-.79.78v28.05c0,3.75-1.69,5.43-5.45,5.43h-2.81c-.51,0-.73.22-.73.73v2.63c0,.5.23.73.73.73h2.81c5.96,0,9.61-3.58,9.61-9.51v-2.13h15.45c2.19,0,3.88-.62,5.17-1.9l.23-.28c0,.05.05.05.05.11,1.35,1.34,3.48,2.07,6.24,2.07h28.1c2.36,0,4.16-.78,5.4-2.18Z" style="fill:#fff;"/><path d="M301.57,517.53c0-.5-.23-.78-.73-.78h-2.64c-.51,0-.73.28-.73.78v30.12c0,3.75-1.69,5.43-5.45,5.43h-16.64c-.51,0-.73.22-.73.73v2.57c0,.5.23.78.73.78h16.64c5.96,0,9.55-3.53,9.55-9.51v-30.12Z" style="fill:#fff;"/><path d="M290.05,571.05c.34,0,.56-.22.56-.56v-1.17c0-.34-.23-.5-.56-.5h-5.73v-3.3c0-1.06.9-1.96,1.97-1.96.9,0,1.52.45,1.85,1.23l.17.5c.11.22.23.34.45.34.06,0,.17,0,.28-.05l1.07-.45c.23-.11.39-.22.39-.45,0-.06,0-.17-.06-.22l-.28-.56c-.73-1.68-2.02-2.58-3.88-2.58-2.3,0-4.22,1.9-4.22,4.2v3.3h-1.57c-.34,0-.51.17-.51.5v1.17c0,.34.17.56.51.56h9.55Z" style="fill:#fff;"/><path d="M283.25,522.01v25.69c0,.5.23.73.73.73h2.64c.51,0,.73-.22.73-.73v-25.69c0-.5-.22-.78-.73-.78h-2.64c-.51,0-.73.28-.73.78Z" style="fill:#fff;"/><path d="M314.04,516.75h-2.7c-.51,0-.73.22-.73.73v38.96c0,.5.23.73.73.73h2.7c.45,0,.67-.22.67-.73v-38.96c0-.5-.22-.73-.67-.73Z" style="fill:#fff;"/><path d="M383.04,562.48h-2.81c-.51,0-.73.28-.73.78v3.25c0,.5.23.78.73.78h2.81c.5,0,.73-.28.73-.78v-3.25c0-.5-.23-.78-.73-.78Z" style="fill:#fff;"/><path d="M387.76,562.48h2.76c.43,0,.79.35.79.79v3.24c0,.43-.35.78-.78.78h-2.76c-.43,0-.79-.35-.79-.79v-3.24c0-.43.35-.78.78-.78Z" style="fill:#fff;"/><path d="M467.89,518.99c-.51,0-.73.28-.73.78v3.3c0,.5.23.73.73.73h2.75c.51,0,.79-.22.79-.73v-3.3c0-.5-.28-.78-.79-.78h-2.75Z" style="fill:#fff;"/><path d="M460.41,518.99c-.5,0-.79.28-.79.78v3.3c0,.5.28.73.79.73h2.81c.51,0,.73-.22.73-.73v-3.3c0-.5-.23-.78-.73-.78h-2.81Z" style="fill:#fff;"/><path d="M504.52,516.75h-2.64c-.51,0-.73.28-.73.78v32.53c0,2.01-.9,2.97-2.98,3.02h-7.75c-1.63,0-2.77-.33-3.32-.89-.34-.28-.51-.73-.51-1.41v-33.25c0-.5-.22-.78-.73-.78h-2.64c-.51,0-.73.28-.73.78v32.47c0,2.07-.95,3.08-2.98,3.08h-8.08c-1.63,0-2.76-.33-3.31-.89-.34-.34-.51-.79-.51-1.41v-19.59c0-.5-.22-.78-.73-.78h-2.64c-.45,0-.73.28-.73.78v18.81c0,2.01-.9,3.08-2.92,3.08h-19.72l5.51-11.7c.11-.28.17-.56.17-.84v-.22c-.28-2.97-1.63-5.54-4.1-7.72-2.47-2.19-5.34-3.3-8.49-3.3s-5.95,1.17-8.48,3.53c-2.36,2.12-3.71,4.58-4.1,7.39v.27c0,.28.05.62.17.9l5.51,11.7h-14.22c-1.63,0-2.76-.33-3.32-.89-.33-.28-.5-.73-.5-1.41v-33.25c0-.5-.22-.78-.73-.78h-2.64c-.51,0-.73.28-.73.78v32.47c0,2.07-.96,3.08-2.98,3.08h-8.09c-1.62,0-2.76-.33-3.31-.89-.34-.34-.45-.79-.45-1.41v-19.59c0-.5-.28-.78-.79-.78h-2.58c-.51,0-.79.28-.79.78v18.81c0,2.07-.9,3.08-2.92,3.08h-11.29c-1.8,0-3.25-.78-3.65-2.24.9-1.73,1.35-3.53,1.35-5.48v-4.26c0-3.24-1.18-6.04-3.48-8.33-2.31-2.3-5.06-3.47-8.32-3.47s-6.07,1.17-8.37,3.47c-2.31,2.3-3.49,5.09-3.49,8.33v11.93h-2.02c-4.33,0-7.92,3.58-7.92,7.89v7.55c0,.51.22.73.73.73h2.64c.51,0,.79-.22.79-.73v-7.55c0-2.07,1.68-3.75,3.76-3.75h13.88c3.09,0,5.85-1.06,8.15-3.24,1.41,2.07,3.77,3.24,6.75,3.24h10.39c2.19,0,3.93-.62,5.23-1.9.05-.06.17-.22.17-.28,0,.06.06.06.11.12,1.36,1.34,3.43,2.06,6.18,2.06h7.3c2.2,0,3.94-.62,5.17-1.9.06-.06.18-.17.22-.28,1.41,1.4,3.38,2.18,6.24,2.18h46.97c2.2,0,3.88-.62,5.18-1.9l.23-.28c0,.06.05.06.05.12,1.36,1.34,3.49,2.06,6.24,2.06h7.3c2.19,0,3.93-.62,5.17-1.9.06-.06.17-.17.22-.28,1.41,1.4,3.37,2.18,6.23,2.18h7.03c4.33,0,7.14-2.74,7.14-7.1v-32.53c0-.5-.22-.78-.73-.78ZM365.35,545.36c0,4.25-3.49,7.67-7.76,7.67h-7.76v-11.93c0-4.19,3.55-7.66,7.76-7.66s7.76,3.47,7.76,7.66v4.26ZM431.59,553.08l-6.02-12.87c.4-1.74,1.41-3.3,2.92-4.65,1.69-1.4,3.49-2.12,5.45-2.12s3.88.66,5.51,2.01c1.69,1.28,2.64,2.85,2.92,4.7l-6.01,12.93h-4.78Z" style="fill:#fff;"/><path d="M85.77,585.32l.02,15.61c0,.6,0,6.3.08,7.09h-.26c-.22-.56-2.74-5.43-3-5.95l-8.73-16.73h-4.13s.04,26.44.04,26.44h2.8s-.02-15.84-.02-15.84c0-.94-.05-6.45-.12-7.01h.29c.22.64,2.7,5.46,2.96,5.99l8.81,16.84h4.06s-.04-26.44-.04-26.44h-2.77Z" style="fill:#fff;"/><path d="M110.13,609.49c-1.41,0-1.96-1.24-1.96-3.09v-9.27c-.02-4.3-2.57-6.22-6.85-6.21-4.17,0-6.05,2.38-6.74,3.36l2.1,1.7c.6-.99,1.88-2.49,4.57-2.5,2.66,0,4.24.98,4.25,4.34v2.22c-7.12-.1-11.47,2.13-11.46,6.65,0,2.79,2.07,5.46,5.8,5.46,3.39,0,5.01-1.63,5.97-2.77h.15c.48,1.4,1.66,2.49,3.65,2.49.37,0,.77-.08,1.04-.23v-2.15h-.52ZM105.51,606.93c-.92,1.4-2.73,2.79-5.01,2.8-2.33,0-3.61-1.47-3.61-3.27-.01-3.1,3.79-4.31,8.63-4.12v4.59Z" style="fill:#fff;"/><path d="M121.64,609.33c-1.77,0-2.92-.94-2.92-3.24l-.02-12.52h5.53s0-2.39,0-2.39h-5.53s0-5.38,0-5.38h-1.96s-.88,5.32-.88,5.32l-2.99.57v1.89s2.99,0,2.99,0l.02,12.67c0,3.88,1.82,5.65,5.14,5.65,2.4,0,3.73-.5,4.5-.95l-.82-2.34c-.52.34-1.44.72-3.06.72Z" style="fill:#fff;"/><rect x="130.26" y="591.17" width="2.88" height="20.51" transform="translate(-.9 .2) rotate(-.09)" style="fill:#fff;"/><path d="M131.48,583.03c-1.14,0-2.06.91-2.06,2.15,0,1.21.93,2.11,2.07,2.11,1.22,0,2.14-.91,2.14-2.12,0-1.24-.93-2.15-2.14-2.15Z" style="fill:#fff;"/><path d="M147.29,590.77c-6.09,0-8.4,4.35-8.39,10.69,0,6.29,2.12,10.55,8.21,10.54,6.09,0,8.44-4.43,8.43-10.76,0-6.26-2.12-10.48-8.25-10.47ZM147.32,609.44c-3.84,0-5.46-2.71-5.47-8.21-.01-5.32,1.43-7.92,5.23-7.92,3.87,0,5.5,2.67,5.51,8.17,0,5.35-1.4,7.96-5.27,7.96Z" style="fill:#fff;"/><path d="M169.2,590.7c-3.14,0-5.16,1.85-5.71,2.57h-.15s-.59-2.15-.59-2.15h-2.18s.03,20.52.03,20.52h2.88s-.02-14.67-.02-14.67c.7-2,2.61-3.66,5.09-3.66,2.8,0,4.32,1.73,4.32,4.86l.02,13.46h2.88s-.02-14.14-.02-14.14c-.12-4.56-2.52-6.78-6.54-6.78Z" style="fill:#fff;"/><path d="M196.76,609.37c-1.41,0-1.96-1.24-1.96-3.09v-9.28c-.02-4.3-2.57-6.21-6.85-6.21-4.16,0-6.04,2.38-6.74,3.37l2.1,1.69c.6-.98,1.89-2.49,4.57-2.49,2.66,0,4.25.98,4.25,4.33v2.23c-7.11-.11-11.47,2.13-11.46,6.65,0,2.78,2.07,5.46,5.8,5.45,3.39,0,5.01-1.62,5.97-2.76h.15c.48,1.39,1.66,2.48,3.65,2.48.37,0,.78-.08,1.04-.22v-2.15h-.52ZM192.14,606.81c-.92,1.4-2.72,2.79-5.01,2.79-2.32,0-3.62-1.47-3.62-3.27,0-3.09,3.79-4.3,8.63-4.12v4.6Z" style="fill:#fff;"/><path d="M207.05,609.31c-1.51,0-2.1-.79-2.11-2.6l-.04-23.76h-2.84s.04,24.55.04,24.55c0,2.68,1.34,4.34,4.1,4.33.78,0,1.77-.12,2.51-.46v-2.49c-.37.19-.93.42-1.66.42Z" style="fill:#fff;"/><path d="M237.87,598.71c0-4.87-2.55-8.03-7.31-8.02-4.47,0-8.52,3.07-8.51,10.49.01,7.66,3.12,10.63,8.83,10.62,2.88,0,4.98-.84,6.3-1.86l-1.29-2.26c-.85.75-2.66,1.54-4.65,1.54-4.02,0-6.09-1.91-6.35-6.96l12.76-.02c.15-1.33.22-2.53.21-3.55ZM235,599.84l-10.07.02c.25-4.94,2.77-6.64,5.38-6.64,3.24,0,4.72,1.94,4.73,5.45,0,.23,0,.76-.04,1.17Z" style="fill:#fff;"/><polygon points="246.53 608.84 246.49 585.08 243.54 585.08 243.58 611.52 257.64 611.5 257.63 608.82 246.53 608.84" style="fill:#fff;"/><path d="M276.03,598.65c-.01-4.87-2.56-8.03-7.32-8.02-4.47,0-8.52,3.07-8.5,10.49.01,7.66,3.11,10.63,8.83,10.62,2.87,0,4.97-.84,6.3-1.86l-1.29-2.26c-.85.75-2.66,1.54-4.65,1.55-4.03,0-6.09-1.92-6.36-6.97l12.77-.02c.15-1.32.22-2.53.22-3.55ZM273.16,599.78l-10.07.02c.25-4.94,2.76-6.64,5.37-6.64,3.24,0,4.73,1.95,4.73,5.45,0,.23,0,.76-.03,1.17Z" style="fill:#fff;"/><path d="M296.3,609.21c-1.41,0-1.96-1.24-1.96-3.09v-9.27c-.02-4.31-2.57-6.22-6.85-6.21-4.16,0-6.05,2.38-6.74,3.36l2.1,1.7c.6-.99,1.88-2.49,4.57-2.5,2.66,0,4.24.98,4.25,4.33v2.23c-7.11-.1-11.47,2.13-11.46,6.65,0,2.79,2.07,5.46,5.8,5.46,3.39,0,5.01-1.63,5.97-2.77h.15c.48,1.4,1.66,2.49,3.65,2.48.37,0,.77-.07,1.04-.22v-2.15h-.52ZM291.68,606.65c-.92,1.4-2.73,2.79-5.01,2.8-2.33,0-3.61-1.47-3.61-3.27-.01-3.1,3.79-4.31,8.63-4.12v4.59Z" style="fill:#fff;"/><path d="M309.41,590.56c-2.32,0-4.17,1.14-5.05,2.61h-.15s-.63-2.26-.63-2.26h-2.18s.03,20.52.03,20.52h2.84s-.02-15.28-.02-15.28c.96-1.85,2.98-2.64,4.94-2.65.74,0,1.51.07,2.25.3v-3.05c-.45-.11-1.11-.19-2.03-.19Z" style="fill:#fff;"/><path d="M323.35,590.47c-3.14,0-5.16,1.85-5.71,2.57h-.15s-.59-2.15-.59-2.15h-2.18s.03,20.52.03,20.52h2.88s-.02-14.67-.02-14.67c.7-2,2.61-3.66,5.09-3.66,2.8,0,4.32,1.73,4.32,4.86l.02,13.46h2.88s-.02-14.14-.02-14.14c-.12-4.56-2.52-6.78-6.54-6.78Z" style="fill:#fff;"/><rect x="336.88" y="590.86" width="2.88" height="20.51" transform="translate(-.9 .51) rotate(-.09)" style="fill:#fff;"/><path d="M338.1,582.71c-1.14,0-2.06.91-2.06,2.15,0,1.21.93,2.11,2.07,2.11,1.22,0,2.14-.91,2.14-2.12,0-1.24-.93-2.15-2.14-2.15Z" style="fill:#fff;"/><path d="M355.2,590.42c-3.14,0-5.16,1.85-5.71,2.57h-.15s-.59-2.15-.59-2.15h-2.18s.03,20.52.03,20.52h2.88s-.02-14.67-.02-14.67c.7-2,2.61-3.66,5.09-3.66,2.8,0,4.32,1.73,4.32,4.86l.02,13.46h2.88s-.02-14.14-.02-14.14c-.12-4.56-2.52-6.78-6.54-6.78Z" style="fill:#fff;"/><path d="M382.17,591.66c-1.22-.61-3.18-1.06-5.73-1.06-6.63,0-9.77,4.44-9.76,10.99.01,6.98,3.52,9.61,7.65,9.6,2.59,0,4.28-1.06,4.91-1.63h.15v1.89c.01,3.66-1.47,5.47-5.11,5.48-2.7,0-4.28-.9-5.29-1.92l-1.65,2.34c.81.83,2.8,2.19,6.61,2.18,5.02,0,8.26-2.69,8.26-8.08l-.03-19.8ZM375.11,608.63c-2.83,0-5.5-1.53-5.5-7.42-.01-5.43,2.57-8.03,6.44-8.04,1.29,0,2.43.22,3.28.56l.02,12.9c-.96,1.28-2.65,2-4.24,2Z" style="fill:#fff;"/><path d="M408.39,587.17c2.69,0,4.21.82,5.32,1.76l1.84-2.3c-.85-.75-2.92-2.18-6.87-2.18-6.9.01-10.58,5.14-10.57,13.82.01,8.15,3.08,13.38,10.2,13.37,3.69,0,5.94-1.1,7.08-2.24l-1.63-2.15c-.92.91-2.43,1.62-5.05,1.63-4.94,0-7.57-3.72-7.58-10.89-.01-7.47,2.75-10.83,7.25-10.83Z" style="fill:#fff;"/><path d="M434.68,598.4c0-4.87-2.56-8.03-7.32-8.02-4.47,0-8.52,3.07-8.5,10.49.01,7.66,3.11,10.63,8.83,10.62,2.87,0,4.97-.83,6.3-1.86l-1.3-2.26c-.84.75-2.65,1.54-4.64,1.55-4.03,0-6.09-1.92-6.36-6.97l12.77-.02c.15-1.32.21-2.53.21-3.55ZM431.81,599.54l-10.07.02c.24-4.94,2.76-6.64,5.37-6.64,3.24,0,4.73,1.95,4.73,5.45,0,.23,0,.76-.03,1.17Z" style="fill:#fff;"/><path d="M448.58,590.28c-3.13,0-5.16,1.85-5.71,2.57h-.15s-.59-2.15-.59-2.15h-2.18s.03,20.52.03,20.52h2.88s-.02-14.67-.02-14.67c.7-2,2.61-3.66,5.09-3.66,2.8,0,4.32,1.73,4.32,4.86l.02,13.46h2.88s-.02-14.14-.02-14.14c-.12-4.56-2.52-6.78-6.54-6.78Z" style="fill:#fff;"/><path d="M467.53,608.8c-1.77,0-2.92-.94-2.92-3.24l-.02-12.52h5.53s0-2.39,0-2.39h-5.53s0-5.38,0-5.38h-1.96s-.88,5.32-.88,5.32l-2.99.57v1.89s2.99,0,2.99,0l.02,12.67c0,3.88,1.82,5.65,5.14,5.65,2.4,0,3.73-.5,4.5-.95l-.82-2.34c-.52.34-1.44.72-3.06.72Z" style="fill:#fff;"/><path d="M489.95,598.32c0-4.87-2.55-8.02-7.31-8.02-4.47,0-8.52,3.07-8.51,10.5.01,7.65,3.12,10.62,8.83,10.62,2.88,0,4.98-.84,6.31-1.87l-1.3-2.26c-.85.76-2.66,1.55-4.65,1.55-4.02,0-6.09-1.92-6.35-6.97l12.76-.02c.15-1.32.22-2.52.21-3.55ZM487.07,599.45l-10.07.02c.25-4.93,2.77-6.63,5.38-6.64,3.24,0,4.72,1.95,4.73,5.46,0,.22,0,.75-.04,1.16Z" style="fill:#fff;"/><path d="M503.22,590.27c-2.33,0-4.17,1.14-5.05,2.61h-.15s-.63-2.26-.63-2.26h-2.18s.03,20.52.03,20.52h2.84s-.02-15.28-.02-15.28c.96-1.85,2.98-2.64,4.94-2.65.74,0,1.51.07,2.25.3v-3.05c-.45-.11-1.11-.19-2.03-.19Z" style="fill:#fff;"/></svg>