<?xml version="1.0" encoding="UTF-8"?><svg id="Layer_1" xmlns="http://www.w3.org/2000/svg" viewBox="0 0 575.02 689.3"><path d="M366.45,156v155.86c0,17.47-5.07,33.74-13.82,47.41-.38.59-.76,1.17-1.15,1.76-.06.09-.11.16-.17.25-1.3,1.92-2.67,3.79-4.11,5.59-.48.61-.98,1.2-1.48,1.79-.06.08-.13.16-.19.23-16,18.8-39.75,30.71-66.26,30.71v-243.6h87.19Z" style="fill:#9c50bc;"/><path d="M349.01,139.52v222.68c0,1.62-1.31,2.93-2.93,2.93h-66.83c-17.16,0-32.88-6.2-45.03-16.49-2.43-2.05-4.72-4.27-6.84-6.63-11.12-12.36-17.89-28.71-17.89-46.64V69.76h69.75c17.03,0,32.64,6.11,44.75,16.25,2.44,2.04,4.74,4.24,6.87,6.59,4.67,5.14,8.59,10.98,11.57,17.33,1.45,3.08,2.68,6.29,3.66,9.6,1.4,4.71,2.32,9.62,2.7,14.68.13,1.75.2,3.52.2,5.3Z" style="fill:#27b67b;"/><path d="M279.26,156.01h69.75v201.56c0,4.17-3.38,7.55-7.55,7.55h-62.2v-209.11h0Z" style="fill:#552f91;"/><path d="M349.01,139.52v16.49h-69.76v-86.25c17.51,0,33.52,6.45,45.77,17.11,2.39,2.09,4.65,4.33,6.74,6.72,4.59,5.24,8.41,11.18,11.27,17.63,1.4,3.14,2.57,6.4,3.49,9.77,1.62,5.9,2.49,12.11,2.49,18.53Z" style="fill:#01c2f3;"/><path d="M254.97,329.25l-20.74,19.39c-2.43-2.05-4.72-4.27-6.84-6.63l20.81-19.45-38.7-36.17v-13.02l45.47,42.5c3.87,3.62,3.87,9.77,0,13.39Z" style="fill:#fff;"/><path d="M235.11,182.06l-25.61,23.93v-13.02l18.46-17.26h-18.46v-9.51h19.35c8.31,0,12.33,10.18,6.26,15.86Z" style="fill:#fff;"/><path d="M269.07,199.57v79.59c0,8.02-9.56,12.17-15.42,6.69l-44.14-41.26v-13.02l50.05,46.78v-77.98l-29.7,27.76-6.5-6.95,30.29-28.31c5.86-5.47,15.42-1.32,15.42,6.69Z" style="fill:#fff;"/><path d="M259.56,87.25v24.26l-29.7-27.76-6.5,6.95,30.29,28.31c5.86,5.47,15.42,1.32,15.42-6.69v-25.06h-9.51Z" style="fill:#fff;"/><path d="M228.99,145.82h-19.49v-9.51h18.6l-18.6-17.39v-13.02l25.75,24.06c6.07,5.68,2.06,15.86-6.26,15.86Z" style="fill:#fff;"/><path d="M349.01,175.71h-18.46l18.46,17.26v13.02l-25.61-23.93c-6.07-5.68-2.06-15.86,6.26-15.86h19.35v9.51Z" style="fill:#fff;"/><path d="M331.76,93.59l-26.89,25.41c-5.86,5.48-15.42,1.32-15.42-6.69v-25.06h9.51v24.25l26.07-24.64c2.39,2.09,4.65,4.33,6.74,6.72Z" style="fill:#fff;"/><path d="M349.01,141.61v4.21h-19.49c-8.32,0-12.33-10.18-6.26-15.86l19.77-18.73c1.4,3.14,2.57,6.4,3.49,9.77l-16.11,15.32h18.41c.13,1.75.2,3.52.2,5.3Z" style="fill:#fff;"/><path d="M366.45,270.08l-56.14,52.47,40.99,38.73c-1.3,1.92-2.67,3.79-4.11,5.59-.48.61-.98,1.2-1.48,1.79-.06.08-.13.16-.19.23l-41.98-39.64c-3.87-3.63-3.87-9.77,0-13.39l62.91-58.81v13.03Z" style="fill:#fff;"/><path d="M366.45,215.27v13.02l-61.58,57.57c-5.86,5.47-15.42,1.32-15.42-6.69v-79.6c0-8.02,9.56-12.16,15.42-6.69l30.29,28.31-6.49,6.95-29.71-27.76v77.98l67.49-63.09Z" style="fill:#fff;"/><path d="M82.36,499.65h19.4c1.1,0,2.04-.89,2.04-2.01v-22.99c0-2.84,2.32-5.19,5.14-5.19s5.14,2.34,5.14,5.19v16.4c0,1.12.94,2.06,2.04,2.06h28.54c2.16,0,3.87-.61,5.14-1.9.05-.05.16-.22.16-.28,0,.05.06.05.11.11,1.33,1.34,3.37,2.06,6.08,2.06h46.38c5.86,0,9.4-3.57,9.4-9.48v-5.36c0-7.48-4.15-12.89-11.33-12.89-3.98,0-8.73,2.62-14.2,7.75v-19.58c0-.5-.22-.78-.72-.78h-2.54c-.5,0-.83.28-.83.78v35.48h-26.86c-1.6,0-2.71-.34-3.26-.89-.33-.34-.44-.78-.44-1.39v-19.53c0-.5-.28-.78-.77-.78h-2.54c-.5,0-.77.28-.77.78v18.75c0,2.06-.88,3.07-2.88,3.07h-26.66v-14.4c0-2.57-.88-4.74-2.71-6.53-1.83-1.84-3.92-2.73-6.47-2.73s-4.75.89-6.52,2.73c-1.83,1.79-2.65,3.96-2.65,6.53v20.92h-17.3c-4.31,0-7.91-3.63-7.91-7.98,0-3.4,2.1-6.14,4.48-7.37l1.16-.61c.28-.17.39-.34.39-.61,0-.11-.05-.22-.11-.39l-1.16-2.34c-.11-.22-.33-.39-.66-.39-.11,0-.22,0-.33.05l-1.16.61c-3.54,1.84-6.63,5.91-6.63,11.05,0,3.35,1.16,6.19,3.48,8.54,2.38,2.34,5.14,3.51,8.35,3.51ZM186.4,478.67c1.99-2.51,4.37-4.69,7.19-6.47,2.82-1.79,5.14-2.73,7.02-2.73,2.88,0,4.98,1.23,6.19,3.63.72,1.45,1.11,3.23,1.11,5.19v5.36c0,3.74-1.66,5.41-5.36,5.41h-16.14v-10.38Z" style="fill:#414042;"/><path d="M84.35,504.95c-.5,0-.72.28-.72.78v3.29c0,.5.22.72.72.72h2.76c.5,0,.72-.22.72-.72v-3.29c0-.5-.22-.78-.72-.78h-2.76Z" style="fill:#414042;"/><path d="M91.75,504.95c-.49,0-.77.28-.77.78v3.29c0,.5.28.72.77.72h2.71c.5,0,.72-.22.72-.72v-3.29c0-.5-.22-.78-.72-.78h-2.71Z" style="fill:#414042;"/><path d="M148.32,459.87h2.71c.5,0,.77-.22.77-.72v-3.29c0-.5-.28-.78-.77-.78h-2.71c-.5,0-.72.28-.72.78v3.29c0,.5.22.72.72.72Z" style="fill:#414042;"/><path d="M281.67,453.62c0-.5-.22-.78-.72-.78h-2.6c-.5,0-.72.28-.72.78v32.42c0,2.01-.88,2.96-2.93,3.01h-31.33v-11.88c0-3.24-1.16-6.02-3.43-8.31-2.27-2.29-5.03-3.46-8.24-3.46s-6.03,1.17-8.29,3.46c-2.27,2.29-3.43,5.07-3.43,8.31v4.19c0,3.23,1.16,6.02,3.43,8.31,2.27,2.29,5.08,3.46,8.29,3.46h7.57v.67c0,3.68-3.15,6.86-6.8,6.86h-5.75c-.44,0-.72.22-.72.73v2.62c0,.5.28.73.72.73h5.75c2.93,0,5.47-1.06,7.63-3.23,2.16-2.18,3.26-4.74,3.26-7.7v-.67h31.27c4.26,0,7.02-2.73,7.02-7.09v-32.42ZM239.29,489.05h-7.57c-4.15,0-7.63-3.51-7.63-7.7v-4.19c0-4.19,3.48-7.7,7.63-7.7s7.57,3.51,7.57,7.7v11.88Z" style="fill:#414042;"/><path d="M291.28,493.12h2.65c.44,0,.66-.22.66-.73v-38.83c0-.5-.22-.73-.66-.73h-2.65c-.5,0-.72.22-.72.73v38.83c0,.5.22.73.72.73Z" style="fill:#414042;"/><path d="M311.73,504.73h2.76c5.86,0,9.45-3.57,9.45-9.48v-2.12h59.69c4.31,0,7.02-2.73,7.02-7.09v-5.3c0-3.63-1.11-6.64-3.43-9.04-2.32-2.4-5.25-3.57-8.79-3.57h-10.34c.61-6.02,3.82-9.09,9.56-9.09h4.59c.5,0,.72-.22.72-.73v-2.62c0-.5-.22-.72-.72-.72h-4.59c-8.9,0-13.71,6.08-13.71,15.23,0,1.12.94,2.01,2.04,2.01h12.44c4.92,0,8.18,3.51,8.18,8.54v5.3c0,2.07-1,3.01-3.04,3.01h-59.63v-21.76c0-.5-.28-.78-.77-.78h-2.6c-.5,0-.72.28-.72.78v27.95c0,3.74-1.66,5.41-5.36,5.41h-2.76c-.5,0-.72.22-.72.73v2.62c0,.5.22.73.72.73Z" style="fill:#414042;"/><path d="M320.57,459.87h2.71c.5,0,.78-.22.78-.72v-3.29c0-.5-.28-.78-.78-.78h-2.71c-.5,0-.72.28-.72.78v3.29c0,.5.22.72.72.72Z" style="fill:#414042;"/><path d="M394.07,504.73h2.76c5.86,0,9.45-3.57,9.45-9.48v-2.12h42.85c3.04,0,5.75-1.06,8.02-3.23,1.38,2.06,3.76,3.23,6.63,3.23h21.52c4.26,0,7.02-2.73,7.02-7.09v-32.42c0-.5-.22-.78-.72-.78h-2.6c-.5,0-.72.28-.72.78v32.42c0,2.01-.88,2.96-2.93,3.01h-22.35c-1.83,0-3.15-.73-3.54-2.23.88-1.73,1.33-3.52,1.33-5.47v-4.19c0-3.24-1.16-6.08-3.43-8.37-2.27-2.29-5.03-3.46-8.24-3.46s-5.97,1.17-8.24,3.46c-2.27,2.29-3.43,5.13-3.43,8.37v11.88h-31.19v-21.76c0-.5-.28-.78-.77-.78h-2.55c-.5,0-.77.28-.77.78v27.95c0,3.74-1.66,5.41-5.36,5.41h-2.76c-.5,0-.72.22-.72.73v2.62c0,.5.22.73.72.73ZM441.51,477.17c0-4.19,3.43-7.7,7.63-7.7s7.63,3.46,7.63,7.7v4.19c0,4.24-3.43,7.7-7.63,7.7h-7.63v-11.88Z" style="fill:#414042;"/><path d="M504.6,452.84h-2.65c-.5,0-.72.22-.72.73v38.83c0,.5.22.73.72.73h2.65c.44,0,.66-.22.66-.73v-38.83c0-.5-.22-.73-.66-.73Z" style="fill:#414042;"/><path d="M87.48,573.85c.51,0,.73-.22.73-.73v-3.3c0-.5-.23-.78-.73-.78h-2.81c-.51,0-.73.28-.73.78v3.3c0,.5.23.73.73.73h2.81Z" style="fill:#414042;"/><path d="M95.69,573.12v-3.3c0-.5-.22-.78-.73-.78h-2.76c-.51,0-.79.28-.79.78v3.3c0,.5.28.73.79.73h2.76c.51,0,.73-.22.73-.73Z" style="fill:#414042;"/><path d="M139.74,531.19c0-.5-.28-.78-.79-.78h-2.59c-.51,0-.79.28-.79.78v18.86c0,2.07-.9,2.97-2.92,3.02h-13.64v-14.44c0-2.57-.9-4.76-2.76-6.55-1.85-1.85-3.99-2.74-6.58-2.74s-4.83.9-6.63,2.74c-1.86,1.79-2.7,3.97-2.7,6.55v20.99h-17.59c-4.38,0-8.04-3.64-8.04-8,0-3.42,2.14-6.16,4.55-7.39l1.18-.62c.28-.17.39-.34.39-.62,0-.11-.06-.22-.11-.39l-1.18-2.35c-.11-.22-.34-.39-.68-.39-.11,0-.22,0-.34.05l-1.18.62c-3.6,1.85-6.75,5.93-6.75,11.08,0,3.36,1.18,6.21,3.54,8.56,2.42,2.35,5.23,3.52,8.49,3.52h19.73c1.12,0,2.08-.9,2.08-2.02v-23.06c0-2.85,2.36-5.2,5.23-5.2s5.23,2.35,5.23,5.2v16.46c0,1.12.95,2.07,2.08,2.07h15.55c4.33,0,7.19-2.74,7.19-7.11v-18.86Z" style="fill:#414042;"/><path d="M136.26,523.8h2.76c.51,0,.79-.22.79-.73v-3.3c0-.5-.28-.78-.79-.78h-2.76c-.51,0-.73.28-.73.78v3.3c0,.5.22.73.73.73Z" style="fill:#414042;"/><path d="M170.59,557.84v-16.68c0-3.25-1.18-6.04-3.49-8.34-2.3-2.3-5.11-3.47-8.37-3.47s-6.07,1.17-8.37,3.47c-2.3,2.3-3.48,5.09-3.48,8.34v4.2c0,3.25,1.18,6.04,3.48,8.34,2.3,2.3,5.12,3.47,8.37,3.47h7.7v.67c0,3.69-3.2,6.89-6.91,6.89h-5.85c-.51,0-.73.22-.73.73v2.63c0,.5.23.73.73.73h5.85c2.98,0,5.62-1.06,7.81-3.25,2.19-2.18,3.26-4.76,3.26-7.73ZM166.43,553.08h-7.7c-4.21,0-7.76-3.52-7.76-7.72v-4.2c0-4.25,3.54-7.72,7.76-7.72s7.7,3.52,7.7,7.72v11.92Z" style="fill:#414042;"/><path d="M201.83,518.99c-.51,0-.79.28-.79.78v3.3c0,.5.28.73.79.73h2.81c.51,0,.73-.22.73-.73v-3.3c0-.5-.23-.78-.73-.78h-2.81Z" style="fill:#414042;"/><path d="M209.31,518.99c-.51,0-.73.28-.73.78v3.3c0,.5.23.73.73.73h2.75c.51,0,.79-.22.79-.73v-3.3c0-.5-.28-.78-.79-.78h-2.75Z" style="fill:#414042;"/><path d="M247.07,554.98l.11.11c1.35,1.34,3.37,2.07,6.13,2.07h7.07c4.33,0,7.14-2.74,7.14-7.11v-32.52c0-.5-.23-.78-.73-.78h-2.64c-.51,0-.73.28-.73.78v32.52c0,2.02-.9,2.97-2.98,3.02h-7.8c-1.69,0-2.76-.34-3.32-.9-.34-.28-.51-.73-.51-1.4v-6.04c0-3.64-1.18-6.66-3.54-9.07-2.36-2.41-5.34-3.58-8.94-3.58h-10.45c.62-6.04,3.88-9.07,9.72-9.07h4.67c.5,0,.73-.28.73-.78v-2.63c0-.45-.23-.73-.73-.73h-4.67c-8.99,0-13.94,6.04-13.94,15.23,0,1.12.9,2.07,2.08,2.07h12.59c5.06,0,8.37,3.52,8.37,8.56v5.26c0,2.13-1.01,3.08-3.09,3.08h-28.77c-1.63,0-2.75-.34-3.32-.9-.34-.34-.51-.78-.51-1.4v-19.59c0-.5-.22-.78-.73-.78h-2.64c-.45,0-.73.28-.73.78v18.81c0,2.02-.9,3.08-2.92,3.08h-15.56v-21.83c0-.5-.28-.78-.79-.78h-2.59c-.51,0-.79.28-.79.78v28.05c0,3.75-1.69,5.43-5.45,5.43h-2.81c-.51,0-.73.22-.73.73v2.63c0,.5.23.73.73.73h2.81c5.96,0,9.61-3.58,9.61-9.51v-2.13h15.45c2.19,0,3.88-.62,5.17-1.9l.23-.28c0,.05.05.05.05.11,1.35,1.34,3.48,2.07,6.24,2.07h28.1c2.36,0,4.16-.78,5.4-2.18Z" style="fill:#414042;"/><path d="M301.57,517.53c0-.5-.23-.78-.73-.78h-2.64c-.51,0-.73.28-.73.78v30.12c0,3.75-1.69,5.43-5.45,5.43h-16.64c-.51,0-.73.22-.73.73v2.57c0,.5.23.78.73.78h16.64c5.96,0,9.55-3.53,9.55-9.51v-30.12Z" style="fill:#414042;"/><path d="M290.05,571.05c.34,0,.56-.22.56-.56v-1.17c0-.34-.23-.5-.56-.5h-5.73v-3.3c0-1.06.9-1.96,1.97-1.96.9,0,1.52.45,1.85,1.23l.17.5c.11.22.23.34.45.34.06,0,.17,0,.28-.05l1.07-.45c.23-.11.39-.22.39-.45,0-.06,0-.17-.06-.22l-.28-.56c-.73-1.68-2.02-2.58-3.88-2.58-2.3,0-4.22,1.9-4.22,4.2v3.3h-1.57c-.34,0-.51.17-.51.5v1.17c0,.34.17.56.51.56h9.55Z" style="fill:#414042;"/><path d="M283.25,522.01v25.69c0,.5.23.73.73.73h2.64c.51,0,.73-.22.73-.73v-25.69c0-.5-.22-.78-.73-.78h-2.64c-.51,0-.73.28-.73.78Z" style="fill:#414042;"/><path d="M314.04,516.75h-2.7c-.51,0-.73.22-.73.73v38.96c0,.5.23.73.73.73h2.7c.45,0,.67-.22.67-.73v-38.96c0-.5-.22-.73-.67-.73Z" style="fill:#414042;"/><path d="M383.04,562.48h-2.81c-.51,0-.73.28-.73.78v3.25c0,.5.23.78.73.78h2.81c.5,0,.73-.28.73-.78v-3.25c0-.5-.23-.78-.73-.78Z" style="fill:#414042;"/><path d="M387.76,562.48h2.76c.43,0,.78.35.78.78v3.25c0,.43-.35.78-.78.78h-2.76c-.43,0-.79-.35-.79-.79v-3.24c0-.43.35-.78.78-.78Z" style="fill:#414042;"/><path d="M467.89,518.99c-.51,0-.73.28-.73.78v3.3c0,.5.23.73.73.73h2.75c.51,0,.79-.22.79-.73v-3.3c0-.5-.28-.78-.79-.78h-2.75Z" style="fill:#414042;"/><path d="M460.42,518.99c-.5,0-.79.28-.79.78v3.3c0,.5.28.73.79.73h2.81c.51,0,.73-.22.73-.73v-3.3c0-.5-.23-.78-.73-.78h-2.81Z" style="fill:#414042;"/><path d="M504.53,516.75h-2.64c-.51,0-.73.28-.73.78v32.52c0,2.02-.9,2.97-2.98,3.02h-7.75c-1.63,0-2.76-.34-3.32-.9-.34-.28-.51-.73-.51-1.4v-33.25c0-.5-.23-.78-.73-.78h-2.64c-.51,0-.73.28-.73.78v32.47c0,2.07-.95,3.08-2.98,3.08h-8.08c-1.63,0-2.75-.34-3.32-.9-.34-.34-.51-.78-.51-1.4v-19.59c0-.5-.22-.78-.73-.78h-2.64c-.45,0-.73.28-.73.78v18.81c0,2.02-.9,3.08-2.92,3.08h-19.72l5.51-11.7c.11-.28.17-.56.17-.84v-.22c-.28-2.97-1.63-5.54-4.1-7.72-2.47-2.18-5.34-3.3-8.49-3.3s-5.96,1.17-8.49,3.53c-2.36,2.13-3.71,4.59-4.1,7.39v.28c0,.28.05.61.17.9l5.51,11.7h-14.22c-1.63,0-2.76-.34-3.32-.9-.34-.28-.51-.73-.51-1.4v-33.25c0-.5-.23-.78-.73-.78h-2.64c-.51,0-.73.28-.73.78v32.47c0,2.07-.95,3.08-2.98,3.08h-8.08c-1.63,0-2.76-.34-3.32-.9-.34-.34-.45-.78-.45-1.4v-19.59c0-.5-.28-.78-.79-.78h-2.59c-.51,0-.79.28-.79.78v18.81c0,2.07-.9,3.08-2.92,3.08h-11.29c-1.8,0-3.26-.78-3.65-2.24.9-1.74,1.35-3.53,1.35-5.49v-4.26c0-3.25-1.18-6.04-3.48-8.34-2.3-2.3-5.06-3.47-8.32-3.47s-6.07,1.17-8.37,3.47c-2.3,2.3-3.48,5.09-3.48,8.34v11.93h-2.02c-4.33,0-7.93,3.58-7.93,7.89v7.56c0,.5.23.73.73.73h2.64c.51,0,.79-.22.79-.73v-7.56c0-2.07,1.69-3.75,3.76-3.75h13.88c3.09,0,5.85-1.06,8.15-3.25,1.41,2.07,3.77,3.25,6.74,3.25h10.39c2.19,0,3.94-.62,5.23-1.9.05-.05.17-.22.17-.28,0,.05.06.05.11.11,1.35,1.34,3.43,2.07,6.18,2.07h7.3c2.19,0,3.93-.62,5.17-1.9.05-.05.17-.17.23-.28,1.41,1.4,3.37,2.18,6.24,2.18h46.98c2.19,0,3.88-.62,5.17-1.9l.23-.28c0,.05.05.05.05.11,1.35,1.34,3.48,2.07,6.24,2.07h7.3c2.19,0,3.93-.62,5.17-1.9.05-.05.17-.17.23-.28,1.41,1.4,3.37,2.18,6.24,2.18h7.02c4.33,0,7.14-2.74,7.14-7.11v-32.52c0-.5-.23-.78-.73-.78ZM365.35,545.36c0,4.25-3.49,7.67-7.76,7.67h-7.76v-11.93c0-4.2,3.54-7.67,7.76-7.67s7.76,3.47,7.76,7.67v4.26ZM431.59,553.08l-6.01-12.88c.39-1.73,1.41-3.3,2.92-4.64,1.69-1.4,3.49-2.13,5.45-2.13s3.88.67,5.51,2.01c1.69,1.29,2.64,2.86,2.92,4.7l-6.01,12.93h-4.78Z" style="fill:#414042;"/><path d="M85.77,585.32l.02,15.61c0,.6,0,6.3.08,7.09h-.26c-.22-.56-2.74-5.43-3-5.95l-8.73-16.73h-4.13s.04,26.44.04,26.44h2.8s-.02-15.84-.02-15.84c0-.94-.05-6.45-.12-7.01h.29c.22.64,2.7,5.46,2.96,5.99l8.81,16.84h4.06s-.04-26.44-.04-26.44h-2.77Z" style="fill:#414042;"/><path d="M110.12,609.5c-1.4,0-1.96-1.24-1.96-3.09v-9.28c-.02-4.3-2.57-6.22-6.85-6.21-4.17,0-6.05,2.38-6.75,3.37l2.11,1.69c.59-.98,1.88-2.49,4.57-2.5,2.66,0,4.24.97,4.25,4.33v2.22c-7.12-.1-11.47,2.13-11.46,6.66,0,2.79,2.07,5.46,5.8,5.46,3.39,0,5.01-1.63,5.97-2.76h.15c.48,1.39,1.66,2.49,3.66,2.48.37,0,.77-.08,1.03-.23v-2.15s-.52,0-.52,0ZM100.49,609.74c-2.32,0-3.62-1.46-3.62-3.27,0-3.09,3.79-4.3,8.63-4.12v4.6c-.91,1.4-2.72,2.79-5.01,2.8Z" style="fill:#414042;"/><path d="M121.64,609.33c-1.77,0-2.92-.94-2.92-3.24l-.02-12.52h5.53s0-2.39,0-2.39h-5.53s0-5.38,0-5.38h-1.96s-.88,5.32-.88,5.32l-2.99.57v1.89s2.99,0,2.99,0l.02,12.67c0,3.88,1.82,5.65,5.14,5.65,2.4,0,3.73-.5,4.5-.95l-.82-2.34c-.52.34-1.44.72-3.06.72Z" style="fill:#414042;"/><rect x="130.26" y="591.18" width="2.88" height="20.51" transform="translate(-.9 .2) rotate(-.09)" style="fill:#414042;"/><path d="M131.48,583.03c-1.14,0-2.06.91-2.06,2.15,0,1.21.93,2.11,2.07,2.11,1.22,0,2.14-.91,2.14-2.12,0-1.24-.93-2.15-2.14-2.15Z" style="fill:#414042;"/><path d="M147.29,590.77c-6.09,0-8.4,4.35-8.4,10.68,0,6.3,2.12,10.56,8.21,10.55,6.09,0,8.44-4.43,8.43-10.76,0-6.26-2.12-10.48-8.24-10.47ZM147.32,609.44c-3.84,0-5.46-2.71-5.47-8.21,0-5.32,1.43-7.92,5.23-7.93,3.87,0,5.5,2.67,5.51,8.17,0,5.36-1.39,7.96-5.26,7.97Z" style="fill:#414042;"/><path d="M169.2,590.7c-3.14,0-5.16,1.85-5.71,2.57h-.15s-.59-2.15-.59-2.15h-2.18s.03,20.52.03,20.52h2.88s-.02-14.67-.02-14.67c.7-2,2.61-3.66,5.09-3.66,2.8,0,4.32,1.73,4.32,4.86l.02,13.46h2.88s-.02-14.14-.02-14.14c-.12-4.56-2.52-6.78-6.54-6.78Z" style="fill:#414042;"/><path d="M196.76,609.37c-1.4,0-1.96-1.24-1.96-3.09v-9.28c-.02-4.3-2.57-6.22-6.85-6.21-4.17,0-6.05,2.38-6.75,3.37l2.11,1.69c.59-.98,1.88-2.49,4.57-2.5,2.66,0,4.24.97,4.25,4.33v2.22c-7.12-.1-11.47,2.13-11.46,6.66,0,2.79,2.07,5.46,5.8,5.46,3.39,0,5.01-1.63,5.97-2.76h.15c.48,1.39,1.66,2.49,3.66,2.48.37,0,.77-.08,1.03-.23v-2.15s-.52,0-.52,0ZM187.13,609.61c-2.32,0-3.62-1.46-3.62-3.27,0-3.09,3.79-4.3,8.63-4.12v4.6c-.91,1.4-2.72,2.79-5.01,2.8Z" style="fill:#414042;"/><path d="M207.05,609.31c-1.51,0-2.1-.79-2.11-2.6l-.04-23.76h-2.84s.04,24.55.04,24.55c0,2.68,1.34,4.34,4.1,4.33.78,0,1.77-.12,2.51-.46v-2.49c-.37.19-.93.42-1.66.42Z" style="fill:#414042;"/><path d="M230.56,590.68c-4.46,0-8.52,3.07-8.51,10.5.01,7.66,3.11,10.63,8.83,10.62,2.88,0,4.98-.84,6.31-1.86l-1.29-2.26c-.85.76-2.65,1.55-4.65,1.55-4.02,0-6.09-1.91-6.36-6.97l12.77-.02c.15-1.32.22-2.53.22-3.54,0-4.87-2.56-8.03-7.32-8.02ZM235,599.84l-10.07.02c.25-4.94,2.76-6.64,5.38-6.64,3.25,0,4.73,1.95,4.73,5.46,0,.23,0,.76-.04,1.17Z" style="fill:#414042;"/><polygon points="246.53 608.84 246.49 585.08 243.54 585.08 243.58 611.52 257.64 611.5 257.63 608.82 246.53 608.84" style="fill:#414042;"/><path d="M268.71,590.63c-4.46,0-8.52,3.07-8.51,10.5.01,7.66,3.11,10.63,8.83,10.62,2.88,0,4.98-.84,6.31-1.86l-1.29-2.26c-.85.76-2.65,1.55-4.65,1.55-4.02,0-6.09-1.91-6.36-6.97l12.77-.02c.15-1.32.22-2.53.22-3.54,0-4.87-2.56-8.03-7.32-8.02ZM273.15,599.78l-10.07.02c.25-4.94,2.76-6.64,5.38-6.64,3.25,0,4.73,1.95,4.73,5.46,0,.23,0,.76-.04,1.17Z" style="fill:#414042;"/><path d="M296.3,609.21c-1.4,0-1.96-1.24-1.96-3.09v-9.28c-.02-4.3-2.57-6.22-6.85-6.21-4.17,0-6.05,2.38-6.75,3.37l2.11,1.69c.59-.98,1.88-2.49,4.57-2.5,2.66,0,4.24.97,4.25,4.33v2.22c-7.12-.1-11.47,2.13-11.46,6.66,0,2.79,2.07,5.46,5.8,5.46,3.39,0,5.01-1.63,5.97-2.76h.15c.48,1.39,1.66,2.49,3.66,2.48.37,0,.77-.08,1.03-.23v-2.15s-.52,0-.52,0ZM286.67,609.45c-2.32,0-3.62-1.46-3.62-3.27,0-3.09,3.79-4.3,8.63-4.12v4.6c-.91,1.4-2.72,2.79-5.01,2.8Z" style="fill:#414042;"/><path d="M309.41,590.56c-2.32,0-4.17,1.14-5.05,2.61h-.15s-.63-2.26-.63-2.26h-2.18s.03,20.52.03,20.52h2.84s-.02-15.28-.02-15.28c.96-1.85,2.98-2.64,4.94-2.65.74,0,1.51.07,2.25.3v-3.05c-.45-.11-1.11-.19-2.03-.19Z" style="fill:#414042;"/><path d="M323.36,590.47c-3.14,0-5.16,1.85-5.71,2.57h-.15s-.59-2.15-.59-2.15h-2.18s.03,20.52.03,20.52h2.88s-.02-14.67-.02-14.67c.7-2,2.61-3.66,5.09-3.66,2.8,0,4.32,1.73,4.32,4.86l.02,13.46h2.88s-.02-14.15-.02-14.15c-.12-4.56-2.52-6.78-6.54-6.78Z" style="fill:#414042;"/><rect x="336.88" y="590.86" width="2.88" height="20.51" transform="translate(-.9 .51) rotate(-.09)" style="fill:#414042;"/><path d="M338.1,582.71c-1.14,0-2.06.91-2.06,2.15,0,1.21.93,2.11,2.07,2.11,1.22,0,2.14-.91,2.14-2.12,0-1.24-.93-2.15-2.14-2.15Z" style="fill:#414042;"/><path d="M355.2,590.42c-3.14,0-5.16,1.85-5.71,2.57h-.15s-.59-2.15-.59-2.15h-2.18s.03,20.52.03,20.52h2.88s-.02-14.67-.02-14.67c.7-2,2.61-3.66,5.09-3.66,2.8,0,4.32,1.73,4.32,4.86l.02,13.46h2.88s-.02-14.15-.02-14.15c-.12-4.56-2.52-6.78-6.54-6.78Z" style="fill:#414042;"/><path d="M376.45,590.61c-6.64.01-9.77,4.43-9.76,10.99.01,6.98,3.52,9.61,7.65,9.61,2.58,0,4.28-1.06,4.9-1.63h.15s0,1.89,0,1.89c0,3.66-1.47,5.47-5.12,5.48-2.69,0-4.28-.9-5.28-1.92l-1.66,2.34c.81.83,2.81,2.18,6.61,2.18,5.02,0,8.26-2.69,8.25-8.08l-.03-19.8c-1.22-.6-3.17-1.05-5.72-1.05ZM375.11,608.64c-2.84,0-5.5-1.54-5.51-7.42,0-5.43,2.57-8.04,6.44-8.04,1.29,0,2.44.22,3.29.56l.02,12.9c-.96,1.28-2.65,2-4.24,2Z" style="fill:#414042;"/><path d="M408.4,587.17c2.69,0,4.21.82,5.32,1.76l1.84-2.3c-.85-.75-2.92-2.18-6.87-2.18-6.9.01-10.58,5.14-10.57,13.82.01,8.15,3.08,13.38,10.2,13.37,3.69,0,5.94-1.1,7.08-2.24l-1.63-2.15c-.92.91-2.43,1.62-5.05,1.63-4.94,0-7.57-3.72-7.58-10.89-.01-7.47,2.75-10.83,7.25-10.83Z" style="fill:#414042;"/><path d="M427.37,590.38c-4.46,0-8.52,3.07-8.51,10.5.01,7.66,3.11,10.63,8.83,10.62,2.88,0,4.98-.84,6.31-1.86l-1.29-2.26c-.85.76-2.65,1.55-4.65,1.55-4.02,0-6.09-1.91-6.36-6.97l12.77-.02c.15-1.32.22-2.53.22-3.54,0-4.87-2.56-8.03-7.32-8.02ZM431.81,599.54l-10.07.02c.25-4.94,2.76-6.64,5.38-6.64,3.25,0,4.73,1.95,4.73,5.46,0,.23,0,.76-.04,1.17Z" style="fill:#414042;"/><path d="M448.58,590.28c-3.13,0-5.16,1.85-5.71,2.57h-.15s-.59-2.15-.59-2.15h-2.18s.03,20.52.03,20.52h2.88s-.02-14.67-.02-14.67c.7-2,2.61-3.66,5.09-3.66,2.8,0,4.32,1.73,4.32,4.86l.02,13.46h2.88s-.02-14.15-.02-14.15c-.12-4.56-2.52-6.78-6.54-6.78Z" style="fill:#414042;"/><path d="M467.54,608.8c-1.77,0-2.92-.94-2.92-3.24l-.02-12.52h5.53s0-2.39,0-2.39h-5.53s0-5.38,0-5.38h-1.96s-.88,5.32-.88,5.32l-2.99.57v1.89s2.99,0,2.99,0l.02,12.67c0,3.88,1.82,5.65,5.14,5.65,2.4,0,3.73-.5,4.5-.95l-.82-2.34c-.52.34-1.44.72-3.06.72Z" style="fill:#414042;"/><path d="M482.64,590.3c-4.46,0-8.52,3.07-8.51,10.5.01,7.66,3.11,10.63,8.83,10.62,2.88,0,4.98-.84,6.31-1.86l-1.3-2.26c-.85.76-2.65,1.55-4.65,1.55-4.02,0-6.09-1.91-6.36-6.97l12.77-.02c.14-1.32.22-2.53.22-3.54,0-4.87-2.56-8.03-7.32-8.02ZM487.08,599.46l-10.07.02c.25-4.94,2.76-6.64,5.38-6.64,3.25,0,4.73,1.95,4.73,5.46,0,.23,0,.76-.03,1.17Z" style="fill:#414042;"/><path d="M503.22,590.27c-2.33,0-4.17,1.14-5.05,2.61h-.15s-.63-2.26-.63-2.26h-2.18s.03,20.52.03,20.52h2.84s-.02-15.28-.02-15.28c.96-1.85,2.98-2.64,4.94-2.65.74,0,1.51.07,2.25.3v-3.05c-.45-.11-1.11-.19-2.03-.19Z" style="fill:#414042;"/></svg>