<?xml version="1.0" encoding="UTF-8"?>
<svg id="Layer_1" data-name="Layer 1" xmlns="http://www.w3.org/2000/svg" viewBox="0 0 80 80">
  <defs>
    <style>
      .cls-1 {
        fill: none;
        stroke: #552f91;
        stroke-miterlimit: 10;
        stroke-width: 3.03px;
      }
    </style>
  </defs>
  <circle class="cls-1" cx="39.97" cy="28.61" r="6.39"/>
  <path class="cls-1" d="M29.74,47.79v-3.84c0-4.94,4.58-8.95,10.23-8.95s10.23,4.01,10.23,8.95v3.84"/>
  <circle class="cls-1" cx="18.23" cy="28.61" r="6.39"/>
  <path class="cls-1" d="M15.67,43.96l2.58,6.88c.76,2.01,2.68,3.35,4.83,3.35h9.06c1.5,0,2.72-1.22,2.72-2.72h0c0-1.37-1.02-2.53-2.38-2.7l-6.99-.87c-.52-.06-.94-.43-1.07-.93-.42-1.55-1.38-4.93-2.34-6.85-1.28-2.56-2.56-5.12-7.03-5.12h-4.82"/>
  <line class="cls-1" x1="19.51" y1="52.91" x2="19.51" y2="59.3"/>
  <line class="cls-1" x1="27.18" y1="54.19" x2="39.97" y2="54.19"/>
  <circle class="cls-1" cx="61.72" cy="28.61" r="6.39"/>
  <path class="cls-1" d="M64.27,43.96l-2.58,6.88c-.76,2.01-2.68,3.35-4.83,3.35h-9.06c-1.5,0-2.72-1.22-2.72-2.72h0c0-1.37,1.02-2.53,2.38-2.7l6.99-.87c.52-.06.94-.43,1.07-.93.42-1.55,1.38-4.93,2.34-6.85,1.28-2.56,2.56-5.12,7.03-5.12h4.87"/>
  <line class="cls-1" x1="60.44" y1="52.91" x2="60.44" y2="59.3"/>
  <line class="cls-1" x1="52.76" y1="54.19" x2="39.97" y2="54.19"/>
</svg>