<?xml version="1.0" encoding="UTF-8"?>
<svg id="Layer_1" data-name="Layer 1" xmlns="http://www.w3.org/2000/svg" viewBox="0 0 80 80">
  <defs>
    <style>
      .cls-1 {
        fill: none;
        stroke: #552f91;
        stroke-miterlimit: 10;
        stroke-width: 3.03px;
      }
    </style>
  </defs>
  <line class="cls-1" x1="54.11" y1="25.89" x2="25.25" y2="54.75"/>
  <line class="cls-1" x1="61.72" y1="53.62" x2="57.3" y2="58.04"/>
  <line class="cls-1" x1="57.3" y1="49.2" x2="55.09" y2="51.41"/>
  <line class="cls-1" x1="52.88" y1="44.79" x2="48.47" y2="49.2"/>
  <line class="cls-1" x1="30.8" y1="31.53" x2="35.21" y2="27.12"/>
  <line class="cls-1" x1="28.59" y1="24.91" x2="30.8" y2="22.7"/>
  <line class="cls-1" x1="21.96" y1="22.7" x2="26.38" y2="18.28"/>
  <line class="cls-1" x1="50.76" y1="20.4" x2="59.6" y2="29.24"/>
  <path class="cls-1" d="M30.8,40.37l-13.65,13.65-3.68,12.51,12.51-3.68,40.97-40.97s2.21-3.68-1.47-7.36c-3.68-3.68-7.36-1.47-7.36-1.47l-27.33,27.33L12.09,21.66l9.57-9.57,18.71,18.71"/>
  <polyline class="cls-1" points="39.63 49.2 58.34 67.91 67.91 58.34 51.49 41.92"/>
</svg>