<?xml version="1.0" encoding="UTF-8"?>
<svg id="Layer_1" data-name="Layer 1" xmlns="http://www.w3.org/2000/svg" viewBox="0 0 80 80">
  <defs>
    <style>
      .cls-1 {
        fill: none;
        stroke: #552f91;
        stroke-miterlimit: 10;
        stroke-width: 3.03px;
      }
    </style>
  </defs>
  <g>
    <path class="cls-1" d="M40,24.65c-8.53-.13-15.43,6.51-15.62,14.88-.1,4.32,1.68,7.45,4.07,10.66,2.1,2.82,3.63,3.11,4.49,7.33"/>
    <path class="cls-1" d="M40,24.65c8.53-.13,15.43,6.51,15.62,14.88.1,4.32-1.68,7.45-4.07,10.66-2.1,2.82-3.94,3.11-4.8,7.33"/>
    <polyline class="cls-1" points="46.75 57.52 46.7 57.52 33.17 57.53"/>
    <path class="cls-1" d="M32.94,57.52v3.21c0,1.29.38,2.55,1.09,3.63l.4.6c1.22,1.84,3.28,2.94,5.48,2.94h0c2.3,0,4.44-1.21,5.63-3.18l.27-.45c.62-1.02.94-2.2.94-3.39v-3.36"/>
  </g>
  <line class="cls-1" x1="40.08" y1="10.58" x2="40.08" y2="16.59"/>
  <g>
    <line class="cls-1" x1="10.22" y1="39.92" x2="16.83" y2="39.92"/>
    <line class="cls-1" x1="63.17" y1="39.92" x2="69.78" y2="39.92"/>
  </g>
  <g>
    <line class="cls-1" x1="18.94" y1="60.98" x2="23.61" y2="56.3"/>
    <line class="cls-1" x1="56.39" y1="23.53" x2="61.06" y2="18.86"/>
  </g>
  <g>
    <line class="cls-1" x1="61.06" y1="60.98" x2="56.39" y2="56.3"/>
    <line class="cls-1" x1="23.61" y1="23.53" x2="18.94" y2="18.86"/>
  </g>
</svg>