<?xml version="1.0" encoding="UTF-8"?>
<svg id="Layer_1" data-name="Layer 1" xmlns="http://www.w3.org/2000/svg" viewBox="0 0 80 80">
  <defs>
    <style>
      .cls-1 {
        fill: none;
        stroke: #552f91;
        stroke-miterlimit: 10;
        stroke-width: 3.03px;
      }
    </style>
  </defs>
  <path class="cls-1" d="M11.77,17.36h56.46v47.32c0,1.83-1.48,3.31-3.31,3.31H15.08c-1.83,0-3.31-1.48-3.31-3.31V17.36h0Z"/>
  <g>
    <line class="cls-1" x1="20.93" y1="10.49" x2="20.93" y2="22.41"/>
    <line class="cls-1" x1="59.07" y1="10.49" x2="59.07" y2="22.41"/>
  </g>
  <line class="cls-1" x1="13.19" y1="28.36" x2="66.81" y2="28.36"/>
  <g>
    <line class="cls-1" x1="20.89" y1="41" x2="24.17" y2="41"/>
    <line class="cls-1" x1="32.54" y1="41" x2="35.82" y2="41"/>
    <line class="cls-1" x1="44.18" y1="41" x2="47.46" y2="41"/>
    <line class="cls-1" x1="55.83" y1="41" x2="59.11" y2="41"/>
  </g>
  <g>
    <line class="cls-1" x1="20.89" y1="53.53" x2="24.17" y2="53.53"/>
    <line class="cls-1" x1="32.54" y1="53.53" x2="35.82" y2="53.53"/>
    <line class="cls-1" x1="44.18" y1="53.53" x2="47.46" y2="53.53"/>
    <line class="cls-1" x1="55.83" y1="53.53" x2="59.11" y2="53.53"/>
  </g>
</svg>