<?xml version="1.0" encoding="UTF-8"?><svg id="Layer_1" xmlns="http://www.w3.org/2000/svg" viewBox="0 0 297.7 470.59"><path d="M227.32,156.61v155.86c0,17.47-5.07,33.74-13.82,47.41-.38.59-.76,1.17-1.15,1.76-.06.09-.11.16-.17.25-1.3,1.92-2.67,3.79-4.11,5.59-.48.61-.98,1.2-1.48,1.79-.06.08-.13.16-.19.23-16,18.8-39.75,30.71-66.26,30.71v-243.6h87.19Z" style="fill:#9c50bc;"/><path d="M209.88,140.13v222.68c0,1.62-1.31,2.93-2.93,2.93h-66.83c-17.16,0-32.88-6.2-45.03-16.49-2.43-2.05-4.72-4.27-6.84-6.63-11.12-12.36-17.89-28.71-17.89-46.64V70.37h69.75c17.03,0,32.64,6.11,44.75,16.25,2.44,2.04,4.74,4.24,6.87,6.59,4.67,5.14,8.59,10.98,11.57,17.33,1.45,3.08,2.68,6.29,3.66,9.6,1.4,4.71,2.32,9.62,2.7,14.68.13,1.75.2,3.52.2,5.3Z" style="fill:#27b67b;"/><path d="M140.13,156.62h69.75v201.56c0,4.17-3.38,7.55-7.55,7.55h-62.2v-209.11h0Z" style="fill:#552f91;"/><path d="M209.88,140.13v16.49h-69.76v-86.25c17.51,0,33.52,6.45,45.77,17.11,2.39,2.09,4.65,4.33,6.74,6.72,4.59,5.24,8.41,11.18,11.27,17.63,1.4,3.14,2.57,6.4,3.49,9.77,1.62,5.9,2.49,12.11,2.49,18.53Z" style="fill:#01c2f3;"/><path d="M115.84,329.86l-20.74,19.39c-2.43-2.05-4.72-4.27-6.84-6.63l20.81-19.45-38.7-36.17v-13.02l45.47,42.5c3.87,3.62,3.87,9.77,0,13.39Z" style="fill:#fff;"/><path d="M95.98,182.67l-25.61,23.93v-13.02l18.46-17.26h-18.46v-9.51h19.35c8.31,0,12.33,10.18,6.26,15.86Z" style="fill:#fff;"/><path d="M129.94,200.19v79.59c0,8.02-9.56,12.17-15.42,6.69l-44.14-41.26v-13.02l50.05,46.78v-77.98l-29.7,27.76-6.5-6.95,30.29-28.31c5.86-5.47,15.42-1.32,15.42,6.69Z" style="fill:#fff;"/><path d="M120.42,87.87v24.26l-29.7-27.76-6.5,6.95,30.29,28.31c5.86,5.47,15.42,1.32,15.42-6.69v-25.06h-9.51Z" style="fill:#fff;"/><path d="M89.86,146.43h-19.49v-9.51h18.6l-18.6-17.39v-13.02l25.75,24.06c6.07,5.68,2.06,15.86-6.26,15.86Z" style="fill:#fff;"/><path d="M209.88,176.32h-18.46l18.46,17.26v13.02l-25.61-23.93c-6.07-5.68-2.06-15.86,6.26-15.86h19.35v9.51Z" style="fill:#fff;"/><path d="M192.63,94.21l-26.89,25.41c-5.86,5.48-15.42,1.32-15.42-6.69v-25.06h9.51v24.25l26.07-24.64c2.39,2.09,4.65,4.33,6.74,6.72Z" style="fill:#fff;"/><path d="M209.88,142.22v4.21h-19.49c-8.32,0-12.33-10.18-6.26-15.86l19.77-18.73c1.4,3.14,2.57,6.4,3.49,9.77l-16.11,15.32h18.41c.13,1.75.2,3.52.2,5.3Z" style="fill:#fff;"/><path d="M227.32,270.69l-56.14,52.47,40.99,38.73c-1.3,1.92-2.67,3.79-4.11,5.59-.48.61-.98,1.2-1.48,1.79-.06.08-.13.16-.19.23l-41.98-39.64c-3.87-3.63-3.87-9.77,0-13.39l62.91-58.81v13.03Z" style="fill:#fff;"/><path d="M227.32,215.88v13.02l-61.58,57.57c-5.86,5.47-15.42,1.32-15.42-6.69v-79.6c0-8.02,9.56-12.16,15.42-6.69l30.29,28.31-6.49,6.95-29.71-27.76v77.98l67.49-63.09Z" style="fill:#fff;"/></svg>