<?xml version="1.0" encoding="UTF-8"?><svg id="Layer_1" xmlns="http://www.w3.org/2000/svg" viewBox="0 0 297.7 470.59"><path d="M209.88,287h0s-38.69,36.16-38.69,36.16l38.56,36.44.14.13h0s0,0,0,0l2.3,2.17c.06-.09.12-.17.17-.25.4-.58.78-1.16,1.16-1.76,8.74-13.67,13.82-29.95,13.82-47.41v-41.77l-17.44,16.3h0Z" style="fill:#fff;"/><path d="M70.37,287v8.98c0,17.93,6.77,34.28,17.89,46.64l20.81-19.44-38.7-36.17Z" style="fill:#fff;"/><polygon points="70.37 176.32 70.37 193.58 88.84 176.32 70.37 176.32" style="fill:#fff;"/><polygon points="70.37 119.53 70.37 136.91 88.98 136.91 70.37 119.53" style="fill:#fff;"/><path d="M209.88,232.18l17.44-16.3v-59.27h-17.44v-10.18h-19.48c-8.32,0-12.33-10.18-6.26-15.86l19.77-18.74c-.91-2.03-1.91-4.03-2.99-5.95-.42-.74-.86-1.49-1.3-2.21-.17-.28-.34-.57-.53-.84-.18-.28-.35-.56-.54-.84-.36-.55-.72-1.08-1.08-1.61-.01-.02-.02-.03-.04-.05-.24-.35-.5-.7-.74-1.05-.31-.44-.63-.87-.97-1.3-.33-.43-.66-.86-1-1.28-.34-.43-.68-.85-1.03-1.26-.04-.04-.07-.08-.11-.13-.31-.38-.62-.75-.95-1.11-.06-.06-.11-.13-.18-.19.05.06.11.13.17.2l-26.89,25.4c-.91.85-1.92,1.47-2.96,1.88-5.64,2.2-12.44-1.82-12.44-8.58v-25.05h9.51v24.25h0s0,0,0,0l26.05-24.63c.08.06.15.12.21.18-.07-.07-.14-.13-.21-.19-.08-.07-.16-.13-.24-.2,0,0-.01-.01-.02-.02-.51-.44-1.03-.88-1.55-1.3-2.6-2.12-5.35-4.06-8.25-5.77-.3-.19-.61-.36-.91-.54-.9-.52-1.81-1.02-2.73-1.49-.15-.08-.29-.16-.44-.22-.73-.38-1.47-.74-2.22-1.08-.56-.26-1.12-.52-1.69-.76-.32-.14-.65-.27-.97-.41-.21-.09-.43-.19-.64-.26-.63-.25-1.26-.5-1.9-.73-.41-.16-.81-.3-1.22-.44-.55-.2-1.1-.38-1.66-.56-.21-.07-.42-.14-.64-.21-.59-.18-1.16-.35-1.75-.52-.07-.02-.15-.04-.22-.06-.84-.23-1.69-.45-2.54-.65-.46-.11-.93-.21-1.4-.31-.39-.09-.78-.17-1.18-.24-1.57-.31-3.18-.58-4.8-.77-.31-.05-.63-.08-.95-.12-.51-.06-1.04-.11-1.55-.16-.5-.05-1.01-.09-1.51-.12-.96-.07-1.93-.12-2.89-.14-.64-.02-1.27-.03-1.91-.03h-69.76v36.13l25.75,24.07c6.08,5.68,2.06,15.86-6.25,15.86h-19.49v20.38h19.36c8.31,0,12.33,10.17,6.25,15.86l-25.61,23.93v25.59l50.06,46.78v-77.99l-29.7,27.77-6.49-6.95,30.28-28.32c5.86-5.47,15.42-1.32,15.42,6.69v79.59c0,8.02-9.56,12.16-15.42,6.69l-44.15-41.26v28.77l45.47,42.49c3.87,3.62,3.87,9.77,0,13.4l-20.74,19.39c12.15,10.28,27.87,16.48,45.02,16.48h0s.01,0,.01,0v34.48c26.51,0,50.26-11.91,66.26-30.71l-4-3.77-37.98-35.87c-3.88-3.63-3.88-9.77,0-13.4l45.46-42.49,17.44-16.31v-28.76l-17.44,16.3h0s0,0,0,0l-44.15,41.26c-.73.68-1.52,1.22-2.34,1.61-5.75,2.76-13.07-1.29-13.07-8.31v-79.59c0-4.01,2.39-7.04,5.51-8.4.18-.08.36-.15.55-.22.01,0,.03-.01.04-.02,3.01-1.07,6.56-.62,9.31,1.94l30.29,28.32-6.49,6.95-29.7-27.77h0s0,0,0,0v77.98h0s0,0,0,0l50.05-46.78ZM209.88,176.32h-18.46,0s0,0,0,0l18.46,17.26h0s0,0,0,0v13.02l-25.6-23.93c-5.51-5.15-2.73-13.99,4.03-15.6.7-.17,1.44-.26,2.22-.26h19.35s0,0,0,0v9.51ZM129.94,112.93c0,8.01-9.56,12.17-15.42,6.69l-30.28-28.31,6.49-6.95,29.7,27.76v-24.26h9.51v25.06Z" style="fill:#fff;"/><path d="M209.69,136.92h.1c0-.11-.01-.27-.02-.44l.02-.1c-.02-.41-.05-.82-.08-1.23,0-.07,0-.13,0-.2,0-.05,0-.1-.01-.14,0-.11-.02-.22-.03-.32-.01-.11-.02-.21-.03-.32-.06-.78-.14-1.56-.23-2.34-.06-.49-.13-.99-.2-1.47.01,0,.01-.02,0-.02-.08-.62-.18-1.23-.28-1.84-.02-.11-.03-.21-.05-.31-.13-.71-.25-1.42-.4-2.12-.16-.76-.32-1.51-.5-2.26-.19-.75-.37-1.5-.58-2.23l-16.11,15.32h18.41Z" style="fill:#fff;"/></svg>