<?xml version="1.0" encoding="UTF-8"?>
<svg id="Layer_1" data-name="Layer 1" xmlns="http://www.w3.org/2000/svg" viewBox="0 0 1671.13 425.86">
  <defs>
    <style>
      .cls-1 {
        fill: #fff;
      }
    </style>
  </defs>
  <path class="cls-1" d="M182.6,117.88c.58-1.92,1.82-2.88,3.74-2.88h36.29c1.92,0,3.17.96,3.74,2.88l66.25,190.1c.58,1.92-.1,2.88-2.02,2.88h-37.44c-1.92,0-3.17-.96-3.74-2.88l-11.23-34.28h-68.55l-10.95,34.28c-.58,1.92-1.83,2.88-3.74,2.88h-37.73c-1.92,0-2.59-.96-2.02-2.88l67.4-190.1ZM226.67,237.7l-22.18-68.55h-.86l-22.18,68.55h45.22Z"/>
  <path class="cls-1" d="M315.38,117.88c0-1.92.96-2.88,2.88-2.88h36.58c1.92,0,2.88.96,2.88,2.88v190.1c0,1.92-.96,2.88-2.88,2.88h-36.58c-1.92,0-2.88-.96-2.88-2.88V117.88Z"/>
  <path class="cls-1" d="M529.1,314.03c-7.68,0-15.22-.72-22.61-2.16-7.39-1.44-14.36-3.36-20.88-5.76-6.53-2.4-12.53-5.23-18-8.5-5.47-3.26-10.13-6.72-13.97-10.37-1.54-1.54-1.63-3.17-.29-4.9l21.89-25.06c1.15-1.54,2.59-1.63,4.32-.29,6.53,5.18,14.11,9.84,22.75,13.97,8.64,4.13,18.15,6.19,28.52,6.19s18.29-2.16,23.76-6.48c5.47-4.32,8.21-9.94,8.21-16.85,0-5.76-2.12-10.46-6.34-14.11-4.23-3.65-12.2-6.24-23.91-7.78l-10.37-1.44c-19.97-2.69-35.28-8.79-45.94-18.29-10.66-9.51-15.99-22.99-15.99-40.47,0-9.02,1.63-17.23,4.9-24.63,3.26-7.39,7.92-13.68,13.97-18.87,6.05-5.18,13.34-9.22,21.89-12.1,8.54-2.88,18.1-4.32,28.66-4.32,13.06,0,25.35,1.83,36.87,5.47,11.52,3.65,21.41,8.64,29.67,14.98,1.73,1.15,1.92,2.59.58,4.32l-17.57,26.21c-1.15,1.54-2.5,1.83-4.03.86-7.49-4.99-14.93-8.74-22.32-11.23-7.39-2.49-15.12-3.74-23.19-3.74-8.64,0-15.17,2.02-19.59,6.05-4.42,4.03-6.62,9.12-6.62,15.27,0,5.57,2.25,10.18,6.77,13.83,4.51,3.65,12.43,6.24,23.76,7.78l10.37,1.44c20.35,2.69,35.72,8.79,46.08,18.29s15.55,23.19,15.55,41.04c0,8.83-1.63,17.04-4.9,24.63-3.27,7.59-8.11,14.11-14.55,19.59-6.44,5.47-14.45,9.75-24.05,12.82-9.6,3.07-20.74,4.61-33.41,4.61Z"/>
  <path class="cls-1" d="M715.74,310.86c-1.92,0-2.88-.96-2.88-2.88v-9.22h-.29c-3.65,4.61-8.55,8.31-14.69,11.09-6.15,2.78-14.02,4.18-23.62,4.18-6.15,0-12.05-.82-17.71-2.45-5.67-1.63-10.61-4.18-14.83-7.63-4.23-3.46-7.59-7.87-10.08-13.25-2.5-5.37-3.74-11.81-3.74-19.3,0-15.36,5.33-26.69,15.99-33.99,10.66-7.3,24.63-10.95,41.91-10.95h24.77c1.15,0,1.73-.58,1.73-1.73v-5.18c0-6.53-1.97-11.33-5.9-14.4-3.94-3.07-11.48-4.61-22.61-4.61-7.11,0-13.25.86-18.43,2.59-5.18,1.73-9.41,3.84-12.67,6.34-1.54,1.15-2.79.96-3.74-.58l-12.96-22.75c-.96-1.73-.67-3.07.86-4.03,5.95-4.22,13.2-7.58,21.75-10.08,8.54-2.49,18.58-3.74,30.1-3.74s20.93,1.01,28.8,3.02c7.87,2.02,14.26,5.09,19.15,9.22,4.9,4.13,8.45,9.36,10.66,15.7,2.21,6.34,3.31,13.83,3.31,22.47v89.29c0,1.92-.96,2.88-2.88,2.88h-31.97ZM686.36,283.79c17.28,0,25.92-6.43,25.92-19.3v-9.5c0-1.15-.58-1.73-1.73-1.73h-19.59c-16.52,0-24.77,5.28-24.77,15.84,0,9.79,6.72,14.69,20.16,14.69Z"/>
  <path class="cls-1" d="M872.72,310.86c-1.92,0-2.88-.96-2.88-2.88v-80.07c0-7.68-1.78-13.83-5.33-18.43-3.56-4.61-8.98-6.91-16.27-6.91-6.91,0-12.29,2.3-16.13,6.91-3.84,4.61-5.76,10.76-5.76,18.43v80.07c0,1.92-.96,2.88-2.88,2.88h-34.56c-1.92,0-2.88-.96-2.88-2.88v-133.65c0-1.92.96-2.88,2.88-2.88h34.56c1.92,0,2.88.97,2.88,2.92v9.91h.29c3.26-4.37,7.82-8.09,13.68-11.13,5.86-3.05,13.29-4.57,22.32-4.57,7.68,0,14.5,1.25,20.45,3.74,5.95,2.49,10.95,6.04,14.98,10.63,4.03,4.6,7.06,10.06,9.07,16.38,2.02,6.33,3.02,13.32,3.02,20.99v87.67c0,1.92-.96,2.88-2.88,2.88h-34.56Z"/>
  <path class="cls-1" d="M1030.27,310.86c-1.92,0-2.88-.96-2.88-2.88v-10.08h-.29c-3.27,4.8-7.88,8.69-13.83,11.67-5.95,2.97-13.54,4.46-22.75,4.46-11.71,0-21.6-2.83-29.67-8.5-8.06-5.66-13.92-13.97-17.57-24.92-1.73-5.57-2.98-11.28-3.74-17.14-.77-5.86-1.15-13.29-1.15-22.32s.38-16.71,1.15-22.47c.76-5.76,2.02-11.42,3.74-16.99,3.65-11.13,9.5-19.49,17.57-25.06,8.07-5.57,17.95-8.35,29.67-8.35,9.22,0,16.8,1.49,22.75,4.46,5.95,2.98,10.56,6.87,13.83,11.67h.29v-66.54c0-1.92.96-2.88,2.88-2.88h34.56c1.92,0,2.88.96,2.88,2.88v190.1c0,1.92-.96,2.88-2.88,2.88h-34.56ZM1003.49,280.04c10.95,0,18.05-4.99,21.31-14.98.96-2.69,1.63-5.81,2.02-9.36.38-3.55.58-8.4.58-14.55s-.19-10.99-.58-14.55c-.39-3.55-1.06-6.67-2.02-9.36-3.07-9.98-10.18-14.98-21.31-14.98s-18.53,5-21.6,14.98c-.96,2.69-1.63,5.81-2.02,9.36-.39,3.56-.58,8.4-.58,14.55s.19,10.99.58,14.55c.38,3.56,1.05,6.67,2.02,9.36,3.26,9.99,10.46,14.98,21.6,14.98Z"/>
  <path class="cls-1" d="M1181.2,314.03c-9.22,0-16.8-1.49-22.75-4.46-5.95-2.97-10.56-6.86-13.83-11.67h-.29v10.08c0,1.92-.96,2.88-2.88,2.88h-34.56c-1.92,0-2.88-.96-2.88-2.88V117.88c0-1.92.96-2.88,2.88-2.88h34.56c1.92,0,2.88.96,2.88,2.88v66.54h.29c3.26-4.8,7.87-8.69,13.83-11.67,5.95-2.97,13.54-4.46,22.75-4.46,11.71,0,21.6,2.79,29.67,8.35,8.07,5.57,13.92,13.92,17.57,25.06,1.73,5.57,2.97,11.23,3.74,16.99.77,5.76,1.15,13.25,1.15,22.47s-.39,16.47-1.15,22.32c-.77,5.86-2.02,11.57-3.74,17.14-3.65,10.95-9.5,19.25-17.57,24.92-8.06,5.66-17.96,8.5-29.67,8.5ZM1168.24,280.04c11.13,0,18.33-4.99,21.6-14.98.96-2.69,1.63-5.81,2.02-9.36.38-3.55.58-8.4.58-14.55s-.19-10.99-.58-14.55c-.39-3.55-1.06-6.67-2.02-9.36-3.07-9.98-10.28-14.98-21.6-14.98s-18.25,5-21.31,14.98c-.96,2.69-1.63,5.81-2.02,9.36-.39,3.56-.58,8.4-.58,14.55s.19,10.99.58,14.55c.38,3.56,1.05,6.67,2.02,9.36,3.26,9.99,10.37,14.98,21.31,14.98Z"/>
  <path class="cls-1" d="M1320.9,314.03c-14.79,0-27.56-3.36-38.31-10.08-10.76-6.72-18.15-16.42-22.18-29.09-1.54-4.99-2.69-10.13-3.46-15.41-.77-5.28-1.15-11.38-1.15-18.29s.38-13.01,1.15-18.29c.76-5.28,1.92-10.41,3.46-15.41,4.03-12.67,11.42-22.37,22.18-29.09,10.75-6.72,23.52-10.08,38.31-10.08s27.55,3.36,38.31,10.08c10.75,6.72,18.15,16.42,22.18,29.09,1.54,5,2.69,10.13,3.46,15.41.77,5.28,1.15,11.38,1.15,18.29s-.39,13.01-1.15,18.29c-.77,5.28-1.92,10.42-3.46,15.41-4.03,12.67-11.43,22.37-22.18,29.09-10.76,6.72-23.52,10.08-38.31,10.08ZM1320.9,280.04c11.13,0,18.33-4.99,21.6-14.98.96-3.26,1.63-6.58,2.02-9.94.38-3.36.58-8.02.58-13.97s-.19-10.61-.58-13.97c-.39-3.36-1.06-6.67-2.02-9.94-3.27-9.98-10.47-14.98-21.6-14.98s-18.34,5-21.6,14.98c-.96,3.27-1.63,6.58-2.02,9.94-.39,3.36-.58,8.02-.58,13.97s.19,10.61.58,13.97c.38,3.36,1.05,6.67,2.02,9.94,3.26,9.99,10.46,14.98,21.6,14.98Z"/>
  <path class="cls-1" d="M1516.09,310.86c-2.12,0-3.74-.96-4.9-2.88l-34.85-59.62h-.86l-35.14,59.62c-1.15,1.92-2.79,2.88-4.9,2.88h-39.75c-.96,0-1.63-.33-2.02-1.01-.39-.67-.29-1.49.29-2.45l58.47-97.64-54.44-91.31c-.39-.96-.43-1.77-.14-2.45.29-.67.91-1.01,1.87-1.01h40.04c1.92,0,3.46.96,4.61,2.88l31.11,53h.86l31.11-53c1.15-1.92,2.69-2.88,4.61-2.88h40.04c.96,0,1.58.34,1.87,1.01.29.68.24,1.49-.14,2.45l-54.73,91.31,58.76,97.64c.38.96.43,1.78.14,2.45-.29.67-.91,1.01-1.87,1.01h-40.04Z"/>
</svg>