<?xml version="1.0" encoding="UTF-8"?><svg id="Layer_1" xmlns="http://www.w3.org/2000/svg" viewBox="0 0 674.75 316.39"><path d="M83.71,241.64h-3.43c-.27,0-.41.14-.41.41v3.55c0,.27.14.41.41.41h3.43c.27,0,.41-.14.41-.41v-3.55c0-.28-.14-.41-.41-.41Z" style="fill:#fff;"/><path d="M85.6,241.64h3.43c.23,0,.41.18.41.41v3.55c0,.23-.18.41-.41.41h-3.43c-.23,0-.41-.18-.41-.41v-3.55c0-.23.18-.41.41-.41Z" style="fill:#fff;"/><path d="M108.73,213.6h-3.77c-.27,0-.41.14-.41.41v10.31c0,.82-.16,1.38-.47,1.69-.31.31-.81.47-1.49.47h-2s-.05,0-.08.01c-.05,0-.1-.01-.16-.01h-4.08c-.78,0-1.54-.09-2.27-.27-.73-.18-1.48-.39-2.24-.65-.76-.26-1.54-.56-2.33-.9-.79-.34-1.62-.67-2.49-1-.25-.08-.41.01-.49.29l-1.1,3.23c-.08.25,0,.41.24.49,1.39.52,2.6.97,3.62,1.34,1.02.37,1.87.73,2.53,1.07.67.34,1.16.7,1.47,1.07.31.37.47.81.47,1.34,0,.63-.3,1.15-.9,1.56-.6.41-1.72.62-3.35.62h-7.97c-.79,0-1.57-.09-2.33-.27-.76-.18-1.44-.47-2.04-.88-.6-.41-1.08-.95-1.45-1.64-.37-.68-.55-1.54-.55-2.58s.2-2.1.59-3.11c.4-1.01.82-1.89,1.29-2.66.14-.22.1-.39-.12-.53l-3.23-1.68c-.24-.16-.44-.14-.57.08-.36.49-.69,1.06-1,1.7-.31.64-.59,1.32-.84,2.04-.25.72-.44,1.47-.59,2.25-.15.78-.23,1.55-.23,2.31,0,2.81.86,5.03,2.59,6.66,1.73,1.64,4.36,2.45,7.9,2.45h9.31c1.47,0,2.71-.16,3.73-.47,1.02-.31,1.85-.73,2.49-1.25.64-.52,1.11-1.12,1.41-1.8.3-.68.45-1.4.45-2.17,0-.55-.09-1.06-.26-1.53-.18-.48-.33-.82-.47-1.04h2.82s.06,0,.09,0c.05,0,.1,0,.15,0h3.8c1.7,0,2.92-.42,3.65-1.25.73-.83,1.09-2.13,1.09-3.9v-11.41c0-.27-.14-.41-.41-.41Z" style="fill:#fff;"/><path d="M108.85,205.14h-3.92c-.27,0-.41.14-.41.41v3.55c0,.28.14.41.41.41h3.92c.27,0,.41-.14.41-.41v-3.55c0-.27-.14-.41-.41-.41Z" style="fill:#fff;"/><path d="M127.69,214.91c-.74-.71-1.62-1.23-2.64-1.55-1.02-.33-2.15-.49-3.38-.49-1.12,0-2.19.17-3.2.51-1.01.34-1.91.89-2.68,1.64-.78.75-1.39,1.72-1.84,2.9-.45,1.19-.67,2.61-.67,4.27,0,1.55.18,2.86.55,3.92.37,1.06.89,1.93,1.57,2.6.68.67,1.52,1.14,2.51,1.43.99.29,2.13.43,3.41.43h4.13c0,.9-.09,1.62-.26,2.17-.18.54-.43.97-.76,1.27-.33.3-.72.5-1.19.59-.46.1-.97.14-1.51.14h-4.78c-.27,0-.41.14-.41.41v3.27c0,.27.14.41.41.41h5.52c2.46,0,4.33-.59,5.63-1.76,1.29-1.17,1.94-3.04,1.94-5.6v-9.57c0-1.66-.2-3.07-.61-4.21-.41-1.14-.98-2.07-1.72-2.78ZM125.45,226.48h-3.64c-1.31,0-2.31-.31-3-.94-.69-.62-1.04-1.79-1.04-3.5,0-1.55.34-2.78,1.02-3.7.68-.92,1.65-1.38,2.9-1.38s2.26.41,2.86,1.24c.6.83.9,2.04.9,3.64v4.64Z" style="fill:#fff;"/><path d="M148.59,209.51h3.43c.27,0,.41-.14.41-.41v-3.55c0-.27-.14-.41-.41-.41h-3.43c-.27,0-.41.14-.41.41v3.55c0,.28.14.41.41.41Z" style="fill:#fff;"/><path d="M153.91,209.51h3.43c.27,0,.41-.14.41-.41v-3.55c0-.27-.14-.41-.41-.41h-3.43c-.27,0-.41.14-.41.41v3.55c0,.28.14.41.41.41Z" style="fill:#fff;"/><path d="M189.6,202.76h-3.77c-.27,0-.41.14-.41.41v21.14c0,.82-.16,1.38-.47,1.69-.31.31-.81.47-1.49.47h-2s-.01,0-.02,0c0,0-.01,0-.02,0h-.69c-1.01,0-1.82-.2-2.43-.59-.61-.39-.92-.96-.92-1.7v-3.39c0-1.64-.24-2.94-.73-3.9-.49-.97-1.16-1.7-2.01-2.21-.85-.5-1.87-.84-3.05-1-1.19-.16-2.47-.26-3.86-.29l6.73-7.89c.11-.22.05-.41-.16-.57l-2.64-2.21c-.19-.11-.37-.07-.53.12l-8.83,10.38c-.11.14-.25.29-.41.45-.16.16-.25.34-.25.54v2.85c0,.28.14.41.41.41h6.58c2.78,0,4.17,1.19,4.17,3.58v2.2c0,.62-.03,1.14-.1,1.55-.07.41-.22.73-.45.98-.23.24-.57.42-1,.53s-1.02.16-1.76.16h-10.14s-.02,0-.02,0c0,0-.01,0-.02,0h-.69c-1.04,0-1.86-.22-2.47-.65-.61-.43-.92-1.06-.92-1.87v-9.94c0-.27-.14-.41-.4-.41h-3.49c-.16,0-.32.03-.46.08-.15.05-.22.16-.22.33v8.48c0,.73-.01,1.35-.04,1.85-.03.5-.1.91-.22,1.22-.12.31-.31.54-.57.69-.26.15-.63.22-1.12.22h-2.66s-.08,0-.12,0c-.04,0-.08,0-.12,0h-.7c-1.04,0-1.86-.22-2.47-.65-.61-.43-.92-1.06-.92-1.87v-9.94c0-.27-.14-.41-.41-.41h-3.77c-.27,0-.41.14-.41.41v14.59c0,.98-.02,1.85-.06,2.6-.04.75-.16,1.39-.37,1.92-.2.53-.53.93-.96,1.21-.44.27-1.05.41-1.84.41h-.9c-.27,0-.41.14-.41.41v3.27c0,.27.14.41.41.41h1.51c1.36,0,2.5-.18,3.42-.55.92-.37,1.66-.92,2.21-1.66.55-.74.95-1.66,1.2-2.76.24-1.11.37-2.4.37-3.87v-.78c.46.58,1.03.95,1.7,1.11.67.17,1.46.25,2.39.25.04,0,.08,0,.12,0,.04,0,.08,0,.13,0h3.8c1.3,0,2.34-.15,3.11-.45s1.34-.85,1.72-1.65c.46.88,1.08,1.45,1.88,1.71.79.26,1.72.39,2.78.39,0,0,.01,0,.02,0,0,0,.01,0,.02,0h12.02c1.28,0,2.33-.17,3.17-.52.84-.34,1.49-.96,1.95-1.84.46.96,1.11,1.6,1.96,1.9.84.3,1.84.45,2.98.45,0,0,.01,0,.02,0,0,0,.01,0,.02,0h3.8c1.7,0,2.92-.42,3.65-1.25.73-.83,1.09-2.13,1.09-3.9v-22.24c0-.27-.14-.41-.41-.41Z" style="fill:#fff;"/><path d="M208.36,239.84h-4.13c-.3-.22-.59-.53-.88-.92-.29-.4-.43-.87-.43-1.41,0-.57.18-1.06.53-1.45.35-.4.84-.59,1.47-.59.74,0,1.39.31,1.96.94.05.05.11.08.16.08s.14-.05.24-.16l1.06-.98c.11-.11.11-.25,0-.41-.35-.46-.83-.83-1.43-1.1-.6-.27-1.28-.41-2.04-.41s-1.46.12-2,.37c-.55.25-.99.57-1.35.96-.36.39-.61.83-.76,1.31-.15.48-.22.95-.22,1.41s.06.9.18,1.31c.12.41.28.76.47,1.06h-1.51c-.16,0-.25.09-.25.29v1.47c0,.19.08.29.25.29h8.67c.16,0,.25-.1.25-.29v-1.47c0-.19-.08-.29-.25-.29Z" style="fill:#fff;"/><path d="M216.83,202.76h-3.77c-.27,0-.4.14-.4.41v21.14c0,.82-.16,1.38-.47,1.69-.32.31-.82.47-1.5.47h-4.28v-17.58c0-.27-.14-.41-.4-.41h-3.77c-.27,0-.4.14-.4.41v17.58h-7.28c-.27,0-.41.14-.41.41v3.26c0,.28.14.41.41.41h17.95c1.7,0,2.92-.42,3.65-1.25.73-.83,1.09-2.13,1.09-3.9v-22.24c0-.27-.14-.41-.4-.41Z" style="fill:#fff;"/><path d="M226.76,202.76h-3.77c-.27,0-.4.14-.4.41v26.98c0,.27.13.41.4.41h3.77c.27,0,.4-.14.4-.41v-26.98c0-.27-.14-.41-.4-.41Z" style="fill:#fff;"/><path d="M272.49,234.04h-3.43c-.27,0-.41.14-.41.41v3.55c0,.27.14.41.41.41h3.43c.27,0,.41-.14.41-.41v-3.55c0-.28-.14-.41-.41-.41Z" style="fill:#fff;"/><path d="M277.8,234.04h-3.43c-.27,0-.41.14-.41.41v3.55c0,.27.14.41.41.41h3.43c.27,0,.41-.14.41-.41v-3.55c0-.28-.14-.41-.41-.41Z" style="fill:#fff;"/><path d="M318.4,209.51h3.43c.27,0,.41-.14.41-.41v-3.55c0-.27-.14-.41-.41-.41h-3.43c-.27,0-.41.14-.41.41v3.55c0,.28.14.41.41.41Z" style="fill:#fff;"/><path d="M323.71,209.51h3.43c.27,0,.41-.14.41-.41v-3.55c0-.27-.14-.41-.41-.41h-3.43c-.27,0-.41.14-.41.41v3.55c0,.28.14.41.41.41Z" style="fill:#fff;"/><path d="M349.96,202.76h-3.77c-.27,0-.4.14-.4.41v21.14c0,.82-.16,1.38-.47,1.69-.31.31-.81.47-1.49.47h-2s-.01,0-.02,0c0,0-.01,0-.02,0h-.69c-1.04,0-1.86-.22-2.47-.65-.61-.44-.92-1.06-.92-1.88v-20.77c0-.27-.14-.41-.4-.41h-3.77c-.27,0-.4.14-.4.41v21.14c0,.82-.16,1.38-.47,1.69-.31.31-.81.47-1.49.47h-2s-.01,0-.02,0c0,0-.01,0-.02,0h-.69c-1.04,0-1.86-.22-2.47-.65-.61-.43-.92-1.06-.92-1.87v-9.94c0-.27-.14-.41-.4-.41h-3.49c-.16,0-.32.03-.46.08-.15.05-.22.16-.22.33v8.48c0,.73-.01,1.35-.04,1.85-.03.5-.1.91-.22,1.22-.12.31-.31.54-.57.69-.26.15-.63.22-1.12.22h-2.66s-.07,0-.1,0c-.04,0-.07,0-.1,0h-5.95c-.26,0-.5-.03-.71-.08.49-.33.99-.73,1.51-1.22.52-.49.98-1.04,1.39-1.65.41-.61.74-1.28,1-2,.26-.72.39-1.49.39-2.3,0-1.9-.72-3.44-2.17-4.61-1.45-1.17-3.73-1.75-6.87-1.75-1.15,0-2.26.09-3.35.29-1.09.19-2.06.43-2.9.71-.84.29-1.53.61-2.04.96-.52.35-.78.68-.78.98v2.57c0,.22.02.42.06.59.04.18.21.37.51.59.55.38,1.08.77,1.62,1.16.53.39,1.03.84,1.49,1.35.46.5.88,1.08,1.25,1.73.37.65.66,1.43.88,2.32-.74.16-1.38.27-1.92.31-.55.04-1.04.06-1.47.06h-4.78s-.01,0-.02,0c0,0-.01,0-.02,0h-.69c-1.04,0-1.86-.22-2.47-.65-.61-.44-.92-1.06-.92-1.88v-20.77c0-.27-.14-.41-.4-.41h-3.77c-.27,0-.4.14-.4.41v21.14c0,.82-.16,1.38-.47,1.69-.31.31-.81.47-1.49.47h-2s-.01,0-.02,0c0,0-.01,0-.02,0h-.69c-1.04,0-1.86-.22-2.47-.65-.61-.43-.92-1.06-.92-1.87v-9.94c0-.27-.14-.41-.4-.41h-3.49c-.16,0-.32.03-.46.08-.15.05-.22.16-.22.33v8.48c0,.73-.01,1.35-.04,1.85-.03.5-.1.91-.22,1.22-.12.31-.31.54-.57.69-.26.15-.63.22-1.12.22h-2.66c-.16,0-.31.02-.44.04h-.91c-.63,0-1.19-.24-1.7-.72-.51-.48-.78-1.29-.84-2.43.03-.22.05-.44.06-.67.01-.23.02-.47.02-.72,0-1.66-.21-3.08-.63-4.25-.42-1.17-1.01-2.11-1.76-2.82-.75-.71-1.64-1.23-2.68-1.55-1.04-.33-2.15-.49-3.35-.49s-2.32.16-3.35.49c-1.04.33-1.93.84-2.68,1.55-.75.71-1.34,1.65-1.76,2.82-.42,1.17-.63,2.59-.63,4.25,0,.33,0,.63.02.92.01.29.03.57.06.84-.06.52-.23.93-.51,1.25-.28.31-.61.6-.98.86-.37.26-.76.52-1.19.78-.42.26-.82.58-1.19.96-.37.38-.67.86-.9,1.43-.23.57-.35,1.29-.35,2.17v7.64h4.58v-6.79c0-.63.1-1.1.29-1.43.19-.33.43-.59.71-.8.28-.2.57-.39.88-.57.31-.18.57-.44.8-.8.71.85,1.59,1.46,2.63,1.84,1.05.38,2.24.57,3.57.57s2.6-.19,3.71-.57c1.12-.38,2.04-1.01,2.78-1.88.35.55.76.96,1.21,1.25.45.29.92.5,1.41.63.49.14.99.22,1.49.25.5.03.99.04,1.45.04.03,0,.05,0,.08,0,.03,0,.06,0,.09,0h3.8c1.3,0,2.34-.15,3.11-.45s1.34-.85,1.72-1.65c.46.88,1.08,1.45,1.88,1.71.79.26,1.72.39,2.78.39,0,0,.01,0,.02,0,0,0,.01,0,.02,0h3.43c1.22,0,2.19-.16,2.9-.47.72-.32,1.26-.86,1.64-1.63.46.88,1.08,1.45,1.87,1.71.79.26,1.72.39,2.78.39,0,0,.01,0,.02,0,0,0,.01,0,.02,0h5.89c.79,0,1.69-.09,2.7-.27,1.01-.18,1.96-.51,2.86-1,.79.49,1.63.82,2.51,1,.89.18,1.82.27,2.8.27h6.09s.07,0,.1,0c.04,0,.07,0,.1,0h3.8c1.3,0,2.34-.15,3.11-.45.77-.3,1.34-.85,1.72-1.65.46.88,1.08,1.45,1.88,1.71.79.26,1.72.39,2.78.39,0,0,.01,0,.02,0,0,0,.01,0,.02,0h3.43c1.22,0,2.19-.16,2.9-.47.72-.32,1.26-.86,1.64-1.63.46.88,1.08,1.45,1.87,1.71.79.26,1.72.39,2.78.39,0,0,.01,0,.02,0,0,0,.01,0,.02,0h3.8c1.7,0,2.92-.42,3.65-1.25.73-.83,1.09-2.13,1.09-3.9v-22.24c0-.27-.14-.41-.4-.41ZM257.45,225.64c-.62.78-1.59,1.16-2.89,1.16s-2.27-.38-2.91-1.14c-.64-.76-.96-2.02-.96-3.76,0-1.61.32-2.83.96-3.68.64-.84,1.61-1.27,2.91-1.27,2.55,0,3.82,1.65,3.82,4.95,0,1.72-.31,2.96-.94,3.74ZM308.18,221.53c-.22.52-.5,1-.84,1.45-.34.45-.74.87-1.19,1.25-.45.38-.89.71-1.33.98-.38-1.58-1.02-3-1.9-4.27-.89-1.27-1.96-2.3-3.21-3.09.3-.16.85-.35,1.66-.57.8-.22,1.75-.33,2.84-.33,1.25,0,2.28.22,3.09.65.8.44,1.21,1.21,1.21,2.33,0,.55-.11,1.08-.33,1.59Z" style="fill:#fff;"/><path d="M374.52,207.87h3.43c.27,0,.41-.14.41-.41v-3.55c0-.27-.14-.41-.41-.41h-3.43c-.27,0-.41.14-.41.41v3.55c0,.28.14.41.41.41Z" style="fill:#fff;"/><path d="M369.2,207.87h3.43c.27,0,.41-.14.41-.41v-3.55c0-.27-.14-.41-.41-.41h-3.43c-.27,0-.41.14-.41.41v3.55c0,.28.14.41.41.41Z" style="fill:#fff;"/><path d="M396.84,234.04h-3.43c-.27,0-.41.14-.41.41v3.55c0,.27.14.41.41.41h3.43c.27,0,.41-.14.41-.41v-3.55c0-.28-.14-.41-.41-.41Z" style="fill:#fff;"/><path d="M391.52,234.04h-3.43c-.27,0-.41.14-.41.41v3.55c0,.27.14.41.41.41h3.43c.27,0,.41-.14.41-.41v-3.55c0-.28-.14-.41-.41-.41Z" style="fill:#fff;"/><path d="M403.67,205.14h3.92c.23,0,.41.18.41.41v3.55c0,.23-.18.41-.41.41h-3.92c-.23,0-.41-.18-.41-.41v-3.55c0-.23.18-.41.41-.41Z" style="fill:#fff;"/><path d="M437.32,215.52c-.81-.84-1.84-1.5-3.09-1.96-1.26-.46-2.79-.69-4.59-.69-1.67,0-3.27.22-4.81.67s-2.97.99-4.28,1.61v-11.98c0-.27-.14-.41-.4-.41h-3.77c-.27,0-.4.14-.4.41v18.12c0,1.06-.02,1.93-.06,2.59-.04.67-.13,1.2-.27,1.59-.14.39-.34.66-.61.8-.27.14-.64.2-1.1.2h-2.66c-1.04,0-1.86-.22-2.47-.65-.61-.43-.92-1.06-.92-1.87v-9.94c0-.27-.14-.41-.4-.41h-3.77c-.27,0-.4.14-.4.41v8.64c0,.71-.01,1.3-.04,1.79-.03.49-.1.88-.22,1.18s-.32.52-.59.65c-.27.14-.64.2-1.1.2h-1.96s-.07.01-.11.01c-.06,0-.11-.01-.18-.01h-.69c-1.04,0-1.86-.22-2.47-.65-.61-.43-.92-1.06-.92-1.87v-9.94c0-.27-.14-.41-.4-.41h-3.49c-.16,0-.32.03-.46.08-.15.05-.22.16-.22.33v8.48c0,.73-.01,1.35-.04,1.85-.03.5-.1.91-.22,1.22-.12.31-.31.54-.57.69-.26.15-.63.22-1.12.22h-2.66c-.13,0-.25.01-.37.03-.1-.02-.21-.03-.33-.03h-1.55c-.68,0-1.18-.16-1.49-.47-.31-.31-.47-.88-.47-1.69v-13.21c0-.27-.14-.41-.41-.41h-3.76c-.27,0-.41.14-.41.41v1.76h-4.09c-1.04,0-2.03.14-2.98.41-.96.27-1.81.73-2.56,1.37-.75.64-1.35,1.49-1.8,2.56-.45,1.06-.67,2.39-.67,3.97,0,1.36.2,2.53.61,3.5.41.97.96,1.76,1.65,2.39.7.63,1.51,1.09,2.45,1.39.94.3,1.94.45,3.01.45.87,0,1.7-.13,2.49-.38.79-.25,1.47-.63,2.04-1.13.25,1.18.74,2.01,1.49,2.48.75.47,1.79.7,3.13.7h3.31c.13,0,.24,0,.35-.02.11.01.22.02.34.02h3.8c1.3,0,2.34-.15,3.11-.45s1.34-.85,1.72-1.65c.46.88,1.08,1.45,1.88,1.71.79.26,1.72.39,2.78.39.03,0,.06,0,.09,0,.05,0,.1,0,.15,0h3.23c1.3,0,2.32-.15,3.07-.45s1.3-.85,1.68-1.65c.46.88,1.08,1.45,1.88,1.71.71.23,1.53.36,2.45.38.05,0,.1.01.16.01h3.48c.76,0,1.42-.04,1.97-.12s1.05-.27,1.48-.57c.35.46.96.69,1.82.69h10.78c1.5,0,2.78-.1,3.83-.29,1.05-.19,1.91-.57,2.58-1.14.67-.57,1.15-1.38,1.45-2.41.3-1.04.45-2.4.45-4.09,0-1.47-.19-2.81-.55-4.03-.37-1.21-.96-2.24-1.76-3.09ZM377.01,220.41c0,1.44-.31,2.53-.94,3.27-.63.75-1.59,1.12-2.9,1.12-1.14,0-2.04-.3-2.7-.89-.65-.6-.98-1.52-.98-2.77,0-1.6.35-2.7,1.06-3.29.71-.6,1.65-.89,2.82-.89h3.64v3.46ZM434.61,224.75c-.14.56-.4.96-.8,1.22-.4.26-.96.41-1.68.45-.73.04-1.66.06-2.81.06h-8.94c.05-.27.1-.56.12-.85.03-.3.04-.61.04-.94v-5.54c1.15-.54,2.46-1.04,3.94-1.51,1.48-.46,2.98-.69,4.51-.69,1.15,0,2.09.12,2.83.37.74.24,1.33.6,1.78,1.06.45.46.77,1.03.94,1.71.18.68.27,1.45.27,2.32,0,1-.07,1.78-.2,2.34Z" style="fill:#fff;"/><path d="M471.45,202.76h-3.77c-.27,0-.4.14-.4.41v21.14c0,.82-.16,1.38-.47,1.69-.31.31-.81.47-1.49.47h-4.78v-4.61c0-1.66-.2-3.06-.61-4.2-.41-1.14-.98-2.07-1.72-2.77-.74-.71-1.62-1.22-2.64-1.55s-2.15-.49-3.38-.49c-1.12,0-2.19.17-3.2.51-1.01.34-1.9.89-2.66,1.64-.77.75-1.38,1.72-1.84,2.9-.46,1.19-.7,2.61-.7,4.27,0,1.55.18,2.86.55,3.92.37,1.06.89,1.93,1.57,2.6.68.67,1.52,1.14,2.51,1.43.99.29,2.13.43,3.41.43h4.13c0,.84-.08,1.54-.24,2.09-.16.54-.4.97-.69,1.27-.3.3-.68.51-1.15.63-.46.12-1.01.18-1.63.18h-4.78c-.27,0-.41.14-.41.41v3.27c0,.27.14.41.41.41h5.52c2.46,0,4.33-.59,5.63-1.76,1.29-1.17,1.94-3.04,1.94-5.6v-.9h6.58c1.7,0,2.92-.42,3.65-1.25.73-.83,1.09-2.13,1.09-3.9v-22.24c0-.27-.14-.41-.4-.41ZM455.95,226.48h-3.64c-1.31,0-2.31-.31-3-.94-.69-.62-1.04-1.79-1.04-3.5,0-1.55.35-2.78,1.04-3.7.69-.92,1.66-1.38,2.88-1.38,1.31,0,2.26.41,2.86,1.24.6.83.9,2.04.9,3.64v4.64Z" style="fill:#fff;"/><path d="M481.38,202.76h-3.77c-.27,0-.4.14-.4.41v26.98c0,.27.13.41.4.41h3.77c.27,0,.4-.14.4-.41v-26.98c0-.27-.14-.41-.4-.41Z" style="fill:#fff;"/><path d="M505.94,207.87h3.43c.27,0,.41-.14.41-.41v-3.55c0-.27-.14-.41-.41-.41h-3.43c-.27,0-.41.14-.41.41v3.55c0,.28.14.41.41.41Z" style="fill:#fff;"/><path d="M500.62,207.87h3.43c.27,0,.41-.14.41-.41v-3.55c0-.27-.14-.41-.41-.41h-3.43c-.27,0-.41.14-.41.41v3.55c0,.28.14.41.41.41Z" style="fill:#fff;"/><path d="M553.19,209.51h3.92c.27,0,.41-.14.41-.41v-3.55c0-.27-.14-.41-.41-.41h-3.92c-.27,0-.41.14-.41.41v3.55c0,.28.14.41.41.41Z" style="fill:#fff;"/><path d="M594.04,202.76h-3.77c-.27,0-.41.14-.41.41v21.14c0,.82-.16,1.38-.47,1.69-.31.31-.81.47-1.49.47h-3.11c-.65,0-1.23-.24-1.74-.71-.51-.48-.77-1.28-.8-2.43.03-.22.04-.44.04-.67v-.71c0-1.66-.21-3.07-.64-4.24-.42-1.17-1.01-2.11-1.76-2.81-.75-.71-1.65-1.22-2.68-1.55-1.04-.33-2.16-.49-3.36-.49s-2.31.16-3.32.47c-1.01.31-1.89.82-2.64,1.51-.75.69-1.34,1.59-1.76,2.69-.42,1.1-.65,2.44-.68,4.01v.61c0,.19.01.39.04.61-.03,1.41-.3,2.38-.82,2.91-.52.53-1.1.79-1.76.79h-2.13c-1.04,0-1.86-.22-2.47-.65-.61-.43-.92-1.06-.92-1.87v-9.94c0-.27-.14-.41-.41-.41h-3.77c-.27,0-.41.14-.41.41v8.64c0,.71-.01,1.3-.04,1.79-.03.49-.1.88-.23,1.18-.12.3-.32.52-.59.65-.27.14-.64.2-1.1.2h-1.96s-.06,0-.09.01c-.05,0-.1-.01-.15-.01h-.69c-1.04,0-1.85-.22-2.45-.65-.6-.43-.91-1.06-.94-1.87,0-.16,0-.36.02-.59.01-.23.02-.48.02-.75,0-1.47-.19-2.81-.55-4.01-.37-1.21-.96-2.24-1.76-3.08-.81-.84-1.84-1.49-3.11-1.96-1.27-.46-2.79-.69-4.57-.69-1.67,0-3.28.22-4.83.67-1.56.45-2.98.99-4.26,1.61v-1.31c0-.27-.14-.41-.4-.41h-3.77c-.27,0-.4.14-.4.41v8.4c0,.57-.01,1.11-.04,1.63-.03.52-.1.97-.22,1.36-.12.39-.32.7-.59.92-.27.22-.67.33-1.19.33h-1.88c-.1,0-.19,0-.28.02-.07,0-.14-.02-.21-.02h-1.55c-.68,0-1.18-.16-1.49-.47-.31-.31-.47-.88-.47-1.69v-13.21c0-.27-.14-.41-.41-.41h-3.76c-.27,0-.41.14-.41.41v1.76h-4.09c-1.04,0-2.03.14-2.98.41-.96.27-1.81.73-2.56,1.37-.75.64-1.35,1.49-1.8,2.56-.45,1.06-.67,2.39-.67,3.97,0,1.36.2,2.53.61,3.5.41.97.96,1.76,1.65,2.39.7.63,1.51,1.09,2.45,1.39.94.3,1.94.45,3.01.45.87,0,1.7-.13,2.49-.38.79-.25,1.47-.63,2.04-1.13.25,1.18.74,2.01,1.49,2.48.75.47,1.79.7,3.13.7h3.31c.09,0,.17,0,.25-.02.08,0,.15.02.24.02h3.39c.71,0,1.33-.04,1.86-.12.53-.08,1.02-.27,1.45-.57.27.16.61.29,1,.37.4.08.81.15,1.25.2.44.06.88.09,1.35.1.46.01.91.02,1.35.02h8.05c1.8,0,3.25-.16,4.35-.47,1.1-.32,1.94-1.03,2.51-2.13.44,1.05,1.1,1.74,1.98,2.09.89.34,1.91.52,3.09.52.03,0,.05,0,.08,0,.04,0,.08,0,.13,0h3.23c1.3,0,2.32-.15,3.06-.45.74-.3,1.3-.85,1.68-1.65.46.88,1.08,1.45,1.88,1.71.72.24,1.56.36,2.5.38.04,0,.07,0,.11,0h1.43c.38,0,.79-.03,1.23-.08.44-.06.86-.16,1.27-.31.41-.15.81-.36,1.19-.64.38-.28.72-.63.99-1.08.74.85,1.65,1.47,2.74,1.84,1.09.37,2.32.56,3.68.56s2.64-.19,3.74-.58c1.1-.39,2.02-1.02,2.76-1.9.36.52.76.93,1.22,1.22.45.29.93.51,1.44.66.5.15,1.01.24,1.51.27.45.02.88.03,1.3.04.02,0,.04,0,.07,0h3.8c1.7,0,2.92-.42,3.65-1.25.73-.83,1.09-2.13,1.09-3.9v-22.24c0-.27-.14-.41-.41-.41ZM508.43,220.41c0,1.44-.31,2.53-.94,3.27-.63.75-1.59,1.12-2.9,1.12-1.14,0-2.04-.3-2.7-.89-.65-.6-.98-1.52-.98-2.77,0-1.6.35-2.7,1.06-3.29.71-.6,1.65-.89,2.82-.89h3.64v3.46ZM539.58,224.75c-.14.56-.4.96-.8,1.22-.4.26-.96.41-1.68.45-.73.04-1.67.06-2.85.06h-8.9c.05-.27.09-.56.12-.85.03-.3.04-.61.04-.94v-5.54c1.15-.54,2.46-1.04,3.94-1.51,1.48-.46,2.98-.69,4.51-.69,1.15,0,2.09.12,2.83.37.74.24,1.33.6,1.78,1.06.45.46.77,1.03.94,1.71.18.68.27,1.45.27,2.32,0,1-.07,1.78-.2,2.34ZM576.79,225.6c-.62.77-1.6,1.16-2.93,1.16s-2.26-.38-2.89-1.14c-.62-.76-.94-2.01-.94-3.75,0-1.6.31-2.82.94-3.66.62-.84,1.59-1.26,2.89-1.26,2.58,0,3.86,1.64,3.86,4.93,0,1.71-.31,2.95-.94,3.73Z" style="fill:#fff;"/><path d="M600.21,202.76h3.77c.22,0,.41.18.41.41v26.98c0,.23-.18.41-.41.41h-3.76c-.22,0-.41-.18-.41-.41v-26.98c0-.23.18-.41.41-.41Z" style="fill:#fff;"/><path d="M70.37,70.37h66.07v20.55h-41.67v23.12h41.67v19.98h-41.52v36.24h-24.54v-99.89h-.01Z" style="fill:#fff;"/><path d="M220.06,170.26h-21.27l-.28-9.99c-3.34,3.81-6.97,6.61-10.92,8.42-3.95,1.81-8.4,2.71-13.34,2.71-8.37,0-15.03-2.66-19.98-7.99-4.94-5.33-7.42-12.27-7.42-20.83v-45.95h23.26v39.81c0,9.61,4.09,14.41,12.27,14.41,4.57,0,8.11-1.43,10.63-4.29,2.52-2.85,3.78-6.71,3.78-11.55v-38.39h23.26v73.63h.01Z" style="fill:#fff;"/><path d="M247.31,164.34c-4.57-4.8-6.85-11.82-6.85-21.04v-28.25h-11.69v-18.41h12.13l.43-17.7h22.4v17.7h18.26v18.41h-18.26v25.97c0,6.38,2.76,9.56,8.28,9.56,2.66,0,5.61-.67,8.84-2l4.99,19.12c-5.71,2.57-11.8,3.85-18.26,3.85-8.94,0-15.7-2.41-20.26-7.21h0Z" style="fill:#fff;"/><path d="M363.85,170.26h-21.27l-.28-9.99c-3.34,3.81-6.97,6.61-10.92,8.42-3.95,1.81-8.4,2.71-13.34,2.71-8.37,0-15.03-2.66-19.98-7.99-4.94-5.33-7.42-12.27-7.42-20.83v-45.95h23.26v39.81c0,9.61,4.09,14.41,12.27,14.41,4.57,0,8.11-1.43,10.63-4.29,2.52-2.85,3.78-6.71,3.78-11.55v-38.39h23.26v73.63h.01Z" style="fill:#fff;"/><path d="M419.34,95.63c-4.85,0-9.18,1-12.99,3-3.8,1.99-6.98,4.67-9.56,7.98l-.28-9.99h-21.27v73.63h23.27v-32.1c0-6.57,1.37-11.65,4.13-15.27,2.76-3.61,7.03-5.42,12.85-5.42,2.76,0,5.6.41,8.53,1.25l11.65-19.76c-7.04-2.78-13.77-3.33-16.33-3.33h0Z" style="fill:#fff;"/><path d="M450.88,167.26c-6.28-3.23-11.13-7.75-14.55-13.55-3.43-5.8-5.13-12.51-5.13-20.12s1.64-14.22,4.92-20.12c3.28-5.9,7.92-10.49,13.92-13.77,5.99-3.28,12.8-4.92,20.41-4.92s14.36,1.67,20.27,4.99c5.9,3.34,10.46,7.94,13.7,13.85,3.23,5.9,4.85,12.55,4.85,19.98,0,2.38-.24,5.13-.72,8.28h-54.94c1.14,3.9,3.55,6.97,7.21,9.21,3.66,2.23,8.21,3.36,13.62,3.36,8.09,0,15.45-2.43,22.11-7.28l9,14.55c-4.18,3.34-9.09,5.9-14.7,7.7-5.61,1.81-11.65,2.71-18.12,2.71-8.28,0-15.56-1.62-21.83-4.85h0ZM487.84,127.02c-.95-4.38-2.92-7.87-5.92-10.49-2.99-2.62-6.77-3.92-11.34-3.92s-8.26,1.3-11.34,3.92c-3.09,2.62-5.06,6.11-5.92,10.49h34.54-.01Z" style="fill:#fff;"/><path d="M541.6,118.75l-30.97-48.37h27.83l9.99,15.84,8.42,14.13,8.28-14.13,9.56-15.84h27.68l-30.83,48.51,32.82,51.36h-27.97l-9.99-16.12-9.99-16.84-9.99,16.84-9.99,16.12h-28.11l33.24-51.52h0Z" style="fill:#fff;"/></svg>