<?xml version="1.0" encoding="UTF-8"?><svg id="Layer_1" xmlns="http://www.w3.org/2000/svg" viewBox="0 0 674.75 242.49"><path d="M70.37,70.37h66.07v20.55h-41.67v23.12h41.67v19.98h-41.53v36.25h-24.54v-99.89Z"/><path d="M220.06,170.26h-21.26l-.29-9.99c-3.33,3.81-6.97,6.61-10.92,8.42-3.95,1.81-8.4,2.71-13.34,2.71-8.37,0-15.03-2.66-19.98-7.99-4.95-5.33-7.42-12.27-7.42-20.83v-45.95h23.26v39.81c0,9.61,4.09,14.41,12.27,14.41,4.57,0,8.11-1.43,10.63-4.28,2.52-2.85,3.78-6.71,3.78-11.56v-38.39h23.26v73.63Z"/><path d="M247.31,164.34c-4.56-4.8-6.85-11.82-6.85-21.05v-28.25h-11.7v-18.41h12.13l.43-17.69h22.4v17.69h18.27v18.41h-18.27v25.97c0,6.37,2.76,9.56,8.28,9.56,2.66,0,5.61-.66,8.85-2l4.99,19.12c-5.71,2.57-11.8,3.85-18.27,3.85-8.94,0-15.7-2.4-20.26-7.21Z"/><path d="M363.84,170.26h-21.26l-.29-9.99c-3.33,3.81-6.97,6.61-10.92,8.42-3.95,1.81-8.4,2.71-13.34,2.71-8.37,0-15.03-2.66-19.98-7.99-4.95-5.33-7.42-12.27-7.42-20.83v-45.95h23.26v39.81c0,9.61,4.09,14.41,12.27,14.41,4.57,0,8.11-1.43,10.63-4.28,2.52-2.85,3.78-6.71,3.78-11.56v-38.39h23.26v73.63Z"/><path d="M419.34,95.63c-4.85,0-9.18,1-12.99,3-3.8,1.99-6.99,4.66-9.56,7.99l-.28-9.99h-21.26v73.63h23.26v-32.11c0-6.57,1.37-11.65,4.14-15.27,2.76-3.61,7.04-5.42,12.84-5.42,2.76,0,5.6.41,8.53,1.26l11.65-19.76c-7.05-2.78-13.76-3.33-16.33-3.33Z"/><path d="M450.87,167.26c-6.28-3.23-11.13-7.75-14.55-13.56-3.43-5.8-5.14-12.51-5.14-20.12s1.64-14.22,4.92-20.12c3.28-5.9,7.92-10.49,13.91-13.77,5.99-3.28,12.79-4.92,20.4-4.92s14.36,1.67,20.26,4.99c5.9,3.33,10.46,7.94,13.7,13.84,3.23,5.9,4.85,12.56,4.85,19.98,0,2.38-.24,5.14-.71,8.28h-54.94c1.14,3.9,3.54,6.97,7.21,9.2,3.66,2.24,8.21,3.35,13.63,3.35,8.08,0,15.46-2.43,22.12-7.28l8.99,14.56c-4.19,3.33-9.09,5.9-14.7,7.71-5.61,1.81-11.65,2.71-18.12,2.71-8.28,0-15.55-1.62-21.83-4.85ZM487.83,127.02c-.95-4.37-2.93-7.87-5.92-10.49-3-2.62-6.78-3.92-11.34-3.92s-8.25,1.31-11.34,3.92c-3.09,2.62-5.07,6.11-5.92,10.49h34.53Z"/><path d="M541.59,118.75l-30.96-48.37h27.82l9.99,15.84,8.42,14.13,8.28-14.13,9.56-15.84h27.68l-30.82,48.52,32.82,51.37h-27.97l-9.99-16.12-9.99-16.84-9.99,16.84-9.99,16.12h-28.11l33.25-51.51Z"/></svg>