<?xml version="1.0" encoding="UTF-8"?><svg id="Layer_1" xmlns="http://www.w3.org/2000/svg" viewBox="0 0 592.11 246.06"><polygon points="121.25 118.17 93.63 73.81 70.37 73.81 70.37 173.69 93.63 173.69 93.63 115.61 119.92 157.98 122.55 157.98 148.84 115.61 148.84 173.69 172.1 173.69 172.1 73.81 148.84 73.81 121.25 118.17" style="fill:#fff;"/><rect x="188.81" y="102.34" width="21.8" height="71.36" style="fill:#fff;"/><path d="M199.72,70.37c-3.58,0-6.66,1.26-9.23,3.78-2.57,2.52-3.85,5.54-3.85,9.06s1.28,6.54,3.85,9.06c2.57,2.52,5.64,3.78,9.23,3.78s6.66-1.26,9.23-3.78c2.57-2.52,3.85-5.54,3.85-9.06s-1.28-6.54-3.85-9.06c-2.57-2.52-5.64-3.78-9.23-3.78Z" style="fill:#fff;"/><path d="M261.19,121.46c6.77,0,11.48,2.67,14.1,8l19.03-10.84c-3.19-5.52-7.72-9.93-13.59-13.28-5.86-3.32-12.28-5-19.25-5-11.04,0-20.23,3.61-27.53,10.84-7.32,7.24-10.98,16.17-10.98,26.83s3.65,19.6,10.98,26.83c7.32,7.23,16.49,10.84,27.53,10.84,7.08,0,13.52-1.67,19.32-5,5.82-3.32,10.31-7.8,13.52-13.41l-19.03-10.71c-2.52,5.32-7.21,8-14.1,8-4.76,0-8.67-1.54-11.77-4.63-3.1-3.09-4.65-7.06-4.65-11.91s1.55-8.82,4.65-11.91c3.1-3.08,7.01-4.63,11.77-4.63v-.04Z" style="fill:#fff;"/><path d="M325.56,115.05v-12.69h-21.8v71.36h21.8v-32.24c0-6.48,2.3-11.02,6.9-13.62,4.6-2.61,9.56-3.5,14.89-2.65v-24.25c-4.93,0-9.47,1.22-13.59,3.63-4.12,2.43-6.86,5.93-8.21,10.5v-.02Z" style="fill:#fff;"/><path d="M402.15,150.14c-3.19,3.13-7.17,4.71-11.93,4.71s-8.72-1.56-11.93-4.71c-3.19-3.13-4.8-7.19-4.8-12.12s1.59-8.99,4.8-12.12c3.19-3.13,7.17-4.71,11.93-4.71s8.72,1.56,11.93,4.71c3.19,3.13,4.8,7.19,4.8,12.12s-1.59,9-4.8,12.12ZM390.22,100.34c-10.75,0-19.87,3.63-27.33,10.91-7.46,7.28-11.2,16.19-11.2,26.75s3.72,19.47,11.2,26.75c7.46,7.28,16.57,10.91,27.33,10.91s19.85-3.63,27.33-10.91c7.46-7.28,11.2-16.19,11.2-26.75s-3.74-19.47-11.2-26.75c-7.46-7.28-16.57-10.91-27.33-10.91Z" style="fill:#fff;"/><polygon points="491.37 122.52 520.3 73.81 493.85 73.81 478.14 100.25 462.45 73.81 436.01 73.81 464.93 122.52 434.55 173.69 460.99 173.69 478.14 144.79 495.29 173.69 521.74 173.69 491.37 122.52" style="fill:#fff;"/></svg>