<?xml version="1.0" encoding="UTF-8"?>
<svg id="Layer_1" xmlns="http://www.w3.org/2000/svg" version="1.1" viewBox="0 0 592.1 297.2">
  <!-- Generator: Adobe Illustrator 29.0.0, SVG Export Plug-In . SVG Version: 2.1.0 Build 186)  -->
  <defs>
    <style>
      .st0 {
        fill: #9c50bc;
      }

      .st1 {
        fill: #1d1d1f;
      }
    </style>
  </defs>
  <polygon class="st1" points="121.2 118.2 93.6 73.8 70.4 73.8 70.4 173.7 93.6 173.7 93.6 115.6 119.9 158 122.6 158 148.8 115.6 148.8 173.7 172.1 173.7 172.1 73.8 148.8 73.8 121.2 118.2"/>
  <rect class="st1" x="188.8" y="102.3" width="21.8" height="71.4"/>
  <path class="st1" d="M199.7,70.4c-3.6,0-6.7,1.3-9.2,3.8-2.6,2.5-3.9,5.5-3.9,9.1s1.3,6.5,3.9,9.1,5.6,3.8,9.2,3.8,6.7-1.3,9.2-3.8c2.6-2.5,3.9-5.5,3.9-9.1s-1.3-6.5-3.9-9.1-5.6-3.8-9.2-3.8Z"/>
  <path class="st1" d="M261.2,121.5c6.8,0,11.5,2.7,14.1,8l19-10.8c-3.2-5.5-7.7-9.9-13.6-13.3-5.9-3.3-12.3-5-19.2-5-11,0-20.2,3.6-27.5,10.8-7.3,7.2-11,16.2-11,26.8s3.6,19.6,11,26.8c7.3,7.2,16.5,10.8,27.5,10.8s13.5-1.7,19.3-5c5.8-3.3,10.3-7.8,13.5-13.4l-19-10.7c-2.5,5.3-7.2,8-14.1,8s-8.7-1.5-11.8-4.6c-3.1-3.1-4.6-7.1-4.6-11.9s1.6-8.8,4.6-11.9c3.1-3.1,7-4.6,11.8-4.6h0s0,0,0,0Z"/>
  <path class="st1" d="M325.6,115.1v-12.7h-21.8v71.4h21.8v-32.2c0-6.5,2.3-11,6.9-13.6,4.6-2.6,9.6-3.5,14.9-2.7v-24.2c-4.9,0-9.5,1.2-13.6,3.6-4.1,2.4-6.9,5.9-8.2,10.5h0s0,0,0,0Z"/>
  <path class="st1" d="M402.1,150.1c-3.2,3.1-7.2,4.7-11.9,4.7s-8.7-1.6-11.9-4.7c-3.2-3.1-4.8-7.2-4.8-12.1s1.6-9,4.8-12.1c3.2-3.1,7.2-4.7,11.9-4.7s8.7,1.6,11.9,4.7c3.2,3.1,4.8,7.2,4.8,12.1s-1.6,9-4.8,12.1ZM390.2,100.3c-10.8,0-19.9,3.6-27.3,10.9-7.5,7.3-11.2,16.2-11.2,26.8s3.7,19.5,11.2,26.8c7.5,7.3,16.6,10.9,27.3,10.9s19.9-3.6,27.3-10.9c7.5-7.3,11.2-16.2,11.2-26.8s-3.7-19.5-11.2-26.8c-7.5-7.3-16.6-10.9-27.3-10.9Z"/>
  <polygon class="st0" points="491.4 122.5 520.3 73.8 493.9 73.8 478.1 100.2 462.5 73.8 436 73.8 464.9 122.5 434.5 173.7 461 173.7 478.1 144.8 495.3 173.7 521.7 173.7 491.4 122.5"/>
  <g>
    <path d="M78.8,199.9h3.1c.2,0,.4-.1.4-.4v-3.2c0-.2-.1-.4-.4-.4h-3.1c-.2,0-.4.1-.4.4v3.2c0,.2.1.4.4.4Z"/>
    <path d="M74.1,199.9h3.1c.2,0,.4-.1.4-.4v-3.2c0-.2-.1-.4-.4-.4h-3.1c-.2,0-.4.1-.4.4v3.2c0,.2.1.4.4.4Z"/>
    <path d="M83.3,204.9c-.7-.6-1.5-1.1-2.4-1.4-.9-.3-1.9-.4-3-.4s-2.1.1-3,.4-1.7.8-2.4,1.4c-.7.7-1.2,1.5-1.6,2.6-.4,1.1-.5,2.4-.5,3.9s.2,2.7.5,3.8c.4,1,.9,1.9,1.5,2.5.7.7,1.4,1.1,2.4,1.4.9.3,2,.5,3.1.5h0c1.1,0,2.1-.2,3-.5s1.7-.8,2.4-1.4c.7-.7,1.2-1.5,1.6-2.5.4-1,.5-2.2.5-3.8s-.2-2.8-.6-3.9c-.4-1.1-.9-1.9-1.6-2.6ZM80.5,214.8c-.6.7-1.4,1.1-2.6,1.1s-2-.4-2.6-1.1c-.6-.7-.8-1.8-.8-3.4s.3-2.6.8-3.4c.6-.8,1.4-1.2,2.6-1.2,2.3,0,3.4,1.5,3.4,4.5s-.3,2.7-.8,3.4Z"/>
    <path d="M109.3,222.5h-3.1c-.2,0-.4.1-.4.4v3.2c0,.2.1.4.4.4h3.1c.2,0,.4-.1.4-.4v-3.2c0-.3-.1-.4-.4-.4Z"/>
    <path d="M104.6,222.5h-3.1c-.2,0-.4.1-.4.4v3.2c0,.2.1.4.4.4h3.1c.2,0,.4-.1.4-.4v-3.2c0-.3-.1-.4-.4-.4Z"/>
    <path d="M155,199.9h3.1c.2,0,.4-.1.4-.4v-3.2c0-.2-.1-.4-.4-.4h-3.1c-.2,0-.4.1-.4.4v3.2c0,.2.1.4.4.4Z"/>
    <path d="M150.3,199.9h3.1c.2,0,.4-.1.4-.4v-3.2c0-.2-.1-.4-.4-.4h-3.1c-.2,0-.4.1-.4.4v3.2c0,.2.1.4.4.4Z"/>
    <path d="M171.3,193.7h-3.4c-.2,0-.4.1-.4.4v19.4c0,.8-.1,1.3-.4,1.6-.3.3-.7.4-1.3.4h-1.8s0,0,0,0h-5.2c.9-.6,1.7-1.5,2.2-2.5.6-1,.8-2.2.8-3.4,0-2-.7-3.6-2-4.8-1.3-1.2-3.2-1.8-5.7-1.8s-4.4.6-5.7,1.8c-1.3,1.2-2,2.8-2,4.8s.3,2.4.8,3.4c.6,1,1.3,1.8,2.2,2.5h-5.2s0,0,0,0,0,0,0,0h-.6c-.9,0-1.7-.2-2.2-.6-.5-.4-.8-1-.8-1.7v-.5c0-.2,0-.5,0-.7,0-1.3-.2-2.6-.5-3.7-.3-1.1-.8-2.1-1.6-2.8-.7-.8-1.6-1.4-2.8-1.8-1.1-.4-2.5-.6-4.1-.6s-2.9.2-4.3.6c-1.4.4-2.7.9-3.8,1.5h0v-1.2c0-.2-.1-.4-.4-.4h-3.4c-.2,0-.4.1-.4.4v7.7c0,.5,0,1,0,1.5,0,.5-.1.9-.2,1.3,0,.4-.3.6-.5.8s-.6.3-1.1.3h-1.7c0,0,0,0-.1,0h-4.1s0,0-.1,0h-.6c-.9,0-1.7-.2-2.2-.6-.5-.4-.8-1-.8-1.7v-9.2c0-.2-.1-.4-.4-.4h-3.1c-.2,0-.3,0-.4,0-.1,0-.2.2-.2.3v7.8c0,.7,0,1.2,0,1.7,0,.5,0,.8-.2,1.1,0,.3-.3.5-.5.6-.2.1-.5.2-1,.2h-2.4c0,0,0,0-.1,0,0,0,0,0,0,0h-.6c-.9,0-1.7-.2-2.2-.6-.5-.4-.8-1-.8-1.7v-9.2c0-.3-.1-.4-.4-.4h-3.4c-.2,0-.4.1-.4.4h0v13.4c0,.9,0,1.7,0,2.4,0,.7-.1,1.3-.3,1.8-.2.5-.5.9-.8,1.1-.4.2-.9.4-1.6.4h-.8c-.2,0-.4.1-.4.4v3c0,.2.1.4.4.4h1.4c1.2,0,2.2-.2,3.1-.5.8-.3,1.5-.8,2-1.5.5-.7.9-1.5,1.1-2.6.2-1,.3-2.2.3-3.5v-.7c.4.5.9.9,1.5,1,.6.1,1.3.2,2.2.2s0,0,.1,0c0,0,0,0,0,0h3.4c1.2,0,2.1-.1,2.8-.4.7-.3,1.2-.8,1.6-1.5h0c.4.8,1,1.3,1.7,1.5.6.2,1.3.3,2.1.3.1,0,.3,0,.4,0h0s4.4,0,4.4,0c0,0,0,0,0,0h3c.6,0,1.2,0,1.6-.1.5,0,.9-.2,1.3-.5.2.2.5.3.9.3.4,0,.8.1,1.1.2s.8,0,1.2.1h8.4c1.6,0,2.9-.1,3.9-.4,1-.3,1.8-1,2.3-2,.4,1,1,1.6,1.8,1.9.8.3,1.7.4,2.7.4,0,0,0,0,0,0h4.9c.7,0,1.5,0,2.4-.1.9,0,1.8-.3,2.6-.8.7.5,1.5.7,2.2.8.8,0,1.6.1,2.5.1h5.1s0,0,0,0h3.4c1.5,0,2.6-.4,3.3-1.1.7-.8,1-2,1-3.6v-20.4c0-.2-.1-.4-.4-.4ZM136,214c-.1.5-.4.9-.7,1.1-.3.2-.8.4-1.5.4-.6,0-1.5,0-2.5,0h-8c0-.2,0-.5.1-.8,0-.3,0-.6,0-.9v-5.1c1-.5,2.2-1,3.5-1.4,1.3-.4,2.7-.6,4-.6h0c1,0,1.9.1,2.5.3.7.2,1.2.5,1.6,1,.4.4.7,1,.8,1.6.2.6.3,1.3.3,2.1s0,1.6-.2,2.2ZM156.5,213.1c-.7.8-1.5,1.4-2.5,1.8-1-.4-1.8-1-2.5-1.8-.7-.8-1-1.8-1-3.1s.4-2.1,1-2.7c.7-.6,1.5-.9,2.5-.9s1.8.3,2.5.9c.7.6,1,1.5,1,2.7s-.3,2.3-1,3.1Z"/>
    <path d="M180.2,193.7h-3.4c-.2,0-.4.1-.4.4v24.8c0,.2.1.4.4.4h3.4c.2,0,.4-.1.4-.4v-24.8c0-.2-.1-.4-.4-.4Z"/>
    <path d="M196.9,198.4h3.1c.2,0,.4-.1.4-.4v-3.2c0-.3-.1-.4-.4-.4h-3.1c-.2,0-.4.1-.4.4v3.2c0,.3.1.4.4.4Z"/>
    <path d="M201.7,198.4h3.1c.2,0,.4-.1.4-.4v-3.2c0-.3-.1-.4-.4-.4h-3.1c-.2,0-.4.1-.4.4v3.2c0,.3.1.4.4.4Z"/>
    <path d="M221.7,222.5h-3.1c-.2,0-.4.1-.4.4v3.2c0,.2.1.4.4.4h3.1c.2,0,.4-.1.4-.4v-3.2c0-.3-.1-.4-.4-.4Z"/>
    <path d="M216.9,222.5h-3.1c-.2,0-.4.1-.4.4v3.2c0,.2.1.4.4.4h3.1c.2,0,.4-.1.4-.4v-3.2c0-.3-.1-.4-.4-.4Z"/>
    <path d="M265.2,204.9c-.7-.7-1.5-1.1-2.4-1.4s-1.9-.5-3-.5-2.1.2-3,.5c-.9.3-1.7.7-2.4,1.4-.7.6-1.2,1.4-1.6,2.5-.4,1-.6,2.2-.6,3.7v.6c0,.2,0,.4,0,.6,0,.6,0,1.2-.2,1.6-.2.4-.3.8-.5,1.1-.2.2-.5.4-.7.6-.3,0-.5.1-.8.1h-1.4s0,0,0,0h-5.3c-.2,0-.4,0-.6,0,.4-.3.9-.7,1.4-1.1.5-.5.9-1,1.2-1.5.4-.6.7-1.2.9-1.8.2-.7.4-1.4.4-2.1,0-1.8-.6-3.2-1.9-4.2-1.3-1.1-3.4-1.6-6.2-1.6h0c-1,0-2,0-3,.3-1,.2-1.8.4-2.6.7-.8.2-1.4.5-1.8.9-.5.3-.7.6-.7.9v2.4c0,.2,0,.4,0,.6,0,.2.2.3.5.5.5.3,1,.7,1.4,1.1.5.4.9.8,1.4,1.2.4.5.8,1,1.1,1.6.4.6.6,1.3.8,2.1-.7.2-1.2.2-1.7.3-.5,0-.9,0-1.3,0h-4.2s0,0,0,0h-4.3s0,0-.1,0h-.6c-.9,0-1.7-.2-2.2-.6-.5-.4-.8-1-.8-1.7v-9.2c0-.2-.1-.4-.4-.4h-3.2c-.2,0-.3,0-.4,0-.1,0-.2.2-.2.3v7.8c0,.7,0,1.2,0,1.7,0,.5-.1.8-.2,1.1,0,.3-.3.5-.5.6-.2.1-.6.2-1,.2h-2.4c-.1,0-.2,0-.3,0-.1,0-.2,0-.3,0h-1.4c-.6,0-1.1-.1-1.4-.4-.3-.3-.4-.8-.4-1.6v-12.2c0-.3-.1-.4-.4-.4h-3.4c-.2,0-.4.1-.4.4v1.6h-3.7c-.9,0-1.8.1-2.7.4s-1.6.7-2.3,1.3c-.7.6-1.2,1.3-1.6,2.3-.4,1-.6,2.2-.6,3.6s.2,2.3.5,3.2c.4.9.9,1.6,1.5,2.2.6.6,1.4,1,2.2,1.3.8.3,1.8.4,2.7.4s1.5-.1,2.2-.3c.7-.2,1.3-.6,1.8-1,.2,1.1.7,1.8,1.3,2.2.7.4,1.6.6,2.8.6h3c.1,0,.3,0,.4,0,0,0,.1,0,.2,0h3.4c1.2,0,2.1-.1,2.8-.4.7-.3,1.2-.8,1.6-1.5h0c.4.8,1,1.3,1.7,1.5.6.2,1.3.3,2.1.3.1,0,.3,0,.4,0h0s4.4,0,4.4,0h5.3c.7,0,1.5,0,2.4-.2.9-.2,1.8-.5,2.6-.9.7.4,1.5.8,2.2.9.8.1,1.6.2,2.5.2h5.5s0,0,0,0h1.2c.3,0,.7,0,1.1,0,.4,0,.8-.1,1.1-.3.4-.1.7-.3,1.1-.6.3-.2.6-.6.9-1,.7.8,1.5,1.3,2.5,1.7,1,.3,2.1.5,3.3.5h0c1.1,0,2.2-.1,3.1-.4s1.7-.8,2.4-1.4c.7-.7,1.2-1.5,1.5-2.5.4-1,.5-2.2.5-3.8s-.2-2.8-.6-3.9c-.4-1.1-.9-1.9-1.6-2.6ZM203.9,210c0,1.3-.3,2.3-.8,3-.6.7-1.4,1-2.6,1h0c-1,0-1.8-.3-2.4-.8-.6-.5-.9-1.4-.9-2.5s.3-2.5,1-3c.6-.6,1.5-.8,2.5-.8h3.3v3.2ZM242,211c-.2.5-.4.9-.8,1.3-.3.4-.6.8-1.1,1.1-.4.4-.8.7-1.2.9h0c-.3-1.5-.9-2.8-1.7-3.9-.8-1.2-1.7-2.1-2.9-2.8.3-.2.8-.3,1.5-.5.7-.2,1.6-.3,2.6-.3s2,.2,2.8.6c.7.4,1.1,1.1,1.1,2.1s0,1-.3,1.5ZM262.5,214.8c-.6.7-1.5,1.1-2.6,1.1s-2-.4-2.6-1.1c-.6-.7-.8-1.8-.8-3.4s.3-2.6.8-3.4c.6-.8,1.4-1.2,2.6-1.2,2.3,0,3.5,1.5,3.5,4.5s-.3,2.7-.8,3.4Z"/>
    <path d="M289.7,222.4h-3.5c-.2,0-.4.1-.4.4v3.2c0,.2.1.4.4.4h3.5c.2,0,.4-.1.4-.4v-3.2c0-.2-.1-.4-.4-.4Z"/>
    <path d="M307,193.7h-3.4c-.2,0-.4.1-.4.4v19.4c0,.8-.1,1.3-.4,1.6-.3.3-.7.4-1.3.4h-1.8s0,0,0,0h-.6c-.9,0-1.6-.2-2.2-.6-.5-.4-.8-.9-.9-1.6v-.5c0-.1,0-.3,0-.5,0-1.3-.2-2.5-.4-3.6-.3-1.2-.7-2.2-1.4-3-.7-.9-1.5-1.6-2.6-2.1-1.1-.5-2.5-.8-4.1-.8s-2.8.3-3.9.9c-1,.6-1.9,1.3-2.7,2.2h0c-.2.1-.1.3,0,.5l1.9,2c.2.2.3.1.5,0,.5-.5,1.1-1,1.8-1.3.7-.3,1.4-.5,2.2-.5s1.5.1,2,.5c.6.3,1,.7,1.4,1.2.3.5.6,1.1.7,1.8.1.7.2,1.4.2,2.2s0,1.1-.1,1.5c0,.4-.2.7-.4,1-.2.2-.5.4-.9.5-.4,0-.9.1-1.5.1h-9.8s0,0,0,0h-1.2c-.6,0-1.1-.1-1.4-.4-.3-.3-.4-.8-.4-1.6v-19.4c0-.2-.1-.4-.4-.4h-3.4c-.2,0-.4.1-.4.4v20.4c0,1.6.3,2.8,1,3.6.7.8,1.8,1.1,3.3,1.1h2.9s0,0,0,0h11.2c1.2,0,2.2-.1,3-.4.8-.3,1.5-.9,1.9-1.8.4.9,1,1.5,1.8,1.8.8.3,1.6.4,2.6.4,0,0,0,0,.1,0h0s3.4,0,3.4,0c1.5,0,2.6-.4,3.3-1.1.7-.8,1-2,1-3.6v-20.4c0-.2-.1-.4-.4-.4Z"/>
    <path d="M315.9,193.7h-3.4c-.2,0-.4.1-.4.4v24.8c0,.2.1.4.4.4h3.4c.2,0,.4-.1.4-.4v-24.8c0-.2-.1-.4-.4-.4Z"/>
    <path d="M341.5,221.7h-3.5c-.2,0-.4.1-.4.4v3.2c0,.2.1.4.4.4h3.5c.2,0,.4-.1.4-.4v-3.2c0-.2-.1-.4-.4-.4Z"/>
    <path d="M371,204.9c-.7-.7-1.5-1.1-2.4-1.4s-1.9-.5-3-.5-2.1.2-3,.5c-.9.3-1.7.7-2.4,1.4-.7.6-1.2,1.4-1.6,2.5-.4,1-.6,2.2-.6,3.7v.6c0,.2,0,.4,0,.6,0,.6,0,1.2-.2,1.6-.2.4-.3.8-.5,1.1-.2.2-.5.4-.7.6-.3,0-.5.1-.8.1h-1.4s0,0,0,0h-4.1s0,0-.1,0h-.6c-.9,0-1.6-.2-2.2-.6-.5-.4-.8-.9-.9-1.6v-.4c0-.2,0-.3,0-.5,0-1.3-.1-2.5-.4-3.6-.3-1.2-.7-2.2-1.4-3-.7-.9-1.5-1.6-2.6-2.1-1.1-.5-2.4-.8-4.1-.8s-2.8.3-3.8.9c-1,.6-1.9,1.3-2.7,2.2-.2.2-.1.3.1.5l1.9,2c.2.2.3.1.5,0,.5-.5,1.1-1,1.8-1.3.7-.3,1.4-.5,2.2-.5s1.5.1,2,.4c.6.3,1,.7,1.3,1.2.3.5.6,1.1.7,1.8.1.7.2,1.4.2,2.2s0,1.1-.1,1.5c0,.4-.2.7-.4,1-.2.2-.5.4-.9.5-.4,0-.9.1-1.5.1h-5.2c-.7,0-1.4,0-2,.3-.7.2-1.3.5-1.8.9-.5.4-1,1-1.3,1.7-.3.7-.5,1.6-.5,2.7,0,2.1.6,3.5,1.7,4.4,1.2.9,2.8,1.3,4.8,1.3h1.4c.2,0,.4-.1.4-.4v-3c0-.2-.1-.4-.4-.4h-1c-1.1,0-1.8-.1-2.2-.5-.4-.3-.5-.8-.5-1.5s.2-1,.4-1.4c.3-.4.8-.5,1.5-.5h0s6.3,0,6.3,0c1.2,0,2.2-.2,3-.5.8-.3,1.5-.9,1.9-1.8.4.9,1,1.5,1.8,1.8.6.2,1.3.3,2,.4.1,0,.3,0,.5,0h0s4.4,0,4.4,0c0,0,0,0,0,0h1.2c.3,0,.7,0,1.1,0s.8-.1,1.1-.3c.4-.1.7-.3,1.1-.6.3-.2.6-.6.9-1,.7.8,1.5,1.3,2.5,1.7,1,.3,2.1.5,3.3.5h0c1.1,0,2.2-.1,3.1-.4s1.7-.8,2.4-1.4c.7-.7,1.2-1.5,1.5-2.5.4-1,.5-2.2.5-3.8s-.2-2.8-.6-3.9c-.4-1.1-.9-1.9-1.6-2.6ZM368.2,214.8c-.6.7-1.5,1.1-2.6,1.1s-2-.4-2.6-1.1c-.6-.7-.8-1.8-.8-3.4s.3-2.6.8-3.4c.6-.8,1.4-1.2,2.6-1.2,2.3,0,3.5,1.5,3.5,4.5s-.3,2.7-.8,3.4Z"/>
    <path d="M381.2,193.7h-3.4c-.2,0-.4.1-.4.4v24.8c0,.2.1.4.4.4h3.4c.2,0,.4-.1.4-.4v-24.8c0-.2-.1-.4-.4-.4Z"/>
    <path d="M403.5,222.4h-3.5c-.2,0-.4.1-.4.4v3.2c0,.2.1.4.4.4h3.5c.2,0,.4-.1.4-.4v-3.2c0-.2-.1-.4-.4-.4Z"/>
    <path d="M414.6,193.7h-3.4c-.2,0-.4.1-.4.4v19.4c0,.8-.1,1.3-.4,1.6-.3.3-.7.4-1.3.4h-1.8s0,0,0,0h-.4c-.9,0-1.7-.2-2.2-.6-.5-.4-.8-1-.8-1.7h0v-9.2c0-.2-.1-.4-.4-.4h-3.4c-.2,0-.4.1-.4.4v8c0,.6,0,1.2,0,1.6,0,.5-.1.8-.2,1.1,0,.3-.3.5-.5.6-.2.1-.6.2-1,.2h-1.8c0,0-.2,0-.2,0h-.6c-.9,0-1.7-.2-2.2-.6-.5-.4-.8-1-.8-1.7v-9.2c0-.3-.1-.4-.4-.4h-3.4c-.2,0-.4.1-.4.4h0v13.4c0,.9,0,1.7,0,2.4,0,.7-.1,1.3-.3,1.8-.2.5-.5.9-.8,1.1-.4.2-.9.4-1.6.4h-.8c-.2,0-.4.1-.4.4v3c0,.2.1.4.4.4h1.4c1.2,0,2.2-.2,3.1-.5.8-.3,1.5-.8,2-1.5.5-.7.9-1.5,1.1-2.6.2-1,.3-2.2.3-3.5v-.7c.4.5.9.9,1.5,1,.6.1,1.3.2,2.2.2s0,0,.1,0c0,0,0,0,0,0h2.9c1.2,0,2.1-.1,2.8-.4.7-.3,1.2-.8,1.5-1.5.4.8,1,1.3,1.7,1.6.6.2,1.3.3,2.1.3,0,0,.1,0,.2,0h0s3.4,0,3.4,0c1.5,0,2.6-.4,3.3-1.1.7-.8,1-2,1-3.6v-20.4c0-.2-.1-.4-.4-.4Z"/>
    <path d="M423.5,193.7h-3.4c-.2,0-.4.1-.4.4v24.8c0,.2.1.4.4.4h3.4c.2,0,.4-.1.4-.4v-24.8c0-.2-.1-.4-.4-.4Z"/>
    <path d="M445,199.9h3.1c.2,0,.4-.1.4-.4v-3.2c0-.2-.1-.4-.4-.4h-3.1c-.2,0-.4.1-.4.4v3.2c0,.2.1.4.4.4Z"/>
    <path d="M449.5,204.9c-.7-.6-1.5-1.1-2.4-1.4-.9-.3-1.9-.4-3-.4s-2.1.1-3,.4c-.9.3-1.7.8-2.4,1.4-.7.7-1.2,1.5-1.6,2.6-.4,1.1-.5,2.4-.5,3.9s.2,2.7.5,3.8c.4,1,.9,1.9,1.5,2.5.7.7,1.5,1.1,2.4,1.4s2,.5,3.1.5h0c1.1,0,2.1-.2,3-.5s1.7-.8,2.4-1.4c.7-.7,1.2-1.5,1.6-2.5.4-1,.5-2.2.5-3.8s-.2-2.8-.6-3.9c-.4-1.1-.9-1.9-1.6-2.6ZM446.7,214.8c-.6.7-1.4,1.1-2.6,1.1s-2.1-.4-2.6-1.1c-.6-.7-.8-1.8-.8-3.4s.3-2.6.8-3.4c.6-.8,1.4-1.2,2.6-1.2,2.3,0,3.4,1.5,3.4,4.5s-.3,2.7-.8,3.4Z"/>
    <path d="M440.2,199.9h3.1c.2,0,.4-.1.4-.4v-3.2c0-.2-.1-.4-.4-.4h-3.1c-.2,0-.4.1-.4.4v3.2c0,.2.1.4.4.4Z"/>
    <path d="M461.4,203.7h-3.4c-.2,0-.4.1-.4.4v15.8c0,1.1-.2,1.9-.7,2.4-.4.5-1.2.8-2.2.8h-.8c-.2,0-.4.1-.4.4v3c0,.2.1.4.4.4h1.4c4.3,0,6.5-2.3,6.5-6.9v-15.9c0-.3-.1-.4-.4-.4Z"/>
    <path d="M473.7,203h-5.9c-.2,0-.4.1-.4.4v3c0,.2.1.4.4.4h4.4c2.5,0,3.7,1.1,3.7,3.3v2.5c0,.5,0,1-.1,1.4,0,.4-.2.7-.4.9-.2.2-.5.4-.9.5s-.9.2-1.6.2h-6.8c-.2,0-.4.1-.4.4v3c0,.2.1.4.4.4h8.5c.9,0,1.7,0,2.4-.3.7-.2,1.2-.5,1.7-1s.8-1.2,1-2c.2-.8.3-1.9.3-3.1h0v-3.1c0-2.3-.6-4-1.8-5.1-1.1-1.1-2.7-1.7-4.7-1.7Z"/>
    <path d="M499.2,222.4h-3.5c-.2,0-.4.1-.4.4v3.2c0,.2.1.4.4.4h3.5c.2,0,.4-.1.4-.4v-3.2c0-.2-.1-.4-.4-.4Z"/>
    <path d="M521.1,207.5c-.4-1.1-.9-1.9-1.6-2.6-.7-.7-1.5-1.1-2.4-1.4s-1.9-.5-3-.5-2.1.2-3,.5c-.9.3-1.7.7-2.4,1.4-.7.6-1.2,1.4-1.6,2.5-.4,1-.6,2.2-.6,3.7v.6c0,.2,0,.4,0,.6,0,.6,0,1.2-.2,1.6-.1.4-.3.8-.5,1.1-.2.2-.5.4-.7.6-.3,0-.5.1-.8.1h-1.4s0,0,0,0h-.4c-.9,0-1.7-.2-2.2-.6-.5-.4-.8-1-.8-1.7h0v-9.2c0-.2-.1-.4-.4-.4h-3.4c-.2,0-.4.1-.4.4v8c0,.6,0,1.2,0,1.6,0,.5,0,.8-.2,1.1,0,.3-.3.5-.5.6-.2.1-.6.2-1,.2h-1.8c0,0-.1,0-.2,0,0,0,0,0,0,0h-1.3c-.6,0-1.1-.1-1.4-.4-.3-.3-.4-.8-.4-1.6v-19.4c0-.2-.1-.4-.4-.4h-3.4c-.2,0-.4.1-.4.4v20.4c0,1.6.3,2.8,1,3.6.7.8,1.8,1.1,3.3,1.1h2.9s0,0,.1,0c0,0,0,0,0,0h2.9c1.2,0,2.1-.1,2.8-.4.7-.3,1.2-.8,1.5-1.5.4.8,1,1.3,1.7,1.6.6.2,1.3.3,2.1.3,0,0,0,0,.1,0h1.3c.3,0,.7,0,1.1,0s.8-.1,1.1-.3c.4-.1.7-.3,1.1-.6.3-.2.6-.6.9-1,.7.8,1.5,1.3,2.5,1.7,1,.3,2.1.5,3.3.5h0c1.1,0,2.2-.1,3.1-.4s1.7-.8,2.4-1.4c.7-.7,1.2-1.5,1.5-2.5.4-1,.5-2.2.5-3.8s-.2-2.8-.6-3.9ZM516.8,214.8c-.6.7-1.5,1.1-2.6,1.1s-2-.4-2.6-1.1c-.6-.7-.8-1.8-.8-3.4s.3-2.6.8-3.4c.6-.8,1.4-1.2,2.6-1.2h0c2.3,0,3.5,1.5,3.5,4.5s-.3,2.7-.8,3.4Z"/>
  </g>
</svg>